M48
; DRILL file KiCad 10.0.0 date 2026-04-10T15:47:51
; FORMAT={-:-/ absolute / metric / decimal}
; #@! TF.CreationDate,2026-04-10T15:47:51+02:00
; #@! TF.GenerationSoftware,Kicad,Pcbnew,10.0.0
; #@! TF.FileFunction,Plated,1,4,PTH
FMAT,2
METRIC
; #@! TA.AperFunction,Plated,PTH,ViaDrill
T1C0.300
; #@! TA.AperFunction,Plated,PTH,ComponentDrill
T2C0.300
; #@! TA.AperFunction,Plated,PTH,ComponentDrill
T3C0.600
; #@! TA.AperFunction,Plated,PTH,ComponentDrill
T4C1.100
; #@! TA.AperFunction,Plated,PTH,ComponentDrill
T5C3.000
%
G90
G05
T1
X84.5Y-94.0
X85.5Y-96.75
X87.463Y-91.658
X89.05Y-97.926
X90.25Y-95.75
X90.5Y-106.0
X91.5Y-98.0
X92.65Y-94.5
X93.45Y-98.05
X94.695Y-100.024
X95.0Y-89.25
X96.0Y-91.5
X96.4Y-89.25
X96.5Y-100.2
X96.9Y-108.3
X97.1Y-101.0
X98.06Y-103.043
X98.9Y-103.95
X99.1Y-105.4
X99.5Y-96.6
X100.2Y-112.4
X100.6Y-100.595
X101.25Y-106.5
X101.681Y-101.964
X102.25Y-99.0
X103.25Y-108.75
X103.6Y-83.6
X103.8Y-101.0
X103.9Y-107.1
X104.158Y-89.577
X104.919Y-107.847
X105.5Y-82.5
X105.796Y-93.785
X105.955Y-87.852
X106.139Y-99.79
X106.75Y-98.15
X106.791Y-86.1
X108.0Y-98.25
X108.75Y-113.5
X109.25Y-88.75
X109.321Y-103.95
X109.535Y-106.5
X109.75Y-92.25
X109.953Y-105.953
X110.0Y-97.15
X110.175Y-88.45
X110.275Y-81.475
X111.25Y-80.5
X111.5Y-84.75
X111.769Y-85.556
X112.076Y-108.55
X112.251Y-101.31
X113.142Y-104.323
X113.405Y-79.155
X113.497Y-107.95
X113.585Y-99.75
X113.585Y-104.665
X114.0Y-86.9
X114.5Y-100.966
X115.113Y-86.243
X115.75Y-77.0
X115.835Y-87.55
X116.0Y-83.75
X117.702Y-98.7
X118.225Y-91.277
X119.373Y-95.85
X120.4Y-87.6
X120.5Y-86.05
X121.2Y-86.2
X121.3Y-87.6
X121.5Y-73.0
X122.0Y-83.65
X122.0Y-98.5
X122.25Y-108.25
X122.75Y-95.25
X123.147Y-74.323
X123.75Y-98.5
X125.67Y-78.0
X126.767Y-106.397
X127.0Y-71.25
X127.158Y-74.19
X127.5Y-109.25
X127.524Y-110.3
X128.0Y-95.25
X128.25Y-80.5
X128.877Y-107.05
X129.0Y-99.75
X129.75Y-95.25
X130.0Y-85.5
X130.164Y-110.0
X130.3Y-107.6
X130.7Y-69.5
X130.7Y-70.6
X130.924Y-77.661
X131.041Y-84.1
X131.15Y-87.196
X131.582Y-93.7
X132.02Y-73.561
X132.717Y-90.614
X132.75Y-110.25
X133.25Y-70.0
X134.863Y-90.414
X135.25Y-110.5
X135.768Y-95.784
X135.8Y-69.3
X136.75Y-109.75
X137.2Y-99.075
X137.25Y-79.25
X137.435Y-91.0
X137.575Y-93.661
X138.0Y-82.5
X138.5Y-93.0
X138.5Y-110.25
X139.006Y-80.07
X139.5Y-85.5
X139.75Y-94.5
X140.7Y-89.396
X140.75Y-80.25
X141.0Y-69.25
X141.0Y-116.5
X141.5Y-89.396
X142.75Y-81.75
X142.75Y-99.75
X142.75Y-106.75
X143.45Y-106.75
X144.0Y-69.25
X144.0Y-85.0
X144.041Y-81.4
X144.4Y-94.7
X145.0Y-109.75
X145.6Y-105.2
X146.5Y-87.1
X147.0Y-94.4
X147.0Y-97.0
X147.25Y-78.25
X147.3Y-69.3
X147.3Y-91.2
X147.978Y-92.76
X148.0Y-109.0
X148.206Y-93.474
X148.6Y-95.7
X148.75Y-109.75
X148.9Y-94.6
X149.089Y-73.504
X149.345Y-90.95
X149.461Y-88.05
X149.75Y-79.25
X149.768Y-76.492
X149.812Y-100.3
X150.1Y-111.6
X150.2Y-107.7
X151.049Y-97.937
X151.112Y-95.1
X151.25Y-112.5
X151.25Y-113.3
X151.5Y-79.0
X151.5Y-82.5
X152.2Y-97.8
X153.292Y-76.58
X153.4Y-86.05
X154.0Y-74.362
X154.218Y-90.65
X154.4Y-96.7
X155.4Y-74.9
X156.1Y-91.1
X156.35Y-93.008
X157.3Y-100.8
X157.578Y-74.932
X157.6Y-89.3
X157.8Y-96.4
X157.87Y-82.416
X158.326Y-73.312
X158.7Y-82.6
X159.6Y-82.5
X159.69Y-94.556
X159.873Y-74.913
X160.732Y-81.822
X160.85Y-101.3
X161.7Y-96.2
X162.0Y-66.7
X162.02Y-102.35
X162.521Y-74.837
X163.3Y-98.664
X163.331Y-81.83
X163.4Y-102.65
X163.6Y-90.7
X163.792Y-108.408
X163.833Y-83.422
X163.9Y-113.9
X164.9Y-94.1
X165.1Y-108.3
X165.5Y-90.3
X166.006Y-78.878
X166.25Y-68.5
X166.3Y-97.1
X166.641Y-95.731
X167.258Y-108.658
X167.5Y-67.5
X167.862Y-113.098
X168.05Y-74.975
X168.133Y-79.233
X168.199Y-107.697
X168.22Y-78.12
X168.414Y-100.129
X168.525Y-73.8
X168.895Y-81.703
X169.0Y-89.1
X169.1Y-80.6
X169.3Y-75.2
X169.4Y-67.8
X169.677Y-95.695
X169.8Y-87.7
X169.8Y-93.5
X170.0Y-111.2
X170.3Y-102.3
X170.584Y-75.456
X170.977Y-95.451
X171.15Y-93.757
X171.299Y-73.95
X171.4Y-69.8
X171.6Y-87.6
X171.73Y-77.554
X172.148Y-82.518
X172.75Y-70.75
X172.763Y-94.261
X172.985Y-82.37
X173.014Y-89.242
X173.35Y-90.25
X173.5Y-78.75
X173.552Y-77.63
X173.592Y-89.244
X173.75Y-82.0
X173.75Y-102.25
X174.2Y-97.15
X174.2Y-103.6
X174.295Y-90.764
X174.3Y-93.2
X174.368Y-75.252
X174.6Y-76.07
X175.307Y-98.993
X175.5Y-87.85
X175.5Y-91.25
X175.731Y-97.441
X175.969Y-99.765
X176.25Y-72.75
X176.75Y-108.5
X176.812Y-79.971
X177.0Y-75.75
X177.125Y-107.2
X178.75Y-75.1
X178.96Y-72.98
X179.173Y-71.046
X179.2Y-96.9
X180.0Y-102.4
X180.436Y-82.355
X180.7Y-80.1
X180.75Y-75.1
X180.92Y-79.087
X181.2Y-96.55
X181.973Y-96.93
X182.0Y-101.2
X182.1Y-80.0
X183.2Y-93.3
X184.824Y-81.408
X185.03Y-85.971
X185.25Y-85.15
X185.5Y-83.25
X185.6Y-82.471
X186.1Y-80.4
X186.641Y-96.831
X186.8Y-94.7
X186.8Y-95.6
X186.9Y-100.0
X186.9Y-100.9
X187.064Y-102.207
X187.077Y-98.186
X187.25Y-75.65
X189.764Y-84.227
X190.0Y-77.0
X190.0Y-95.0
X190.357Y-89.305
X190.5Y-90.25
X190.687Y-94.15
X190.791Y-92.6
X191.0Y-72.25
X191.15Y-89.0
X192.0Y-93.5
X192.25Y-107.0
X192.45Y-90.5
X192.5Y-72.0
X192.7Y-95.0
X192.75Y-103.0
X192.8Y-73.219
X193.0Y-92.75
X193.598Y-93.397
X194.15Y-73.709
X194.25Y-77.0
X194.25Y-83.75
X195.0Y-100.0
X195.269Y-98.3
X195.5Y-119.0
X195.961Y-101.624
X197.1Y-113.7
X197.75Y-77.55
X198.25Y-81.5
X198.25Y-102.25
X199.0Y-77.1
X199.0Y-108.5
X199.854Y-95.8
X200.245Y-74.15
X200.25Y-84.5
X200.813Y-103.572
X201.25Y-79.0
X201.3Y-116.0
X201.581Y-98.368
X201.687Y-96.479
X202.0Y-82.8
X202.25Y-88.75
X202.317Y-92.609
X202.446Y-94.431
X202.5Y-109.75
X202.6Y-91.2
X202.75Y-84.0
X203.0Y-97.25
X203.39Y-104.35
X203.5Y-78.75
X203.75Y-80.5
X203.75Y-106.4
X204.372Y-110.947
X204.399Y-98.318
X204.6Y-124.803
X205.3Y-82.176
X206.0Y-124.75
X206.633Y-113.82
X206.8Y-98.4
X207.45Y-121.85
X207.975Y-114.75
X208.1Y-118.4
X208.114Y-103.414
X208.361Y-105.501
X208.5Y-110.5
X208.656Y-104.67
X208.73Y-106.266
X209.24Y-109.86
X210.4Y-95.8
X210.75Y-93.25
X210.929Y-98.99
X211.1Y-117.2
X213.173Y-114.919
X213.24Y-101.9
X213.4Y-108.4
X213.5Y-95.25
X214.5Y-98.0
X214.5Y-101.25
X214.5Y-107.1
X215.75Y-97.0
X216.25Y-99.8
X216.6Y-107.6
X217.4Y-107.7
X217.5Y-92.5
X221.75Y-83.5
X222.0Y-99.0
X222.469Y-96.584
X223.25Y-95.0
X224.25Y-90.5
X225.5Y-91.5
T2
X100.591Y-92.606
X100.847Y-91.649
X101.291Y-93.818
X101.547Y-92.862
X101.803Y-91.906
X102.059Y-90.949
X102.247Y-94.074
X102.503Y-93.118
X102.759Y-92.162
X103.016Y-91.206
X103.459Y-93.374
X103.716Y-92.418
T4
X161.566Y-73.723
X161.566Y-77.787
X164.086Y-73.723
X164.106Y-77.787
T5
X120.175Y-99.55
T3
G00X107.957Y-108.495
M15
G01X108.422Y-109.492
M16
G05
G00X109.795Y-112.437
M15
G01X110.133Y-113.163
M16
G05
G00X115.787Y-104.844
M15
G01X116.252Y-105.841
M16
G05
G00X117.626Y-108.786
M15
G01X117.964Y-109.511
M16
G05
M30
