%TF.GenerationSoftware,KiCad,Pcbnew,10.0.0*%
%TF.CreationDate,2026-04-10T10:26:04+02:00*%
%TF.ProjectId,Sthymuli-motherboard,53746879-6d75-46c6-992d-6d6f74686572,rev?*%
%TF.SameCoordinates,Original*%
%TF.FileFunction,Soldermask,Top*%
%TF.FilePolarity,Negative*%
%FSLAX46Y46*%
G04 Gerber Fmt 4.6, Leading zero omitted, Abs format (unit mm)*
G04 Created by KiCad (PCBNEW 10.0.0) date 2026-04-10 10:26:04*
%MOMM*%
%LPD*%
G01*
G04 APERTURE LIST*
G04 Aperture macros list*
%AMRoundRect*
0 Rectangle with rounded corners*
0 $1 Rounding radius*
0 $2 $3 $4 $5 $6 $7 $8 $9 X,Y pos of 4 corners*
0 Add a 4 corners polygon primitive as box body*
4,1,4,$2,$3,$4,$5,$6,$7,$8,$9,$2,$3,0*
0 Add four circle primitives for the rounded corners*
1,1,$1+$1,$2,$3*
1,1,$1+$1,$4,$5*
1,1,$1+$1,$6,$7*
1,1,$1+$1,$8,$9*
0 Add four rect primitives between the rounded corners*
20,1,$1+$1,$2,$3,$4,$5,0*
20,1,$1+$1,$4,$5,$6,$7,0*
20,1,$1+$1,$6,$7,$8,$9,0*
20,1,$1+$1,$8,$9,$2,$3,0*%
%AMHorizOval*
0 Thick line with rounded ends*
0 $1 width*
0 $2 $3 position (X,Y) of the first rounded end (center of the circle)*
0 $4 $5 position (X,Y) of the second rounded end (center of the circle)*
0 Add line between two ends*
20,1,$1,$2,$3,$4,$5,0*
0 Add two circle primitives to create the rounded ends*
1,1,$1,$2,$3*
1,1,$1,$4,$5*%
%AMRotRect*
0 Rectangle, with rotation*
0 The origin of the aperture is its center*
0 $1 length*
0 $2 width*
0 $3 Rotation angle, in degrees counterclockwise*
0 Add horizontal line*
21,1,$1,$2,0,0,$3*%
%AMFreePoly0*
4,1,23,0.500000,-0.750000,0.000000,-0.750000,0.000000,-0.745722,-0.065263,-0.745722,-0.191342,-0.711940,-0.304381,-0.646677,-0.396677,-0.554381,-0.461940,-0.441342,-0.495722,-0.315263,-0.495722,-0.250000,-0.500000,-0.250000,-0.500000,0.250000,-0.495722,0.250000,-0.495722,0.315263,-0.461940,0.441342,-0.396677,0.554381,-0.304381,0.646677,-0.191342,0.711940,-0.065263,0.745722,0.000000,0.745722,
0.000000,0.750000,0.500000,0.750000,0.500000,-0.750000,0.500000,-0.750000,$1*%
%AMFreePoly1*
4,1,23,0.000000,0.745722,0.065263,0.745722,0.191342,0.711940,0.304381,0.646677,0.396677,0.554381,0.461940,0.441342,0.495722,0.315263,0.495722,0.250000,0.500000,0.250000,0.500000,-0.250000,0.495722,-0.250000,0.495722,-0.315263,0.461940,-0.441342,0.396677,-0.554381,0.304381,-0.646677,0.191342,-0.711940,0.065263,-0.745722,0.000000,-0.745722,0.000000,-0.750000,-0.500000,-0.750000,
-0.500000,0.750000,0.000000,0.750000,0.000000,0.745722,0.000000,0.745722,$1*%
%AMFreePoly2*
4,1,17,1.371000,0.720000,0.950000,0.720000,0.950000,0.580000,1.370000,0.580000,1.370000,0.080000,0.950000,0.080000,0.950000,-0.080000,1.370000,-0.080000,1.370000,-0.580000,0.950000,-0.580000,0.950000,-0.720000,1.370000,-0.720000,1.370000,-1.225000,-0.950000,-1.225000,-0.950000,1.225000,1.371000,1.225000,1.371000,0.720000,1.371000,0.720000,$1*%
%AMFreePoly3*
4,1,71,0.086104,0.207873,0.159099,0.159099,0.207873,0.086104,0.225000,0.000000,0.207873,-0.086104,0.159099,-0.159099,0.086104,-0.207873,0.000000,-0.225000,-0.090415,-0.225000,-0.267771,-0.260278,-0.434836,-0.329479,-0.585191,-0.429943,-0.713057,-0.557809,-0.813521,-0.708164,-0.882722,-0.875229,-0.918000,-1.052585,-0.918000,-1.233415,-0.882722,-1.410771,-0.813521,-1.577836,-0.713057,-1.728191,
-0.585191,-1.856057,-0.434836,-1.956521,-0.267771,-2.025722,-0.090415,-2.061000,0.090415,-2.061000,0.267771,-2.025722,0.434836,-1.956521,0.585191,-1.856057,0.713057,-1.728191,0.813521,-1.577836,0.882722,-1.410771,0.918000,-1.233415,0.918000,-1.143000,0.935127,-1.056896,0.983901,-0.983901,1.056896,-0.935127,1.143000,-0.918000,1.229104,-0.935127,1.302099,-0.983901,1.350873,-1.056896,
1.368000,-1.143000,1.349979,-1.364318,1.296390,-1.579804,1.208644,-1.783783,1.089055,-1.970878,0.940773,-2.136162,0.767704,-2.275279,0.574408,-2.384563,0.365979,-2.461136,0.147907,-2.502981,-0.074062,-2.508994,-0.294080,-2.479017,-0.506349,-2.413840,-0.705278,-2.315181,-0.885624,-2.185638,-1.042638,-2.028624,-1.172181,-1.848278,-1.270840,-1.649349,-1.336017,-1.437080,-1.365994,-1.217062,
-1.359981,-0.995093,-1.318136,-0.777021,-1.241563,-0.568592,-1.132279,-0.375296,-0.993162,-0.202227,-0.827878,-0.053945,-0.640783,0.065644,-0.436804,0.153390,-0.221318,0.206979,0.000000,0.225000,0.086104,0.207873,0.086104,0.207873,$1*%
%AMFreePoly4*
4,1,14,0.318306,0.106694,0.381694,0.043306,0.400000,-0.000888,0.400000,-0.062500,0.381694,-0.106694,0.337500,-0.125000,-0.337500,-0.125000,-0.381694,-0.106694,-0.400000,-0.062500,-0.400000,0.062500,-0.381694,0.106694,-0.337500,0.125000,0.274112,0.125000,0.318306,0.106694,0.318306,0.106694,$1*%
%AMFreePoly5*
4,1,14,0.381694,0.106694,0.400000,0.062500,0.400000,0.000888,0.381694,-0.043306,0.318306,-0.106694,0.274112,-0.125000,-0.337500,-0.125000,-0.381694,-0.106694,-0.400000,-0.062500,-0.400000,0.062500,-0.381694,0.106694,-0.337500,0.125000,0.337500,0.125000,0.381694,0.106694,0.381694,0.106694,$1*%
%AMFreePoly6*
4,1,14,0.106694,0.381694,0.125000,0.337500,0.125000,-0.337500,0.106694,-0.381694,0.062500,-0.400000,-0.062500,-0.400000,-0.106694,-0.381694,-0.125000,-0.337500,-0.125000,0.274112,-0.106694,0.318306,-0.043306,0.381694,0.000888,0.400000,0.062500,0.400000,0.106694,0.381694,0.106694,0.381694,$1*%
%AMFreePoly7*
4,1,14,0.043306,0.381694,0.106694,0.318306,0.125000,0.274112,0.125000,-0.337500,0.106694,-0.381694,0.062500,-0.400000,-0.062500,-0.400000,-0.106694,-0.381694,-0.125000,-0.337500,-0.125000,0.337500,-0.106694,0.381694,-0.062500,0.400000,-0.000888,0.400000,0.043306,0.381694,0.043306,0.381694,$1*%
%AMFreePoly8*
4,1,14,0.381694,0.106694,0.400000,0.062500,0.400000,-0.062500,0.381694,-0.106694,0.337500,-0.125000,-0.274112,-0.125000,-0.318306,-0.106694,-0.381694,-0.043306,-0.400000,0.000888,-0.400000,0.062500,-0.381694,0.106694,-0.337500,0.125000,0.337500,0.125000,0.381694,0.106694,0.381694,0.106694,$1*%
%AMFreePoly9*
4,1,14,0.381694,0.106694,0.400000,0.062500,0.400000,-0.062500,0.381694,-0.106694,0.337500,-0.125000,-0.337500,-0.125000,-0.381694,-0.106694,-0.400000,-0.062500,-0.400000,-0.000888,-0.381694,0.043306,-0.318306,0.106694,-0.274112,0.125000,0.337500,0.125000,0.381694,0.106694,0.381694,0.106694,$1*%
%AMFreePoly10*
4,1,14,0.106694,0.381694,0.125000,0.337500,0.125000,-0.274112,0.106694,-0.318306,0.043306,-0.381694,-0.000888,-0.400000,-0.062500,-0.400000,-0.106694,-0.381694,-0.125000,-0.337500,-0.125000,0.337500,-0.106694,0.381694,-0.062500,0.400000,0.062500,0.400000,0.106694,0.381694,0.106694,0.381694,$1*%
%AMFreePoly11*
4,1,14,0.106694,0.381694,0.125000,0.337500,0.125000,-0.337500,0.106694,-0.381694,0.062500,-0.400000,0.000888,-0.400000,-0.043306,-0.381694,-0.106694,-0.318306,-0.125000,-0.274112,-0.125000,0.337500,-0.106694,0.381694,-0.062500,0.400000,0.062500,0.400000,0.106694,0.381694,0.106694,0.381694,$1*%
G04 Aperture macros list end*
%ADD10C,0.010000*%
%ADD11C,3.200000*%
%ADD12FreePoly0,270.000000*%
%ADD13FreePoly1,270.000000*%
%ADD14RoundRect,0.200000X0.275000X-0.200000X0.275000X0.200000X-0.275000X0.200000X-0.275000X-0.200000X0*%
%ADD15RoundRect,0.140000X-0.170000X0.140000X-0.170000X-0.140000X0.170000X-0.140000X0.170000X0.140000X0*%
%ADD16RoundRect,0.140000X0.170000X-0.140000X0.170000X0.140000X-0.170000X0.140000X-0.170000X-0.140000X0*%
%ADD17RoundRect,0.200000X-0.200000X-0.275000X0.200000X-0.275000X0.200000X0.275000X-0.200000X0.275000X0*%
%ADD18RoundRect,0.200000X-0.275000X0.200000X-0.275000X-0.200000X0.275000X-0.200000X0.275000X0.200000X0*%
%ADD19RoundRect,0.250000X0.625000X-0.312500X0.625000X0.312500X-0.625000X0.312500X-0.625000X-0.312500X0*%
%ADD20RoundRect,0.140000X-0.140000X-0.170000X0.140000X-0.170000X0.140000X0.170000X-0.140000X0.170000X0*%
%ADD21RoundRect,0.125000X-0.190000X-0.125000X0.190000X-0.125000X0.190000X0.125000X-0.190000X0.125000X0*%
%ADD22FreePoly2,0.000000*%
%ADD23RoundRect,0.150000X-0.150000X0.512500X-0.150000X-0.512500X0.150000X-0.512500X0.150000X0.512500X0*%
%ADD24RoundRect,0.090000X-0.673455X0.334153X0.083666X-0.747128X0.673455X-0.334153X-0.083666X0.747128X0*%
%ADD25RoundRect,0.250000X-0.475000X0.250000X-0.475000X-0.250000X0.475000X-0.250000X0.475000X0.250000X0*%
%ADD26RoundRect,0.125000X0.125000X-0.190000X0.125000X0.190000X-0.125000X0.190000X-0.125000X-0.190000X0*%
%ADD27FreePoly2,90.000000*%
%ADD28RoundRect,0.090000X-0.360000X0.660000X-0.360000X-0.660000X0.360000X-0.660000X0.360000X0.660000X0*%
%ADD29RoundRect,0.250000X-0.250000X-0.475000X0.250000X-0.475000X0.250000X0.475000X-0.250000X0.475000X0*%
%ADD30RoundRect,0.480000X1.270000X-1.120000X1.270000X1.120000X-1.270000X1.120000X-1.270000X-1.120000X0*%
%ADD31RoundRect,0.090000X-0.583159X-0.373665X0.691863X-0.032024X0.583159X0.373665X-0.691863X0.032024X0*%
%ADD32RoundRect,0.097500X0.571385X0.388628X-0.689148X0.050869X-0.571385X-0.388628X0.689148X-0.050869X0*%
%ADD33RoundRect,0.097500X-0.388628X0.571385X-0.050869X-0.689148X0.388628X-0.571385X0.050869X0.689148X0*%
%ADD34RoundRect,0.090000X0.686913X-0.088603X-0.509413X0.469253X-0.686913X0.088603X0.509413X-0.469253X0*%
%ADD35RoundRect,0.097500X-0.687511X0.069573X0.495220X-0.481943X0.687511X-0.069573X-0.495220X0.481943X0*%
%ADD36RoundRect,0.097500X-0.069573X-0.687511X0.481943X0.495220X0.069573X0.687511X-0.481943X-0.495220X0*%
%ADD37RoundRect,0.275000X-0.475000X-0.275000X0.475000X-0.275000X0.475000X0.275000X-0.475000X0.275000X0*%
%ADD38RoundRect,0.250000X-0.300000X0.300000X-0.300000X-0.300000X0.300000X-0.300000X0.300000X0.300000X0*%
%ADD39C,2.000000*%
%ADD40RoundRect,0.200000X0.200000X0.275000X-0.200000X0.275000X-0.200000X-0.275000X0.200000X-0.275000X0*%
%ADD41C,0.235000*%
%ADD42RoundRect,0.250000X0.250000X0.475000X-0.250000X0.475000X-0.250000X-0.475000X0.250000X-0.475000X0*%
%ADD43RoundRect,0.250000X-0.300000X-0.300000X0.300000X-0.300000X0.300000X0.300000X-0.300000X0.300000X0*%
%ADD44RoundRect,0.140000X0.140000X0.170000X-0.140000X0.170000X-0.140000X-0.170000X0.140000X-0.170000X0*%
%ADD45RoundRect,0.150000X0.150000X-0.587500X0.150000X0.587500X-0.150000X0.587500X-0.150000X-0.587500X0*%
%ADD46RoundRect,0.090000X-0.660000X-0.360000X0.660000X-0.360000X0.660000X0.360000X-0.660000X0.360000X0*%
%ADD47RoundRect,0.150000X0.150000X0.200000X-0.150000X0.200000X-0.150000X-0.200000X0.150000X-0.200000X0*%
%ADD48RoundRect,0.050000X-0.050000X0.300000X-0.050000X-0.300000X0.050000X-0.300000X0.050000X0.300000X0*%
%ADD49RoundRect,0.050000X-0.300000X0.050000X-0.300000X-0.050000X0.300000X-0.050000X0.300000X0.050000X0*%
%ADD50R,2.900000X2.900000*%
%ADD51RoundRect,0.150000X0.875000X0.150000X-0.875000X0.150000X-0.875000X-0.150000X0.875000X-0.150000X0*%
%ADD52C,0.650000*%
%ADD53HorizOval,1.000000X-0.232440X0.498469X0.232440X-0.498469X0*%
%ADD54HorizOval,1.000000X-0.169047X0.362523X0.169047X-0.362523X0*%
%ADD55RoundRect,0.150000X0.062684X-0.489357X0.334577X-0.362572X-0.062684X0.489357X-0.334577X0.362572X0*%
%ADD56RoundRect,0.075000X0.162354X-0.525634X0.298300X-0.462241X-0.162354X0.525634X-0.298300X0.462241X0*%
%ADD57RoundRect,0.162500X0.447500X0.162500X-0.447500X0.162500X-0.447500X-0.162500X0.447500X-0.162500X0*%
%ADD58RoundRect,0.142500X-1.357500X-0.332500X1.357500X-0.332500X1.357500X0.332500X-1.357500X0.332500X0*%
%ADD59RoundRect,0.390000X-0.910000X-1.610000X0.910000X-1.610000X0.910000X1.610000X-0.910000X1.610000X0*%
%ADD60RoundRect,0.300000X0.206218X-1.042820X1.006218X0.342820X-0.206218X1.042820X-1.006218X-0.342820X0*%
%ADD61RoundRect,0.150000X-0.825000X-0.150000X0.825000X-0.150000X0.825000X0.150000X-0.825000X0.150000X0*%
%ADD62RoundRect,0.090000X-0.691863X-0.032024X0.583159X-0.373665X0.691863X0.032024X-0.583159X0.373665X0*%
%ADD63RoundRect,0.097500X0.689148X0.050869X-0.571385X0.388628X-0.689148X-0.050869X0.571385X-0.388628X0*%
%ADD64RoundRect,0.097500X-0.050869X0.689148X-0.388628X-0.571385X0.050869X-0.689148X0.388628X0.571385X0*%
%ADD65RoundRect,0.190500X0.444500X-1.079500X0.444500X1.079500X-0.444500X1.079500X-0.444500X-1.079500X0*%
%ADD66RoundRect,0.090000X0.466577X0.511865X-0.676577X-0.148135X-0.466577X-0.511865X0.676577X0.148135X0*%
%ADD67RoundRect,0.097500X-0.451332X-0.523271X0.678832X0.129229X0.451332X0.523271X-0.678832X-0.129229X0*%
%ADD68RoundRect,0.097500X0.523271X-0.451332X-0.129229X0.678832X-0.523271X0.451332X0.129229X-0.678832X0*%
%ADD69RotRect,1.500000X0.900000X30.000000*%
%ADD70RotRect,1.500000X0.900000X210.000000*%
%ADD71RotRect,1.500000X0.900000X300.000000*%
%ADD72C,0.600000*%
%ADD73RotRect,3.900000X3.900000X300.000000*%
%ADD74C,8.000000*%
%ADD75RoundRect,0.150000X-0.386154X0.368838X0.126346X-0.518838X0.386154X-0.368838X-0.126346X0.518838X0*%
%ADD76FreePoly3,270.000000*%
%ADD77C,0.900000*%
%ADD78RoundRect,0.090000X-0.518554X0.544336X-0.176913X-0.730686X0.518554X-0.544336X0.176913X0.730686X0*%
%ADD79RoundRect,0.250000X0.475000X-0.250000X0.475000X0.250000X-0.475000X0.250000X-0.475000X-0.250000X0*%
%ADD80RoundRect,0.125000X0.190000X0.125000X-0.190000X0.125000X-0.190000X-0.125000X0.190000X-0.125000X0*%
%ADD81FreePoly2,180.000000*%
%ADD82RoundRect,0.125000X-0.125000X0.190000X-0.125000X-0.190000X0.125000X-0.190000X0.125000X0.190000X0*%
%ADD83FreePoly2,270.000000*%
%ADD84RoundRect,0.150000X-0.150000X-0.200000X0.150000X-0.200000X0.150000X0.200000X-0.150000X0.200000X0*%
%ADD85RotRect,1.900000X1.000000X145.000000*%
%ADD86FreePoly4,270.000000*%
%ADD87RoundRect,0.062500X-0.062500X0.337500X-0.062500X-0.337500X0.062500X-0.337500X0.062500X0.337500X0*%
%ADD88FreePoly5,270.000000*%
%ADD89FreePoly6,270.000000*%
%ADD90RoundRect,0.062500X-0.337500X0.062500X-0.337500X-0.062500X0.337500X-0.062500X0.337500X0.062500X0*%
%ADD91FreePoly7,270.000000*%
%ADD92FreePoly8,270.000000*%
%ADD93FreePoly9,270.000000*%
%ADD94FreePoly10,270.000000*%
%ADD95FreePoly11,270.000000*%
%ADD96R,2.400000X2.400000*%
%ADD97RoundRect,0.140000X-0.017173X-0.219557X0.212189X-0.058955X0.017173X0.219557X-0.212189X0.058955X0*%
%ADD98RoundRect,0.087500X-0.087500X0.225000X-0.087500X-0.225000X0.087500X-0.225000X0.087500X0.225000X0*%
%ADD99RoundRect,0.087500X-0.225000X0.087500X-0.225000X-0.087500X0.225000X-0.087500X0.225000X0.087500X0*%
%ADD100RoundRect,0.250000X0.300000X-0.300000X0.300000X0.300000X-0.300000X0.300000X-0.300000X-0.300000X0*%
G04 APERTURE END LIST*
%TO.C,JP4*%
G36*
X207950000Y-95400000D02*
G01*
X209450000Y-95400000D01*
X209450000Y-95700000D01*
X207950000Y-95700000D01*
X207950000Y-95400000D01*
G37*
D10*
%TO.C,U3*%
X149725500Y-93911000D02*
X149731500Y-93911000D01*
X149737500Y-93913000D01*
X149743500Y-93914000D01*
X149749500Y-93916000D01*
X149755500Y-93918000D01*
X149761500Y-93920000D01*
X149766500Y-93923000D01*
X149772500Y-93926000D01*
X149777500Y-93929000D01*
X149783500Y-93933000D01*
X149788500Y-93937000D01*
X149792500Y-93941000D01*
X149797500Y-93945000D01*
X149801500Y-93950000D01*
X149805500Y-93954000D01*
X149809500Y-93959000D01*
X149813500Y-93965000D01*
X149816500Y-93970000D01*
X149819500Y-93976000D01*
X149822500Y-93981000D01*
X149824500Y-93987000D01*
X149826500Y-93993000D01*
X149828500Y-93999000D01*
X149829500Y-94005000D01*
X149831500Y-94011000D01*
X149831500Y-94017000D01*
X149832500Y-94024000D01*
X149832500Y-94030000D01*
X149832500Y-94170000D01*
X149832500Y-94176000D01*
X149831500Y-94183000D01*
X149831500Y-94189000D01*
X149829500Y-94195000D01*
X149828500Y-94201000D01*
X149826500Y-94207000D01*
X149824500Y-94213000D01*
X149822500Y-94219000D01*
X149819500Y-94224000D01*
X149816500Y-94230000D01*
X149813500Y-94235000D01*
X149809500Y-94241000D01*
X149805500Y-94246000D01*
X149801500Y-94250000D01*
X149797500Y-94255000D01*
X149792500Y-94259000D01*
X149788500Y-94263000D01*
X149783500Y-94267000D01*
X149777500Y-94271000D01*
X149772500Y-94274000D01*
X149766500Y-94277000D01*
X149761500Y-94280000D01*
X149755500Y-94282000D01*
X149749500Y-94284000D01*
X149743500Y-94286000D01*
X149737500Y-94287000D01*
X149731500Y-94289000D01*
X149725500Y-94289000D01*
X149718500Y-94290000D01*
X149712500Y-94290000D01*
X149212500Y-94290000D01*
X149206500Y-94290000D01*
X149199500Y-94289000D01*
X149193500Y-94289000D01*
X149187500Y-94287000D01*
X149181500Y-94286000D01*
X149175500Y-94284000D01*
X149169500Y-94282000D01*
X149163500Y-94280000D01*
X149158500Y-94277000D01*
X149152500Y-94274000D01*
X149147500Y-94271000D01*
X149141500Y-94267000D01*
X149136500Y-94263000D01*
X149132500Y-94259000D01*
X149127500Y-94255000D01*
X149123500Y-94250000D01*
X149119500Y-94246000D01*
X149115500Y-94241000D01*
X149111500Y-94235000D01*
X149108500Y-94230000D01*
X149105500Y-94224000D01*
X149102500Y-94219000D01*
X149100500Y-94213000D01*
X149098500Y-94207000D01*
X149096500Y-94201000D01*
X149095500Y-94195000D01*
X149093500Y-94189000D01*
X149093500Y-94183000D01*
X149092500Y-94176000D01*
X149092500Y-94170000D01*
X149092500Y-94030000D01*
X149092500Y-94024000D01*
X149093500Y-94017000D01*
X149093500Y-94011000D01*
X149095500Y-94005000D01*
X149096500Y-93999000D01*
X149098500Y-93993000D01*
X149100500Y-93987000D01*
X149102500Y-93981000D01*
X149105500Y-93976000D01*
X149108500Y-93970000D01*
X149111500Y-93965000D01*
X149115500Y-93959000D01*
X149119500Y-93954000D01*
X149123500Y-93950000D01*
X149127500Y-93945000D01*
X149132500Y-93941000D01*
X149136500Y-93937000D01*
X149141500Y-93933000D01*
X149147500Y-93929000D01*
X149152500Y-93926000D01*
X149158500Y-93923000D01*
X149163500Y-93920000D01*
X149169500Y-93918000D01*
X149175500Y-93916000D01*
X149181500Y-93914000D01*
X149187500Y-93913000D01*
X149193500Y-93911000D01*
X149199500Y-93911000D01*
X149206500Y-93910000D01*
X149212500Y-93910000D01*
X149712500Y-93910000D01*
X149718500Y-93910000D01*
X149725500Y-93911000D01*
G36*
X149725500Y-93911000D02*
G01*
X149731500Y-93911000D01*
X149737500Y-93913000D01*
X149743500Y-93914000D01*
X149749500Y-93916000D01*
X149755500Y-93918000D01*
X149761500Y-93920000D01*
X149766500Y-93923000D01*
X149772500Y-93926000D01*
X149777500Y-93929000D01*
X149783500Y-93933000D01*
X149788500Y-93937000D01*
X149792500Y-93941000D01*
X149797500Y-93945000D01*
X149801500Y-93950000D01*
X149805500Y-93954000D01*
X149809500Y-93959000D01*
X149813500Y-93965000D01*
X149816500Y-93970000D01*
X149819500Y-93976000D01*
X149822500Y-93981000D01*
X149824500Y-93987000D01*
X149826500Y-93993000D01*
X149828500Y-93999000D01*
X149829500Y-94005000D01*
X149831500Y-94011000D01*
X149831500Y-94017000D01*
X149832500Y-94024000D01*
X149832500Y-94030000D01*
X149832500Y-94170000D01*
X149832500Y-94176000D01*
X149831500Y-94183000D01*
X149831500Y-94189000D01*
X149829500Y-94195000D01*
X149828500Y-94201000D01*
X149826500Y-94207000D01*
X149824500Y-94213000D01*
X149822500Y-94219000D01*
X149819500Y-94224000D01*
X149816500Y-94230000D01*
X149813500Y-94235000D01*
X149809500Y-94241000D01*
X149805500Y-94246000D01*
X149801500Y-94250000D01*
X149797500Y-94255000D01*
X149792500Y-94259000D01*
X149788500Y-94263000D01*
X149783500Y-94267000D01*
X149777500Y-94271000D01*
X149772500Y-94274000D01*
X149766500Y-94277000D01*
X149761500Y-94280000D01*
X149755500Y-94282000D01*
X149749500Y-94284000D01*
X149743500Y-94286000D01*
X149737500Y-94287000D01*
X149731500Y-94289000D01*
X149725500Y-94289000D01*
X149718500Y-94290000D01*
X149712500Y-94290000D01*
X149212500Y-94290000D01*
X149206500Y-94290000D01*
X149199500Y-94289000D01*
X149193500Y-94289000D01*
X149187500Y-94287000D01*
X149181500Y-94286000D01*
X149175500Y-94284000D01*
X149169500Y-94282000D01*
X149163500Y-94280000D01*
X149158500Y-94277000D01*
X149152500Y-94274000D01*
X149147500Y-94271000D01*
X149141500Y-94267000D01*
X149136500Y-94263000D01*
X149132500Y-94259000D01*
X149127500Y-94255000D01*
X149123500Y-94250000D01*
X149119500Y-94246000D01*
X149115500Y-94241000D01*
X149111500Y-94235000D01*
X149108500Y-94230000D01*
X149105500Y-94224000D01*
X149102500Y-94219000D01*
X149100500Y-94213000D01*
X149098500Y-94207000D01*
X149096500Y-94201000D01*
X149095500Y-94195000D01*
X149093500Y-94189000D01*
X149093500Y-94183000D01*
X149092500Y-94176000D01*
X149092500Y-94170000D01*
X149092500Y-94030000D01*
X149092500Y-94024000D01*
X149093500Y-94017000D01*
X149093500Y-94011000D01*
X149095500Y-94005000D01*
X149096500Y-93999000D01*
X149098500Y-93993000D01*
X149100500Y-93987000D01*
X149102500Y-93981000D01*
X149105500Y-93976000D01*
X149108500Y-93970000D01*
X149111500Y-93965000D01*
X149115500Y-93959000D01*
X149119500Y-93954000D01*
X149123500Y-93950000D01*
X149127500Y-93945000D01*
X149132500Y-93941000D01*
X149136500Y-93937000D01*
X149141500Y-93933000D01*
X149147500Y-93929000D01*
X149152500Y-93926000D01*
X149158500Y-93923000D01*
X149163500Y-93920000D01*
X149169500Y-93918000D01*
X149175500Y-93916000D01*
X149181500Y-93914000D01*
X149187500Y-93913000D01*
X149193500Y-93911000D01*
X149199500Y-93911000D01*
X149206500Y-93910000D01*
X149212500Y-93910000D01*
X149712500Y-93910000D01*
X149718500Y-93910000D01*
X149725500Y-93911000D01*
G37*
X149725500Y-94411000D02*
X149731500Y-94411000D01*
X149737500Y-94413000D01*
X149743500Y-94414000D01*
X149749500Y-94416000D01*
X149755500Y-94418000D01*
X149761500Y-94420000D01*
X149766500Y-94423000D01*
X149772500Y-94426000D01*
X149777500Y-94429000D01*
X149783500Y-94433000D01*
X149788500Y-94437000D01*
X149792500Y-94441000D01*
X149797500Y-94445000D01*
X149801500Y-94450000D01*
X149805500Y-94454000D01*
X149809500Y-94459000D01*
X149813500Y-94465000D01*
X149816500Y-94470000D01*
X149819500Y-94476000D01*
X149822500Y-94481000D01*
X149824500Y-94487000D01*
X149826500Y-94493000D01*
X149828500Y-94499000D01*
X149829500Y-94505000D01*
X149831500Y-94511000D01*
X149831500Y-94517000D01*
X149832500Y-94524000D01*
X149832500Y-94530000D01*
X149832500Y-94670000D01*
X149832500Y-94676000D01*
X149831500Y-94683000D01*
X149831500Y-94689000D01*
X149829500Y-94695000D01*
X149828500Y-94701000D01*
X149826500Y-94707000D01*
X149824500Y-94713000D01*
X149822500Y-94719000D01*
X149819500Y-94724000D01*
X149816500Y-94730000D01*
X149813500Y-94735000D01*
X149809500Y-94741000D01*
X149805500Y-94746000D01*
X149801500Y-94750000D01*
X149797500Y-94755000D01*
X149792500Y-94759000D01*
X149788500Y-94763000D01*
X149783500Y-94767000D01*
X149777500Y-94771000D01*
X149772500Y-94774000D01*
X149766500Y-94777000D01*
X149761500Y-94780000D01*
X149755500Y-94782000D01*
X149749500Y-94784000D01*
X149743500Y-94786000D01*
X149737500Y-94787000D01*
X149731500Y-94789000D01*
X149725500Y-94789000D01*
X149718500Y-94790000D01*
X149712500Y-94790000D01*
X149212500Y-94790000D01*
X149206500Y-94790000D01*
X149199500Y-94789000D01*
X149193500Y-94789000D01*
X149187500Y-94787000D01*
X149181500Y-94786000D01*
X149175500Y-94784000D01*
X149169500Y-94782000D01*
X149163500Y-94780000D01*
X149158500Y-94777000D01*
X149152500Y-94774000D01*
X149147500Y-94771000D01*
X149141500Y-94767000D01*
X149136500Y-94763000D01*
X149132500Y-94759000D01*
X149127500Y-94755000D01*
X149123500Y-94750000D01*
X149119500Y-94746000D01*
X149115500Y-94741000D01*
X149111500Y-94735000D01*
X149108500Y-94730000D01*
X149105500Y-94724000D01*
X149102500Y-94719000D01*
X149100500Y-94713000D01*
X149098500Y-94707000D01*
X149096500Y-94701000D01*
X149095500Y-94695000D01*
X149093500Y-94689000D01*
X149093500Y-94683000D01*
X149092500Y-94676000D01*
X149092500Y-94670000D01*
X149092500Y-94530000D01*
X149092500Y-94524000D01*
X149093500Y-94517000D01*
X149093500Y-94511000D01*
X149095500Y-94505000D01*
X149096500Y-94499000D01*
X149098500Y-94493000D01*
X149100500Y-94487000D01*
X149102500Y-94481000D01*
X149105500Y-94476000D01*
X149108500Y-94470000D01*
X149111500Y-94465000D01*
X149115500Y-94459000D01*
X149119500Y-94454000D01*
X149123500Y-94450000D01*
X149127500Y-94445000D01*
X149132500Y-94441000D01*
X149136500Y-94437000D01*
X149141500Y-94433000D01*
X149147500Y-94429000D01*
X149152500Y-94426000D01*
X149158500Y-94423000D01*
X149163500Y-94420000D01*
X149169500Y-94418000D01*
X149175500Y-94416000D01*
X149181500Y-94414000D01*
X149187500Y-94413000D01*
X149193500Y-94411000D01*
X149199500Y-94411000D01*
X149206500Y-94410000D01*
X149212500Y-94410000D01*
X149712500Y-94410000D01*
X149718500Y-94410000D01*
X149725500Y-94411000D01*
G36*
X149725500Y-94411000D02*
G01*
X149731500Y-94411000D01*
X149737500Y-94413000D01*
X149743500Y-94414000D01*
X149749500Y-94416000D01*
X149755500Y-94418000D01*
X149761500Y-94420000D01*
X149766500Y-94423000D01*
X149772500Y-94426000D01*
X149777500Y-94429000D01*
X149783500Y-94433000D01*
X149788500Y-94437000D01*
X149792500Y-94441000D01*
X149797500Y-94445000D01*
X149801500Y-94450000D01*
X149805500Y-94454000D01*
X149809500Y-94459000D01*
X149813500Y-94465000D01*
X149816500Y-94470000D01*
X149819500Y-94476000D01*
X149822500Y-94481000D01*
X149824500Y-94487000D01*
X149826500Y-94493000D01*
X149828500Y-94499000D01*
X149829500Y-94505000D01*
X149831500Y-94511000D01*
X149831500Y-94517000D01*
X149832500Y-94524000D01*
X149832500Y-94530000D01*
X149832500Y-94670000D01*
X149832500Y-94676000D01*
X149831500Y-94683000D01*
X149831500Y-94689000D01*
X149829500Y-94695000D01*
X149828500Y-94701000D01*
X149826500Y-94707000D01*
X149824500Y-94713000D01*
X149822500Y-94719000D01*
X149819500Y-94724000D01*
X149816500Y-94730000D01*
X149813500Y-94735000D01*
X149809500Y-94741000D01*
X149805500Y-94746000D01*
X149801500Y-94750000D01*
X149797500Y-94755000D01*
X149792500Y-94759000D01*
X149788500Y-94763000D01*
X149783500Y-94767000D01*
X149777500Y-94771000D01*
X149772500Y-94774000D01*
X149766500Y-94777000D01*
X149761500Y-94780000D01*
X149755500Y-94782000D01*
X149749500Y-94784000D01*
X149743500Y-94786000D01*
X149737500Y-94787000D01*
X149731500Y-94789000D01*
X149725500Y-94789000D01*
X149718500Y-94790000D01*
X149712500Y-94790000D01*
X149212500Y-94790000D01*
X149206500Y-94790000D01*
X149199500Y-94789000D01*
X149193500Y-94789000D01*
X149187500Y-94787000D01*
X149181500Y-94786000D01*
X149175500Y-94784000D01*
X149169500Y-94782000D01*
X149163500Y-94780000D01*
X149158500Y-94777000D01*
X149152500Y-94774000D01*
X149147500Y-94771000D01*
X149141500Y-94767000D01*
X149136500Y-94763000D01*
X149132500Y-94759000D01*
X149127500Y-94755000D01*
X149123500Y-94750000D01*
X149119500Y-94746000D01*
X149115500Y-94741000D01*
X149111500Y-94735000D01*
X149108500Y-94730000D01*
X149105500Y-94724000D01*
X149102500Y-94719000D01*
X149100500Y-94713000D01*
X149098500Y-94707000D01*
X149096500Y-94701000D01*
X149095500Y-94695000D01*
X149093500Y-94689000D01*
X149093500Y-94683000D01*
X149092500Y-94676000D01*
X149092500Y-94670000D01*
X149092500Y-94530000D01*
X149092500Y-94524000D01*
X149093500Y-94517000D01*
X149093500Y-94511000D01*
X149095500Y-94505000D01*
X149096500Y-94499000D01*
X149098500Y-94493000D01*
X149100500Y-94487000D01*
X149102500Y-94481000D01*
X149105500Y-94476000D01*
X149108500Y-94470000D01*
X149111500Y-94465000D01*
X149115500Y-94459000D01*
X149119500Y-94454000D01*
X149123500Y-94450000D01*
X149127500Y-94445000D01*
X149132500Y-94441000D01*
X149136500Y-94437000D01*
X149141500Y-94433000D01*
X149147500Y-94429000D01*
X149152500Y-94426000D01*
X149158500Y-94423000D01*
X149163500Y-94420000D01*
X149169500Y-94418000D01*
X149175500Y-94416000D01*
X149181500Y-94414000D01*
X149187500Y-94413000D01*
X149193500Y-94411000D01*
X149199500Y-94411000D01*
X149206500Y-94410000D01*
X149212500Y-94410000D01*
X149712500Y-94410000D01*
X149718500Y-94410000D01*
X149725500Y-94411000D01*
G37*
X149725500Y-94911000D02*
X149731500Y-94911000D01*
X149737500Y-94913000D01*
X149743500Y-94914000D01*
X149749500Y-94916000D01*
X149755500Y-94918000D01*
X149761500Y-94920000D01*
X149766500Y-94923000D01*
X149772500Y-94926000D01*
X149777500Y-94929000D01*
X149783500Y-94933000D01*
X149788500Y-94937000D01*
X149792500Y-94941000D01*
X149797500Y-94945000D01*
X149801500Y-94950000D01*
X149805500Y-94954000D01*
X149809500Y-94959000D01*
X149813500Y-94965000D01*
X149816500Y-94970000D01*
X149819500Y-94976000D01*
X149822500Y-94981000D01*
X149824500Y-94987000D01*
X149826500Y-94993000D01*
X149828500Y-94999000D01*
X149829500Y-95005000D01*
X149831500Y-95011000D01*
X149831500Y-95017000D01*
X149832500Y-95024000D01*
X149832500Y-95030000D01*
X149832500Y-95170000D01*
X149832500Y-95176000D01*
X149831500Y-95183000D01*
X149831500Y-95189000D01*
X149829500Y-95195000D01*
X149828500Y-95201000D01*
X149826500Y-95207000D01*
X149824500Y-95213000D01*
X149822500Y-95219000D01*
X149819500Y-95224000D01*
X149816500Y-95230000D01*
X149813500Y-95235000D01*
X149809500Y-95241000D01*
X149805500Y-95246000D01*
X149801500Y-95250000D01*
X149797500Y-95255000D01*
X149792500Y-95259000D01*
X149788500Y-95263000D01*
X149783500Y-95267000D01*
X149777500Y-95271000D01*
X149772500Y-95274000D01*
X149766500Y-95277000D01*
X149761500Y-95280000D01*
X149755500Y-95282000D01*
X149749500Y-95284000D01*
X149743500Y-95286000D01*
X149737500Y-95287000D01*
X149731500Y-95289000D01*
X149725500Y-95289000D01*
X149718500Y-95290000D01*
X149712500Y-95290000D01*
X149212500Y-95290000D01*
X149206500Y-95290000D01*
X149199500Y-95289000D01*
X149193500Y-95289000D01*
X149187500Y-95287000D01*
X149181500Y-95286000D01*
X149175500Y-95284000D01*
X149169500Y-95282000D01*
X149163500Y-95280000D01*
X149158500Y-95277000D01*
X149152500Y-95274000D01*
X149147500Y-95271000D01*
X149141500Y-95267000D01*
X149136500Y-95263000D01*
X149132500Y-95259000D01*
X149127500Y-95255000D01*
X149123500Y-95250000D01*
X149119500Y-95246000D01*
X149115500Y-95241000D01*
X149111500Y-95235000D01*
X149108500Y-95230000D01*
X149105500Y-95224000D01*
X149102500Y-95219000D01*
X149100500Y-95213000D01*
X149098500Y-95207000D01*
X149096500Y-95201000D01*
X149095500Y-95195000D01*
X149093500Y-95189000D01*
X149093500Y-95183000D01*
X149092500Y-95176000D01*
X149092500Y-95170000D01*
X149092500Y-95030000D01*
X149092500Y-95024000D01*
X149093500Y-95017000D01*
X149093500Y-95011000D01*
X149095500Y-95005000D01*
X149096500Y-94999000D01*
X149098500Y-94993000D01*
X149100500Y-94987000D01*
X149102500Y-94981000D01*
X149105500Y-94976000D01*
X149108500Y-94970000D01*
X149111500Y-94965000D01*
X149115500Y-94959000D01*
X149119500Y-94954000D01*
X149123500Y-94950000D01*
X149127500Y-94945000D01*
X149132500Y-94941000D01*
X149136500Y-94937000D01*
X149141500Y-94933000D01*
X149147500Y-94929000D01*
X149152500Y-94926000D01*
X149158500Y-94923000D01*
X149163500Y-94920000D01*
X149169500Y-94918000D01*
X149175500Y-94916000D01*
X149181500Y-94914000D01*
X149187500Y-94913000D01*
X149193500Y-94911000D01*
X149199500Y-94911000D01*
X149206500Y-94910000D01*
X149212500Y-94910000D01*
X149712500Y-94910000D01*
X149718500Y-94910000D01*
X149725500Y-94911000D01*
G36*
X149725500Y-94911000D02*
G01*
X149731500Y-94911000D01*
X149737500Y-94913000D01*
X149743500Y-94914000D01*
X149749500Y-94916000D01*
X149755500Y-94918000D01*
X149761500Y-94920000D01*
X149766500Y-94923000D01*
X149772500Y-94926000D01*
X149777500Y-94929000D01*
X149783500Y-94933000D01*
X149788500Y-94937000D01*
X149792500Y-94941000D01*
X149797500Y-94945000D01*
X149801500Y-94950000D01*
X149805500Y-94954000D01*
X149809500Y-94959000D01*
X149813500Y-94965000D01*
X149816500Y-94970000D01*
X149819500Y-94976000D01*
X149822500Y-94981000D01*
X149824500Y-94987000D01*
X149826500Y-94993000D01*
X149828500Y-94999000D01*
X149829500Y-95005000D01*
X149831500Y-95011000D01*
X149831500Y-95017000D01*
X149832500Y-95024000D01*
X149832500Y-95030000D01*
X149832500Y-95170000D01*
X149832500Y-95176000D01*
X149831500Y-95183000D01*
X149831500Y-95189000D01*
X149829500Y-95195000D01*
X149828500Y-95201000D01*
X149826500Y-95207000D01*
X149824500Y-95213000D01*
X149822500Y-95219000D01*
X149819500Y-95224000D01*
X149816500Y-95230000D01*
X149813500Y-95235000D01*
X149809500Y-95241000D01*
X149805500Y-95246000D01*
X149801500Y-95250000D01*
X149797500Y-95255000D01*
X149792500Y-95259000D01*
X149788500Y-95263000D01*
X149783500Y-95267000D01*
X149777500Y-95271000D01*
X149772500Y-95274000D01*
X149766500Y-95277000D01*
X149761500Y-95280000D01*
X149755500Y-95282000D01*
X149749500Y-95284000D01*
X149743500Y-95286000D01*
X149737500Y-95287000D01*
X149731500Y-95289000D01*
X149725500Y-95289000D01*
X149718500Y-95290000D01*
X149712500Y-95290000D01*
X149212500Y-95290000D01*
X149206500Y-95290000D01*
X149199500Y-95289000D01*
X149193500Y-95289000D01*
X149187500Y-95287000D01*
X149181500Y-95286000D01*
X149175500Y-95284000D01*
X149169500Y-95282000D01*
X149163500Y-95280000D01*
X149158500Y-95277000D01*
X149152500Y-95274000D01*
X149147500Y-95271000D01*
X149141500Y-95267000D01*
X149136500Y-95263000D01*
X149132500Y-95259000D01*
X149127500Y-95255000D01*
X149123500Y-95250000D01*
X149119500Y-95246000D01*
X149115500Y-95241000D01*
X149111500Y-95235000D01*
X149108500Y-95230000D01*
X149105500Y-95224000D01*
X149102500Y-95219000D01*
X149100500Y-95213000D01*
X149098500Y-95207000D01*
X149096500Y-95201000D01*
X149095500Y-95195000D01*
X149093500Y-95189000D01*
X149093500Y-95183000D01*
X149092500Y-95176000D01*
X149092500Y-95170000D01*
X149092500Y-95030000D01*
X149092500Y-95024000D01*
X149093500Y-95017000D01*
X149093500Y-95011000D01*
X149095500Y-95005000D01*
X149096500Y-94999000D01*
X149098500Y-94993000D01*
X149100500Y-94987000D01*
X149102500Y-94981000D01*
X149105500Y-94976000D01*
X149108500Y-94970000D01*
X149111500Y-94965000D01*
X149115500Y-94959000D01*
X149119500Y-94954000D01*
X149123500Y-94950000D01*
X149127500Y-94945000D01*
X149132500Y-94941000D01*
X149136500Y-94937000D01*
X149141500Y-94933000D01*
X149147500Y-94929000D01*
X149152500Y-94926000D01*
X149158500Y-94923000D01*
X149163500Y-94920000D01*
X149169500Y-94918000D01*
X149175500Y-94916000D01*
X149181500Y-94914000D01*
X149187500Y-94913000D01*
X149193500Y-94911000D01*
X149199500Y-94911000D01*
X149206500Y-94910000D01*
X149212500Y-94910000D01*
X149712500Y-94910000D01*
X149718500Y-94910000D01*
X149725500Y-94911000D01*
G37*
X149725500Y-95411000D02*
X149731500Y-95411000D01*
X149737500Y-95413000D01*
X149743500Y-95414000D01*
X149749500Y-95416000D01*
X149755500Y-95418000D01*
X149761500Y-95420000D01*
X149766500Y-95423000D01*
X149772500Y-95426000D01*
X149777500Y-95429000D01*
X149783500Y-95433000D01*
X149788500Y-95437000D01*
X149792500Y-95441000D01*
X149797500Y-95445000D01*
X149801500Y-95450000D01*
X149805500Y-95454000D01*
X149809500Y-95459000D01*
X149813500Y-95465000D01*
X149816500Y-95470000D01*
X149819500Y-95476000D01*
X149822500Y-95481000D01*
X149824500Y-95487000D01*
X149826500Y-95493000D01*
X149828500Y-95499000D01*
X149829500Y-95505000D01*
X149831500Y-95511000D01*
X149831500Y-95517000D01*
X149832500Y-95524000D01*
X149832500Y-95530000D01*
X149832500Y-95670000D01*
X149832500Y-95676000D01*
X149831500Y-95683000D01*
X149831500Y-95689000D01*
X149829500Y-95695000D01*
X149828500Y-95701000D01*
X149826500Y-95707000D01*
X149824500Y-95713000D01*
X149822500Y-95719000D01*
X149819500Y-95724000D01*
X149816500Y-95730000D01*
X149813500Y-95735000D01*
X149809500Y-95741000D01*
X149805500Y-95746000D01*
X149801500Y-95750000D01*
X149797500Y-95755000D01*
X149792500Y-95759000D01*
X149788500Y-95763000D01*
X149783500Y-95767000D01*
X149777500Y-95771000D01*
X149772500Y-95774000D01*
X149766500Y-95777000D01*
X149761500Y-95780000D01*
X149755500Y-95782000D01*
X149749500Y-95784000D01*
X149743500Y-95786000D01*
X149737500Y-95787000D01*
X149731500Y-95789000D01*
X149725500Y-95789000D01*
X149718500Y-95790000D01*
X149712500Y-95790000D01*
X149212500Y-95790000D01*
X149206500Y-95790000D01*
X149199500Y-95789000D01*
X149193500Y-95789000D01*
X149187500Y-95787000D01*
X149181500Y-95786000D01*
X149175500Y-95784000D01*
X149169500Y-95782000D01*
X149163500Y-95780000D01*
X149158500Y-95777000D01*
X149152500Y-95774000D01*
X149147500Y-95771000D01*
X149141500Y-95767000D01*
X149136500Y-95763000D01*
X149132500Y-95759000D01*
X149127500Y-95755000D01*
X149123500Y-95750000D01*
X149119500Y-95746000D01*
X149115500Y-95741000D01*
X149111500Y-95735000D01*
X149108500Y-95730000D01*
X149105500Y-95724000D01*
X149102500Y-95719000D01*
X149100500Y-95713000D01*
X149098500Y-95707000D01*
X149096500Y-95701000D01*
X149095500Y-95695000D01*
X149093500Y-95689000D01*
X149093500Y-95683000D01*
X149092500Y-95676000D01*
X149092500Y-95670000D01*
X149092500Y-95530000D01*
X149092500Y-95524000D01*
X149093500Y-95517000D01*
X149093500Y-95511000D01*
X149095500Y-95505000D01*
X149096500Y-95499000D01*
X149098500Y-95493000D01*
X149100500Y-95487000D01*
X149102500Y-95481000D01*
X149105500Y-95476000D01*
X149108500Y-95470000D01*
X149111500Y-95465000D01*
X149115500Y-95459000D01*
X149119500Y-95454000D01*
X149123500Y-95450000D01*
X149127500Y-95445000D01*
X149132500Y-95441000D01*
X149136500Y-95437000D01*
X149141500Y-95433000D01*
X149147500Y-95429000D01*
X149152500Y-95426000D01*
X149158500Y-95423000D01*
X149163500Y-95420000D01*
X149169500Y-95418000D01*
X149175500Y-95416000D01*
X149181500Y-95414000D01*
X149187500Y-95413000D01*
X149193500Y-95411000D01*
X149199500Y-95411000D01*
X149206500Y-95410000D01*
X149212500Y-95410000D01*
X149712500Y-95410000D01*
X149718500Y-95410000D01*
X149725500Y-95411000D01*
G36*
X149725500Y-95411000D02*
G01*
X149731500Y-95411000D01*
X149737500Y-95413000D01*
X149743500Y-95414000D01*
X149749500Y-95416000D01*
X149755500Y-95418000D01*
X149761500Y-95420000D01*
X149766500Y-95423000D01*
X149772500Y-95426000D01*
X149777500Y-95429000D01*
X149783500Y-95433000D01*
X149788500Y-95437000D01*
X149792500Y-95441000D01*
X149797500Y-95445000D01*
X149801500Y-95450000D01*
X149805500Y-95454000D01*
X149809500Y-95459000D01*
X149813500Y-95465000D01*
X149816500Y-95470000D01*
X149819500Y-95476000D01*
X149822500Y-95481000D01*
X149824500Y-95487000D01*
X149826500Y-95493000D01*
X149828500Y-95499000D01*
X149829500Y-95505000D01*
X149831500Y-95511000D01*
X149831500Y-95517000D01*
X149832500Y-95524000D01*
X149832500Y-95530000D01*
X149832500Y-95670000D01*
X149832500Y-95676000D01*
X149831500Y-95683000D01*
X149831500Y-95689000D01*
X149829500Y-95695000D01*
X149828500Y-95701000D01*
X149826500Y-95707000D01*
X149824500Y-95713000D01*
X149822500Y-95719000D01*
X149819500Y-95724000D01*
X149816500Y-95730000D01*
X149813500Y-95735000D01*
X149809500Y-95741000D01*
X149805500Y-95746000D01*
X149801500Y-95750000D01*
X149797500Y-95755000D01*
X149792500Y-95759000D01*
X149788500Y-95763000D01*
X149783500Y-95767000D01*
X149777500Y-95771000D01*
X149772500Y-95774000D01*
X149766500Y-95777000D01*
X149761500Y-95780000D01*
X149755500Y-95782000D01*
X149749500Y-95784000D01*
X149743500Y-95786000D01*
X149737500Y-95787000D01*
X149731500Y-95789000D01*
X149725500Y-95789000D01*
X149718500Y-95790000D01*
X149712500Y-95790000D01*
X149212500Y-95790000D01*
X149206500Y-95790000D01*
X149199500Y-95789000D01*
X149193500Y-95789000D01*
X149187500Y-95787000D01*
X149181500Y-95786000D01*
X149175500Y-95784000D01*
X149169500Y-95782000D01*
X149163500Y-95780000D01*
X149158500Y-95777000D01*
X149152500Y-95774000D01*
X149147500Y-95771000D01*
X149141500Y-95767000D01*
X149136500Y-95763000D01*
X149132500Y-95759000D01*
X149127500Y-95755000D01*
X149123500Y-95750000D01*
X149119500Y-95746000D01*
X149115500Y-95741000D01*
X149111500Y-95735000D01*
X149108500Y-95730000D01*
X149105500Y-95724000D01*
X149102500Y-95719000D01*
X149100500Y-95713000D01*
X149098500Y-95707000D01*
X149096500Y-95701000D01*
X149095500Y-95695000D01*
X149093500Y-95689000D01*
X149093500Y-95683000D01*
X149092500Y-95676000D01*
X149092500Y-95670000D01*
X149092500Y-95530000D01*
X149092500Y-95524000D01*
X149093500Y-95517000D01*
X149093500Y-95511000D01*
X149095500Y-95505000D01*
X149096500Y-95499000D01*
X149098500Y-95493000D01*
X149100500Y-95487000D01*
X149102500Y-95481000D01*
X149105500Y-95476000D01*
X149108500Y-95470000D01*
X149111500Y-95465000D01*
X149115500Y-95459000D01*
X149119500Y-95454000D01*
X149123500Y-95450000D01*
X149127500Y-95445000D01*
X149132500Y-95441000D01*
X149136500Y-95437000D01*
X149141500Y-95433000D01*
X149147500Y-95429000D01*
X149152500Y-95426000D01*
X149158500Y-95423000D01*
X149163500Y-95420000D01*
X149169500Y-95418000D01*
X149175500Y-95416000D01*
X149181500Y-95414000D01*
X149187500Y-95413000D01*
X149193500Y-95411000D01*
X149199500Y-95411000D01*
X149206500Y-95410000D01*
X149212500Y-95410000D01*
X149712500Y-95410000D01*
X149718500Y-95410000D01*
X149725500Y-95411000D01*
G37*
X149725500Y-95911000D02*
X149731500Y-95911000D01*
X149737500Y-95913000D01*
X149743500Y-95914000D01*
X149749500Y-95916000D01*
X149755500Y-95918000D01*
X149761500Y-95920000D01*
X149766500Y-95923000D01*
X149772500Y-95926000D01*
X149777500Y-95929000D01*
X149783500Y-95933000D01*
X149788500Y-95937000D01*
X149792500Y-95941000D01*
X149797500Y-95945000D01*
X149801500Y-95950000D01*
X149805500Y-95954000D01*
X149809500Y-95959000D01*
X149813500Y-95965000D01*
X149816500Y-95970000D01*
X149819500Y-95976000D01*
X149822500Y-95981000D01*
X149824500Y-95987000D01*
X149826500Y-95993000D01*
X149828500Y-95999000D01*
X149829500Y-96005000D01*
X149831500Y-96011000D01*
X149831500Y-96017000D01*
X149832500Y-96024000D01*
X149832500Y-96030000D01*
X149832500Y-96170000D01*
X149832500Y-96176000D01*
X149831500Y-96183000D01*
X149831500Y-96189000D01*
X149829500Y-96195000D01*
X149828500Y-96201000D01*
X149826500Y-96207000D01*
X149824500Y-96213000D01*
X149822500Y-96219000D01*
X149819500Y-96224000D01*
X149816500Y-96230000D01*
X149813500Y-96235000D01*
X149809500Y-96241000D01*
X149805500Y-96246000D01*
X149801500Y-96250000D01*
X149797500Y-96255000D01*
X149792500Y-96259000D01*
X149788500Y-96263000D01*
X149783500Y-96267000D01*
X149777500Y-96271000D01*
X149772500Y-96274000D01*
X149766500Y-96277000D01*
X149761500Y-96280000D01*
X149755500Y-96282000D01*
X149749500Y-96284000D01*
X149743500Y-96286000D01*
X149737500Y-96287000D01*
X149731500Y-96289000D01*
X149725500Y-96289000D01*
X149718500Y-96290000D01*
X149712500Y-96290000D01*
X149212500Y-96290000D01*
X149206500Y-96290000D01*
X149199500Y-96289000D01*
X149193500Y-96289000D01*
X149187500Y-96287000D01*
X149181500Y-96286000D01*
X149175500Y-96284000D01*
X149169500Y-96282000D01*
X149163500Y-96280000D01*
X149158500Y-96277000D01*
X149152500Y-96274000D01*
X149147500Y-96271000D01*
X149141500Y-96267000D01*
X149136500Y-96263000D01*
X149132500Y-96259000D01*
X149127500Y-96255000D01*
X149123500Y-96250000D01*
X149119500Y-96246000D01*
X149115500Y-96241000D01*
X149111500Y-96235000D01*
X149108500Y-96230000D01*
X149105500Y-96224000D01*
X149102500Y-96219000D01*
X149100500Y-96213000D01*
X149098500Y-96207000D01*
X149096500Y-96201000D01*
X149095500Y-96195000D01*
X149093500Y-96189000D01*
X149093500Y-96183000D01*
X149092500Y-96176000D01*
X149092500Y-96170000D01*
X149092500Y-96030000D01*
X149092500Y-96024000D01*
X149093500Y-96017000D01*
X149093500Y-96011000D01*
X149095500Y-96005000D01*
X149096500Y-95999000D01*
X149098500Y-95993000D01*
X149100500Y-95987000D01*
X149102500Y-95981000D01*
X149105500Y-95976000D01*
X149108500Y-95970000D01*
X149111500Y-95965000D01*
X149115500Y-95959000D01*
X149119500Y-95954000D01*
X149123500Y-95950000D01*
X149127500Y-95945000D01*
X149132500Y-95941000D01*
X149136500Y-95937000D01*
X149141500Y-95933000D01*
X149147500Y-95929000D01*
X149152500Y-95926000D01*
X149158500Y-95923000D01*
X149163500Y-95920000D01*
X149169500Y-95918000D01*
X149175500Y-95916000D01*
X149181500Y-95914000D01*
X149187500Y-95913000D01*
X149193500Y-95911000D01*
X149199500Y-95911000D01*
X149206500Y-95910000D01*
X149212500Y-95910000D01*
X149712500Y-95910000D01*
X149718500Y-95910000D01*
X149725500Y-95911000D01*
G36*
X149725500Y-95911000D02*
G01*
X149731500Y-95911000D01*
X149737500Y-95913000D01*
X149743500Y-95914000D01*
X149749500Y-95916000D01*
X149755500Y-95918000D01*
X149761500Y-95920000D01*
X149766500Y-95923000D01*
X149772500Y-95926000D01*
X149777500Y-95929000D01*
X149783500Y-95933000D01*
X149788500Y-95937000D01*
X149792500Y-95941000D01*
X149797500Y-95945000D01*
X149801500Y-95950000D01*
X149805500Y-95954000D01*
X149809500Y-95959000D01*
X149813500Y-95965000D01*
X149816500Y-95970000D01*
X149819500Y-95976000D01*
X149822500Y-95981000D01*
X149824500Y-95987000D01*
X149826500Y-95993000D01*
X149828500Y-95999000D01*
X149829500Y-96005000D01*
X149831500Y-96011000D01*
X149831500Y-96017000D01*
X149832500Y-96024000D01*
X149832500Y-96030000D01*
X149832500Y-96170000D01*
X149832500Y-96176000D01*
X149831500Y-96183000D01*
X149831500Y-96189000D01*
X149829500Y-96195000D01*
X149828500Y-96201000D01*
X149826500Y-96207000D01*
X149824500Y-96213000D01*
X149822500Y-96219000D01*
X149819500Y-96224000D01*
X149816500Y-96230000D01*
X149813500Y-96235000D01*
X149809500Y-96241000D01*
X149805500Y-96246000D01*
X149801500Y-96250000D01*
X149797500Y-96255000D01*
X149792500Y-96259000D01*
X149788500Y-96263000D01*
X149783500Y-96267000D01*
X149777500Y-96271000D01*
X149772500Y-96274000D01*
X149766500Y-96277000D01*
X149761500Y-96280000D01*
X149755500Y-96282000D01*
X149749500Y-96284000D01*
X149743500Y-96286000D01*
X149737500Y-96287000D01*
X149731500Y-96289000D01*
X149725500Y-96289000D01*
X149718500Y-96290000D01*
X149712500Y-96290000D01*
X149212500Y-96290000D01*
X149206500Y-96290000D01*
X149199500Y-96289000D01*
X149193500Y-96289000D01*
X149187500Y-96287000D01*
X149181500Y-96286000D01*
X149175500Y-96284000D01*
X149169500Y-96282000D01*
X149163500Y-96280000D01*
X149158500Y-96277000D01*
X149152500Y-96274000D01*
X149147500Y-96271000D01*
X149141500Y-96267000D01*
X149136500Y-96263000D01*
X149132500Y-96259000D01*
X149127500Y-96255000D01*
X149123500Y-96250000D01*
X149119500Y-96246000D01*
X149115500Y-96241000D01*
X149111500Y-96235000D01*
X149108500Y-96230000D01*
X149105500Y-96224000D01*
X149102500Y-96219000D01*
X149100500Y-96213000D01*
X149098500Y-96207000D01*
X149096500Y-96201000D01*
X149095500Y-96195000D01*
X149093500Y-96189000D01*
X149093500Y-96183000D01*
X149092500Y-96176000D01*
X149092500Y-96170000D01*
X149092500Y-96030000D01*
X149092500Y-96024000D01*
X149093500Y-96017000D01*
X149093500Y-96011000D01*
X149095500Y-96005000D01*
X149096500Y-95999000D01*
X149098500Y-95993000D01*
X149100500Y-95987000D01*
X149102500Y-95981000D01*
X149105500Y-95976000D01*
X149108500Y-95970000D01*
X149111500Y-95965000D01*
X149115500Y-95959000D01*
X149119500Y-95954000D01*
X149123500Y-95950000D01*
X149127500Y-95945000D01*
X149132500Y-95941000D01*
X149136500Y-95937000D01*
X149141500Y-95933000D01*
X149147500Y-95929000D01*
X149152500Y-95926000D01*
X149158500Y-95923000D01*
X149163500Y-95920000D01*
X149169500Y-95918000D01*
X149175500Y-95916000D01*
X149181500Y-95914000D01*
X149187500Y-95913000D01*
X149193500Y-95911000D01*
X149199500Y-95911000D01*
X149206500Y-95910000D01*
X149212500Y-95910000D01*
X149712500Y-95910000D01*
X149718500Y-95910000D01*
X149725500Y-95911000D01*
G37*
X150195500Y-96381000D02*
X150201500Y-96381000D01*
X150207500Y-96383000D01*
X150213500Y-96384000D01*
X150219500Y-96386000D01*
X150225500Y-96388000D01*
X150231500Y-96390000D01*
X150236500Y-96393000D01*
X150242500Y-96396000D01*
X150247500Y-96399000D01*
X150253500Y-96403000D01*
X150258500Y-96407000D01*
X150262500Y-96411000D01*
X150267500Y-96415000D01*
X150271500Y-96420000D01*
X150275500Y-96424000D01*
X150279500Y-96429000D01*
X150283500Y-96435000D01*
X150286500Y-96440000D01*
X150289500Y-96446000D01*
X150292500Y-96451000D01*
X150294500Y-96457000D01*
X150296500Y-96463000D01*
X150298500Y-96469000D01*
X150299500Y-96475000D01*
X150301500Y-96481000D01*
X150301500Y-96487000D01*
X150302500Y-96494000D01*
X150302500Y-96500000D01*
X150302500Y-97000000D01*
X150302500Y-97006000D01*
X150301500Y-97013000D01*
X150301500Y-97019000D01*
X150299500Y-97025000D01*
X150298500Y-97031000D01*
X150296500Y-97037000D01*
X150294500Y-97043000D01*
X150292500Y-97049000D01*
X150289500Y-97054000D01*
X150286500Y-97060000D01*
X150283500Y-97065000D01*
X150279500Y-97071000D01*
X150275500Y-97076000D01*
X150271500Y-97080000D01*
X150267500Y-97085000D01*
X150262500Y-97089000D01*
X150258500Y-97093000D01*
X150253500Y-97097000D01*
X150247500Y-97101000D01*
X150242500Y-97104000D01*
X150236500Y-97107000D01*
X150231500Y-97110000D01*
X150225500Y-97112000D01*
X150219500Y-97114000D01*
X150213500Y-97116000D01*
X150207500Y-97117000D01*
X150201500Y-97119000D01*
X150195500Y-97119000D01*
X150188500Y-97120000D01*
X150182500Y-97120000D01*
X150042500Y-97120000D01*
X150036500Y-97120000D01*
X150029500Y-97119000D01*
X150023500Y-97119000D01*
X150017500Y-97117000D01*
X150011500Y-97116000D01*
X150005500Y-97114000D01*
X149999500Y-97112000D01*
X149993500Y-97110000D01*
X149988500Y-97107000D01*
X149982500Y-97104000D01*
X149977500Y-97101000D01*
X149971500Y-97097000D01*
X149966500Y-97093000D01*
X149962500Y-97089000D01*
X149957500Y-97085000D01*
X149953500Y-97080000D01*
X149949500Y-97076000D01*
X149945500Y-97071000D01*
X149941500Y-97065000D01*
X149938500Y-97060000D01*
X149935500Y-97054000D01*
X149932500Y-97049000D01*
X149930500Y-97043000D01*
X149928500Y-97037000D01*
X149926500Y-97031000D01*
X149925500Y-97025000D01*
X149923500Y-97019000D01*
X149923500Y-97013000D01*
X149922500Y-97006000D01*
X149922500Y-97000000D01*
X149922500Y-96500000D01*
X149922500Y-96494000D01*
X149923500Y-96487000D01*
X149923500Y-96481000D01*
X149925500Y-96475000D01*
X149926500Y-96469000D01*
X149928500Y-96463000D01*
X149930500Y-96457000D01*
X149932500Y-96451000D01*
X149935500Y-96446000D01*
X149938500Y-96440000D01*
X149941500Y-96435000D01*
X149945500Y-96429000D01*
X149949500Y-96424000D01*
X149953500Y-96420000D01*
X149957500Y-96415000D01*
X149962500Y-96411000D01*
X149966500Y-96407000D01*
X149971500Y-96403000D01*
X149977500Y-96399000D01*
X149982500Y-96396000D01*
X149988500Y-96393000D01*
X149993500Y-96390000D01*
X149999500Y-96388000D01*
X150005500Y-96386000D01*
X150011500Y-96384000D01*
X150017500Y-96383000D01*
X150023500Y-96381000D01*
X150029500Y-96381000D01*
X150036500Y-96380000D01*
X150042500Y-96380000D01*
X150182500Y-96380000D01*
X150188500Y-96380000D01*
X150195500Y-96381000D01*
G36*
X150195500Y-96381000D02*
G01*
X150201500Y-96381000D01*
X150207500Y-96383000D01*
X150213500Y-96384000D01*
X150219500Y-96386000D01*
X150225500Y-96388000D01*
X150231500Y-96390000D01*
X150236500Y-96393000D01*
X150242500Y-96396000D01*
X150247500Y-96399000D01*
X150253500Y-96403000D01*
X150258500Y-96407000D01*
X150262500Y-96411000D01*
X150267500Y-96415000D01*
X150271500Y-96420000D01*
X150275500Y-96424000D01*
X150279500Y-96429000D01*
X150283500Y-96435000D01*
X150286500Y-96440000D01*
X150289500Y-96446000D01*
X150292500Y-96451000D01*
X150294500Y-96457000D01*
X150296500Y-96463000D01*
X150298500Y-96469000D01*
X150299500Y-96475000D01*
X150301500Y-96481000D01*
X150301500Y-96487000D01*
X150302500Y-96494000D01*
X150302500Y-96500000D01*
X150302500Y-97000000D01*
X150302500Y-97006000D01*
X150301500Y-97013000D01*
X150301500Y-97019000D01*
X150299500Y-97025000D01*
X150298500Y-97031000D01*
X150296500Y-97037000D01*
X150294500Y-97043000D01*
X150292500Y-97049000D01*
X150289500Y-97054000D01*
X150286500Y-97060000D01*
X150283500Y-97065000D01*
X150279500Y-97071000D01*
X150275500Y-97076000D01*
X150271500Y-97080000D01*
X150267500Y-97085000D01*
X150262500Y-97089000D01*
X150258500Y-97093000D01*
X150253500Y-97097000D01*
X150247500Y-97101000D01*
X150242500Y-97104000D01*
X150236500Y-97107000D01*
X150231500Y-97110000D01*
X150225500Y-97112000D01*
X150219500Y-97114000D01*
X150213500Y-97116000D01*
X150207500Y-97117000D01*
X150201500Y-97119000D01*
X150195500Y-97119000D01*
X150188500Y-97120000D01*
X150182500Y-97120000D01*
X150042500Y-97120000D01*
X150036500Y-97120000D01*
X150029500Y-97119000D01*
X150023500Y-97119000D01*
X150017500Y-97117000D01*
X150011500Y-97116000D01*
X150005500Y-97114000D01*
X149999500Y-97112000D01*
X149993500Y-97110000D01*
X149988500Y-97107000D01*
X149982500Y-97104000D01*
X149977500Y-97101000D01*
X149971500Y-97097000D01*
X149966500Y-97093000D01*
X149962500Y-97089000D01*
X149957500Y-97085000D01*
X149953500Y-97080000D01*
X149949500Y-97076000D01*
X149945500Y-97071000D01*
X149941500Y-97065000D01*
X149938500Y-97060000D01*
X149935500Y-97054000D01*
X149932500Y-97049000D01*
X149930500Y-97043000D01*
X149928500Y-97037000D01*
X149926500Y-97031000D01*
X149925500Y-97025000D01*
X149923500Y-97019000D01*
X149923500Y-97013000D01*
X149922500Y-97006000D01*
X149922500Y-97000000D01*
X149922500Y-96500000D01*
X149922500Y-96494000D01*
X149923500Y-96487000D01*
X149923500Y-96481000D01*
X149925500Y-96475000D01*
X149926500Y-96469000D01*
X149928500Y-96463000D01*
X149930500Y-96457000D01*
X149932500Y-96451000D01*
X149935500Y-96446000D01*
X149938500Y-96440000D01*
X149941500Y-96435000D01*
X149945500Y-96429000D01*
X149949500Y-96424000D01*
X149953500Y-96420000D01*
X149957500Y-96415000D01*
X149962500Y-96411000D01*
X149966500Y-96407000D01*
X149971500Y-96403000D01*
X149977500Y-96399000D01*
X149982500Y-96396000D01*
X149988500Y-96393000D01*
X149993500Y-96390000D01*
X149999500Y-96388000D01*
X150005500Y-96386000D01*
X150011500Y-96384000D01*
X150017500Y-96383000D01*
X150023500Y-96381000D01*
X150029500Y-96381000D01*
X150036500Y-96380000D01*
X150042500Y-96380000D01*
X150182500Y-96380000D01*
X150188500Y-96380000D01*
X150195500Y-96381000D01*
G37*
X150195500Y-93081000D02*
X150201500Y-93081000D01*
X150207500Y-93083000D01*
X150213500Y-93084000D01*
X150219500Y-93086000D01*
X150225500Y-93088000D01*
X150231500Y-93090000D01*
X150236500Y-93093000D01*
X150242500Y-93096000D01*
X150247500Y-93099000D01*
X150253500Y-93103000D01*
X150258500Y-93107000D01*
X150262500Y-93111000D01*
X150267500Y-93115000D01*
X150271500Y-93120000D01*
X150275500Y-93124000D01*
X150279500Y-93129000D01*
X150283500Y-93135000D01*
X150286500Y-93140000D01*
X150289500Y-93146000D01*
X150292500Y-93151000D01*
X150294500Y-93157000D01*
X150296500Y-93163000D01*
X150298500Y-93169000D01*
X150299500Y-93175000D01*
X150301500Y-93181000D01*
X150301500Y-93187000D01*
X150302500Y-93194000D01*
X150302500Y-93200000D01*
X150302500Y-93700000D01*
X150302500Y-93706000D01*
X150301500Y-93713000D01*
X150301500Y-93719000D01*
X150299500Y-93725000D01*
X150298500Y-93731000D01*
X150296500Y-93737000D01*
X150294500Y-93743000D01*
X150292500Y-93749000D01*
X150289500Y-93754000D01*
X150286500Y-93760000D01*
X150283500Y-93765000D01*
X150279500Y-93771000D01*
X150275500Y-93776000D01*
X150271500Y-93780000D01*
X150267500Y-93785000D01*
X150262500Y-93789000D01*
X150258500Y-93793000D01*
X150253500Y-93797000D01*
X150247500Y-93801000D01*
X150242500Y-93804000D01*
X150236500Y-93807000D01*
X150231500Y-93810000D01*
X150225500Y-93812000D01*
X150219500Y-93814000D01*
X150213500Y-93816000D01*
X150207500Y-93817000D01*
X150201500Y-93819000D01*
X150195500Y-93819000D01*
X150188500Y-93820000D01*
X150182500Y-93820000D01*
X150042500Y-93820000D01*
X150036500Y-93820000D01*
X150029500Y-93819000D01*
X150023500Y-93819000D01*
X150017500Y-93817000D01*
X150011500Y-93816000D01*
X150005500Y-93814000D01*
X149999500Y-93812000D01*
X149993500Y-93810000D01*
X149988500Y-93807000D01*
X149982500Y-93804000D01*
X149977500Y-93801000D01*
X149971500Y-93797000D01*
X149966500Y-93793000D01*
X149962500Y-93789000D01*
X149957500Y-93785000D01*
X149953500Y-93780000D01*
X149949500Y-93776000D01*
X149945500Y-93771000D01*
X149941500Y-93765000D01*
X149938500Y-93760000D01*
X149935500Y-93754000D01*
X149932500Y-93749000D01*
X149930500Y-93743000D01*
X149928500Y-93737000D01*
X149926500Y-93731000D01*
X149925500Y-93725000D01*
X149923500Y-93719000D01*
X149923500Y-93713000D01*
X149922500Y-93706000D01*
X149922500Y-93700000D01*
X149922500Y-93200000D01*
X149922500Y-93194000D01*
X149923500Y-93187000D01*
X149923500Y-93181000D01*
X149925500Y-93175000D01*
X149926500Y-93169000D01*
X149928500Y-93163000D01*
X149930500Y-93157000D01*
X149932500Y-93151000D01*
X149935500Y-93146000D01*
X149938500Y-93140000D01*
X149941500Y-93135000D01*
X149945500Y-93129000D01*
X149949500Y-93124000D01*
X149953500Y-93120000D01*
X149957500Y-93115000D01*
X149962500Y-93111000D01*
X149966500Y-93107000D01*
X149971500Y-93103000D01*
X149977500Y-93099000D01*
X149982500Y-93096000D01*
X149988500Y-93093000D01*
X149993500Y-93090000D01*
X149999500Y-93088000D01*
X150005500Y-93086000D01*
X150011500Y-93084000D01*
X150017500Y-93083000D01*
X150023500Y-93081000D01*
X150029500Y-93081000D01*
X150036500Y-93080000D01*
X150042500Y-93080000D01*
X150182500Y-93080000D01*
X150188500Y-93080000D01*
X150195500Y-93081000D01*
G36*
X150195500Y-93081000D02*
G01*
X150201500Y-93081000D01*
X150207500Y-93083000D01*
X150213500Y-93084000D01*
X150219500Y-93086000D01*
X150225500Y-93088000D01*
X150231500Y-93090000D01*
X150236500Y-93093000D01*
X150242500Y-93096000D01*
X150247500Y-93099000D01*
X150253500Y-93103000D01*
X150258500Y-93107000D01*
X150262500Y-93111000D01*
X150267500Y-93115000D01*
X150271500Y-93120000D01*
X150275500Y-93124000D01*
X150279500Y-93129000D01*
X150283500Y-93135000D01*
X150286500Y-93140000D01*
X150289500Y-93146000D01*
X150292500Y-93151000D01*
X150294500Y-93157000D01*
X150296500Y-93163000D01*
X150298500Y-93169000D01*
X150299500Y-93175000D01*
X150301500Y-93181000D01*
X150301500Y-93187000D01*
X150302500Y-93194000D01*
X150302500Y-93200000D01*
X150302500Y-93700000D01*
X150302500Y-93706000D01*
X150301500Y-93713000D01*
X150301500Y-93719000D01*
X150299500Y-93725000D01*
X150298500Y-93731000D01*
X150296500Y-93737000D01*
X150294500Y-93743000D01*
X150292500Y-93749000D01*
X150289500Y-93754000D01*
X150286500Y-93760000D01*
X150283500Y-93765000D01*
X150279500Y-93771000D01*
X150275500Y-93776000D01*
X150271500Y-93780000D01*
X150267500Y-93785000D01*
X150262500Y-93789000D01*
X150258500Y-93793000D01*
X150253500Y-93797000D01*
X150247500Y-93801000D01*
X150242500Y-93804000D01*
X150236500Y-93807000D01*
X150231500Y-93810000D01*
X150225500Y-93812000D01*
X150219500Y-93814000D01*
X150213500Y-93816000D01*
X150207500Y-93817000D01*
X150201500Y-93819000D01*
X150195500Y-93819000D01*
X150188500Y-93820000D01*
X150182500Y-93820000D01*
X150042500Y-93820000D01*
X150036500Y-93820000D01*
X150029500Y-93819000D01*
X150023500Y-93819000D01*
X150017500Y-93817000D01*
X150011500Y-93816000D01*
X150005500Y-93814000D01*
X149999500Y-93812000D01*
X149993500Y-93810000D01*
X149988500Y-93807000D01*
X149982500Y-93804000D01*
X149977500Y-93801000D01*
X149971500Y-93797000D01*
X149966500Y-93793000D01*
X149962500Y-93789000D01*
X149957500Y-93785000D01*
X149953500Y-93780000D01*
X149949500Y-93776000D01*
X149945500Y-93771000D01*
X149941500Y-93765000D01*
X149938500Y-93760000D01*
X149935500Y-93754000D01*
X149932500Y-93749000D01*
X149930500Y-93743000D01*
X149928500Y-93737000D01*
X149926500Y-93731000D01*
X149925500Y-93725000D01*
X149923500Y-93719000D01*
X149923500Y-93713000D01*
X149922500Y-93706000D01*
X149922500Y-93700000D01*
X149922500Y-93200000D01*
X149922500Y-93194000D01*
X149923500Y-93187000D01*
X149923500Y-93181000D01*
X149925500Y-93175000D01*
X149926500Y-93169000D01*
X149928500Y-93163000D01*
X149930500Y-93157000D01*
X149932500Y-93151000D01*
X149935500Y-93146000D01*
X149938500Y-93140000D01*
X149941500Y-93135000D01*
X149945500Y-93129000D01*
X149949500Y-93124000D01*
X149953500Y-93120000D01*
X149957500Y-93115000D01*
X149962500Y-93111000D01*
X149966500Y-93107000D01*
X149971500Y-93103000D01*
X149977500Y-93099000D01*
X149982500Y-93096000D01*
X149988500Y-93093000D01*
X149993500Y-93090000D01*
X149999500Y-93088000D01*
X150005500Y-93086000D01*
X150011500Y-93084000D01*
X150017500Y-93083000D01*
X150023500Y-93081000D01*
X150029500Y-93081000D01*
X150036500Y-93080000D01*
X150042500Y-93080000D01*
X150182500Y-93080000D01*
X150188500Y-93080000D01*
X150195500Y-93081000D01*
G37*
X150695500Y-96381000D02*
X150701500Y-96381000D01*
X150707500Y-96383000D01*
X150713500Y-96384000D01*
X150719500Y-96386000D01*
X150725500Y-96388000D01*
X150731500Y-96390000D01*
X150736500Y-96393000D01*
X150742500Y-96396000D01*
X150747500Y-96399000D01*
X150753500Y-96403000D01*
X150758500Y-96407000D01*
X150762500Y-96411000D01*
X150767500Y-96415000D01*
X150771500Y-96420000D01*
X150775500Y-96424000D01*
X150779500Y-96429000D01*
X150783500Y-96435000D01*
X150786500Y-96440000D01*
X150789500Y-96446000D01*
X150792500Y-96451000D01*
X150794500Y-96457000D01*
X150796500Y-96463000D01*
X150798500Y-96469000D01*
X150799500Y-96475000D01*
X150801500Y-96481000D01*
X150801500Y-96487000D01*
X150802500Y-96494000D01*
X150802500Y-96500000D01*
X150802500Y-97000000D01*
X150802500Y-97006000D01*
X150801500Y-97013000D01*
X150801500Y-97019000D01*
X150799500Y-97025000D01*
X150798500Y-97031000D01*
X150796500Y-97037000D01*
X150794500Y-97043000D01*
X150792500Y-97049000D01*
X150789500Y-97054000D01*
X150786500Y-97060000D01*
X150783500Y-97065000D01*
X150779500Y-97071000D01*
X150775500Y-97076000D01*
X150771500Y-97080000D01*
X150767500Y-97085000D01*
X150762500Y-97089000D01*
X150758500Y-97093000D01*
X150753500Y-97097000D01*
X150747500Y-97101000D01*
X150742500Y-97104000D01*
X150736500Y-97107000D01*
X150731500Y-97110000D01*
X150725500Y-97112000D01*
X150719500Y-97114000D01*
X150713500Y-97116000D01*
X150707500Y-97117000D01*
X150701500Y-97119000D01*
X150695500Y-97119000D01*
X150688500Y-97120000D01*
X150682500Y-97120000D01*
X150542500Y-97120000D01*
X150536500Y-97120000D01*
X150529500Y-97119000D01*
X150523500Y-97119000D01*
X150517500Y-97117000D01*
X150511500Y-97116000D01*
X150505500Y-97114000D01*
X150499500Y-97112000D01*
X150493500Y-97110000D01*
X150488500Y-97107000D01*
X150482500Y-97104000D01*
X150477500Y-97101000D01*
X150471500Y-97097000D01*
X150466500Y-97093000D01*
X150462500Y-97089000D01*
X150457500Y-97085000D01*
X150453500Y-97080000D01*
X150449500Y-97076000D01*
X150445500Y-97071000D01*
X150441500Y-97065000D01*
X150438500Y-97060000D01*
X150435500Y-97054000D01*
X150432500Y-97049000D01*
X150430500Y-97043000D01*
X150428500Y-97037000D01*
X150426500Y-97031000D01*
X150425500Y-97025000D01*
X150423500Y-97019000D01*
X150423500Y-97013000D01*
X150422500Y-97006000D01*
X150422500Y-97000000D01*
X150422500Y-96500000D01*
X150422500Y-96494000D01*
X150423500Y-96487000D01*
X150423500Y-96481000D01*
X150425500Y-96475000D01*
X150426500Y-96469000D01*
X150428500Y-96463000D01*
X150430500Y-96457000D01*
X150432500Y-96451000D01*
X150435500Y-96446000D01*
X150438500Y-96440000D01*
X150441500Y-96435000D01*
X150445500Y-96429000D01*
X150449500Y-96424000D01*
X150453500Y-96420000D01*
X150457500Y-96415000D01*
X150462500Y-96411000D01*
X150466500Y-96407000D01*
X150471500Y-96403000D01*
X150477500Y-96399000D01*
X150482500Y-96396000D01*
X150488500Y-96393000D01*
X150493500Y-96390000D01*
X150499500Y-96388000D01*
X150505500Y-96386000D01*
X150511500Y-96384000D01*
X150517500Y-96383000D01*
X150523500Y-96381000D01*
X150529500Y-96381000D01*
X150536500Y-96380000D01*
X150542500Y-96380000D01*
X150682500Y-96380000D01*
X150688500Y-96380000D01*
X150695500Y-96381000D01*
G36*
X150695500Y-96381000D02*
G01*
X150701500Y-96381000D01*
X150707500Y-96383000D01*
X150713500Y-96384000D01*
X150719500Y-96386000D01*
X150725500Y-96388000D01*
X150731500Y-96390000D01*
X150736500Y-96393000D01*
X150742500Y-96396000D01*
X150747500Y-96399000D01*
X150753500Y-96403000D01*
X150758500Y-96407000D01*
X150762500Y-96411000D01*
X150767500Y-96415000D01*
X150771500Y-96420000D01*
X150775500Y-96424000D01*
X150779500Y-96429000D01*
X150783500Y-96435000D01*
X150786500Y-96440000D01*
X150789500Y-96446000D01*
X150792500Y-96451000D01*
X150794500Y-96457000D01*
X150796500Y-96463000D01*
X150798500Y-96469000D01*
X150799500Y-96475000D01*
X150801500Y-96481000D01*
X150801500Y-96487000D01*
X150802500Y-96494000D01*
X150802500Y-96500000D01*
X150802500Y-97000000D01*
X150802500Y-97006000D01*
X150801500Y-97013000D01*
X150801500Y-97019000D01*
X150799500Y-97025000D01*
X150798500Y-97031000D01*
X150796500Y-97037000D01*
X150794500Y-97043000D01*
X150792500Y-97049000D01*
X150789500Y-97054000D01*
X150786500Y-97060000D01*
X150783500Y-97065000D01*
X150779500Y-97071000D01*
X150775500Y-97076000D01*
X150771500Y-97080000D01*
X150767500Y-97085000D01*
X150762500Y-97089000D01*
X150758500Y-97093000D01*
X150753500Y-97097000D01*
X150747500Y-97101000D01*
X150742500Y-97104000D01*
X150736500Y-97107000D01*
X150731500Y-97110000D01*
X150725500Y-97112000D01*
X150719500Y-97114000D01*
X150713500Y-97116000D01*
X150707500Y-97117000D01*
X150701500Y-97119000D01*
X150695500Y-97119000D01*
X150688500Y-97120000D01*
X150682500Y-97120000D01*
X150542500Y-97120000D01*
X150536500Y-97120000D01*
X150529500Y-97119000D01*
X150523500Y-97119000D01*
X150517500Y-97117000D01*
X150511500Y-97116000D01*
X150505500Y-97114000D01*
X150499500Y-97112000D01*
X150493500Y-97110000D01*
X150488500Y-97107000D01*
X150482500Y-97104000D01*
X150477500Y-97101000D01*
X150471500Y-97097000D01*
X150466500Y-97093000D01*
X150462500Y-97089000D01*
X150457500Y-97085000D01*
X150453500Y-97080000D01*
X150449500Y-97076000D01*
X150445500Y-97071000D01*
X150441500Y-97065000D01*
X150438500Y-97060000D01*
X150435500Y-97054000D01*
X150432500Y-97049000D01*
X150430500Y-97043000D01*
X150428500Y-97037000D01*
X150426500Y-97031000D01*
X150425500Y-97025000D01*
X150423500Y-97019000D01*
X150423500Y-97013000D01*
X150422500Y-97006000D01*
X150422500Y-97000000D01*
X150422500Y-96500000D01*
X150422500Y-96494000D01*
X150423500Y-96487000D01*
X150423500Y-96481000D01*
X150425500Y-96475000D01*
X150426500Y-96469000D01*
X150428500Y-96463000D01*
X150430500Y-96457000D01*
X150432500Y-96451000D01*
X150435500Y-96446000D01*
X150438500Y-96440000D01*
X150441500Y-96435000D01*
X150445500Y-96429000D01*
X150449500Y-96424000D01*
X150453500Y-96420000D01*
X150457500Y-96415000D01*
X150462500Y-96411000D01*
X150466500Y-96407000D01*
X150471500Y-96403000D01*
X150477500Y-96399000D01*
X150482500Y-96396000D01*
X150488500Y-96393000D01*
X150493500Y-96390000D01*
X150499500Y-96388000D01*
X150505500Y-96386000D01*
X150511500Y-96384000D01*
X150517500Y-96383000D01*
X150523500Y-96381000D01*
X150529500Y-96381000D01*
X150536500Y-96380000D01*
X150542500Y-96380000D01*
X150682500Y-96380000D01*
X150688500Y-96380000D01*
X150695500Y-96381000D01*
G37*
X150695500Y-93081000D02*
X150701500Y-93081000D01*
X150707500Y-93083000D01*
X150713500Y-93084000D01*
X150719500Y-93086000D01*
X150725500Y-93088000D01*
X150731500Y-93090000D01*
X150736500Y-93093000D01*
X150742500Y-93096000D01*
X150747500Y-93099000D01*
X150753500Y-93103000D01*
X150758500Y-93107000D01*
X150762500Y-93111000D01*
X150767500Y-93115000D01*
X150771500Y-93120000D01*
X150775500Y-93124000D01*
X150779500Y-93129000D01*
X150783500Y-93135000D01*
X150786500Y-93140000D01*
X150789500Y-93146000D01*
X150792500Y-93151000D01*
X150794500Y-93157000D01*
X150796500Y-93163000D01*
X150798500Y-93169000D01*
X150799500Y-93175000D01*
X150801500Y-93181000D01*
X150801500Y-93187000D01*
X150802500Y-93194000D01*
X150802500Y-93200000D01*
X150802500Y-93700000D01*
X150802500Y-93706000D01*
X150801500Y-93713000D01*
X150801500Y-93719000D01*
X150799500Y-93725000D01*
X150798500Y-93731000D01*
X150796500Y-93737000D01*
X150794500Y-93743000D01*
X150792500Y-93749000D01*
X150789500Y-93754000D01*
X150786500Y-93760000D01*
X150783500Y-93765000D01*
X150779500Y-93771000D01*
X150775500Y-93776000D01*
X150771500Y-93780000D01*
X150767500Y-93785000D01*
X150762500Y-93789000D01*
X150758500Y-93793000D01*
X150753500Y-93797000D01*
X150747500Y-93801000D01*
X150742500Y-93804000D01*
X150736500Y-93807000D01*
X150731500Y-93810000D01*
X150725500Y-93812000D01*
X150719500Y-93814000D01*
X150713500Y-93816000D01*
X150707500Y-93817000D01*
X150701500Y-93819000D01*
X150695500Y-93819000D01*
X150688500Y-93820000D01*
X150682500Y-93820000D01*
X150542500Y-93820000D01*
X150536500Y-93820000D01*
X150529500Y-93819000D01*
X150523500Y-93819000D01*
X150517500Y-93817000D01*
X150511500Y-93816000D01*
X150505500Y-93814000D01*
X150499500Y-93812000D01*
X150493500Y-93810000D01*
X150488500Y-93807000D01*
X150482500Y-93804000D01*
X150477500Y-93801000D01*
X150471500Y-93797000D01*
X150466500Y-93793000D01*
X150462500Y-93789000D01*
X150457500Y-93785000D01*
X150453500Y-93780000D01*
X150449500Y-93776000D01*
X150445500Y-93771000D01*
X150441500Y-93765000D01*
X150438500Y-93760000D01*
X150435500Y-93754000D01*
X150432500Y-93749000D01*
X150430500Y-93743000D01*
X150428500Y-93737000D01*
X150426500Y-93731000D01*
X150425500Y-93725000D01*
X150423500Y-93719000D01*
X150423500Y-93713000D01*
X150422500Y-93706000D01*
X150422500Y-93700000D01*
X150422500Y-93200000D01*
X150422500Y-93194000D01*
X150423500Y-93187000D01*
X150423500Y-93181000D01*
X150425500Y-93175000D01*
X150426500Y-93169000D01*
X150428500Y-93163000D01*
X150430500Y-93157000D01*
X150432500Y-93151000D01*
X150435500Y-93146000D01*
X150438500Y-93140000D01*
X150441500Y-93135000D01*
X150445500Y-93129000D01*
X150449500Y-93124000D01*
X150453500Y-93120000D01*
X150457500Y-93115000D01*
X150462500Y-93111000D01*
X150466500Y-93107000D01*
X150471500Y-93103000D01*
X150477500Y-93099000D01*
X150482500Y-93096000D01*
X150488500Y-93093000D01*
X150493500Y-93090000D01*
X150499500Y-93088000D01*
X150505500Y-93086000D01*
X150511500Y-93084000D01*
X150517500Y-93083000D01*
X150523500Y-93081000D01*
X150529500Y-93081000D01*
X150536500Y-93080000D01*
X150542500Y-93080000D01*
X150682500Y-93080000D01*
X150688500Y-93080000D01*
X150695500Y-93081000D01*
G36*
X150695500Y-93081000D02*
G01*
X150701500Y-93081000D01*
X150707500Y-93083000D01*
X150713500Y-93084000D01*
X150719500Y-93086000D01*
X150725500Y-93088000D01*
X150731500Y-93090000D01*
X150736500Y-93093000D01*
X150742500Y-93096000D01*
X150747500Y-93099000D01*
X150753500Y-93103000D01*
X150758500Y-93107000D01*
X150762500Y-93111000D01*
X150767500Y-93115000D01*
X150771500Y-93120000D01*
X150775500Y-93124000D01*
X150779500Y-93129000D01*
X150783500Y-93135000D01*
X150786500Y-93140000D01*
X150789500Y-93146000D01*
X150792500Y-93151000D01*
X150794500Y-93157000D01*
X150796500Y-93163000D01*
X150798500Y-93169000D01*
X150799500Y-93175000D01*
X150801500Y-93181000D01*
X150801500Y-93187000D01*
X150802500Y-93194000D01*
X150802500Y-93200000D01*
X150802500Y-93700000D01*
X150802500Y-93706000D01*
X150801500Y-93713000D01*
X150801500Y-93719000D01*
X150799500Y-93725000D01*
X150798500Y-93731000D01*
X150796500Y-93737000D01*
X150794500Y-93743000D01*
X150792500Y-93749000D01*
X150789500Y-93754000D01*
X150786500Y-93760000D01*
X150783500Y-93765000D01*
X150779500Y-93771000D01*
X150775500Y-93776000D01*
X150771500Y-93780000D01*
X150767500Y-93785000D01*
X150762500Y-93789000D01*
X150758500Y-93793000D01*
X150753500Y-93797000D01*
X150747500Y-93801000D01*
X150742500Y-93804000D01*
X150736500Y-93807000D01*
X150731500Y-93810000D01*
X150725500Y-93812000D01*
X150719500Y-93814000D01*
X150713500Y-93816000D01*
X150707500Y-93817000D01*
X150701500Y-93819000D01*
X150695500Y-93819000D01*
X150688500Y-93820000D01*
X150682500Y-93820000D01*
X150542500Y-93820000D01*
X150536500Y-93820000D01*
X150529500Y-93819000D01*
X150523500Y-93819000D01*
X150517500Y-93817000D01*
X150511500Y-93816000D01*
X150505500Y-93814000D01*
X150499500Y-93812000D01*
X150493500Y-93810000D01*
X150488500Y-93807000D01*
X150482500Y-93804000D01*
X150477500Y-93801000D01*
X150471500Y-93797000D01*
X150466500Y-93793000D01*
X150462500Y-93789000D01*
X150457500Y-93785000D01*
X150453500Y-93780000D01*
X150449500Y-93776000D01*
X150445500Y-93771000D01*
X150441500Y-93765000D01*
X150438500Y-93760000D01*
X150435500Y-93754000D01*
X150432500Y-93749000D01*
X150430500Y-93743000D01*
X150428500Y-93737000D01*
X150426500Y-93731000D01*
X150425500Y-93725000D01*
X150423500Y-93719000D01*
X150423500Y-93713000D01*
X150422500Y-93706000D01*
X150422500Y-93700000D01*
X150422500Y-93200000D01*
X150422500Y-93194000D01*
X150423500Y-93187000D01*
X150423500Y-93181000D01*
X150425500Y-93175000D01*
X150426500Y-93169000D01*
X150428500Y-93163000D01*
X150430500Y-93157000D01*
X150432500Y-93151000D01*
X150435500Y-93146000D01*
X150438500Y-93140000D01*
X150441500Y-93135000D01*
X150445500Y-93129000D01*
X150449500Y-93124000D01*
X150453500Y-93120000D01*
X150457500Y-93115000D01*
X150462500Y-93111000D01*
X150466500Y-93107000D01*
X150471500Y-93103000D01*
X150477500Y-93099000D01*
X150482500Y-93096000D01*
X150488500Y-93093000D01*
X150493500Y-93090000D01*
X150499500Y-93088000D01*
X150505500Y-93086000D01*
X150511500Y-93084000D01*
X150517500Y-93083000D01*
X150523500Y-93081000D01*
X150529500Y-93081000D01*
X150536500Y-93080000D01*
X150542500Y-93080000D01*
X150682500Y-93080000D01*
X150688500Y-93080000D01*
X150695500Y-93081000D01*
G37*
X151195500Y-96381000D02*
X151201500Y-96381000D01*
X151207500Y-96383000D01*
X151213500Y-96384000D01*
X151219500Y-96386000D01*
X151225500Y-96388000D01*
X151231500Y-96390000D01*
X151236500Y-96393000D01*
X151242500Y-96396000D01*
X151247500Y-96399000D01*
X151253500Y-96403000D01*
X151258500Y-96407000D01*
X151262500Y-96411000D01*
X151267500Y-96415000D01*
X151271500Y-96420000D01*
X151275500Y-96424000D01*
X151279500Y-96429000D01*
X151283500Y-96435000D01*
X151286500Y-96440000D01*
X151289500Y-96446000D01*
X151292500Y-96451000D01*
X151294500Y-96457000D01*
X151296500Y-96463000D01*
X151298500Y-96469000D01*
X151299500Y-96475000D01*
X151301500Y-96481000D01*
X151301500Y-96487000D01*
X151302500Y-96494000D01*
X151302500Y-96500000D01*
X151302500Y-97000000D01*
X151302500Y-97006000D01*
X151301500Y-97013000D01*
X151301500Y-97019000D01*
X151299500Y-97025000D01*
X151298500Y-97031000D01*
X151296500Y-97037000D01*
X151294500Y-97043000D01*
X151292500Y-97049000D01*
X151289500Y-97054000D01*
X151286500Y-97060000D01*
X151283500Y-97065000D01*
X151279500Y-97071000D01*
X151275500Y-97076000D01*
X151271500Y-97080000D01*
X151267500Y-97085000D01*
X151262500Y-97089000D01*
X151258500Y-97093000D01*
X151253500Y-97097000D01*
X151247500Y-97101000D01*
X151242500Y-97104000D01*
X151236500Y-97107000D01*
X151231500Y-97110000D01*
X151225500Y-97112000D01*
X151219500Y-97114000D01*
X151213500Y-97116000D01*
X151207500Y-97117000D01*
X151201500Y-97119000D01*
X151195500Y-97119000D01*
X151188500Y-97120000D01*
X151182500Y-97120000D01*
X151042500Y-97120000D01*
X151036500Y-97120000D01*
X151029500Y-97119000D01*
X151023500Y-97119000D01*
X151017500Y-97117000D01*
X151011500Y-97116000D01*
X151005500Y-97114000D01*
X150999500Y-97112000D01*
X150993500Y-97110000D01*
X150988500Y-97107000D01*
X150982500Y-97104000D01*
X150977500Y-97101000D01*
X150971500Y-97097000D01*
X150966500Y-97093000D01*
X150962500Y-97089000D01*
X150957500Y-97085000D01*
X150953500Y-97080000D01*
X150949500Y-97076000D01*
X150945500Y-97071000D01*
X150941500Y-97065000D01*
X150938500Y-97060000D01*
X150935500Y-97054000D01*
X150932500Y-97049000D01*
X150930500Y-97043000D01*
X150928500Y-97037000D01*
X150926500Y-97031000D01*
X150925500Y-97025000D01*
X150923500Y-97019000D01*
X150923500Y-97013000D01*
X150922500Y-97006000D01*
X150922500Y-97000000D01*
X150922500Y-96500000D01*
X150922500Y-96494000D01*
X150923500Y-96487000D01*
X150923500Y-96481000D01*
X150925500Y-96475000D01*
X150926500Y-96469000D01*
X150928500Y-96463000D01*
X150930500Y-96457000D01*
X150932500Y-96451000D01*
X150935500Y-96446000D01*
X150938500Y-96440000D01*
X150941500Y-96435000D01*
X150945500Y-96429000D01*
X150949500Y-96424000D01*
X150953500Y-96420000D01*
X150957500Y-96415000D01*
X150962500Y-96411000D01*
X150966500Y-96407000D01*
X150971500Y-96403000D01*
X150977500Y-96399000D01*
X150982500Y-96396000D01*
X150988500Y-96393000D01*
X150993500Y-96390000D01*
X150999500Y-96388000D01*
X151005500Y-96386000D01*
X151011500Y-96384000D01*
X151017500Y-96383000D01*
X151023500Y-96381000D01*
X151029500Y-96381000D01*
X151036500Y-96380000D01*
X151042500Y-96380000D01*
X151182500Y-96380000D01*
X151188500Y-96380000D01*
X151195500Y-96381000D01*
G36*
X151195500Y-96381000D02*
G01*
X151201500Y-96381000D01*
X151207500Y-96383000D01*
X151213500Y-96384000D01*
X151219500Y-96386000D01*
X151225500Y-96388000D01*
X151231500Y-96390000D01*
X151236500Y-96393000D01*
X151242500Y-96396000D01*
X151247500Y-96399000D01*
X151253500Y-96403000D01*
X151258500Y-96407000D01*
X151262500Y-96411000D01*
X151267500Y-96415000D01*
X151271500Y-96420000D01*
X151275500Y-96424000D01*
X151279500Y-96429000D01*
X151283500Y-96435000D01*
X151286500Y-96440000D01*
X151289500Y-96446000D01*
X151292500Y-96451000D01*
X151294500Y-96457000D01*
X151296500Y-96463000D01*
X151298500Y-96469000D01*
X151299500Y-96475000D01*
X151301500Y-96481000D01*
X151301500Y-96487000D01*
X151302500Y-96494000D01*
X151302500Y-96500000D01*
X151302500Y-97000000D01*
X151302500Y-97006000D01*
X151301500Y-97013000D01*
X151301500Y-97019000D01*
X151299500Y-97025000D01*
X151298500Y-97031000D01*
X151296500Y-97037000D01*
X151294500Y-97043000D01*
X151292500Y-97049000D01*
X151289500Y-97054000D01*
X151286500Y-97060000D01*
X151283500Y-97065000D01*
X151279500Y-97071000D01*
X151275500Y-97076000D01*
X151271500Y-97080000D01*
X151267500Y-97085000D01*
X151262500Y-97089000D01*
X151258500Y-97093000D01*
X151253500Y-97097000D01*
X151247500Y-97101000D01*
X151242500Y-97104000D01*
X151236500Y-97107000D01*
X151231500Y-97110000D01*
X151225500Y-97112000D01*
X151219500Y-97114000D01*
X151213500Y-97116000D01*
X151207500Y-97117000D01*
X151201500Y-97119000D01*
X151195500Y-97119000D01*
X151188500Y-97120000D01*
X151182500Y-97120000D01*
X151042500Y-97120000D01*
X151036500Y-97120000D01*
X151029500Y-97119000D01*
X151023500Y-97119000D01*
X151017500Y-97117000D01*
X151011500Y-97116000D01*
X151005500Y-97114000D01*
X150999500Y-97112000D01*
X150993500Y-97110000D01*
X150988500Y-97107000D01*
X150982500Y-97104000D01*
X150977500Y-97101000D01*
X150971500Y-97097000D01*
X150966500Y-97093000D01*
X150962500Y-97089000D01*
X150957500Y-97085000D01*
X150953500Y-97080000D01*
X150949500Y-97076000D01*
X150945500Y-97071000D01*
X150941500Y-97065000D01*
X150938500Y-97060000D01*
X150935500Y-97054000D01*
X150932500Y-97049000D01*
X150930500Y-97043000D01*
X150928500Y-97037000D01*
X150926500Y-97031000D01*
X150925500Y-97025000D01*
X150923500Y-97019000D01*
X150923500Y-97013000D01*
X150922500Y-97006000D01*
X150922500Y-97000000D01*
X150922500Y-96500000D01*
X150922500Y-96494000D01*
X150923500Y-96487000D01*
X150923500Y-96481000D01*
X150925500Y-96475000D01*
X150926500Y-96469000D01*
X150928500Y-96463000D01*
X150930500Y-96457000D01*
X150932500Y-96451000D01*
X150935500Y-96446000D01*
X150938500Y-96440000D01*
X150941500Y-96435000D01*
X150945500Y-96429000D01*
X150949500Y-96424000D01*
X150953500Y-96420000D01*
X150957500Y-96415000D01*
X150962500Y-96411000D01*
X150966500Y-96407000D01*
X150971500Y-96403000D01*
X150977500Y-96399000D01*
X150982500Y-96396000D01*
X150988500Y-96393000D01*
X150993500Y-96390000D01*
X150999500Y-96388000D01*
X151005500Y-96386000D01*
X151011500Y-96384000D01*
X151017500Y-96383000D01*
X151023500Y-96381000D01*
X151029500Y-96381000D01*
X151036500Y-96380000D01*
X151042500Y-96380000D01*
X151182500Y-96380000D01*
X151188500Y-96380000D01*
X151195500Y-96381000D01*
G37*
X151195500Y-93081000D02*
X151201500Y-93081000D01*
X151207500Y-93083000D01*
X151213500Y-93084000D01*
X151219500Y-93086000D01*
X151225500Y-93088000D01*
X151231500Y-93090000D01*
X151236500Y-93093000D01*
X151242500Y-93096000D01*
X151247500Y-93099000D01*
X151253500Y-93103000D01*
X151258500Y-93107000D01*
X151262500Y-93111000D01*
X151267500Y-93115000D01*
X151271500Y-93120000D01*
X151275500Y-93124000D01*
X151279500Y-93129000D01*
X151283500Y-93135000D01*
X151286500Y-93140000D01*
X151289500Y-93146000D01*
X151292500Y-93151000D01*
X151294500Y-93157000D01*
X151296500Y-93163000D01*
X151298500Y-93169000D01*
X151299500Y-93175000D01*
X151301500Y-93181000D01*
X151301500Y-93187000D01*
X151302500Y-93194000D01*
X151302500Y-93200000D01*
X151302500Y-93700000D01*
X151302500Y-93706000D01*
X151301500Y-93713000D01*
X151301500Y-93719000D01*
X151299500Y-93725000D01*
X151298500Y-93731000D01*
X151296500Y-93737000D01*
X151294500Y-93743000D01*
X151292500Y-93749000D01*
X151289500Y-93754000D01*
X151286500Y-93760000D01*
X151283500Y-93765000D01*
X151279500Y-93771000D01*
X151275500Y-93776000D01*
X151271500Y-93780000D01*
X151267500Y-93785000D01*
X151262500Y-93789000D01*
X151258500Y-93793000D01*
X151253500Y-93797000D01*
X151247500Y-93801000D01*
X151242500Y-93804000D01*
X151236500Y-93807000D01*
X151231500Y-93810000D01*
X151225500Y-93812000D01*
X151219500Y-93814000D01*
X151213500Y-93816000D01*
X151207500Y-93817000D01*
X151201500Y-93819000D01*
X151195500Y-93819000D01*
X151188500Y-93820000D01*
X151182500Y-93820000D01*
X151042500Y-93820000D01*
X151036500Y-93820000D01*
X151029500Y-93819000D01*
X151023500Y-93819000D01*
X151017500Y-93817000D01*
X151011500Y-93816000D01*
X151005500Y-93814000D01*
X150999500Y-93812000D01*
X150993500Y-93810000D01*
X150988500Y-93807000D01*
X150982500Y-93804000D01*
X150977500Y-93801000D01*
X150971500Y-93797000D01*
X150966500Y-93793000D01*
X150962500Y-93789000D01*
X150957500Y-93785000D01*
X150953500Y-93780000D01*
X150949500Y-93776000D01*
X150945500Y-93771000D01*
X150941500Y-93765000D01*
X150938500Y-93760000D01*
X150935500Y-93754000D01*
X150932500Y-93749000D01*
X150930500Y-93743000D01*
X150928500Y-93737000D01*
X150926500Y-93731000D01*
X150925500Y-93725000D01*
X150923500Y-93719000D01*
X150923500Y-93713000D01*
X150922500Y-93706000D01*
X150922500Y-93700000D01*
X150922500Y-93200000D01*
X150922500Y-93194000D01*
X150923500Y-93187000D01*
X150923500Y-93181000D01*
X150925500Y-93175000D01*
X150926500Y-93169000D01*
X150928500Y-93163000D01*
X150930500Y-93157000D01*
X150932500Y-93151000D01*
X150935500Y-93146000D01*
X150938500Y-93140000D01*
X150941500Y-93135000D01*
X150945500Y-93129000D01*
X150949500Y-93124000D01*
X150953500Y-93120000D01*
X150957500Y-93115000D01*
X150962500Y-93111000D01*
X150966500Y-93107000D01*
X150971500Y-93103000D01*
X150977500Y-93099000D01*
X150982500Y-93096000D01*
X150988500Y-93093000D01*
X150993500Y-93090000D01*
X150999500Y-93088000D01*
X151005500Y-93086000D01*
X151011500Y-93084000D01*
X151017500Y-93083000D01*
X151023500Y-93081000D01*
X151029500Y-93081000D01*
X151036500Y-93080000D01*
X151042500Y-93080000D01*
X151182500Y-93080000D01*
X151188500Y-93080000D01*
X151195500Y-93081000D01*
G36*
X151195500Y-93081000D02*
G01*
X151201500Y-93081000D01*
X151207500Y-93083000D01*
X151213500Y-93084000D01*
X151219500Y-93086000D01*
X151225500Y-93088000D01*
X151231500Y-93090000D01*
X151236500Y-93093000D01*
X151242500Y-93096000D01*
X151247500Y-93099000D01*
X151253500Y-93103000D01*
X151258500Y-93107000D01*
X151262500Y-93111000D01*
X151267500Y-93115000D01*
X151271500Y-93120000D01*
X151275500Y-93124000D01*
X151279500Y-93129000D01*
X151283500Y-93135000D01*
X151286500Y-93140000D01*
X151289500Y-93146000D01*
X151292500Y-93151000D01*
X151294500Y-93157000D01*
X151296500Y-93163000D01*
X151298500Y-93169000D01*
X151299500Y-93175000D01*
X151301500Y-93181000D01*
X151301500Y-93187000D01*
X151302500Y-93194000D01*
X151302500Y-93200000D01*
X151302500Y-93700000D01*
X151302500Y-93706000D01*
X151301500Y-93713000D01*
X151301500Y-93719000D01*
X151299500Y-93725000D01*
X151298500Y-93731000D01*
X151296500Y-93737000D01*
X151294500Y-93743000D01*
X151292500Y-93749000D01*
X151289500Y-93754000D01*
X151286500Y-93760000D01*
X151283500Y-93765000D01*
X151279500Y-93771000D01*
X151275500Y-93776000D01*
X151271500Y-93780000D01*
X151267500Y-93785000D01*
X151262500Y-93789000D01*
X151258500Y-93793000D01*
X151253500Y-93797000D01*
X151247500Y-93801000D01*
X151242500Y-93804000D01*
X151236500Y-93807000D01*
X151231500Y-93810000D01*
X151225500Y-93812000D01*
X151219500Y-93814000D01*
X151213500Y-93816000D01*
X151207500Y-93817000D01*
X151201500Y-93819000D01*
X151195500Y-93819000D01*
X151188500Y-93820000D01*
X151182500Y-93820000D01*
X151042500Y-93820000D01*
X151036500Y-93820000D01*
X151029500Y-93819000D01*
X151023500Y-93819000D01*
X151017500Y-93817000D01*
X151011500Y-93816000D01*
X151005500Y-93814000D01*
X150999500Y-93812000D01*
X150993500Y-93810000D01*
X150988500Y-93807000D01*
X150982500Y-93804000D01*
X150977500Y-93801000D01*
X150971500Y-93797000D01*
X150966500Y-93793000D01*
X150962500Y-93789000D01*
X150957500Y-93785000D01*
X150953500Y-93780000D01*
X150949500Y-93776000D01*
X150945500Y-93771000D01*
X150941500Y-93765000D01*
X150938500Y-93760000D01*
X150935500Y-93754000D01*
X150932500Y-93749000D01*
X150930500Y-93743000D01*
X150928500Y-93737000D01*
X150926500Y-93731000D01*
X150925500Y-93725000D01*
X150923500Y-93719000D01*
X150923500Y-93713000D01*
X150922500Y-93706000D01*
X150922500Y-93700000D01*
X150922500Y-93200000D01*
X150922500Y-93194000D01*
X150923500Y-93187000D01*
X150923500Y-93181000D01*
X150925500Y-93175000D01*
X150926500Y-93169000D01*
X150928500Y-93163000D01*
X150930500Y-93157000D01*
X150932500Y-93151000D01*
X150935500Y-93146000D01*
X150938500Y-93140000D01*
X150941500Y-93135000D01*
X150945500Y-93129000D01*
X150949500Y-93124000D01*
X150953500Y-93120000D01*
X150957500Y-93115000D01*
X150962500Y-93111000D01*
X150966500Y-93107000D01*
X150971500Y-93103000D01*
X150977500Y-93099000D01*
X150982500Y-93096000D01*
X150988500Y-93093000D01*
X150993500Y-93090000D01*
X150999500Y-93088000D01*
X151005500Y-93086000D01*
X151011500Y-93084000D01*
X151017500Y-93083000D01*
X151023500Y-93081000D01*
X151029500Y-93081000D01*
X151036500Y-93080000D01*
X151042500Y-93080000D01*
X151182500Y-93080000D01*
X151188500Y-93080000D01*
X151195500Y-93081000D01*
G37*
X151695500Y-96381000D02*
X151701500Y-96381000D01*
X151707500Y-96383000D01*
X151713500Y-96384000D01*
X151719500Y-96386000D01*
X151725500Y-96388000D01*
X151731500Y-96390000D01*
X151736500Y-96393000D01*
X151742500Y-96396000D01*
X151747500Y-96399000D01*
X151753500Y-96403000D01*
X151758500Y-96407000D01*
X151762500Y-96411000D01*
X151767500Y-96415000D01*
X151771500Y-96420000D01*
X151775500Y-96424000D01*
X151779500Y-96429000D01*
X151783500Y-96435000D01*
X151786500Y-96440000D01*
X151789500Y-96446000D01*
X151792500Y-96451000D01*
X151794500Y-96457000D01*
X151796500Y-96463000D01*
X151798500Y-96469000D01*
X151799500Y-96475000D01*
X151801500Y-96481000D01*
X151801500Y-96487000D01*
X151802500Y-96494000D01*
X151802500Y-96500000D01*
X151802500Y-97000000D01*
X151802500Y-97006000D01*
X151801500Y-97013000D01*
X151801500Y-97019000D01*
X151799500Y-97025000D01*
X151798500Y-97031000D01*
X151796500Y-97037000D01*
X151794500Y-97043000D01*
X151792500Y-97049000D01*
X151789500Y-97054000D01*
X151786500Y-97060000D01*
X151783500Y-97065000D01*
X151779500Y-97071000D01*
X151775500Y-97076000D01*
X151771500Y-97080000D01*
X151767500Y-97085000D01*
X151762500Y-97089000D01*
X151758500Y-97093000D01*
X151753500Y-97097000D01*
X151747500Y-97101000D01*
X151742500Y-97104000D01*
X151736500Y-97107000D01*
X151731500Y-97110000D01*
X151725500Y-97112000D01*
X151719500Y-97114000D01*
X151713500Y-97116000D01*
X151707500Y-97117000D01*
X151701500Y-97119000D01*
X151695500Y-97119000D01*
X151688500Y-97120000D01*
X151682500Y-97120000D01*
X151542500Y-97120000D01*
X151536500Y-97120000D01*
X151529500Y-97119000D01*
X151523500Y-97119000D01*
X151517500Y-97117000D01*
X151511500Y-97116000D01*
X151505500Y-97114000D01*
X151499500Y-97112000D01*
X151493500Y-97110000D01*
X151488500Y-97107000D01*
X151482500Y-97104000D01*
X151477500Y-97101000D01*
X151471500Y-97097000D01*
X151466500Y-97093000D01*
X151462500Y-97089000D01*
X151457500Y-97085000D01*
X151453500Y-97080000D01*
X151449500Y-97076000D01*
X151445500Y-97071000D01*
X151441500Y-97065000D01*
X151438500Y-97060000D01*
X151435500Y-97054000D01*
X151432500Y-97049000D01*
X151430500Y-97043000D01*
X151428500Y-97037000D01*
X151426500Y-97031000D01*
X151425500Y-97025000D01*
X151423500Y-97019000D01*
X151423500Y-97013000D01*
X151422500Y-97006000D01*
X151422500Y-97000000D01*
X151422500Y-96500000D01*
X151422500Y-96494000D01*
X151423500Y-96487000D01*
X151423500Y-96481000D01*
X151425500Y-96475000D01*
X151426500Y-96469000D01*
X151428500Y-96463000D01*
X151430500Y-96457000D01*
X151432500Y-96451000D01*
X151435500Y-96446000D01*
X151438500Y-96440000D01*
X151441500Y-96435000D01*
X151445500Y-96429000D01*
X151449500Y-96424000D01*
X151453500Y-96420000D01*
X151457500Y-96415000D01*
X151462500Y-96411000D01*
X151466500Y-96407000D01*
X151471500Y-96403000D01*
X151477500Y-96399000D01*
X151482500Y-96396000D01*
X151488500Y-96393000D01*
X151493500Y-96390000D01*
X151499500Y-96388000D01*
X151505500Y-96386000D01*
X151511500Y-96384000D01*
X151517500Y-96383000D01*
X151523500Y-96381000D01*
X151529500Y-96381000D01*
X151536500Y-96380000D01*
X151542500Y-96380000D01*
X151682500Y-96380000D01*
X151688500Y-96380000D01*
X151695500Y-96381000D01*
G36*
X151695500Y-96381000D02*
G01*
X151701500Y-96381000D01*
X151707500Y-96383000D01*
X151713500Y-96384000D01*
X151719500Y-96386000D01*
X151725500Y-96388000D01*
X151731500Y-96390000D01*
X151736500Y-96393000D01*
X151742500Y-96396000D01*
X151747500Y-96399000D01*
X151753500Y-96403000D01*
X151758500Y-96407000D01*
X151762500Y-96411000D01*
X151767500Y-96415000D01*
X151771500Y-96420000D01*
X151775500Y-96424000D01*
X151779500Y-96429000D01*
X151783500Y-96435000D01*
X151786500Y-96440000D01*
X151789500Y-96446000D01*
X151792500Y-96451000D01*
X151794500Y-96457000D01*
X151796500Y-96463000D01*
X151798500Y-96469000D01*
X151799500Y-96475000D01*
X151801500Y-96481000D01*
X151801500Y-96487000D01*
X151802500Y-96494000D01*
X151802500Y-96500000D01*
X151802500Y-97000000D01*
X151802500Y-97006000D01*
X151801500Y-97013000D01*
X151801500Y-97019000D01*
X151799500Y-97025000D01*
X151798500Y-97031000D01*
X151796500Y-97037000D01*
X151794500Y-97043000D01*
X151792500Y-97049000D01*
X151789500Y-97054000D01*
X151786500Y-97060000D01*
X151783500Y-97065000D01*
X151779500Y-97071000D01*
X151775500Y-97076000D01*
X151771500Y-97080000D01*
X151767500Y-97085000D01*
X151762500Y-97089000D01*
X151758500Y-97093000D01*
X151753500Y-97097000D01*
X151747500Y-97101000D01*
X151742500Y-97104000D01*
X151736500Y-97107000D01*
X151731500Y-97110000D01*
X151725500Y-97112000D01*
X151719500Y-97114000D01*
X151713500Y-97116000D01*
X151707500Y-97117000D01*
X151701500Y-97119000D01*
X151695500Y-97119000D01*
X151688500Y-97120000D01*
X151682500Y-97120000D01*
X151542500Y-97120000D01*
X151536500Y-97120000D01*
X151529500Y-97119000D01*
X151523500Y-97119000D01*
X151517500Y-97117000D01*
X151511500Y-97116000D01*
X151505500Y-97114000D01*
X151499500Y-97112000D01*
X151493500Y-97110000D01*
X151488500Y-97107000D01*
X151482500Y-97104000D01*
X151477500Y-97101000D01*
X151471500Y-97097000D01*
X151466500Y-97093000D01*
X151462500Y-97089000D01*
X151457500Y-97085000D01*
X151453500Y-97080000D01*
X151449500Y-97076000D01*
X151445500Y-97071000D01*
X151441500Y-97065000D01*
X151438500Y-97060000D01*
X151435500Y-97054000D01*
X151432500Y-97049000D01*
X151430500Y-97043000D01*
X151428500Y-97037000D01*
X151426500Y-97031000D01*
X151425500Y-97025000D01*
X151423500Y-97019000D01*
X151423500Y-97013000D01*
X151422500Y-97006000D01*
X151422500Y-97000000D01*
X151422500Y-96500000D01*
X151422500Y-96494000D01*
X151423500Y-96487000D01*
X151423500Y-96481000D01*
X151425500Y-96475000D01*
X151426500Y-96469000D01*
X151428500Y-96463000D01*
X151430500Y-96457000D01*
X151432500Y-96451000D01*
X151435500Y-96446000D01*
X151438500Y-96440000D01*
X151441500Y-96435000D01*
X151445500Y-96429000D01*
X151449500Y-96424000D01*
X151453500Y-96420000D01*
X151457500Y-96415000D01*
X151462500Y-96411000D01*
X151466500Y-96407000D01*
X151471500Y-96403000D01*
X151477500Y-96399000D01*
X151482500Y-96396000D01*
X151488500Y-96393000D01*
X151493500Y-96390000D01*
X151499500Y-96388000D01*
X151505500Y-96386000D01*
X151511500Y-96384000D01*
X151517500Y-96383000D01*
X151523500Y-96381000D01*
X151529500Y-96381000D01*
X151536500Y-96380000D01*
X151542500Y-96380000D01*
X151682500Y-96380000D01*
X151688500Y-96380000D01*
X151695500Y-96381000D01*
G37*
X151695500Y-93081000D02*
X151701500Y-93081000D01*
X151707500Y-93083000D01*
X151713500Y-93084000D01*
X151719500Y-93086000D01*
X151725500Y-93088000D01*
X151731500Y-93090000D01*
X151736500Y-93093000D01*
X151742500Y-93096000D01*
X151747500Y-93099000D01*
X151753500Y-93103000D01*
X151758500Y-93107000D01*
X151762500Y-93111000D01*
X151767500Y-93115000D01*
X151771500Y-93120000D01*
X151775500Y-93124000D01*
X151779500Y-93129000D01*
X151783500Y-93135000D01*
X151786500Y-93140000D01*
X151789500Y-93146000D01*
X151792500Y-93151000D01*
X151794500Y-93157000D01*
X151796500Y-93163000D01*
X151798500Y-93169000D01*
X151799500Y-93175000D01*
X151801500Y-93181000D01*
X151801500Y-93187000D01*
X151802500Y-93194000D01*
X151802500Y-93200000D01*
X151802500Y-93700000D01*
X151802500Y-93706000D01*
X151801500Y-93713000D01*
X151801500Y-93719000D01*
X151799500Y-93725000D01*
X151798500Y-93731000D01*
X151796500Y-93737000D01*
X151794500Y-93743000D01*
X151792500Y-93749000D01*
X151789500Y-93754000D01*
X151786500Y-93760000D01*
X151783500Y-93765000D01*
X151779500Y-93771000D01*
X151775500Y-93776000D01*
X151771500Y-93780000D01*
X151767500Y-93785000D01*
X151762500Y-93789000D01*
X151758500Y-93793000D01*
X151753500Y-93797000D01*
X151747500Y-93801000D01*
X151742500Y-93804000D01*
X151736500Y-93807000D01*
X151731500Y-93810000D01*
X151725500Y-93812000D01*
X151719500Y-93814000D01*
X151713500Y-93816000D01*
X151707500Y-93817000D01*
X151701500Y-93819000D01*
X151695500Y-93819000D01*
X151688500Y-93820000D01*
X151682500Y-93820000D01*
X151542500Y-93820000D01*
X151536500Y-93820000D01*
X151529500Y-93819000D01*
X151523500Y-93819000D01*
X151517500Y-93817000D01*
X151511500Y-93816000D01*
X151505500Y-93814000D01*
X151499500Y-93812000D01*
X151493500Y-93810000D01*
X151488500Y-93807000D01*
X151482500Y-93804000D01*
X151477500Y-93801000D01*
X151471500Y-93797000D01*
X151466500Y-93793000D01*
X151462500Y-93789000D01*
X151457500Y-93785000D01*
X151453500Y-93780000D01*
X151449500Y-93776000D01*
X151445500Y-93771000D01*
X151441500Y-93765000D01*
X151438500Y-93760000D01*
X151435500Y-93754000D01*
X151432500Y-93749000D01*
X151430500Y-93743000D01*
X151428500Y-93737000D01*
X151426500Y-93731000D01*
X151425500Y-93725000D01*
X151423500Y-93719000D01*
X151423500Y-93713000D01*
X151422500Y-93706000D01*
X151422500Y-93700000D01*
X151422500Y-93200000D01*
X151422500Y-93194000D01*
X151423500Y-93187000D01*
X151423500Y-93181000D01*
X151425500Y-93175000D01*
X151426500Y-93169000D01*
X151428500Y-93163000D01*
X151430500Y-93157000D01*
X151432500Y-93151000D01*
X151435500Y-93146000D01*
X151438500Y-93140000D01*
X151441500Y-93135000D01*
X151445500Y-93129000D01*
X151449500Y-93124000D01*
X151453500Y-93120000D01*
X151457500Y-93115000D01*
X151462500Y-93111000D01*
X151466500Y-93107000D01*
X151471500Y-93103000D01*
X151477500Y-93099000D01*
X151482500Y-93096000D01*
X151488500Y-93093000D01*
X151493500Y-93090000D01*
X151499500Y-93088000D01*
X151505500Y-93086000D01*
X151511500Y-93084000D01*
X151517500Y-93083000D01*
X151523500Y-93081000D01*
X151529500Y-93081000D01*
X151536500Y-93080000D01*
X151542500Y-93080000D01*
X151682500Y-93080000D01*
X151688500Y-93080000D01*
X151695500Y-93081000D01*
G36*
X151695500Y-93081000D02*
G01*
X151701500Y-93081000D01*
X151707500Y-93083000D01*
X151713500Y-93084000D01*
X151719500Y-93086000D01*
X151725500Y-93088000D01*
X151731500Y-93090000D01*
X151736500Y-93093000D01*
X151742500Y-93096000D01*
X151747500Y-93099000D01*
X151753500Y-93103000D01*
X151758500Y-93107000D01*
X151762500Y-93111000D01*
X151767500Y-93115000D01*
X151771500Y-93120000D01*
X151775500Y-93124000D01*
X151779500Y-93129000D01*
X151783500Y-93135000D01*
X151786500Y-93140000D01*
X151789500Y-93146000D01*
X151792500Y-93151000D01*
X151794500Y-93157000D01*
X151796500Y-93163000D01*
X151798500Y-93169000D01*
X151799500Y-93175000D01*
X151801500Y-93181000D01*
X151801500Y-93187000D01*
X151802500Y-93194000D01*
X151802500Y-93200000D01*
X151802500Y-93700000D01*
X151802500Y-93706000D01*
X151801500Y-93713000D01*
X151801500Y-93719000D01*
X151799500Y-93725000D01*
X151798500Y-93731000D01*
X151796500Y-93737000D01*
X151794500Y-93743000D01*
X151792500Y-93749000D01*
X151789500Y-93754000D01*
X151786500Y-93760000D01*
X151783500Y-93765000D01*
X151779500Y-93771000D01*
X151775500Y-93776000D01*
X151771500Y-93780000D01*
X151767500Y-93785000D01*
X151762500Y-93789000D01*
X151758500Y-93793000D01*
X151753500Y-93797000D01*
X151747500Y-93801000D01*
X151742500Y-93804000D01*
X151736500Y-93807000D01*
X151731500Y-93810000D01*
X151725500Y-93812000D01*
X151719500Y-93814000D01*
X151713500Y-93816000D01*
X151707500Y-93817000D01*
X151701500Y-93819000D01*
X151695500Y-93819000D01*
X151688500Y-93820000D01*
X151682500Y-93820000D01*
X151542500Y-93820000D01*
X151536500Y-93820000D01*
X151529500Y-93819000D01*
X151523500Y-93819000D01*
X151517500Y-93817000D01*
X151511500Y-93816000D01*
X151505500Y-93814000D01*
X151499500Y-93812000D01*
X151493500Y-93810000D01*
X151488500Y-93807000D01*
X151482500Y-93804000D01*
X151477500Y-93801000D01*
X151471500Y-93797000D01*
X151466500Y-93793000D01*
X151462500Y-93789000D01*
X151457500Y-93785000D01*
X151453500Y-93780000D01*
X151449500Y-93776000D01*
X151445500Y-93771000D01*
X151441500Y-93765000D01*
X151438500Y-93760000D01*
X151435500Y-93754000D01*
X151432500Y-93749000D01*
X151430500Y-93743000D01*
X151428500Y-93737000D01*
X151426500Y-93731000D01*
X151425500Y-93725000D01*
X151423500Y-93719000D01*
X151423500Y-93713000D01*
X151422500Y-93706000D01*
X151422500Y-93700000D01*
X151422500Y-93200000D01*
X151422500Y-93194000D01*
X151423500Y-93187000D01*
X151423500Y-93181000D01*
X151425500Y-93175000D01*
X151426500Y-93169000D01*
X151428500Y-93163000D01*
X151430500Y-93157000D01*
X151432500Y-93151000D01*
X151435500Y-93146000D01*
X151438500Y-93140000D01*
X151441500Y-93135000D01*
X151445500Y-93129000D01*
X151449500Y-93124000D01*
X151453500Y-93120000D01*
X151457500Y-93115000D01*
X151462500Y-93111000D01*
X151466500Y-93107000D01*
X151471500Y-93103000D01*
X151477500Y-93099000D01*
X151482500Y-93096000D01*
X151488500Y-93093000D01*
X151493500Y-93090000D01*
X151499500Y-93088000D01*
X151505500Y-93086000D01*
X151511500Y-93084000D01*
X151517500Y-93083000D01*
X151523500Y-93081000D01*
X151529500Y-93081000D01*
X151536500Y-93080000D01*
X151542500Y-93080000D01*
X151682500Y-93080000D01*
X151688500Y-93080000D01*
X151695500Y-93081000D01*
G37*
X152195500Y-96381000D02*
X152201500Y-96381000D01*
X152207500Y-96383000D01*
X152213500Y-96384000D01*
X152219500Y-96386000D01*
X152225500Y-96388000D01*
X152231500Y-96390000D01*
X152236500Y-96393000D01*
X152242500Y-96396000D01*
X152247500Y-96399000D01*
X152253500Y-96403000D01*
X152258500Y-96407000D01*
X152262500Y-96411000D01*
X152267500Y-96415000D01*
X152271500Y-96420000D01*
X152275500Y-96424000D01*
X152279500Y-96429000D01*
X152283500Y-96435000D01*
X152286500Y-96440000D01*
X152289500Y-96446000D01*
X152292500Y-96451000D01*
X152294500Y-96457000D01*
X152296500Y-96463000D01*
X152298500Y-96469000D01*
X152299500Y-96475000D01*
X152301500Y-96481000D01*
X152301500Y-96487000D01*
X152302500Y-96494000D01*
X152302500Y-96500000D01*
X152302500Y-97000000D01*
X152302500Y-97006000D01*
X152301500Y-97013000D01*
X152301500Y-97019000D01*
X152299500Y-97025000D01*
X152298500Y-97031000D01*
X152296500Y-97037000D01*
X152294500Y-97043000D01*
X152292500Y-97049000D01*
X152289500Y-97054000D01*
X152286500Y-97060000D01*
X152283500Y-97065000D01*
X152279500Y-97071000D01*
X152275500Y-97076000D01*
X152271500Y-97080000D01*
X152267500Y-97085000D01*
X152262500Y-97089000D01*
X152258500Y-97093000D01*
X152253500Y-97097000D01*
X152247500Y-97101000D01*
X152242500Y-97104000D01*
X152236500Y-97107000D01*
X152231500Y-97110000D01*
X152225500Y-97112000D01*
X152219500Y-97114000D01*
X152213500Y-97116000D01*
X152207500Y-97117000D01*
X152201500Y-97119000D01*
X152195500Y-97119000D01*
X152188500Y-97120000D01*
X152182500Y-97120000D01*
X152042500Y-97120000D01*
X152036500Y-97120000D01*
X152029500Y-97119000D01*
X152023500Y-97119000D01*
X152017500Y-97117000D01*
X152011500Y-97116000D01*
X152005500Y-97114000D01*
X151999500Y-97112000D01*
X151993500Y-97110000D01*
X151988500Y-97107000D01*
X151982500Y-97104000D01*
X151977500Y-97101000D01*
X151971500Y-97097000D01*
X151966500Y-97093000D01*
X151962500Y-97089000D01*
X151957500Y-97085000D01*
X151953500Y-97080000D01*
X151949500Y-97076000D01*
X151945500Y-97071000D01*
X151941500Y-97065000D01*
X151938500Y-97060000D01*
X151935500Y-97054000D01*
X151932500Y-97049000D01*
X151930500Y-97043000D01*
X151928500Y-97037000D01*
X151926500Y-97031000D01*
X151925500Y-97025000D01*
X151923500Y-97019000D01*
X151923500Y-97013000D01*
X151922500Y-97006000D01*
X151922500Y-97000000D01*
X151922500Y-96500000D01*
X151922500Y-96494000D01*
X151923500Y-96487000D01*
X151923500Y-96481000D01*
X151925500Y-96475000D01*
X151926500Y-96469000D01*
X151928500Y-96463000D01*
X151930500Y-96457000D01*
X151932500Y-96451000D01*
X151935500Y-96446000D01*
X151938500Y-96440000D01*
X151941500Y-96435000D01*
X151945500Y-96429000D01*
X151949500Y-96424000D01*
X151953500Y-96420000D01*
X151957500Y-96415000D01*
X151962500Y-96411000D01*
X151966500Y-96407000D01*
X151971500Y-96403000D01*
X151977500Y-96399000D01*
X151982500Y-96396000D01*
X151988500Y-96393000D01*
X151993500Y-96390000D01*
X151999500Y-96388000D01*
X152005500Y-96386000D01*
X152011500Y-96384000D01*
X152017500Y-96383000D01*
X152023500Y-96381000D01*
X152029500Y-96381000D01*
X152036500Y-96380000D01*
X152042500Y-96380000D01*
X152182500Y-96380000D01*
X152188500Y-96380000D01*
X152195500Y-96381000D01*
G36*
X152195500Y-96381000D02*
G01*
X152201500Y-96381000D01*
X152207500Y-96383000D01*
X152213500Y-96384000D01*
X152219500Y-96386000D01*
X152225500Y-96388000D01*
X152231500Y-96390000D01*
X152236500Y-96393000D01*
X152242500Y-96396000D01*
X152247500Y-96399000D01*
X152253500Y-96403000D01*
X152258500Y-96407000D01*
X152262500Y-96411000D01*
X152267500Y-96415000D01*
X152271500Y-96420000D01*
X152275500Y-96424000D01*
X152279500Y-96429000D01*
X152283500Y-96435000D01*
X152286500Y-96440000D01*
X152289500Y-96446000D01*
X152292500Y-96451000D01*
X152294500Y-96457000D01*
X152296500Y-96463000D01*
X152298500Y-96469000D01*
X152299500Y-96475000D01*
X152301500Y-96481000D01*
X152301500Y-96487000D01*
X152302500Y-96494000D01*
X152302500Y-96500000D01*
X152302500Y-97000000D01*
X152302500Y-97006000D01*
X152301500Y-97013000D01*
X152301500Y-97019000D01*
X152299500Y-97025000D01*
X152298500Y-97031000D01*
X152296500Y-97037000D01*
X152294500Y-97043000D01*
X152292500Y-97049000D01*
X152289500Y-97054000D01*
X152286500Y-97060000D01*
X152283500Y-97065000D01*
X152279500Y-97071000D01*
X152275500Y-97076000D01*
X152271500Y-97080000D01*
X152267500Y-97085000D01*
X152262500Y-97089000D01*
X152258500Y-97093000D01*
X152253500Y-97097000D01*
X152247500Y-97101000D01*
X152242500Y-97104000D01*
X152236500Y-97107000D01*
X152231500Y-97110000D01*
X152225500Y-97112000D01*
X152219500Y-97114000D01*
X152213500Y-97116000D01*
X152207500Y-97117000D01*
X152201500Y-97119000D01*
X152195500Y-97119000D01*
X152188500Y-97120000D01*
X152182500Y-97120000D01*
X152042500Y-97120000D01*
X152036500Y-97120000D01*
X152029500Y-97119000D01*
X152023500Y-97119000D01*
X152017500Y-97117000D01*
X152011500Y-97116000D01*
X152005500Y-97114000D01*
X151999500Y-97112000D01*
X151993500Y-97110000D01*
X151988500Y-97107000D01*
X151982500Y-97104000D01*
X151977500Y-97101000D01*
X151971500Y-97097000D01*
X151966500Y-97093000D01*
X151962500Y-97089000D01*
X151957500Y-97085000D01*
X151953500Y-97080000D01*
X151949500Y-97076000D01*
X151945500Y-97071000D01*
X151941500Y-97065000D01*
X151938500Y-97060000D01*
X151935500Y-97054000D01*
X151932500Y-97049000D01*
X151930500Y-97043000D01*
X151928500Y-97037000D01*
X151926500Y-97031000D01*
X151925500Y-97025000D01*
X151923500Y-97019000D01*
X151923500Y-97013000D01*
X151922500Y-97006000D01*
X151922500Y-97000000D01*
X151922500Y-96500000D01*
X151922500Y-96494000D01*
X151923500Y-96487000D01*
X151923500Y-96481000D01*
X151925500Y-96475000D01*
X151926500Y-96469000D01*
X151928500Y-96463000D01*
X151930500Y-96457000D01*
X151932500Y-96451000D01*
X151935500Y-96446000D01*
X151938500Y-96440000D01*
X151941500Y-96435000D01*
X151945500Y-96429000D01*
X151949500Y-96424000D01*
X151953500Y-96420000D01*
X151957500Y-96415000D01*
X151962500Y-96411000D01*
X151966500Y-96407000D01*
X151971500Y-96403000D01*
X151977500Y-96399000D01*
X151982500Y-96396000D01*
X151988500Y-96393000D01*
X151993500Y-96390000D01*
X151999500Y-96388000D01*
X152005500Y-96386000D01*
X152011500Y-96384000D01*
X152017500Y-96383000D01*
X152023500Y-96381000D01*
X152029500Y-96381000D01*
X152036500Y-96380000D01*
X152042500Y-96380000D01*
X152182500Y-96380000D01*
X152188500Y-96380000D01*
X152195500Y-96381000D01*
G37*
X152100500Y-94006000D02*
X152106500Y-94006000D01*
X152112500Y-94008000D01*
X152118500Y-94009000D01*
X152124500Y-94011000D01*
X152130500Y-94013000D01*
X152136500Y-94015000D01*
X152141500Y-94018000D01*
X152147500Y-94021000D01*
X152152500Y-94024000D01*
X152158500Y-94028000D01*
X152163500Y-94032000D01*
X152167500Y-94036000D01*
X152172500Y-94040000D01*
X152176500Y-94045000D01*
X152180500Y-94049000D01*
X152184500Y-94054000D01*
X152188500Y-94060000D01*
X152191500Y-94065000D01*
X152194500Y-94071000D01*
X152197500Y-94076000D01*
X152199500Y-94082000D01*
X152201500Y-94088000D01*
X152203500Y-94094000D01*
X152204500Y-94100000D01*
X152206500Y-94106000D01*
X152206500Y-94112000D01*
X152207500Y-94119000D01*
X152207500Y-94125000D01*
X152207500Y-96075000D01*
X152207500Y-96081000D01*
X152206500Y-96088000D01*
X152206500Y-96094000D01*
X152204500Y-96100000D01*
X152203500Y-96106000D01*
X152201500Y-96112000D01*
X152199500Y-96118000D01*
X152197500Y-96124000D01*
X152194500Y-96129000D01*
X152191500Y-96135000D01*
X152188500Y-96140000D01*
X152184500Y-96146000D01*
X152180500Y-96151000D01*
X152176500Y-96155000D01*
X152172500Y-96160000D01*
X152167500Y-96164000D01*
X152163500Y-96168000D01*
X152158500Y-96172000D01*
X152152500Y-96176000D01*
X152147500Y-96179000D01*
X152141500Y-96182000D01*
X152136500Y-96185000D01*
X152130500Y-96187000D01*
X152124500Y-96189000D01*
X152118500Y-96191000D01*
X152112500Y-96192000D01*
X152106500Y-96194000D01*
X152100500Y-96194000D01*
X152093500Y-96195000D01*
X152087500Y-96195000D01*
X150137500Y-96195000D01*
X150131500Y-96195000D01*
X150124500Y-96194000D01*
X150118500Y-96194000D01*
X150112500Y-96192000D01*
X150106500Y-96191000D01*
X150100500Y-96189000D01*
X150094500Y-96187000D01*
X150088500Y-96185000D01*
X150083500Y-96182000D01*
X150077500Y-96179000D01*
X150072500Y-96176000D01*
X150066500Y-96172000D01*
X150061500Y-96168000D01*
X150057500Y-96164000D01*
X150052500Y-96160000D01*
X150048500Y-96155000D01*
X150044500Y-96151000D01*
X150040500Y-96146000D01*
X150036500Y-96140000D01*
X150033500Y-96135000D01*
X150030500Y-96129000D01*
X150027500Y-96124000D01*
X150025500Y-96118000D01*
X150023500Y-96112000D01*
X150021500Y-96106000D01*
X150020500Y-96100000D01*
X150018500Y-96094000D01*
X150018500Y-96088000D01*
X150017500Y-96081000D01*
X150017500Y-96075000D01*
X150017500Y-94125000D01*
X150017500Y-94119000D01*
X150018500Y-94112000D01*
X150018500Y-94106000D01*
X150020500Y-94100000D01*
X150021500Y-94094000D01*
X150023500Y-94088000D01*
X150025500Y-94082000D01*
X150027500Y-94076000D01*
X150030500Y-94071000D01*
X150033500Y-94065000D01*
X150036500Y-94060000D01*
X150040500Y-94054000D01*
X150044500Y-94049000D01*
X150048500Y-94045000D01*
X150052500Y-94040000D01*
X150057500Y-94036000D01*
X150061500Y-94032000D01*
X150066500Y-94028000D01*
X150072500Y-94024000D01*
X150077500Y-94021000D01*
X150083500Y-94018000D01*
X150088500Y-94015000D01*
X150094500Y-94013000D01*
X150100500Y-94011000D01*
X150106500Y-94009000D01*
X150112500Y-94008000D01*
X150118500Y-94006000D01*
X150124500Y-94006000D01*
X150131500Y-94005000D01*
X150137500Y-94005000D01*
X152087500Y-94005000D01*
X152093500Y-94005000D01*
X152100500Y-94006000D01*
G36*
X152100500Y-94006000D02*
G01*
X152106500Y-94006000D01*
X152112500Y-94008000D01*
X152118500Y-94009000D01*
X152124500Y-94011000D01*
X152130500Y-94013000D01*
X152136500Y-94015000D01*
X152141500Y-94018000D01*
X152147500Y-94021000D01*
X152152500Y-94024000D01*
X152158500Y-94028000D01*
X152163500Y-94032000D01*
X152167500Y-94036000D01*
X152172500Y-94040000D01*
X152176500Y-94045000D01*
X152180500Y-94049000D01*
X152184500Y-94054000D01*
X152188500Y-94060000D01*
X152191500Y-94065000D01*
X152194500Y-94071000D01*
X152197500Y-94076000D01*
X152199500Y-94082000D01*
X152201500Y-94088000D01*
X152203500Y-94094000D01*
X152204500Y-94100000D01*
X152206500Y-94106000D01*
X152206500Y-94112000D01*
X152207500Y-94119000D01*
X152207500Y-94125000D01*
X152207500Y-96075000D01*
X152207500Y-96081000D01*
X152206500Y-96088000D01*
X152206500Y-96094000D01*
X152204500Y-96100000D01*
X152203500Y-96106000D01*
X152201500Y-96112000D01*
X152199500Y-96118000D01*
X152197500Y-96124000D01*
X152194500Y-96129000D01*
X152191500Y-96135000D01*
X152188500Y-96140000D01*
X152184500Y-96146000D01*
X152180500Y-96151000D01*
X152176500Y-96155000D01*
X152172500Y-96160000D01*
X152167500Y-96164000D01*
X152163500Y-96168000D01*
X152158500Y-96172000D01*
X152152500Y-96176000D01*
X152147500Y-96179000D01*
X152141500Y-96182000D01*
X152136500Y-96185000D01*
X152130500Y-96187000D01*
X152124500Y-96189000D01*
X152118500Y-96191000D01*
X152112500Y-96192000D01*
X152106500Y-96194000D01*
X152100500Y-96194000D01*
X152093500Y-96195000D01*
X152087500Y-96195000D01*
X150137500Y-96195000D01*
X150131500Y-96195000D01*
X150124500Y-96194000D01*
X150118500Y-96194000D01*
X150112500Y-96192000D01*
X150106500Y-96191000D01*
X150100500Y-96189000D01*
X150094500Y-96187000D01*
X150088500Y-96185000D01*
X150083500Y-96182000D01*
X150077500Y-96179000D01*
X150072500Y-96176000D01*
X150066500Y-96172000D01*
X150061500Y-96168000D01*
X150057500Y-96164000D01*
X150052500Y-96160000D01*
X150048500Y-96155000D01*
X150044500Y-96151000D01*
X150040500Y-96146000D01*
X150036500Y-96140000D01*
X150033500Y-96135000D01*
X150030500Y-96129000D01*
X150027500Y-96124000D01*
X150025500Y-96118000D01*
X150023500Y-96112000D01*
X150021500Y-96106000D01*
X150020500Y-96100000D01*
X150018500Y-96094000D01*
X150018500Y-96088000D01*
X150017500Y-96081000D01*
X150017500Y-96075000D01*
X150017500Y-94125000D01*
X150017500Y-94119000D01*
X150018500Y-94112000D01*
X150018500Y-94106000D01*
X150020500Y-94100000D01*
X150021500Y-94094000D01*
X150023500Y-94088000D01*
X150025500Y-94082000D01*
X150027500Y-94076000D01*
X150030500Y-94071000D01*
X150033500Y-94065000D01*
X150036500Y-94060000D01*
X150040500Y-94054000D01*
X150044500Y-94049000D01*
X150048500Y-94045000D01*
X150052500Y-94040000D01*
X150057500Y-94036000D01*
X150061500Y-94032000D01*
X150066500Y-94028000D01*
X150072500Y-94024000D01*
X150077500Y-94021000D01*
X150083500Y-94018000D01*
X150088500Y-94015000D01*
X150094500Y-94013000D01*
X150100500Y-94011000D01*
X150106500Y-94009000D01*
X150112500Y-94008000D01*
X150118500Y-94006000D01*
X150124500Y-94006000D01*
X150131500Y-94005000D01*
X150137500Y-94005000D01*
X152087500Y-94005000D01*
X152093500Y-94005000D01*
X152100500Y-94006000D01*
G37*
X152195500Y-93081000D02*
X152201500Y-93081000D01*
X152207500Y-93083000D01*
X152213500Y-93084000D01*
X152219500Y-93086000D01*
X152225500Y-93088000D01*
X152231500Y-93090000D01*
X152236500Y-93093000D01*
X152242500Y-93096000D01*
X152247500Y-93099000D01*
X152253500Y-93103000D01*
X152258500Y-93107000D01*
X152262500Y-93111000D01*
X152267500Y-93115000D01*
X152271500Y-93120000D01*
X152275500Y-93124000D01*
X152279500Y-93129000D01*
X152283500Y-93135000D01*
X152286500Y-93140000D01*
X152289500Y-93146000D01*
X152292500Y-93151000D01*
X152294500Y-93157000D01*
X152296500Y-93163000D01*
X152298500Y-93169000D01*
X152299500Y-93175000D01*
X152301500Y-93181000D01*
X152301500Y-93187000D01*
X152302500Y-93194000D01*
X152302500Y-93200000D01*
X152302500Y-93700000D01*
X152302500Y-93706000D01*
X152301500Y-93713000D01*
X152301500Y-93719000D01*
X152299500Y-93725000D01*
X152298500Y-93731000D01*
X152296500Y-93737000D01*
X152294500Y-93743000D01*
X152292500Y-93749000D01*
X152289500Y-93754000D01*
X152286500Y-93760000D01*
X152283500Y-93765000D01*
X152279500Y-93771000D01*
X152275500Y-93776000D01*
X152271500Y-93780000D01*
X152267500Y-93785000D01*
X152262500Y-93789000D01*
X152258500Y-93793000D01*
X152253500Y-93797000D01*
X152247500Y-93801000D01*
X152242500Y-93804000D01*
X152236500Y-93807000D01*
X152231500Y-93810000D01*
X152225500Y-93812000D01*
X152219500Y-93814000D01*
X152213500Y-93816000D01*
X152207500Y-93817000D01*
X152201500Y-93819000D01*
X152195500Y-93819000D01*
X152188500Y-93820000D01*
X152182500Y-93820000D01*
X152042500Y-93820000D01*
X152036500Y-93820000D01*
X152029500Y-93819000D01*
X152023500Y-93819000D01*
X152017500Y-93817000D01*
X152011500Y-93816000D01*
X152005500Y-93814000D01*
X151999500Y-93812000D01*
X151993500Y-93810000D01*
X151988500Y-93807000D01*
X151982500Y-93804000D01*
X151977500Y-93801000D01*
X151971500Y-93797000D01*
X151966500Y-93793000D01*
X151962500Y-93789000D01*
X151957500Y-93785000D01*
X151953500Y-93780000D01*
X151949500Y-93776000D01*
X151945500Y-93771000D01*
X151941500Y-93765000D01*
X151938500Y-93760000D01*
X151935500Y-93754000D01*
X151932500Y-93749000D01*
X151930500Y-93743000D01*
X151928500Y-93737000D01*
X151926500Y-93731000D01*
X151925500Y-93725000D01*
X151923500Y-93719000D01*
X151923500Y-93713000D01*
X151922500Y-93706000D01*
X151922500Y-93700000D01*
X151922500Y-93200000D01*
X151922500Y-93194000D01*
X151923500Y-93187000D01*
X151923500Y-93181000D01*
X151925500Y-93175000D01*
X151926500Y-93169000D01*
X151928500Y-93163000D01*
X151930500Y-93157000D01*
X151932500Y-93151000D01*
X151935500Y-93146000D01*
X151938500Y-93140000D01*
X151941500Y-93135000D01*
X151945500Y-93129000D01*
X151949500Y-93124000D01*
X151953500Y-93120000D01*
X151957500Y-93115000D01*
X151962500Y-93111000D01*
X151966500Y-93107000D01*
X151971500Y-93103000D01*
X151977500Y-93099000D01*
X151982500Y-93096000D01*
X151988500Y-93093000D01*
X151993500Y-93090000D01*
X151999500Y-93088000D01*
X152005500Y-93086000D01*
X152011500Y-93084000D01*
X152017500Y-93083000D01*
X152023500Y-93081000D01*
X152029500Y-93081000D01*
X152036500Y-93080000D01*
X152042500Y-93080000D01*
X152182500Y-93080000D01*
X152188500Y-93080000D01*
X152195500Y-93081000D01*
G36*
X152195500Y-93081000D02*
G01*
X152201500Y-93081000D01*
X152207500Y-93083000D01*
X152213500Y-93084000D01*
X152219500Y-93086000D01*
X152225500Y-93088000D01*
X152231500Y-93090000D01*
X152236500Y-93093000D01*
X152242500Y-93096000D01*
X152247500Y-93099000D01*
X152253500Y-93103000D01*
X152258500Y-93107000D01*
X152262500Y-93111000D01*
X152267500Y-93115000D01*
X152271500Y-93120000D01*
X152275500Y-93124000D01*
X152279500Y-93129000D01*
X152283500Y-93135000D01*
X152286500Y-93140000D01*
X152289500Y-93146000D01*
X152292500Y-93151000D01*
X152294500Y-93157000D01*
X152296500Y-93163000D01*
X152298500Y-93169000D01*
X152299500Y-93175000D01*
X152301500Y-93181000D01*
X152301500Y-93187000D01*
X152302500Y-93194000D01*
X152302500Y-93200000D01*
X152302500Y-93700000D01*
X152302500Y-93706000D01*
X152301500Y-93713000D01*
X152301500Y-93719000D01*
X152299500Y-93725000D01*
X152298500Y-93731000D01*
X152296500Y-93737000D01*
X152294500Y-93743000D01*
X152292500Y-93749000D01*
X152289500Y-93754000D01*
X152286500Y-93760000D01*
X152283500Y-93765000D01*
X152279500Y-93771000D01*
X152275500Y-93776000D01*
X152271500Y-93780000D01*
X152267500Y-93785000D01*
X152262500Y-93789000D01*
X152258500Y-93793000D01*
X152253500Y-93797000D01*
X152247500Y-93801000D01*
X152242500Y-93804000D01*
X152236500Y-93807000D01*
X152231500Y-93810000D01*
X152225500Y-93812000D01*
X152219500Y-93814000D01*
X152213500Y-93816000D01*
X152207500Y-93817000D01*
X152201500Y-93819000D01*
X152195500Y-93819000D01*
X152188500Y-93820000D01*
X152182500Y-93820000D01*
X152042500Y-93820000D01*
X152036500Y-93820000D01*
X152029500Y-93819000D01*
X152023500Y-93819000D01*
X152017500Y-93817000D01*
X152011500Y-93816000D01*
X152005500Y-93814000D01*
X151999500Y-93812000D01*
X151993500Y-93810000D01*
X151988500Y-93807000D01*
X151982500Y-93804000D01*
X151977500Y-93801000D01*
X151971500Y-93797000D01*
X151966500Y-93793000D01*
X151962500Y-93789000D01*
X151957500Y-93785000D01*
X151953500Y-93780000D01*
X151949500Y-93776000D01*
X151945500Y-93771000D01*
X151941500Y-93765000D01*
X151938500Y-93760000D01*
X151935500Y-93754000D01*
X151932500Y-93749000D01*
X151930500Y-93743000D01*
X151928500Y-93737000D01*
X151926500Y-93731000D01*
X151925500Y-93725000D01*
X151923500Y-93719000D01*
X151923500Y-93713000D01*
X151922500Y-93706000D01*
X151922500Y-93700000D01*
X151922500Y-93200000D01*
X151922500Y-93194000D01*
X151923500Y-93187000D01*
X151923500Y-93181000D01*
X151925500Y-93175000D01*
X151926500Y-93169000D01*
X151928500Y-93163000D01*
X151930500Y-93157000D01*
X151932500Y-93151000D01*
X151935500Y-93146000D01*
X151938500Y-93140000D01*
X151941500Y-93135000D01*
X151945500Y-93129000D01*
X151949500Y-93124000D01*
X151953500Y-93120000D01*
X151957500Y-93115000D01*
X151962500Y-93111000D01*
X151966500Y-93107000D01*
X151971500Y-93103000D01*
X151977500Y-93099000D01*
X151982500Y-93096000D01*
X151988500Y-93093000D01*
X151993500Y-93090000D01*
X151999500Y-93088000D01*
X152005500Y-93086000D01*
X152011500Y-93084000D01*
X152017500Y-93083000D01*
X152023500Y-93081000D01*
X152029500Y-93081000D01*
X152036500Y-93080000D01*
X152042500Y-93080000D01*
X152182500Y-93080000D01*
X152188500Y-93080000D01*
X152195500Y-93081000D01*
G37*
X153025500Y-93911000D02*
X153031500Y-93911000D01*
X153037500Y-93913000D01*
X153043500Y-93914000D01*
X153049500Y-93916000D01*
X153055500Y-93918000D01*
X153061500Y-93920000D01*
X153066500Y-93923000D01*
X153072500Y-93926000D01*
X153077500Y-93929000D01*
X153083500Y-93933000D01*
X153088500Y-93937000D01*
X153092500Y-93941000D01*
X153097500Y-93945000D01*
X153101500Y-93950000D01*
X153105500Y-93954000D01*
X153109500Y-93959000D01*
X153113500Y-93965000D01*
X153116500Y-93970000D01*
X153119500Y-93976000D01*
X153122500Y-93981000D01*
X153124500Y-93987000D01*
X153126500Y-93993000D01*
X153128500Y-93999000D01*
X153129500Y-94005000D01*
X153131500Y-94011000D01*
X153131500Y-94017000D01*
X153132500Y-94024000D01*
X153132500Y-94030000D01*
X153132500Y-94170000D01*
X153132500Y-94176000D01*
X153131500Y-94183000D01*
X153131500Y-94189000D01*
X153129500Y-94195000D01*
X153128500Y-94201000D01*
X153126500Y-94207000D01*
X153124500Y-94213000D01*
X153122500Y-94219000D01*
X153119500Y-94224000D01*
X153116500Y-94230000D01*
X153113500Y-94235000D01*
X153109500Y-94241000D01*
X153105500Y-94246000D01*
X153101500Y-94250000D01*
X153097500Y-94255000D01*
X153092500Y-94259000D01*
X153088500Y-94263000D01*
X153083500Y-94267000D01*
X153077500Y-94271000D01*
X153072500Y-94274000D01*
X153066500Y-94277000D01*
X153061500Y-94280000D01*
X153055500Y-94282000D01*
X153049500Y-94284000D01*
X153043500Y-94286000D01*
X153037500Y-94287000D01*
X153031500Y-94289000D01*
X153025500Y-94289000D01*
X153018500Y-94290000D01*
X153012500Y-94290000D01*
X152512500Y-94290000D01*
X152506500Y-94290000D01*
X152499500Y-94289000D01*
X152493500Y-94289000D01*
X152487500Y-94287000D01*
X152481500Y-94286000D01*
X152475500Y-94284000D01*
X152469500Y-94282000D01*
X152463500Y-94280000D01*
X152458500Y-94277000D01*
X152452500Y-94274000D01*
X152447500Y-94271000D01*
X152441500Y-94267000D01*
X152436500Y-94263000D01*
X152432500Y-94259000D01*
X152427500Y-94255000D01*
X152423500Y-94250000D01*
X152419500Y-94246000D01*
X152415500Y-94241000D01*
X152411500Y-94235000D01*
X152408500Y-94230000D01*
X152405500Y-94224000D01*
X152402500Y-94219000D01*
X152400500Y-94213000D01*
X152398500Y-94207000D01*
X152396500Y-94201000D01*
X152395500Y-94195000D01*
X152393500Y-94189000D01*
X152393500Y-94183000D01*
X152392500Y-94176000D01*
X152392500Y-94170000D01*
X152392500Y-94030000D01*
X152392500Y-94024000D01*
X152393500Y-94017000D01*
X152393500Y-94011000D01*
X152395500Y-94005000D01*
X152396500Y-93999000D01*
X152398500Y-93993000D01*
X152400500Y-93987000D01*
X152402500Y-93981000D01*
X152405500Y-93976000D01*
X152408500Y-93970000D01*
X152411500Y-93965000D01*
X152415500Y-93959000D01*
X152419500Y-93954000D01*
X152423500Y-93950000D01*
X152427500Y-93945000D01*
X152432500Y-93941000D01*
X152436500Y-93937000D01*
X152441500Y-93933000D01*
X152447500Y-93929000D01*
X152452500Y-93926000D01*
X152458500Y-93923000D01*
X152463500Y-93920000D01*
X152469500Y-93918000D01*
X152475500Y-93916000D01*
X152481500Y-93914000D01*
X152487500Y-93913000D01*
X152493500Y-93911000D01*
X152499500Y-93911000D01*
X152506500Y-93910000D01*
X152512500Y-93910000D01*
X153012500Y-93910000D01*
X153018500Y-93910000D01*
X153025500Y-93911000D01*
G36*
X153025500Y-93911000D02*
G01*
X153031500Y-93911000D01*
X153037500Y-93913000D01*
X153043500Y-93914000D01*
X153049500Y-93916000D01*
X153055500Y-93918000D01*
X153061500Y-93920000D01*
X153066500Y-93923000D01*
X153072500Y-93926000D01*
X153077500Y-93929000D01*
X153083500Y-93933000D01*
X153088500Y-93937000D01*
X153092500Y-93941000D01*
X153097500Y-93945000D01*
X153101500Y-93950000D01*
X153105500Y-93954000D01*
X153109500Y-93959000D01*
X153113500Y-93965000D01*
X153116500Y-93970000D01*
X153119500Y-93976000D01*
X153122500Y-93981000D01*
X153124500Y-93987000D01*
X153126500Y-93993000D01*
X153128500Y-93999000D01*
X153129500Y-94005000D01*
X153131500Y-94011000D01*
X153131500Y-94017000D01*
X153132500Y-94024000D01*
X153132500Y-94030000D01*
X153132500Y-94170000D01*
X153132500Y-94176000D01*
X153131500Y-94183000D01*
X153131500Y-94189000D01*
X153129500Y-94195000D01*
X153128500Y-94201000D01*
X153126500Y-94207000D01*
X153124500Y-94213000D01*
X153122500Y-94219000D01*
X153119500Y-94224000D01*
X153116500Y-94230000D01*
X153113500Y-94235000D01*
X153109500Y-94241000D01*
X153105500Y-94246000D01*
X153101500Y-94250000D01*
X153097500Y-94255000D01*
X153092500Y-94259000D01*
X153088500Y-94263000D01*
X153083500Y-94267000D01*
X153077500Y-94271000D01*
X153072500Y-94274000D01*
X153066500Y-94277000D01*
X153061500Y-94280000D01*
X153055500Y-94282000D01*
X153049500Y-94284000D01*
X153043500Y-94286000D01*
X153037500Y-94287000D01*
X153031500Y-94289000D01*
X153025500Y-94289000D01*
X153018500Y-94290000D01*
X153012500Y-94290000D01*
X152512500Y-94290000D01*
X152506500Y-94290000D01*
X152499500Y-94289000D01*
X152493500Y-94289000D01*
X152487500Y-94287000D01*
X152481500Y-94286000D01*
X152475500Y-94284000D01*
X152469500Y-94282000D01*
X152463500Y-94280000D01*
X152458500Y-94277000D01*
X152452500Y-94274000D01*
X152447500Y-94271000D01*
X152441500Y-94267000D01*
X152436500Y-94263000D01*
X152432500Y-94259000D01*
X152427500Y-94255000D01*
X152423500Y-94250000D01*
X152419500Y-94246000D01*
X152415500Y-94241000D01*
X152411500Y-94235000D01*
X152408500Y-94230000D01*
X152405500Y-94224000D01*
X152402500Y-94219000D01*
X152400500Y-94213000D01*
X152398500Y-94207000D01*
X152396500Y-94201000D01*
X152395500Y-94195000D01*
X152393500Y-94189000D01*
X152393500Y-94183000D01*
X152392500Y-94176000D01*
X152392500Y-94170000D01*
X152392500Y-94030000D01*
X152392500Y-94024000D01*
X152393500Y-94017000D01*
X152393500Y-94011000D01*
X152395500Y-94005000D01*
X152396500Y-93999000D01*
X152398500Y-93993000D01*
X152400500Y-93987000D01*
X152402500Y-93981000D01*
X152405500Y-93976000D01*
X152408500Y-93970000D01*
X152411500Y-93965000D01*
X152415500Y-93959000D01*
X152419500Y-93954000D01*
X152423500Y-93950000D01*
X152427500Y-93945000D01*
X152432500Y-93941000D01*
X152436500Y-93937000D01*
X152441500Y-93933000D01*
X152447500Y-93929000D01*
X152452500Y-93926000D01*
X152458500Y-93923000D01*
X152463500Y-93920000D01*
X152469500Y-93918000D01*
X152475500Y-93916000D01*
X152481500Y-93914000D01*
X152487500Y-93913000D01*
X152493500Y-93911000D01*
X152499500Y-93911000D01*
X152506500Y-93910000D01*
X152512500Y-93910000D01*
X153012500Y-93910000D01*
X153018500Y-93910000D01*
X153025500Y-93911000D01*
G37*
X153025500Y-94411000D02*
X153031500Y-94411000D01*
X153037500Y-94413000D01*
X153043500Y-94414000D01*
X153049500Y-94416000D01*
X153055500Y-94418000D01*
X153061500Y-94420000D01*
X153066500Y-94423000D01*
X153072500Y-94426000D01*
X153077500Y-94429000D01*
X153083500Y-94433000D01*
X153088500Y-94437000D01*
X153092500Y-94441000D01*
X153097500Y-94445000D01*
X153101500Y-94450000D01*
X153105500Y-94454000D01*
X153109500Y-94459000D01*
X153113500Y-94465000D01*
X153116500Y-94470000D01*
X153119500Y-94476000D01*
X153122500Y-94481000D01*
X153124500Y-94487000D01*
X153126500Y-94493000D01*
X153128500Y-94499000D01*
X153129500Y-94505000D01*
X153131500Y-94511000D01*
X153131500Y-94517000D01*
X153132500Y-94524000D01*
X153132500Y-94530000D01*
X153132500Y-94670000D01*
X153132500Y-94676000D01*
X153131500Y-94683000D01*
X153131500Y-94689000D01*
X153129500Y-94695000D01*
X153128500Y-94701000D01*
X153126500Y-94707000D01*
X153124500Y-94713000D01*
X153122500Y-94719000D01*
X153119500Y-94724000D01*
X153116500Y-94730000D01*
X153113500Y-94735000D01*
X153109500Y-94741000D01*
X153105500Y-94746000D01*
X153101500Y-94750000D01*
X153097500Y-94755000D01*
X153092500Y-94759000D01*
X153088500Y-94763000D01*
X153083500Y-94767000D01*
X153077500Y-94771000D01*
X153072500Y-94774000D01*
X153066500Y-94777000D01*
X153061500Y-94780000D01*
X153055500Y-94782000D01*
X153049500Y-94784000D01*
X153043500Y-94786000D01*
X153037500Y-94787000D01*
X153031500Y-94789000D01*
X153025500Y-94789000D01*
X153018500Y-94790000D01*
X153012500Y-94790000D01*
X152512500Y-94790000D01*
X152506500Y-94790000D01*
X152499500Y-94789000D01*
X152493500Y-94789000D01*
X152487500Y-94787000D01*
X152481500Y-94786000D01*
X152475500Y-94784000D01*
X152469500Y-94782000D01*
X152463500Y-94780000D01*
X152458500Y-94777000D01*
X152452500Y-94774000D01*
X152447500Y-94771000D01*
X152441500Y-94767000D01*
X152436500Y-94763000D01*
X152432500Y-94759000D01*
X152427500Y-94755000D01*
X152423500Y-94750000D01*
X152419500Y-94746000D01*
X152415500Y-94741000D01*
X152411500Y-94735000D01*
X152408500Y-94730000D01*
X152405500Y-94724000D01*
X152402500Y-94719000D01*
X152400500Y-94713000D01*
X152398500Y-94707000D01*
X152396500Y-94701000D01*
X152395500Y-94695000D01*
X152393500Y-94689000D01*
X152393500Y-94683000D01*
X152392500Y-94676000D01*
X152392500Y-94670000D01*
X152392500Y-94530000D01*
X152392500Y-94524000D01*
X152393500Y-94517000D01*
X152393500Y-94511000D01*
X152395500Y-94505000D01*
X152396500Y-94499000D01*
X152398500Y-94493000D01*
X152400500Y-94487000D01*
X152402500Y-94481000D01*
X152405500Y-94476000D01*
X152408500Y-94470000D01*
X152411500Y-94465000D01*
X152415500Y-94459000D01*
X152419500Y-94454000D01*
X152423500Y-94450000D01*
X152427500Y-94445000D01*
X152432500Y-94441000D01*
X152436500Y-94437000D01*
X152441500Y-94433000D01*
X152447500Y-94429000D01*
X152452500Y-94426000D01*
X152458500Y-94423000D01*
X152463500Y-94420000D01*
X152469500Y-94418000D01*
X152475500Y-94416000D01*
X152481500Y-94414000D01*
X152487500Y-94413000D01*
X152493500Y-94411000D01*
X152499500Y-94411000D01*
X152506500Y-94410000D01*
X152512500Y-94410000D01*
X153012500Y-94410000D01*
X153018500Y-94410000D01*
X153025500Y-94411000D01*
G36*
X153025500Y-94411000D02*
G01*
X153031500Y-94411000D01*
X153037500Y-94413000D01*
X153043500Y-94414000D01*
X153049500Y-94416000D01*
X153055500Y-94418000D01*
X153061500Y-94420000D01*
X153066500Y-94423000D01*
X153072500Y-94426000D01*
X153077500Y-94429000D01*
X153083500Y-94433000D01*
X153088500Y-94437000D01*
X153092500Y-94441000D01*
X153097500Y-94445000D01*
X153101500Y-94450000D01*
X153105500Y-94454000D01*
X153109500Y-94459000D01*
X153113500Y-94465000D01*
X153116500Y-94470000D01*
X153119500Y-94476000D01*
X153122500Y-94481000D01*
X153124500Y-94487000D01*
X153126500Y-94493000D01*
X153128500Y-94499000D01*
X153129500Y-94505000D01*
X153131500Y-94511000D01*
X153131500Y-94517000D01*
X153132500Y-94524000D01*
X153132500Y-94530000D01*
X153132500Y-94670000D01*
X153132500Y-94676000D01*
X153131500Y-94683000D01*
X153131500Y-94689000D01*
X153129500Y-94695000D01*
X153128500Y-94701000D01*
X153126500Y-94707000D01*
X153124500Y-94713000D01*
X153122500Y-94719000D01*
X153119500Y-94724000D01*
X153116500Y-94730000D01*
X153113500Y-94735000D01*
X153109500Y-94741000D01*
X153105500Y-94746000D01*
X153101500Y-94750000D01*
X153097500Y-94755000D01*
X153092500Y-94759000D01*
X153088500Y-94763000D01*
X153083500Y-94767000D01*
X153077500Y-94771000D01*
X153072500Y-94774000D01*
X153066500Y-94777000D01*
X153061500Y-94780000D01*
X153055500Y-94782000D01*
X153049500Y-94784000D01*
X153043500Y-94786000D01*
X153037500Y-94787000D01*
X153031500Y-94789000D01*
X153025500Y-94789000D01*
X153018500Y-94790000D01*
X153012500Y-94790000D01*
X152512500Y-94790000D01*
X152506500Y-94790000D01*
X152499500Y-94789000D01*
X152493500Y-94789000D01*
X152487500Y-94787000D01*
X152481500Y-94786000D01*
X152475500Y-94784000D01*
X152469500Y-94782000D01*
X152463500Y-94780000D01*
X152458500Y-94777000D01*
X152452500Y-94774000D01*
X152447500Y-94771000D01*
X152441500Y-94767000D01*
X152436500Y-94763000D01*
X152432500Y-94759000D01*
X152427500Y-94755000D01*
X152423500Y-94750000D01*
X152419500Y-94746000D01*
X152415500Y-94741000D01*
X152411500Y-94735000D01*
X152408500Y-94730000D01*
X152405500Y-94724000D01*
X152402500Y-94719000D01*
X152400500Y-94713000D01*
X152398500Y-94707000D01*
X152396500Y-94701000D01*
X152395500Y-94695000D01*
X152393500Y-94689000D01*
X152393500Y-94683000D01*
X152392500Y-94676000D01*
X152392500Y-94670000D01*
X152392500Y-94530000D01*
X152392500Y-94524000D01*
X152393500Y-94517000D01*
X152393500Y-94511000D01*
X152395500Y-94505000D01*
X152396500Y-94499000D01*
X152398500Y-94493000D01*
X152400500Y-94487000D01*
X152402500Y-94481000D01*
X152405500Y-94476000D01*
X152408500Y-94470000D01*
X152411500Y-94465000D01*
X152415500Y-94459000D01*
X152419500Y-94454000D01*
X152423500Y-94450000D01*
X152427500Y-94445000D01*
X152432500Y-94441000D01*
X152436500Y-94437000D01*
X152441500Y-94433000D01*
X152447500Y-94429000D01*
X152452500Y-94426000D01*
X152458500Y-94423000D01*
X152463500Y-94420000D01*
X152469500Y-94418000D01*
X152475500Y-94416000D01*
X152481500Y-94414000D01*
X152487500Y-94413000D01*
X152493500Y-94411000D01*
X152499500Y-94411000D01*
X152506500Y-94410000D01*
X152512500Y-94410000D01*
X153012500Y-94410000D01*
X153018500Y-94410000D01*
X153025500Y-94411000D01*
G37*
X153025500Y-94911000D02*
X153031500Y-94911000D01*
X153037500Y-94913000D01*
X153043500Y-94914000D01*
X153049500Y-94916000D01*
X153055500Y-94918000D01*
X153061500Y-94920000D01*
X153066500Y-94923000D01*
X153072500Y-94926000D01*
X153077500Y-94929000D01*
X153083500Y-94933000D01*
X153088500Y-94937000D01*
X153092500Y-94941000D01*
X153097500Y-94945000D01*
X153101500Y-94950000D01*
X153105500Y-94954000D01*
X153109500Y-94959000D01*
X153113500Y-94965000D01*
X153116500Y-94970000D01*
X153119500Y-94976000D01*
X153122500Y-94981000D01*
X153124500Y-94987000D01*
X153126500Y-94993000D01*
X153128500Y-94999000D01*
X153129500Y-95005000D01*
X153131500Y-95011000D01*
X153131500Y-95017000D01*
X153132500Y-95024000D01*
X153132500Y-95030000D01*
X153132500Y-95170000D01*
X153132500Y-95176000D01*
X153131500Y-95183000D01*
X153131500Y-95189000D01*
X153129500Y-95195000D01*
X153128500Y-95201000D01*
X153126500Y-95207000D01*
X153124500Y-95213000D01*
X153122500Y-95219000D01*
X153119500Y-95224000D01*
X153116500Y-95230000D01*
X153113500Y-95235000D01*
X153109500Y-95241000D01*
X153105500Y-95246000D01*
X153101500Y-95250000D01*
X153097500Y-95255000D01*
X153092500Y-95259000D01*
X153088500Y-95263000D01*
X153083500Y-95267000D01*
X153077500Y-95271000D01*
X153072500Y-95274000D01*
X153066500Y-95277000D01*
X153061500Y-95280000D01*
X153055500Y-95282000D01*
X153049500Y-95284000D01*
X153043500Y-95286000D01*
X153037500Y-95287000D01*
X153031500Y-95289000D01*
X153025500Y-95289000D01*
X153018500Y-95290000D01*
X153012500Y-95290000D01*
X152512500Y-95290000D01*
X152506500Y-95290000D01*
X152499500Y-95289000D01*
X152493500Y-95289000D01*
X152487500Y-95287000D01*
X152481500Y-95286000D01*
X152475500Y-95284000D01*
X152469500Y-95282000D01*
X152463500Y-95280000D01*
X152458500Y-95277000D01*
X152452500Y-95274000D01*
X152447500Y-95271000D01*
X152441500Y-95267000D01*
X152436500Y-95263000D01*
X152432500Y-95259000D01*
X152427500Y-95255000D01*
X152423500Y-95250000D01*
X152419500Y-95246000D01*
X152415500Y-95241000D01*
X152411500Y-95235000D01*
X152408500Y-95230000D01*
X152405500Y-95224000D01*
X152402500Y-95219000D01*
X152400500Y-95213000D01*
X152398500Y-95207000D01*
X152396500Y-95201000D01*
X152395500Y-95195000D01*
X152393500Y-95189000D01*
X152393500Y-95183000D01*
X152392500Y-95176000D01*
X152392500Y-95170000D01*
X152392500Y-95030000D01*
X152392500Y-95024000D01*
X152393500Y-95017000D01*
X152393500Y-95011000D01*
X152395500Y-95005000D01*
X152396500Y-94999000D01*
X152398500Y-94993000D01*
X152400500Y-94987000D01*
X152402500Y-94981000D01*
X152405500Y-94976000D01*
X152408500Y-94970000D01*
X152411500Y-94965000D01*
X152415500Y-94959000D01*
X152419500Y-94954000D01*
X152423500Y-94950000D01*
X152427500Y-94945000D01*
X152432500Y-94941000D01*
X152436500Y-94937000D01*
X152441500Y-94933000D01*
X152447500Y-94929000D01*
X152452500Y-94926000D01*
X152458500Y-94923000D01*
X152463500Y-94920000D01*
X152469500Y-94918000D01*
X152475500Y-94916000D01*
X152481500Y-94914000D01*
X152487500Y-94913000D01*
X152493500Y-94911000D01*
X152499500Y-94911000D01*
X152506500Y-94910000D01*
X152512500Y-94910000D01*
X153012500Y-94910000D01*
X153018500Y-94910000D01*
X153025500Y-94911000D01*
G36*
X153025500Y-94911000D02*
G01*
X153031500Y-94911000D01*
X153037500Y-94913000D01*
X153043500Y-94914000D01*
X153049500Y-94916000D01*
X153055500Y-94918000D01*
X153061500Y-94920000D01*
X153066500Y-94923000D01*
X153072500Y-94926000D01*
X153077500Y-94929000D01*
X153083500Y-94933000D01*
X153088500Y-94937000D01*
X153092500Y-94941000D01*
X153097500Y-94945000D01*
X153101500Y-94950000D01*
X153105500Y-94954000D01*
X153109500Y-94959000D01*
X153113500Y-94965000D01*
X153116500Y-94970000D01*
X153119500Y-94976000D01*
X153122500Y-94981000D01*
X153124500Y-94987000D01*
X153126500Y-94993000D01*
X153128500Y-94999000D01*
X153129500Y-95005000D01*
X153131500Y-95011000D01*
X153131500Y-95017000D01*
X153132500Y-95024000D01*
X153132500Y-95030000D01*
X153132500Y-95170000D01*
X153132500Y-95176000D01*
X153131500Y-95183000D01*
X153131500Y-95189000D01*
X153129500Y-95195000D01*
X153128500Y-95201000D01*
X153126500Y-95207000D01*
X153124500Y-95213000D01*
X153122500Y-95219000D01*
X153119500Y-95224000D01*
X153116500Y-95230000D01*
X153113500Y-95235000D01*
X153109500Y-95241000D01*
X153105500Y-95246000D01*
X153101500Y-95250000D01*
X153097500Y-95255000D01*
X153092500Y-95259000D01*
X153088500Y-95263000D01*
X153083500Y-95267000D01*
X153077500Y-95271000D01*
X153072500Y-95274000D01*
X153066500Y-95277000D01*
X153061500Y-95280000D01*
X153055500Y-95282000D01*
X153049500Y-95284000D01*
X153043500Y-95286000D01*
X153037500Y-95287000D01*
X153031500Y-95289000D01*
X153025500Y-95289000D01*
X153018500Y-95290000D01*
X153012500Y-95290000D01*
X152512500Y-95290000D01*
X152506500Y-95290000D01*
X152499500Y-95289000D01*
X152493500Y-95289000D01*
X152487500Y-95287000D01*
X152481500Y-95286000D01*
X152475500Y-95284000D01*
X152469500Y-95282000D01*
X152463500Y-95280000D01*
X152458500Y-95277000D01*
X152452500Y-95274000D01*
X152447500Y-95271000D01*
X152441500Y-95267000D01*
X152436500Y-95263000D01*
X152432500Y-95259000D01*
X152427500Y-95255000D01*
X152423500Y-95250000D01*
X152419500Y-95246000D01*
X152415500Y-95241000D01*
X152411500Y-95235000D01*
X152408500Y-95230000D01*
X152405500Y-95224000D01*
X152402500Y-95219000D01*
X152400500Y-95213000D01*
X152398500Y-95207000D01*
X152396500Y-95201000D01*
X152395500Y-95195000D01*
X152393500Y-95189000D01*
X152393500Y-95183000D01*
X152392500Y-95176000D01*
X152392500Y-95170000D01*
X152392500Y-95030000D01*
X152392500Y-95024000D01*
X152393500Y-95017000D01*
X152393500Y-95011000D01*
X152395500Y-95005000D01*
X152396500Y-94999000D01*
X152398500Y-94993000D01*
X152400500Y-94987000D01*
X152402500Y-94981000D01*
X152405500Y-94976000D01*
X152408500Y-94970000D01*
X152411500Y-94965000D01*
X152415500Y-94959000D01*
X152419500Y-94954000D01*
X152423500Y-94950000D01*
X152427500Y-94945000D01*
X152432500Y-94941000D01*
X152436500Y-94937000D01*
X152441500Y-94933000D01*
X152447500Y-94929000D01*
X152452500Y-94926000D01*
X152458500Y-94923000D01*
X152463500Y-94920000D01*
X152469500Y-94918000D01*
X152475500Y-94916000D01*
X152481500Y-94914000D01*
X152487500Y-94913000D01*
X152493500Y-94911000D01*
X152499500Y-94911000D01*
X152506500Y-94910000D01*
X152512500Y-94910000D01*
X153012500Y-94910000D01*
X153018500Y-94910000D01*
X153025500Y-94911000D01*
G37*
X153025500Y-95411000D02*
X153031500Y-95411000D01*
X153037500Y-95413000D01*
X153043500Y-95414000D01*
X153049500Y-95416000D01*
X153055500Y-95418000D01*
X153061500Y-95420000D01*
X153066500Y-95423000D01*
X153072500Y-95426000D01*
X153077500Y-95429000D01*
X153083500Y-95433000D01*
X153088500Y-95437000D01*
X153092500Y-95441000D01*
X153097500Y-95445000D01*
X153101500Y-95450000D01*
X153105500Y-95454000D01*
X153109500Y-95459000D01*
X153113500Y-95465000D01*
X153116500Y-95470000D01*
X153119500Y-95476000D01*
X153122500Y-95481000D01*
X153124500Y-95487000D01*
X153126500Y-95493000D01*
X153128500Y-95499000D01*
X153129500Y-95505000D01*
X153131500Y-95511000D01*
X153131500Y-95517000D01*
X153132500Y-95524000D01*
X153132500Y-95530000D01*
X153132500Y-95670000D01*
X153132500Y-95676000D01*
X153131500Y-95683000D01*
X153131500Y-95689000D01*
X153129500Y-95695000D01*
X153128500Y-95701000D01*
X153126500Y-95707000D01*
X153124500Y-95713000D01*
X153122500Y-95719000D01*
X153119500Y-95724000D01*
X153116500Y-95730000D01*
X153113500Y-95735000D01*
X153109500Y-95741000D01*
X153105500Y-95746000D01*
X153101500Y-95750000D01*
X153097500Y-95755000D01*
X153092500Y-95759000D01*
X153088500Y-95763000D01*
X153083500Y-95767000D01*
X153077500Y-95771000D01*
X153072500Y-95774000D01*
X153066500Y-95777000D01*
X153061500Y-95780000D01*
X153055500Y-95782000D01*
X153049500Y-95784000D01*
X153043500Y-95786000D01*
X153037500Y-95787000D01*
X153031500Y-95789000D01*
X153025500Y-95789000D01*
X153018500Y-95790000D01*
X153012500Y-95790000D01*
X152512500Y-95790000D01*
X152506500Y-95790000D01*
X152499500Y-95789000D01*
X152493500Y-95789000D01*
X152487500Y-95787000D01*
X152481500Y-95786000D01*
X152475500Y-95784000D01*
X152469500Y-95782000D01*
X152463500Y-95780000D01*
X152458500Y-95777000D01*
X152452500Y-95774000D01*
X152447500Y-95771000D01*
X152441500Y-95767000D01*
X152436500Y-95763000D01*
X152432500Y-95759000D01*
X152427500Y-95755000D01*
X152423500Y-95750000D01*
X152419500Y-95746000D01*
X152415500Y-95741000D01*
X152411500Y-95735000D01*
X152408500Y-95730000D01*
X152405500Y-95724000D01*
X152402500Y-95719000D01*
X152400500Y-95713000D01*
X152398500Y-95707000D01*
X152396500Y-95701000D01*
X152395500Y-95695000D01*
X152393500Y-95689000D01*
X152393500Y-95683000D01*
X152392500Y-95676000D01*
X152392500Y-95670000D01*
X152392500Y-95530000D01*
X152392500Y-95524000D01*
X152393500Y-95517000D01*
X152393500Y-95511000D01*
X152395500Y-95505000D01*
X152396500Y-95499000D01*
X152398500Y-95493000D01*
X152400500Y-95487000D01*
X152402500Y-95481000D01*
X152405500Y-95476000D01*
X152408500Y-95470000D01*
X152411500Y-95465000D01*
X152415500Y-95459000D01*
X152419500Y-95454000D01*
X152423500Y-95450000D01*
X152427500Y-95445000D01*
X152432500Y-95441000D01*
X152436500Y-95437000D01*
X152441500Y-95433000D01*
X152447500Y-95429000D01*
X152452500Y-95426000D01*
X152458500Y-95423000D01*
X152463500Y-95420000D01*
X152469500Y-95418000D01*
X152475500Y-95416000D01*
X152481500Y-95414000D01*
X152487500Y-95413000D01*
X152493500Y-95411000D01*
X152499500Y-95411000D01*
X152506500Y-95410000D01*
X152512500Y-95410000D01*
X153012500Y-95410000D01*
X153018500Y-95410000D01*
X153025500Y-95411000D01*
G36*
X153025500Y-95411000D02*
G01*
X153031500Y-95411000D01*
X153037500Y-95413000D01*
X153043500Y-95414000D01*
X153049500Y-95416000D01*
X153055500Y-95418000D01*
X153061500Y-95420000D01*
X153066500Y-95423000D01*
X153072500Y-95426000D01*
X153077500Y-95429000D01*
X153083500Y-95433000D01*
X153088500Y-95437000D01*
X153092500Y-95441000D01*
X153097500Y-95445000D01*
X153101500Y-95450000D01*
X153105500Y-95454000D01*
X153109500Y-95459000D01*
X153113500Y-95465000D01*
X153116500Y-95470000D01*
X153119500Y-95476000D01*
X153122500Y-95481000D01*
X153124500Y-95487000D01*
X153126500Y-95493000D01*
X153128500Y-95499000D01*
X153129500Y-95505000D01*
X153131500Y-95511000D01*
X153131500Y-95517000D01*
X153132500Y-95524000D01*
X153132500Y-95530000D01*
X153132500Y-95670000D01*
X153132500Y-95676000D01*
X153131500Y-95683000D01*
X153131500Y-95689000D01*
X153129500Y-95695000D01*
X153128500Y-95701000D01*
X153126500Y-95707000D01*
X153124500Y-95713000D01*
X153122500Y-95719000D01*
X153119500Y-95724000D01*
X153116500Y-95730000D01*
X153113500Y-95735000D01*
X153109500Y-95741000D01*
X153105500Y-95746000D01*
X153101500Y-95750000D01*
X153097500Y-95755000D01*
X153092500Y-95759000D01*
X153088500Y-95763000D01*
X153083500Y-95767000D01*
X153077500Y-95771000D01*
X153072500Y-95774000D01*
X153066500Y-95777000D01*
X153061500Y-95780000D01*
X153055500Y-95782000D01*
X153049500Y-95784000D01*
X153043500Y-95786000D01*
X153037500Y-95787000D01*
X153031500Y-95789000D01*
X153025500Y-95789000D01*
X153018500Y-95790000D01*
X153012500Y-95790000D01*
X152512500Y-95790000D01*
X152506500Y-95790000D01*
X152499500Y-95789000D01*
X152493500Y-95789000D01*
X152487500Y-95787000D01*
X152481500Y-95786000D01*
X152475500Y-95784000D01*
X152469500Y-95782000D01*
X152463500Y-95780000D01*
X152458500Y-95777000D01*
X152452500Y-95774000D01*
X152447500Y-95771000D01*
X152441500Y-95767000D01*
X152436500Y-95763000D01*
X152432500Y-95759000D01*
X152427500Y-95755000D01*
X152423500Y-95750000D01*
X152419500Y-95746000D01*
X152415500Y-95741000D01*
X152411500Y-95735000D01*
X152408500Y-95730000D01*
X152405500Y-95724000D01*
X152402500Y-95719000D01*
X152400500Y-95713000D01*
X152398500Y-95707000D01*
X152396500Y-95701000D01*
X152395500Y-95695000D01*
X152393500Y-95689000D01*
X152393500Y-95683000D01*
X152392500Y-95676000D01*
X152392500Y-95670000D01*
X152392500Y-95530000D01*
X152392500Y-95524000D01*
X152393500Y-95517000D01*
X152393500Y-95511000D01*
X152395500Y-95505000D01*
X152396500Y-95499000D01*
X152398500Y-95493000D01*
X152400500Y-95487000D01*
X152402500Y-95481000D01*
X152405500Y-95476000D01*
X152408500Y-95470000D01*
X152411500Y-95465000D01*
X152415500Y-95459000D01*
X152419500Y-95454000D01*
X152423500Y-95450000D01*
X152427500Y-95445000D01*
X152432500Y-95441000D01*
X152436500Y-95437000D01*
X152441500Y-95433000D01*
X152447500Y-95429000D01*
X152452500Y-95426000D01*
X152458500Y-95423000D01*
X152463500Y-95420000D01*
X152469500Y-95418000D01*
X152475500Y-95416000D01*
X152481500Y-95414000D01*
X152487500Y-95413000D01*
X152493500Y-95411000D01*
X152499500Y-95411000D01*
X152506500Y-95410000D01*
X152512500Y-95410000D01*
X153012500Y-95410000D01*
X153018500Y-95410000D01*
X153025500Y-95411000D01*
G37*
X153025500Y-95911000D02*
X153031500Y-95911000D01*
X153037500Y-95913000D01*
X153043500Y-95914000D01*
X153049500Y-95916000D01*
X153055500Y-95918000D01*
X153061500Y-95920000D01*
X153066500Y-95923000D01*
X153072500Y-95926000D01*
X153077500Y-95929000D01*
X153083500Y-95933000D01*
X153088500Y-95937000D01*
X153092500Y-95941000D01*
X153097500Y-95945000D01*
X153101500Y-95950000D01*
X153105500Y-95954000D01*
X153109500Y-95959000D01*
X153113500Y-95965000D01*
X153116500Y-95970000D01*
X153119500Y-95976000D01*
X153122500Y-95981000D01*
X153124500Y-95987000D01*
X153126500Y-95993000D01*
X153128500Y-95999000D01*
X153129500Y-96005000D01*
X153131500Y-96011000D01*
X153131500Y-96017000D01*
X153132500Y-96024000D01*
X153132500Y-96030000D01*
X153132500Y-96170000D01*
X153132500Y-96176000D01*
X153131500Y-96183000D01*
X153131500Y-96189000D01*
X153129500Y-96195000D01*
X153128500Y-96201000D01*
X153126500Y-96207000D01*
X153124500Y-96213000D01*
X153122500Y-96219000D01*
X153119500Y-96224000D01*
X153116500Y-96230000D01*
X153113500Y-96235000D01*
X153109500Y-96241000D01*
X153105500Y-96246000D01*
X153101500Y-96250000D01*
X153097500Y-96255000D01*
X153092500Y-96259000D01*
X153088500Y-96263000D01*
X153083500Y-96267000D01*
X153077500Y-96271000D01*
X153072500Y-96274000D01*
X153066500Y-96277000D01*
X153061500Y-96280000D01*
X153055500Y-96282000D01*
X153049500Y-96284000D01*
X153043500Y-96286000D01*
X153037500Y-96287000D01*
X153031500Y-96289000D01*
X153025500Y-96289000D01*
X153018500Y-96290000D01*
X153012500Y-96290000D01*
X152512500Y-96290000D01*
X152506500Y-96290000D01*
X152499500Y-96289000D01*
X152493500Y-96289000D01*
X152487500Y-96287000D01*
X152481500Y-96286000D01*
X152475500Y-96284000D01*
X152469500Y-96282000D01*
X152463500Y-96280000D01*
X152458500Y-96277000D01*
X152452500Y-96274000D01*
X152447500Y-96271000D01*
X152441500Y-96267000D01*
X152436500Y-96263000D01*
X152432500Y-96259000D01*
X152427500Y-96255000D01*
X152423500Y-96250000D01*
X152419500Y-96246000D01*
X152415500Y-96241000D01*
X152411500Y-96235000D01*
X152408500Y-96230000D01*
X152405500Y-96224000D01*
X152402500Y-96219000D01*
X152400500Y-96213000D01*
X152398500Y-96207000D01*
X152396500Y-96201000D01*
X152395500Y-96195000D01*
X152393500Y-96189000D01*
X152393500Y-96183000D01*
X152392500Y-96176000D01*
X152392500Y-96170000D01*
X152392500Y-96030000D01*
X152392500Y-96024000D01*
X152393500Y-96017000D01*
X152393500Y-96011000D01*
X152395500Y-96005000D01*
X152396500Y-95999000D01*
X152398500Y-95993000D01*
X152400500Y-95987000D01*
X152402500Y-95981000D01*
X152405500Y-95976000D01*
X152408500Y-95970000D01*
X152411500Y-95965000D01*
X152415500Y-95959000D01*
X152419500Y-95954000D01*
X152423500Y-95950000D01*
X152427500Y-95945000D01*
X152432500Y-95941000D01*
X152436500Y-95937000D01*
X152441500Y-95933000D01*
X152447500Y-95929000D01*
X152452500Y-95926000D01*
X152458500Y-95923000D01*
X152463500Y-95920000D01*
X152469500Y-95918000D01*
X152475500Y-95916000D01*
X152481500Y-95914000D01*
X152487500Y-95913000D01*
X152493500Y-95911000D01*
X152499500Y-95911000D01*
X152506500Y-95910000D01*
X152512500Y-95910000D01*
X153012500Y-95910000D01*
X153018500Y-95910000D01*
X153025500Y-95911000D01*
G36*
X153025500Y-95911000D02*
G01*
X153031500Y-95911000D01*
X153037500Y-95913000D01*
X153043500Y-95914000D01*
X153049500Y-95916000D01*
X153055500Y-95918000D01*
X153061500Y-95920000D01*
X153066500Y-95923000D01*
X153072500Y-95926000D01*
X153077500Y-95929000D01*
X153083500Y-95933000D01*
X153088500Y-95937000D01*
X153092500Y-95941000D01*
X153097500Y-95945000D01*
X153101500Y-95950000D01*
X153105500Y-95954000D01*
X153109500Y-95959000D01*
X153113500Y-95965000D01*
X153116500Y-95970000D01*
X153119500Y-95976000D01*
X153122500Y-95981000D01*
X153124500Y-95987000D01*
X153126500Y-95993000D01*
X153128500Y-95999000D01*
X153129500Y-96005000D01*
X153131500Y-96011000D01*
X153131500Y-96017000D01*
X153132500Y-96024000D01*
X153132500Y-96030000D01*
X153132500Y-96170000D01*
X153132500Y-96176000D01*
X153131500Y-96183000D01*
X153131500Y-96189000D01*
X153129500Y-96195000D01*
X153128500Y-96201000D01*
X153126500Y-96207000D01*
X153124500Y-96213000D01*
X153122500Y-96219000D01*
X153119500Y-96224000D01*
X153116500Y-96230000D01*
X153113500Y-96235000D01*
X153109500Y-96241000D01*
X153105500Y-96246000D01*
X153101500Y-96250000D01*
X153097500Y-96255000D01*
X153092500Y-96259000D01*
X153088500Y-96263000D01*
X153083500Y-96267000D01*
X153077500Y-96271000D01*
X153072500Y-96274000D01*
X153066500Y-96277000D01*
X153061500Y-96280000D01*
X153055500Y-96282000D01*
X153049500Y-96284000D01*
X153043500Y-96286000D01*
X153037500Y-96287000D01*
X153031500Y-96289000D01*
X153025500Y-96289000D01*
X153018500Y-96290000D01*
X153012500Y-96290000D01*
X152512500Y-96290000D01*
X152506500Y-96290000D01*
X152499500Y-96289000D01*
X152493500Y-96289000D01*
X152487500Y-96287000D01*
X152481500Y-96286000D01*
X152475500Y-96284000D01*
X152469500Y-96282000D01*
X152463500Y-96280000D01*
X152458500Y-96277000D01*
X152452500Y-96274000D01*
X152447500Y-96271000D01*
X152441500Y-96267000D01*
X152436500Y-96263000D01*
X152432500Y-96259000D01*
X152427500Y-96255000D01*
X152423500Y-96250000D01*
X152419500Y-96246000D01*
X152415500Y-96241000D01*
X152411500Y-96235000D01*
X152408500Y-96230000D01*
X152405500Y-96224000D01*
X152402500Y-96219000D01*
X152400500Y-96213000D01*
X152398500Y-96207000D01*
X152396500Y-96201000D01*
X152395500Y-96195000D01*
X152393500Y-96189000D01*
X152393500Y-96183000D01*
X152392500Y-96176000D01*
X152392500Y-96170000D01*
X152392500Y-96030000D01*
X152392500Y-96024000D01*
X152393500Y-96017000D01*
X152393500Y-96011000D01*
X152395500Y-96005000D01*
X152396500Y-95999000D01*
X152398500Y-95993000D01*
X152400500Y-95987000D01*
X152402500Y-95981000D01*
X152405500Y-95976000D01*
X152408500Y-95970000D01*
X152411500Y-95965000D01*
X152415500Y-95959000D01*
X152419500Y-95954000D01*
X152423500Y-95950000D01*
X152427500Y-95945000D01*
X152432500Y-95941000D01*
X152436500Y-95937000D01*
X152441500Y-95933000D01*
X152447500Y-95929000D01*
X152452500Y-95926000D01*
X152458500Y-95923000D01*
X152463500Y-95920000D01*
X152469500Y-95918000D01*
X152475500Y-95916000D01*
X152481500Y-95914000D01*
X152487500Y-95913000D01*
X152493500Y-95911000D01*
X152499500Y-95911000D01*
X152506500Y-95910000D01*
X152512500Y-95910000D01*
X153012500Y-95910000D01*
X153018500Y-95910000D01*
X153025500Y-95911000D01*
G37*
%TD*%
D11*
%TO.C,BT4*%
X120175000Y-99550000D03*
%TD*%
D12*
%TO.C,JP4*%
X208700000Y-94900000D03*
D13*
X208700000Y-96200000D03*
%TD*%
D14*
%TO.C,R36*%
X171700000Y-105100000D03*
X171700000Y-103450000D03*
%TD*%
D15*
%TO.C,C98*%
X153000000Y-90440000D03*
X153000000Y-91400000D03*
%TD*%
D16*
%TO.C,C54*%
X95325000Y-110580000D03*
X95325000Y-109620000D03*
%TD*%
D14*
%TO.C,R58*%
X199200000Y-118825000D03*
X199200000Y-117175000D03*
%TD*%
D17*
%TO.C,R46*%
X92450000Y-97200000D03*
X94100000Y-97200000D03*
%TD*%
D18*
%TO.C,R48*%
X177425000Y-70795000D03*
X177425000Y-72445000D03*
%TD*%
D19*
%TO.C,R14*%
X145600000Y-89225000D03*
X145600000Y-86300000D03*
%TD*%
D17*
%TO.C,R41*%
X129300000Y-101100000D03*
X130950000Y-101100000D03*
%TD*%
D20*
%TO.C,C3*%
X114245000Y-75600000D03*
X115205000Y-75600000D03*
%TD*%
D15*
%TO.C,C80*%
X208500000Y-120740000D03*
X208500000Y-121700000D03*
%TD*%
D21*
%TO.C,Q7*%
X173150000Y-104520000D03*
X173150000Y-105160000D03*
X173150000Y-105820000D03*
X173150000Y-106460000D03*
D22*
X174975000Y-105490000D03*
%TD*%
D23*
%TO.C,U11*%
X94375000Y-101162500D03*
X93425000Y-101162500D03*
X92475000Y-101162500D03*
X92475000Y-103437500D03*
X94375000Y-103437500D03*
%TD*%
D24*
%TO.C,D2*%
X86371339Y-92646676D03*
X83668137Y-94539479D03*
X86478661Y-98553324D03*
X89181863Y-96660521D03*
%TD*%
D17*
%TO.C,R71*%
X215800000Y-106200000D03*
X217450000Y-106200000D03*
%TD*%
D25*
%TO.C,C68*%
X132725000Y-82400000D03*
X132725000Y-84300000D03*
%TD*%
D26*
%TO.C,Q3*%
X179420000Y-94450000D03*
X180060000Y-94450000D03*
X180720000Y-94450000D03*
X181360000Y-94450000D03*
D27*
X180390000Y-92625000D03*
%TD*%
D28*
%TO.C,D4*%
X147175000Y-71350000D03*
X143875000Y-71350000D03*
X143875000Y-76250000D03*
X147175000Y-76250000D03*
%TD*%
D15*
%TO.C,C32*%
X147700000Y-87700000D03*
X147700000Y-88660000D03*
%TD*%
D14*
%TO.C,R29*%
X172500000Y-95650000D03*
X172500000Y-94000000D03*
%TD*%
D29*
%TO.C,C75*%
X176975000Y-68900000D03*
X178875000Y-68900000D03*
%TD*%
D15*
%TO.C,C33*%
X156000000Y-87000000D03*
X156000000Y-87960000D03*
%TD*%
D30*
%TO.C,L3*%
X134025000Y-93800000D03*
X134025000Y-86800000D03*
%TD*%
D20*
%TO.C,C78*%
X165545000Y-69800000D03*
X166505000Y-69800000D03*
%TD*%
D31*
%TO.C,SW4*%
X116933604Y-75466893D03*
D32*
X125143974Y-73266931D03*
D31*
X117451242Y-77398745D03*
D32*
X125661612Y-75198783D03*
D33*
X121237549Y-78972397D03*
X123169400Y-78454759D03*
%TD*%
D18*
%TO.C,R23*%
X200700000Y-81700000D03*
X200700000Y-83350000D03*
%TD*%
D14*
%TO.C,R31*%
X174300000Y-95650000D03*
X174300000Y-94000000D03*
%TD*%
D20*
%TO.C,C29*%
X147900000Y-91700000D03*
X148860000Y-91700000D03*
%TD*%
D25*
%TO.C,C59*%
X127225000Y-81800000D03*
X127225000Y-83700000D03*
%TD*%
D28*
%TO.C,D6*%
X199225000Y-74150000D03*
X195925000Y-74150000D03*
X195925000Y-79050000D03*
X199225000Y-79050000D03*
%TD*%
D15*
%TO.C,C1*%
X118425000Y-104440000D03*
X118425000Y-105400000D03*
%TD*%
D34*
%TO.C,SW1*%
X203106590Y-111350335D03*
D35*
X195402974Y-107758080D03*
D34*
X203951826Y-109537720D03*
D35*
X196248210Y-105945465D03*
D36*
X202062872Y-105898441D03*
X200250256Y-105053204D03*
%TD*%
D25*
%TO.C,C53*%
X136915000Y-103350000D03*
X136915000Y-105250000D03*
%TD*%
D37*
%TO.C,U9*%
X168525000Y-69780000D03*
X168525000Y-72320000D03*
X174825000Y-72320000D03*
X174825000Y-69780000D03*
%TD*%
D38*
%TO.C,D30*%
X162000000Y-86900000D03*
X162000000Y-89700000D03*
%TD*%
D39*
%TO.C,U16*%
X161566000Y-77787000D03*
X164106000Y-77787000D03*
X164086000Y-73723000D03*
X161566000Y-73723000D03*
%TD*%
D40*
%TO.C,R8*%
X159400000Y-87600000D03*
X157750000Y-87600000D03*
%TD*%
D41*
%TO.C,U8*%
X90325000Y-103100000D03*
X90325000Y-103600000D03*
X89825000Y-103100000D03*
X89825000Y-103600000D03*
%TD*%
D20*
%TO.C,C28*%
X154240000Y-93100000D03*
X155200000Y-93100000D03*
%TD*%
D42*
%TO.C,C46*%
X169575000Y-90300000D03*
X167675000Y-90300000D03*
%TD*%
D43*
%TO.C,D31*%
X155700000Y-100800000D03*
X158500000Y-100800000D03*
%TD*%
D44*
%TO.C,C66*%
X131400000Y-99600000D03*
X130440000Y-99600000D03*
%TD*%
D45*
%TO.C,Q8*%
X159975000Y-84900000D03*
X161875000Y-84900000D03*
X160925000Y-83025000D03*
%TD*%
D15*
%TO.C,C43*%
X167400000Y-106040000D03*
X167400000Y-107000000D03*
%TD*%
D42*
%TO.C,C50*%
X131275000Y-96900000D03*
X129375000Y-96900000D03*
%TD*%
D46*
%TO.C,D1*%
X120825000Y-104500000D03*
X120825000Y-107800000D03*
X125725000Y-107800000D03*
X125725000Y-104500000D03*
%TD*%
D40*
%TO.C,R13*%
X149400000Y-86400000D03*
X147750000Y-86400000D03*
%TD*%
D28*
%TO.C,D5*%
X156300000Y-78200000D03*
X153000000Y-78200000D03*
X153000000Y-83100000D03*
X156300000Y-83100000D03*
%TD*%
D17*
%TO.C,R60*%
X154600000Y-76300000D03*
X156250000Y-76300000D03*
%TD*%
D47*
%TO.C,D33*%
X112975000Y-101300000D03*
X114375000Y-101300000D03*
%TD*%
D29*
%TO.C,C70*%
X163700000Y-106900000D03*
X165600000Y-106900000D03*
%TD*%
D20*
%TO.C,C94*%
X208945000Y-108600000D03*
X209905000Y-108600000D03*
%TD*%
D25*
%TO.C,C57*%
X130895000Y-103350000D03*
X130895000Y-105250000D03*
%TD*%
%TO.C,C92*%
X212625000Y-109400000D03*
X212625000Y-111300000D03*
%TD*%
D48*
%TO.C,U5*%
X173025000Y-97180000D03*
X172625000Y-97180000D03*
X172225000Y-97180000D03*
X171825000Y-97180000D03*
X171425000Y-97180000D03*
X171025000Y-97180000D03*
X170625000Y-97180000D03*
X170225000Y-97180000D03*
D49*
X169625000Y-97780000D03*
X169625000Y-98180000D03*
X169625000Y-98580000D03*
X169625000Y-98980000D03*
X169625000Y-99380000D03*
X169625000Y-99780000D03*
X169625000Y-100180000D03*
X169625000Y-100580000D03*
D48*
X170225000Y-101180000D03*
X170625000Y-101180000D03*
X171025000Y-101180000D03*
X171425000Y-101180000D03*
X171825000Y-101180000D03*
X172225000Y-101180000D03*
X172625000Y-101180000D03*
X173025000Y-101180000D03*
D49*
X173625000Y-100580000D03*
X173625000Y-100180000D03*
X173625000Y-99780000D03*
X173625000Y-99380000D03*
X173625000Y-98980000D03*
X173625000Y-98580000D03*
X173625000Y-98180000D03*
X173625000Y-97780000D03*
D50*
X171625000Y-99180000D03*
%TD*%
D14*
%TO.C,R15*%
X165400000Y-96970000D03*
X165400000Y-95320000D03*
%TD*%
D51*
%TO.C,U7*%
X197600000Y-100080000D03*
X197600000Y-98810000D03*
X197600000Y-97540000D03*
X197600000Y-96270000D03*
X197600000Y-95000000D03*
X197600000Y-93730000D03*
X197600000Y-92460000D03*
X197600000Y-91190000D03*
X197600000Y-89920000D03*
X197600000Y-88650000D03*
X197600000Y-87380000D03*
X197600000Y-86110000D03*
X197600000Y-84840000D03*
X197600000Y-83570000D03*
X188300000Y-83570000D03*
X188300000Y-84840000D03*
X188300000Y-86110000D03*
X188300000Y-87380000D03*
X188300000Y-88650000D03*
X188300000Y-89920000D03*
X188300000Y-91190000D03*
X188300000Y-92460000D03*
X188300000Y-93730000D03*
X188300000Y-95000000D03*
X188300000Y-96270000D03*
X188300000Y-97540000D03*
X188300000Y-98810000D03*
X188300000Y-100080000D03*
%TD*%
D52*
%TO.C,J1*%
X109704850Y-108860435D03*
X114943309Y-106417701D03*
D53*
X108189068Y-108993499D03*
D54*
X109964065Y-112799992D03*
D55*
X108950562Y-107976382D03*
D54*
X117794564Y-109148570D03*
D53*
X116019568Y-105342077D03*
D55*
X109675608Y-107638287D03*
D56*
X110717862Y-107152276D03*
X111624170Y-106729658D03*
X112077324Y-106518349D03*
X112983632Y-106095731D03*
D55*
X114025886Y-105609720D03*
X114750932Y-105271625D03*
X114750932Y-105271625D03*
X114025886Y-105609720D03*
D56*
X113436786Y-105884422D03*
X112530478Y-106307040D03*
X111171016Y-106940967D03*
X110264708Y-107363585D03*
D55*
X109675608Y-107638287D03*
X108950562Y-107976382D03*
%TD*%
D18*
%TO.C,R34*%
X171600000Y-88900000D03*
X171600000Y-90550000D03*
%TD*%
D25*
%TO.C,C91*%
X211525000Y-113650000D03*
X211525000Y-115550000D03*
%TD*%
D42*
%TO.C,C44*%
X165600000Y-104600000D03*
X163700000Y-104600000D03*
%TD*%
D15*
%TO.C,C26*%
X151400000Y-86240000D03*
X151400000Y-87200000D03*
%TD*%
D40*
%TO.C,R18*%
X162350000Y-92800000D03*
X160700000Y-92800000D03*
%TD*%
D57*
%TO.C,Q10*%
X118610000Y-86900000D03*
X118610000Y-85000000D03*
X115990000Y-85950000D03*
%TD*%
D44*
%TO.C,C62*%
X168200000Y-97300000D03*
X167240000Y-97300000D03*
%TD*%
D42*
%TO.C,C34*%
X163600000Y-94900000D03*
X161700000Y-94900000D03*
%TD*%
D18*
%TO.C,R70*%
X214800000Y-97255000D03*
X214800000Y-98905000D03*
%TD*%
D25*
%TO.C,C51*%
X139675000Y-103300000D03*
X139675000Y-105200000D03*
%TD*%
D40*
%TO.C,R43*%
X171150000Y-107300000D03*
X169500000Y-107300000D03*
%TD*%
D14*
%TO.C,R19*%
X146200000Y-92850000D03*
X146200000Y-91200000D03*
%TD*%
D25*
%TO.C,C56*%
X133905000Y-103350000D03*
X133905000Y-105250000D03*
%TD*%
D15*
%TO.C,C5*%
X158500000Y-79100000D03*
X158500000Y-80060000D03*
%TD*%
D25*
%TO.C,C73*%
X95300000Y-105400000D03*
X95300000Y-107300000D03*
%TD*%
D40*
%TO.C,R17*%
X165420000Y-92800000D03*
X163770000Y-92800000D03*
%TD*%
D14*
%TO.C,R27*%
X177100000Y-97150000D03*
X177100000Y-95500000D03*
%TD*%
D58*
%TO.C,L1*%
X179800000Y-97800000D03*
X179800000Y-100800000D03*
%TD*%
D25*
%TO.C,C35*%
X158900000Y-90600000D03*
X158900000Y-92500000D03*
%TD*%
D15*
%TO.C,C76*%
X182225000Y-74440000D03*
X182225000Y-75400000D03*
%TD*%
D21*
%TO.C,Q5*%
X182850000Y-100540000D03*
X182850000Y-101180000D03*
X182850000Y-101840000D03*
X182850000Y-102480000D03*
D22*
X184675000Y-101510000D03*
%TD*%
D18*
%TO.C,R4*%
X153400000Y-86550000D03*
X153400000Y-88200000D03*
%TD*%
D44*
%TO.C,C85*%
X213900000Y-100400000D03*
X212940000Y-100400000D03*
%TD*%
D25*
%TO.C,C60*%
X123725000Y-81900000D03*
X123725000Y-83800000D03*
%TD*%
%TO.C,C69*%
X89825000Y-99100000D03*
X89825000Y-101000000D03*
%TD*%
D59*
%TO.C,L4*%
X200625000Y-100900000D03*
X205625000Y-100900000D03*
%TD*%
D60*
%TO.C,LS1*%
X203145835Y-86273909D03*
X214404165Y-92773909D03*
X207445835Y-78826091D03*
X218704165Y-85326091D03*
%TD*%
D28*
%TO.C,D7*%
X220925000Y-94150000D03*
X217625000Y-94150000D03*
X217625000Y-99050000D03*
X220925000Y-99050000D03*
%TD*%
D25*
%TO.C,C90*%
X209425000Y-113650000D03*
X209425000Y-115550000D03*
%TD*%
D44*
%TO.C,C40*%
X174200000Y-91500000D03*
X173240000Y-91500000D03*
%TD*%
D16*
%TO.C,C86*%
X211325000Y-101800000D03*
X211325000Y-100840000D03*
%TD*%
D18*
%TO.C,R32*%
X168500000Y-102950000D03*
X168500000Y-104600000D03*
%TD*%
D17*
%TO.C,R24*%
X146250000Y-94300000D03*
X147900000Y-94300000D03*
%TD*%
D40*
%TO.C,R2*%
X158500000Y-94500000D03*
X156850000Y-94500000D03*
%TD*%
%TO.C,R35*%
X167050000Y-98800000D03*
X165400000Y-98800000D03*
%TD*%
D44*
%TO.C,C61*%
X123260000Y-99600000D03*
X122300000Y-99600000D03*
%TD*%
D61*
%TO.C,U12*%
X178425000Y-76800000D03*
X178425000Y-78070000D03*
X178425000Y-79340000D03*
X178425000Y-80610000D03*
X178425000Y-81880000D03*
X178425000Y-83150000D03*
X178425000Y-84420000D03*
X178425000Y-85690000D03*
X183375000Y-85690000D03*
X183375000Y-84420000D03*
X183375000Y-83150000D03*
X183375000Y-81880000D03*
X183375000Y-80610000D03*
X183375000Y-79340000D03*
X183375000Y-78070000D03*
X183375000Y-76800000D03*
%TD*%
D62*
%TO.C,SW3*%
X184576234Y-73386193D03*
D63*
X192786604Y-75586155D03*
D62*
X184058596Y-75318045D03*
D63*
X192268966Y-77518007D03*
D64*
X186550808Y-78574021D03*
X188482659Y-79091659D03*
%TD*%
D65*
%TO.C,U15*%
X156675000Y-73050000D03*
X152475000Y-73050000D03*
%TD*%
D14*
%TO.C,R26*%
X146000000Y-99100000D03*
X146000000Y-97450000D03*
%TD*%
D18*
%TO.C,R47*%
X96000000Y-101600000D03*
X96000000Y-103250000D03*
%TD*%
D17*
%TO.C,R28*%
X145925000Y-100575000D03*
X147575000Y-100575000D03*
%TD*%
D15*
%TO.C,C45*%
X194425000Y-105320000D03*
X194425000Y-106280000D03*
%TD*%
D23*
%TO.C,U4*%
X126625000Y-96900000D03*
X125675000Y-96900000D03*
X124725000Y-96900000D03*
X124725000Y-99175000D03*
X125675000Y-99175000D03*
X126625000Y-99175000D03*
%TD*%
D18*
%TO.C,R3*%
X154500000Y-90000000D03*
X154500000Y-91650000D03*
%TD*%
D15*
%TO.C,C52*%
X177000000Y-99140000D03*
X177000000Y-100100000D03*
%TD*%
D14*
%TO.C,R21*%
X168900000Y-94550000D03*
X168900000Y-92900000D03*
%TD*%
D17*
%TO.C,R44*%
X97400000Y-106600000D03*
X99050000Y-106600000D03*
%TD*%
D61*
%TO.C,U10*%
X170375000Y-76850000D03*
X170375000Y-78120000D03*
X170375000Y-79390000D03*
X170375000Y-80660000D03*
X170375000Y-81930000D03*
X170375000Y-83200000D03*
X170375000Y-84470000D03*
X170375000Y-85740000D03*
X175325000Y-85740000D03*
X175325000Y-84470000D03*
X175325000Y-83200000D03*
X175325000Y-81930000D03*
X175325000Y-80660000D03*
X175325000Y-79390000D03*
X175325000Y-78120000D03*
X175325000Y-76850000D03*
%TD*%
D18*
%TO.C,R69*%
X216405000Y-100825000D03*
X216405000Y-102475000D03*
%TD*%
D66*
%TO.C,SW2*%
X104380608Y-111241025D03*
D67*
X97019392Y-115491025D03*
D66*
X103380608Y-109508975D03*
D67*
X96019392Y-113758975D03*
D68*
X99316025Y-108968911D03*
X97583975Y-109968911D03*
%TD*%
D17*
%TO.C,R45*%
X91750000Y-99100000D03*
X93400000Y-99100000D03*
%TD*%
D69*
%TO.C,U1*%
X92014556Y-89451182D03*
X92649556Y-90551035D03*
X93284556Y-91650887D03*
X93919556Y-92750739D03*
X94554556Y-93850591D03*
X95189556Y-94950444D03*
X95824556Y-96050296D03*
X96459556Y-97150148D03*
X97094556Y-98250000D03*
X97729556Y-99349853D03*
X98364556Y-100449705D03*
X98999556Y-101549557D03*
X99634556Y-102649410D03*
D70*
X100269556Y-103749262D03*
D71*
X102423091Y-103949294D03*
X103522943Y-103314294D03*
X104622795Y-102679294D03*
X105722646Y-102044294D03*
X106822500Y-101409294D03*
X107922352Y-100774294D03*
X109022204Y-100139294D03*
X110122056Y-99504294D03*
X111221909Y-98869294D03*
X112321761Y-98234294D03*
X113421613Y-97599294D03*
X114521465Y-96964294D03*
D69*
X115425000Y-94999262D03*
X114790000Y-93899410D03*
X114155000Y-92799557D03*
X113520000Y-91699705D03*
X112885000Y-90599853D03*
X112250000Y-89500000D03*
X111615000Y-88400148D03*
X110980000Y-87300296D03*
X110345000Y-86200444D03*
X109710000Y-85100591D03*
X109075000Y-84000739D03*
X108440000Y-82900887D03*
X107805000Y-81801035D03*
X107170000Y-80701182D03*
D72*
X100590804Y-92605681D03*
X101290804Y-93818116D03*
X100847022Y-91649463D03*
X101547022Y-92861898D03*
X102247022Y-94074334D03*
X101803240Y-91905681D03*
D73*
X102153240Y-92511898D03*
D72*
X102503240Y-93118116D03*
X102059458Y-90949463D03*
X103459458Y-93374334D03*
X102759459Y-92161898D03*
X103015675Y-91205681D03*
X103715675Y-92418116D03*
%TD*%
D42*
%TO.C,C88*%
X207375000Y-106200000D03*
X205475000Y-106200000D03*
%TD*%
D14*
%TO.C,R30*%
X184400000Y-93300000D03*
X184400000Y-91650000D03*
%TD*%
D25*
%TO.C,C81*%
X198700000Y-113700000D03*
X198700000Y-115600000D03*
%TD*%
D17*
%TO.C,R16*%
X147700000Y-90100000D03*
X149350000Y-90100000D03*
%TD*%
D40*
%TO.C,R25*%
X167050000Y-100550000D03*
X165400000Y-100550000D03*
%TD*%
D25*
%TO.C,C79*%
X209525000Y-117450000D03*
X209525000Y-119350000D03*
%TD*%
D74*
%TO.C,J4*%
X199870200Y-124800000D03*
X187070200Y-119300000D03*
X173370200Y-115400000D03*
X159370200Y-113700000D03*
X145570200Y-114300000D03*
X131270200Y-116400000D03*
%TD*%
D14*
%TO.C,R9*%
X151400000Y-100500000D03*
X151400000Y-98850000D03*
%TD*%
D40*
%TO.C,R61*%
X161600000Y-81200000D03*
X159950000Y-81200000D03*
%TD*%
D42*
%TO.C,C49*%
X122825000Y-96500000D03*
X120925000Y-96500000D03*
%TD*%
D20*
%TO.C,C67*%
X169300000Y-108700000D03*
X170260000Y-108700000D03*
%TD*%
D75*
%TO.C,U2*%
X107153974Y-111839896D03*
X106331250Y-112314896D03*
X105508526Y-112789896D03*
X106646026Y-114760104D03*
X108291474Y-113810104D03*
%TD*%
D16*
%TO.C,C96*%
X90125000Y-90480000D03*
X90125000Y-89520000D03*
%TD*%
D14*
%TO.C,R37*%
X170100000Y-105100000D03*
X170100000Y-103450000D03*
%TD*%
D25*
%TO.C,C71*%
X135925000Y-82400000D03*
X135925000Y-84300000D03*
%TD*%
D76*
%TO.C,MKTD4015BPN1*%
X205316000Y-118100000D03*
D77*
X204173000Y-118100000D03*
%TD*%
D40*
%TO.C,R1*%
X158500000Y-96300000D03*
X156850000Y-96300000D03*
%TD*%
D78*
%TO.C,D3*%
X114184671Y-77406430D03*
X110997116Y-78260533D03*
X112265329Y-82993570D03*
X115452884Y-82139467D03*
%TD*%
D79*
%TO.C,C36*%
X174800000Y-89700000D03*
X174800000Y-87800000D03*
%TD*%
D30*
%TO.C,L2*%
X125625000Y-93700000D03*
X125625000Y-86700000D03*
%TD*%
D44*
%TO.C,C42*%
X166400000Y-102700000D03*
X165440000Y-102700000D03*
%TD*%
D80*
%TO.C,Q1*%
X144465000Y-94070000D03*
X144465000Y-93430000D03*
X144465000Y-92770000D03*
X144465000Y-92130000D03*
D81*
X142640000Y-93100000D03*
%TD*%
D82*
%TO.C,Q6*%
X180580000Y-104950000D03*
X179940000Y-104950000D03*
X179280000Y-104950000D03*
X178640000Y-104950000D03*
D83*
X179610000Y-106775000D03*
%TD*%
D14*
%TO.C,R22*%
X203600000Y-83350000D03*
X203600000Y-81700000D03*
%TD*%
D18*
%TO.C,R6*%
X151300000Y-89600000D03*
X151300000Y-91250000D03*
%TD*%
D84*
%TO.C,D32*%
X110800000Y-102550000D03*
X109400000Y-102550000D03*
%TD*%
D16*
%TO.C,C7*%
X219500000Y-90500000D03*
X219500000Y-89540000D03*
%TD*%
D15*
%TO.C,C6*%
X201125000Y-74240000D03*
X201125000Y-75200000D03*
%TD*%
D17*
%TO.C,R42*%
X133250000Y-101100000D03*
X134900000Y-101100000D03*
%TD*%
D25*
%TO.C,C93*%
X214725000Y-109450000D03*
X214725000Y-111350000D03*
%TD*%
D16*
%TO.C,C55*%
X175700000Y-102960000D03*
X175700000Y-102000000D03*
%TD*%
D79*
%TO.C,C41*%
X182000000Y-89700000D03*
X182000000Y-87800000D03*
%TD*%
D45*
%TO.C,Q9*%
X165000000Y-84200000D03*
X166900000Y-84200000D03*
X165950000Y-82325000D03*
%TD*%
D14*
%TO.C,R40*%
X167200000Y-94550000D03*
X167200000Y-92900000D03*
%TD*%
D40*
%TO.C,R5*%
X114100000Y-103200000D03*
X112450000Y-103200000D03*
%TD*%
D44*
%TO.C,C39*%
X163760000Y-100600000D03*
X162800000Y-100600000D03*
%TD*%
D14*
%TO.C,R49*%
X206300000Y-122725000D03*
X206300000Y-121075000D03*
%TD*%
D15*
%TO.C,C74*%
X97300000Y-102000000D03*
X97300000Y-102960000D03*
%TD*%
D79*
%TO.C,C83*%
X197100000Y-119400000D03*
X197100000Y-117500000D03*
%TD*%
D17*
%TO.C,R50*%
X149550000Y-76300000D03*
X151200000Y-76300000D03*
%TD*%
D20*
%TO.C,C87*%
X216300000Y-104300000D03*
X217260000Y-104300000D03*
%TD*%
D17*
%TO.C,R51*%
X158020000Y-76250000D03*
X159670000Y-76250000D03*
%TD*%
D15*
%TO.C,C72*%
X175825000Y-74440000D03*
X175825000Y-75400000D03*
%TD*%
D85*
%TO.C,J3*%
X225836232Y-93161292D03*
X224589914Y-89187844D03*
X228750000Y-89000000D03*
%TD*%
D15*
%TO.C,C4*%
X149000000Y-71520000D03*
X149000000Y-72480000D03*
%TD*%
D86*
%TO.C,ES1*%
X213375000Y-103250000D03*
D87*
X212925000Y-103250000D03*
X212475000Y-103250000D03*
X212025000Y-103250000D03*
X211575000Y-103250000D03*
X211125000Y-103250000D03*
D88*
X210675000Y-103250000D03*
D89*
X210075000Y-103850000D03*
D90*
X210075000Y-104300000D03*
X210075000Y-104750000D03*
X210075000Y-105200000D03*
X210075000Y-105650000D03*
X210075000Y-106100000D03*
D91*
X210075000Y-106550000D03*
D92*
X210675000Y-107150000D03*
D87*
X211125000Y-107150000D03*
X211575000Y-107150000D03*
X212025000Y-107150000D03*
X212475000Y-107150000D03*
X212925000Y-107150000D03*
D93*
X213375000Y-107150000D03*
D94*
X213975000Y-106550000D03*
D90*
X213975000Y-106100000D03*
X213975000Y-105650000D03*
X213975000Y-105200000D03*
X213975000Y-104750000D03*
X213975000Y-104300000D03*
D95*
X213975000Y-103850000D03*
D96*
X212025000Y-105200000D03*
%TD*%
D15*
%TO.C,C31*%
X149400000Y-87900000D03*
X149400000Y-88860000D03*
%TD*%
D14*
%TO.C,R59*%
X200800000Y-118825000D03*
X200800000Y-117175000D03*
%TD*%
D17*
%TO.C,R7*%
X107200000Y-105400000D03*
X108850000Y-105400000D03*
%TD*%
D25*
%TO.C,C97*%
X90725000Y-91750000D03*
X90725000Y-93650000D03*
%TD*%
D18*
%TO.C,R20*%
X170600000Y-92900000D03*
X170600000Y-94550000D03*
%TD*%
D17*
%TO.C,R39*%
X125450000Y-101000000D03*
X127100000Y-101000000D03*
%TD*%
D79*
%TO.C,C47*%
X176100000Y-93700000D03*
X176100000Y-91800000D03*
%TD*%
D15*
%TO.C,C27*%
X154400000Y-94840000D03*
X154400000Y-95800000D03*
%TD*%
D44*
%TO.C,C63*%
X168385000Y-96050000D03*
X167425000Y-96050000D03*
%TD*%
D16*
%TO.C,C58*%
X128025000Y-98460000D03*
X128025000Y-97500000D03*
%TD*%
D40*
%TO.C,TH1*%
X147600000Y-95900000D03*
X145950000Y-95900000D03*
%TD*%
D79*
%TO.C,C38*%
X179600000Y-89700000D03*
X179600000Y-87800000D03*
%TD*%
D29*
%TO.C,C64*%
X161700000Y-97400000D03*
X163600000Y-97400000D03*
%TD*%
%TO.C,C30*%
X156500000Y-98300000D03*
X158400000Y-98300000D03*
%TD*%
D79*
%TO.C,C95*%
X207325000Y-111600000D03*
X207325000Y-109700000D03*
%TD*%
D80*
%TO.C,Q2*%
X144475000Y-98160000D03*
X144475000Y-97520000D03*
X144475000Y-96860000D03*
X144475000Y-96220000D03*
D81*
X142650000Y-97190000D03*
%TD*%
D16*
%TO.C,C82*%
X201300000Y-114600000D03*
X201300000Y-113640000D03*
%TD*%
D79*
%TO.C,C84*%
X209100000Y-101350000D03*
X209100000Y-99450000D03*
%TD*%
D14*
%TO.C,R33*%
X194425000Y-103900000D03*
X194425000Y-102250000D03*
%TD*%
D44*
%TO.C,C48*%
X173280000Y-92600000D03*
X172320000Y-92600000D03*
%TD*%
D16*
%TO.C,C65*%
X136425000Y-98560000D03*
X136425000Y-97600000D03*
%TD*%
D79*
%TO.C,C37*%
X177300000Y-89700000D03*
X177300000Y-87800000D03*
%TD*%
D17*
%TO.C,R38*%
X122350000Y-101000000D03*
X124000000Y-101000000D03*
%TD*%
D23*
%TO.C,U6*%
X134875000Y-96962500D03*
X133925000Y-96962500D03*
X132975000Y-96962500D03*
X132975000Y-99237500D03*
X133925000Y-99237500D03*
X134875000Y-99237500D03*
%TD*%
D44*
%TO.C,C89*%
X207705000Y-104500000D03*
X206745000Y-104500000D03*
%TD*%
D21*
%TO.C,Q4*%
X182675000Y-96230000D03*
X182675000Y-96870000D03*
X182675000Y-97530000D03*
X182675000Y-98170000D03*
D22*
X184500000Y-97200000D03*
%TD*%
D97*
%TO.C,C2*%
X87631807Y-91175317D03*
X88418193Y-90624683D03*
%TD*%
D98*
%TO.C,U14*%
X163675000Y-67975000D03*
X163175000Y-67975000D03*
X162675000Y-67975000D03*
X162175000Y-67975000D03*
D99*
X162012500Y-68637500D03*
X162012500Y-69137500D03*
X162012500Y-69637500D03*
D98*
X162175000Y-70300000D03*
X162675000Y-70300000D03*
X163175000Y-70300000D03*
X163675000Y-70300000D03*
D99*
X163837500Y-69637500D03*
X163837500Y-69137500D03*
X163837500Y-68637500D03*
%TD*%
D100*
%TO.C,D34*%
X116300000Y-102400000D03*
X116300000Y-99600000D03*
%TD*%
M02*
