%TF.GenerationSoftware,KiCad,Pcbnew,10.0.0*%
%TF.CreationDate,2026-04-04T18:49:24+02:00*%
%TF.ProjectId,Sthymuli-motherboard,53746879-6d75-46c6-992d-6d6f74686572,rev?*%
%TF.SameCoordinates,Original*%
%TF.FileFunction,Copper,L3,Inr*%
%TF.FilePolarity,Positive*%
%FSLAX46Y46*%
G04 Gerber Fmt 4.6, Leading zero omitted, Abs format (unit mm)*
G04 Created by KiCad (PCBNEW 10.0.0) date 2026-04-04 18:49:24*
%MOMM*%
%LPD*%
G01*
G04 APERTURE LIST*
G04 Aperture macros list*
%AMHorizOval*
0 Thick line with rounded ends*
0 $1 width*
0 $2 $3 position (X,Y) of the first rounded end (center of the circle)*
0 $4 $5 position (X,Y) of the second rounded end (center of the circle)*
0 Add line between two ends*
20,1,$1,$2,$3,$4,$5,0*
0 Add two circle primitives to create the rounded ends*
1,1,$1,$2,$3*
1,1,$1,$4,$5*%
G04 Aperture macros list end*
%TA.AperFunction,ComponentPad*%
%ADD10C,2.000000*%
%TD*%
%TA.AperFunction,ComponentPad*%
%ADD11HorizOval,1.000000X-0.232440X0.498469X0.232440X-0.498469X0*%
%TD*%
%TA.AperFunction,ComponentPad*%
%ADD12HorizOval,1.000000X-0.169047X0.362523X0.169047X-0.362523X0*%
%TD*%
%TA.AperFunction,HeatsinkPad*%
%ADD13C,0.600000*%
%TD*%
%TA.AperFunction,ComponentPad*%
%ADD14C,0.900000*%
%TD*%
%TA.AperFunction,ComponentPad*%
%ADD15C,3.200000*%
%TD*%
%TA.AperFunction,ViaPad*%
%ADD16C,0.600000*%
%TD*%
%TA.AperFunction,Conductor*%
%ADD17C,0.200000*%
%TD*%
%TA.AperFunction,Conductor*%
%ADD18C,0.500000*%
%TD*%
%TA.AperFunction,Conductor*%
%ADD19C,0.400000*%
%TD*%
G04 APERTURE END LIST*
D10*
%TO.N,Net-(Q9-D)*%
%TO.C,U16*%
X161566000Y-77787000D03*
%TO.N,Net-(R61-Pad1)*%
X164106000Y-77787000D03*
%TO.N,GND*%
X164086000Y-73723000D03*
%TO.N,NORTH_IR_REC_VERT*%
X161566000Y-73723000D03*
%TD*%
D11*
%TO.N,GND*%
%TO.C,J1*%
X108189068Y-108993499D03*
D12*
X109964065Y-112799992D03*
X117794564Y-109148570D03*
D11*
X116019568Y-105342077D03*
%TD*%
D13*
%TO.N,GND*%
%TO.C,U1*%
X100590804Y-92605681D03*
X101290804Y-93818116D03*
X100847022Y-91649463D03*
X101547022Y-92861898D03*
X102247022Y-94074334D03*
X101803240Y-91905681D03*
X102503240Y-93118116D03*
X102059458Y-90949463D03*
X103459458Y-93374334D03*
X102759459Y-92161898D03*
X103015675Y-91205681D03*
X103715675Y-92418116D03*
%TD*%
D14*
%TO.N,Net-(MKTD4015BPN1-+)*%
%TO.C,MKTD4015BPN1*%
X204425000Y-118400000D03*
%TD*%
D15*
%TO.N,*%
%TO.C,BT4*%
X120175000Y-99550000D03*
%TD*%
D16*
%TO.N,BOOT_MODE*%
X102250000Y-99000000D03*
X103250000Y-108750000D03*
%TO.N,GND*%
X151112500Y-95100000D03*
X180390000Y-99611700D03*
X162875000Y-69362300D03*
X93750000Y-97750000D03*
X158250000Y-94250000D03*
X157500000Y-97500000D03*
X85500000Y-96750000D03*
X146250000Y-97000000D03*
X166675000Y-92750000D03*
X128000000Y-95250000D03*
X135768000Y-95783700D03*
X175500000Y-87850000D03*
X129750000Y-95250000D03*
X204372000Y-110947000D03*
X101250000Y-109750000D03*
X102750000Y-112500000D03*
X166750000Y-94750000D03*
X166500000Y-75287600D03*
X151702000Y-80786300D03*
X145369000Y-99648500D03*
X127500000Y-109250000D03*
X206633000Y-113820000D03*
X151500000Y-82500000D03*
X101000000Y-100750000D03*
X101500000Y-115250000D03*
X180250000Y-97000000D03*
X175500000Y-91250002D03*
X114500000Y-100500000D03*
X110500000Y-101000000D03*
X194250000Y-83750000D03*
X147000000Y-93000000D03*
X146002000Y-94790500D03*
X126000000Y-101000000D03*
X192250000Y-107000000D03*
X128250000Y-80500000D03*
X88500000Y-98000000D03*
X137750000Y-100000000D03*
%TO.N,+3V3*%
X132020000Y-73561500D03*
X121500000Y-73000000D03*
X200625000Y-100900000D03*
X158326000Y-73312300D03*
X149089000Y-73504300D03*
X127000000Y-71250000D03*
X159854000Y-75100000D03*
X189764000Y-84227500D03*
X91500000Y-98000000D03*
X200813000Y-103572000D03*
X208500000Y-110500000D03*
X193637000Y-103572000D03*
X162000000Y-90750000D03*
X151250000Y-112500000D03*
X219250000Y-98500000D03*
X149715000Y-76375000D03*
X179172606Y-71046248D03*
%TO.N,NORTH_BAT-*%
X119399000Y-87650000D03*
X146500000Y-87100000D03*
%TO.N,+5V*%
X195961000Y-101624000D03*
X137435000Y-91000000D03*
X222469000Y-96584500D03*
X187064000Y-102207000D03*
X125670000Y-78000000D03*
X207975000Y-114750000D03*
X149750000Y-79250000D03*
X115750000Y-77000000D03*
X138000000Y-82500000D03*
X148750000Y-109750000D03*
X206000000Y-124750000D03*
X117702000Y-98700000D03*
X197750000Y-77750000D03*
X88115400Y-91965400D03*
X137435000Y-93850000D03*
X200245000Y-74150002D03*
X131041000Y-84100000D03*
%TO.N,Net-(MKTD4015BPN1-+)*%
X207750000Y-120250000D03*
%TO.N,Net-(Q7-G)*%
X172250000Y-103500000D03*
X171750000Y-108250000D03*
%TO.N,Net-(Q6-D)*%
X142750000Y-106750000D03*
X176750000Y-108500000D03*
X129000000Y-99750000D03*
X123750000Y-98500000D03*
%TO.N,IR_analog*%
X94324059Y-99653389D03*
X92500000Y-94500000D03*
%TO.N,EAST_BAT-*%
X117000000Y-86750000D03*
X157157751Y-85382969D03*
%TO.N,Net-(D2-DOUT)*%
X116000000Y-83750000D03*
X84500000Y-94000000D03*
X118225000Y-91276700D03*
%TO.N,Net-(D1-DOUT)*%
X90250000Y-95750000D03*
X122250000Y-108250000D03*
X122750000Y-95250000D03*
%TO.N,Net-(Q3-G)*%
X177500000Y-97000000D03*
X174512000Y-97703900D03*
%TO.N,Net-(Q3-D)*%
X176250000Y-93000000D03*
X181250000Y-93250000D03*
%TO.N,Net-(D4-DOUT)*%
X144041000Y-81400000D03*
X144000000Y-69250000D03*
X158250000Y-82500000D03*
%TO.N,Net-(D3-DOUT)*%
X147250000Y-78250000D03*
X113405000Y-79155300D03*
%TO.N,Net-(U3-SRP)*%
X149415000Y-87850000D03*
X147978000Y-92759800D03*
%TO.N,Net-(U3-SRN)*%
X148459000Y-93505700D03*
X149475000Y-90575700D03*
%TO.N,Net-(U5-ACP)*%
X168750000Y-93000000D03*
X171809000Y-94110000D03*
%TO.N,Net-(C36-Pad1)*%
X105750000Y-109000000D03*
X175915000Y-95165400D03*
X163550977Y-87996744D03*
X172697000Y-94181300D03*
%TO.N,Net-(U3-BAT)*%
X157500000Y-95750000D03*
X157441000Y-91100000D03*
%TO.N,SCL*%
X202446000Y-94431200D03*
X168414000Y-100129000D03*
X142750000Y-81750000D03*
X149812000Y-100300000D03*
X214500000Y-98000000D03*
X167862000Y-113098000D03*
X202250000Y-88750000D03*
X142750000Y-99750000D03*
X113585000Y-99750000D03*
X166250000Y-68500000D03*
X213500000Y-95250000D03*
%TO.N,SDA*%
X141000000Y-69250000D03*
X216250000Y-100750000D03*
X200250000Y-84500000D03*
X139750000Y-94500000D03*
X195500000Y-119000000D03*
X162853000Y-98715600D03*
X119373000Y-95850000D03*
X201687000Y-96479300D03*
X167500000Y-67500000D03*
X215750000Y-97000000D03*
X151049000Y-97936700D03*
%TO.N,BMS_ALERT*%
X103500000Y-105500000D03*
X151666000Y-102200000D03*
%TO.N,NORTH_btn_A*%
X192500000Y-72000000D03*
X195000000Y-100000000D03*
X123147000Y-74323300D03*
%TO.N,Net-(U1-3V3)*%
X122000000Y-98500000D03*
X90500000Y-106000000D03*
X111250000Y-80500000D03*
X95000000Y-89250000D03*
X122000000Y-83650000D03*
X108750000Y-113500000D03*
%TO.N,Net-(D6-DOUT)*%
X222000000Y-99000000D03*
X194150000Y-73709300D03*
X221750000Y-83500000D03*
%TO.N,Net-(D5-DOUT)*%
X199000000Y-77100000D03*
X153169000Y-76400000D03*
%TO.N,RST*%
X192750000Y-103000000D03*
X192000000Y-93500000D03*
X96000000Y-91500000D03*
%TO.N,IR_receiver*%
X170750000Y-74600000D03*
X106139000Y-99790300D03*
X105500000Y-82500000D03*
%TO.N,WEST_BAT+*%
X155103000Y-102129000D03*
%TO.N,Net-(Q9-D)*%
X168250000Y-79658000D03*
%TO.N,NORTH_IR_REC_VERT*%
X172750000Y-81650000D03*
X159097000Y-82100000D03*
%TO.N,PWR_ON*%
X137455000Y-99097600D03*
X105796000Y-93785000D03*
X131582000Y-93700000D03*
X88673400Y-102226000D03*
X92250000Y-96640500D03*
%TO.N,NORTH_IR_TRA_HORI*%
X159247000Y-80400000D03*
X186000002Y-77500000D03*
%TO.N,Net-(Q8-D)*%
X161200000Y-82400000D03*
X157578000Y-74931900D03*
%TO.N,WS2812_DIN*%
X104919000Y-107847000D03*
X128011000Y-106550000D03*
%TO.N,Net-(R60-Pad1)*%
X155140000Y-74350000D03*
%TO.N,/D+*%
X101250000Y-106500000D03*
X112076000Y-108550000D03*
X112251000Y-101310000D03*
%TO.N,Net-(U5-VBUS)*%
X173612000Y-92750000D03*
X175249000Y-96494500D03*
%TO.N,CHRG_OK*%
X184811000Y-90221200D03*
X185100000Y-95000000D03*
X172520000Y-90740000D03*
%TO.N,OTG*%
X184750000Y-89150000D03*
X169215000Y-90465800D03*
X185100000Y-96650000D03*
%TO.N,Net-(U5-VDDA)*%
X167500000Y-94025000D03*
X169950000Y-94045600D03*
%TO.N,Net-(U5-CELL_BATPRESZ)*%
X170341000Y-102441000D03*
X169304000Y-91311100D03*
%TO.N,Net-(Q6-G)*%
X173750000Y-102250000D03*
X180000000Y-102400000D03*
%TO.N,Net-(Q5-G)*%
X176085000Y-101580000D03*
X181495000Y-100300000D03*
%TO.N,Net-(U5-REGN)*%
X164842000Y-98866100D03*
X176858000Y-99200000D03*
%TO.N,Net-(Q4-G)*%
X176327000Y-97954900D03*
X179250000Y-96650000D03*
%TO.N,VBUS*%
X109535000Y-106387000D03*
X107750000Y-104500000D03*
X113585000Y-104665000D03*
X115500000Y-103250000D03*
%TO.N,/D-*%
X110000000Y-104500000D03*
X98900000Y-104155000D03*
%TO.N,Net-(ES1-SPKLP)*%
X203750000Y-106400000D03*
X202750000Y-84000000D03*
%TO.N,Net-(ES1-SPKLN)*%
X210750000Y-93250000D03*
X208730000Y-106266000D03*
%TO.N,Net-(D7-DOUT)*%
X217500000Y-92500000D03*
X203390000Y-104690000D03*
X202317000Y-92609200D03*
%TO.N,NORTH_btn_B*%
X194250000Y-77000000D03*
X195269000Y-98300000D03*
%TO.N,EAST_btn_A*%
X202500000Y-109750000D03*
X201581000Y-98367700D03*
%TO.N,EAST_btn_B*%
X199854000Y-95800000D03*
X209240000Y-109860000D03*
X199000000Y-108500000D03*
%TO.N,SOUTH_btn_A*%
X202412000Y-95271300D03*
X181989505Y-78528027D03*
X201250000Y-81000000D03*
%TO.N,SOUTH_btn_B*%
X192800000Y-73218900D03*
X178960000Y-72980000D03*
X193598000Y-93396700D03*
%TO.N,WEST_btn_A*%
X191000000Y-72250000D03*
X193000000Y-92750000D03*
X127158000Y-74190000D03*
%TO.N,WEST_btn_B*%
X192250000Y-90500000D03*
X130645000Y-76400000D03*
X190000000Y-77000000D03*
%TO.N,GPIO_INTB*%
X104158000Y-89576900D03*
X191500000Y-89000000D03*
%TO.N,GPIO_INTA*%
X190500000Y-89250000D03*
X105955000Y-87851600D03*
%TO.N,Net-(J3-Pin_1)*%
X190000000Y-95000000D03*
X190500000Y-90250000D03*
X223250000Y-95000000D03*
%TO.N,Net-(J3-Pin_2)*%
X190791000Y-92600000D03*
X224250000Y-90500000D03*
%TO.N,Net-(J3-Pin_3)*%
X225500000Y-91500000D03*
X190687000Y-94150000D03*
%TO.N,IR_S0*%
X186250000Y-97350000D03*
X172985000Y-82369800D03*
X185500000Y-83250000D03*
%TO.N,IR_S1*%
X185770000Y-98600000D03*
X185250000Y-85150000D03*
X172148000Y-82518100D03*
%TO.N,IR_S2*%
X185029817Y-85970989D03*
X172240546Y-87646129D03*
X186423000Y-100315000D03*
X183040000Y-95116000D03*
%TO.N,SOUTH_BAT+*%
X156748000Y-93417100D03*
X156769000Y-84150100D03*
%TO.N,SOUTH_IR_TRA_VERT*%
X180750000Y-75100000D03*
X169500000Y-75000000D03*
%TO.N,WEST_IR_TRA_VERT*%
X140750000Y-80250000D03*
X180920000Y-79297000D03*
%TO.N,IR_MODULATION*%
X185650000Y-101500000D03*
X106500000Y-103500000D03*
X186335000Y-79915400D03*
%TO.N,WEST_IR_TRA_HORI*%
X138547000Y-80671800D03*
X177006000Y-80032600D03*
%TO.N,SOUTH_IR_TRA_HORI*%
X180435725Y-82354964D03*
X178750000Y-75100000D03*
X171299000Y-73950000D03*
%TO.N,EAST_IR_TRA_HORI*%
X205300000Y-82176000D03*
X210929000Y-98990500D03*
X185600421Y-82470789D03*
%TO.N,NORTH_IR_TRA_VERT*%
X164349000Y-82204800D03*
X184824312Y-81408419D03*
%TO.N,EAST_IR_TRA_VERT*%
X187250000Y-75650000D03*
X203750000Y-80500000D03*
X209492000Y-96931500D03*
%TO.N,NORTH_IR_REC_HORI*%
X173500000Y-78750000D03*
X151500000Y-79000000D03*
%TO.N,EAST_BAT+*%
X176250000Y-72750000D03*
X154000000Y-90150000D03*
X154000000Y-74184800D03*
%TO.N,Net-(BT4-+)*%
X115000000Y-87000000D03*
%TO.N,Net-(U10-A)*%
X99500000Y-108000000D03*
X167959232Y-76013050D03*
X98905300Y-85905300D03*
%TO.N,SOUTH_IR_REC_VERT*%
X171750000Y-76000000D03*
%TO.N,WEST_IR_REC_VERT*%
X168220002Y-78120000D03*
X137250000Y-79250000D03*
%TO.N,WEST_IR_REC_HORI*%
X134750000Y-80250000D03*
X158943609Y-87537667D03*
%TO.N,SOUTH_IR_REC_HORI*%
X169000000Y-82000000D03*
%TO.N,EAST_IR_REC_HORI*%
X173750000Y-82000000D03*
X198250000Y-102250000D03*
X198250000Y-81500000D03*
%TO.N,EAST_IR_REC_VERT*%
X173525001Y-77525001D03*
X201250000Y-79000000D03*
X204538000Y-98097500D03*
%TO.N,EXT_GPIO_1*%
X92750000Y-97500000D03*
X154000000Y-108250000D03*
%TO.N,I2S_DOUT*%
X185000000Y-104250000D03*
X95150200Y-98646100D03*
X207937000Y-103550000D03*
X185643000Y-100134000D03*
%TO.N,I2S_MCLK*%
X213279000Y-100250000D03*
X95500000Y-99500000D03*
%TO.N,ACC_B_INT1*%
X99250000Y-98500000D03*
X99506400Y-86506400D03*
X166050867Y-83366839D03*
%TO.N,ACC_A_INT1*%
X161750000Y-66750000D03*
X96500000Y-100250000D03*
X97250000Y-88000000D03*
X161600000Y-89678600D03*
%TO.N,EXT_GPIO_2*%
X142000000Y-109750000D03*
X98900000Y-106041000D03*
%TO.N,I2S_SCLK*%
X106750000Y-98500000D03*
X203000000Y-97250000D03*
%TO.N,I2S_LCLK*%
X208656000Y-104670000D03*
X113497000Y-108587000D03*
X108000000Y-98250000D03*
%TO.N,I2S_DSIN*%
X207000000Y-98400000D03*
X110000000Y-97150000D03*
X208361000Y-105501000D03*
%TO.N,Net-(J2-Pin_4)*%
X138500000Y-93000000D03*
X109750000Y-92250000D03*
X138500000Y-110250000D03*
%TO.N,Net-(J2-Pin_5)*%
X131000000Y-87500000D03*
X115835000Y-87550000D03*
X136750000Y-109750000D03*
%TO.N,Net-(J2-Pin_6)*%
X134500000Y-89750000D03*
X110175000Y-88450000D03*
X135250000Y-110500000D03*
%TO.N,Net-(J2-Pin_7)*%
X132750000Y-110250000D03*
X132750000Y-89750000D03*
X109250000Y-88750000D03*
%TO.N,Net-(J2-Pin_8)*%
X130000000Y-85500000D03*
X111769000Y-85556400D03*
X130000000Y-110000000D03*
%TO.N,Net-(J2-Pin_3)*%
X141000000Y-116500000D03*
X139500000Y-85500000D03*
X111500000Y-84750000D03*
%TO.N,Net-(J2-Pin_2)*%
X106791000Y-86100000D03*
X145000000Y-109250000D03*
X144000000Y-85000000D03*
%TO.N,/MIC_N*%
X204000000Y-113000000D03*
X216384000Y-109878000D03*
%TO.N,/MIC_P*%
X208150000Y-117541000D03*
X217250000Y-107750000D03*
%TO.N,Net-(Q1-D)*%
X145250000Y-92750000D03*
X145272000Y-96559800D03*
%TO.N,/MICBIAS*%
X202325000Y-116925000D03*
X215750000Y-108750000D03*
%TO.N,Net-(J11-Pin_8)*%
X133250000Y-70000000D03*
X172750000Y-70750000D03*
%TO.N,Net-(J12-Pin_8)*%
X203500000Y-78750000D03*
X177000000Y-75750000D03*
X214500000Y-101250000D03*
%TD*%
%TO.N,GND*%
D17*
X135768000Y-95783700D02*
X130284000Y-95783700D01*
X130284000Y-95783700D02*
X129750000Y-95250000D01*
%TO.N,+3V3*%
X216000000Y-98500000D02*
X213600000Y-100900000D01*
D18*
X149032000Y-73561500D02*
X149089000Y-73504300D01*
X132020000Y-73561500D02*
X149032000Y-73561500D01*
D17*
X219250000Y-98500000D02*
X216000000Y-98500000D01*
X213600000Y-100900000D02*
X200625000Y-100900000D01*
%TO.N,+5V*%
D19*
X105500000Y-95000000D02*
X96500000Y-95000000D01*
X106000000Y-94500000D02*
X105500000Y-95000000D01*
X136785000Y-94500000D02*
X106000000Y-94500000D01*
X96500000Y-95000000D02*
X93750000Y-92250000D01*
D17*
X211295000Y-101624000D02*
X211558000Y-101886000D01*
X217167000Y-101886000D02*
X222469000Y-96584500D01*
D19*
X88400000Y-92250000D02*
X88115400Y-91965400D01*
D17*
X187064000Y-102207000D02*
X187648000Y-101624000D01*
X195961000Y-101624000D02*
X211295000Y-101624000D01*
D19*
X115750000Y-77000000D02*
X124670000Y-77000000D01*
D17*
X211558000Y-101886000D02*
X217167000Y-101886000D01*
D19*
X137435000Y-93850000D02*
X136785000Y-94500000D01*
D17*
X187648000Y-101624000D02*
X195961000Y-101624000D01*
D19*
X93750000Y-92250000D02*
X88400000Y-92250000D01*
X124670000Y-77000000D02*
X125670000Y-78000000D01*
%TO.N,Net-(Q6-D)*%
D17*
X128851000Y-99898800D02*
X125149000Y-99898800D01*
X125149000Y-99898800D02*
X123750000Y-98500000D01*
X129000000Y-99750000D02*
X128851000Y-99898800D01*
%TO.N,Net-(D2-DOUT)*%
X84500000Y-94000000D02*
X88500000Y-90000000D01*
X88500000Y-90000000D02*
X98434300Y-90000000D01*
X98834300Y-89600000D02*
X103262000Y-89600000D01*
X98434300Y-90000000D02*
X98834300Y-89600000D01*
X117998000Y-91050000D02*
X118225000Y-91276700D01*
X103262000Y-89600000D02*
X104712000Y-91050000D01*
X104712000Y-91050000D02*
X117998000Y-91050000D01*
%TO.N,Net-(D1-DOUT)*%
X122750000Y-95000000D02*
X122750000Y-95250000D01*
X119312000Y-95000000D02*
X122750000Y-95000000D01*
X118562000Y-95750000D02*
X119312000Y-95000000D01*
X90250000Y-95750000D02*
X118562000Y-95750000D01*
%TO.N,Net-(Q3-G)*%
X175934000Y-97294500D02*
X175525000Y-97703900D01*
X176087000Y-97294500D02*
X175934000Y-97294500D01*
X176381000Y-97000000D02*
X176087000Y-97294500D01*
X175525000Y-97703900D02*
X174512000Y-97703900D01*
X177500000Y-97000000D02*
X176381000Y-97000000D01*
%TO.N,Net-(Q3-D)*%
X176500000Y-93250000D02*
X181250000Y-93250000D01*
X176250000Y-93000000D02*
X176500000Y-93250000D01*
%TO.N,Net-(D4-DOUT)*%
X151267000Y-81836300D02*
X150680000Y-81250000D01*
X152530000Y-82500000D02*
X151866000Y-81836300D01*
X151866000Y-81836300D02*
X151267000Y-81836300D01*
X144041000Y-81331400D02*
X144041000Y-81400000D01*
X144122000Y-81250000D02*
X144041000Y-81331400D01*
X158250000Y-82500000D02*
X152530000Y-82500000D01*
X150680000Y-81250000D02*
X144122000Y-81250000D01*
%TO.N,Net-(D3-DOUT)*%
X126320000Y-78250000D02*
X125920000Y-78650000D01*
X140731000Y-78400000D02*
X140581000Y-78250000D01*
X141419000Y-78250000D02*
X141269000Y-78400000D01*
X125001000Y-78250000D02*
X114311000Y-78250000D01*
X114311000Y-78250000D02*
X113405000Y-79155300D01*
X147250000Y-78250000D02*
X141419000Y-78250000D01*
X140581000Y-78250000D02*
X126320000Y-78250000D01*
X125401000Y-78650000D02*
X125001000Y-78250000D01*
X125920000Y-78650000D02*
X125401000Y-78650000D01*
X141269000Y-78400000D02*
X140731000Y-78400000D01*
%TO.N,Net-(U5-ACP)*%
X170927000Y-93000000D02*
X171853000Y-93926500D01*
X171853000Y-94066300D02*
X171809000Y-94110000D01*
X168750000Y-93000000D02*
X170927000Y-93000000D01*
X171853000Y-93926500D02*
X171853000Y-94066300D01*
%TO.N,Net-(C36-Pad1)*%
X175915000Y-95165400D02*
X175000000Y-94250000D01*
X172766000Y-94250000D02*
X172697000Y-94181300D01*
X175000000Y-94250000D02*
X172766000Y-94250000D01*
%TO.N,SCL*%
X207250000Y-99250000D02*
X208500000Y-98000000D01*
X148169000Y-98800000D02*
X149668000Y-100300000D01*
X175000000Y-100250000D02*
X178750000Y-100250000D01*
X142750000Y-97650000D02*
X143769000Y-97650000D01*
X124967000Y-97427500D02*
X124744000Y-97650000D01*
X202515000Y-94500000D02*
X202446000Y-94431200D01*
X168414000Y-100129000D02*
X174879000Y-100129000D01*
X165406000Y-100248000D02*
X149864000Y-100248000D01*
X113750000Y-99750000D02*
X113585000Y-99750000D01*
X168237000Y-99951500D02*
X165703000Y-99951500D01*
X149864000Y-100248000D02*
X149812000Y-100300000D01*
X142750000Y-99750000D02*
X142750000Y-97650000D01*
X144919000Y-98800000D02*
X148169000Y-98800000D01*
X168414000Y-100129000D02*
X168237000Y-99951500D01*
X165703000Y-99951500D02*
X165406000Y-100248000D01*
X174879000Y-100129000D02*
X175000000Y-100250000D01*
X149668000Y-100300000D02*
X149812000Y-100300000D01*
X178750000Y-100250000D02*
X180250000Y-98750000D01*
X124744000Y-97650000D02*
X115850000Y-97650000D01*
X212750000Y-94500000D02*
X202515000Y-94500000D01*
X115850000Y-97650000D02*
X113750000Y-99750000D01*
X143769000Y-97650000D02*
X144919000Y-98800000D01*
X129379000Y-97650000D02*
X129156000Y-97427500D01*
X142750000Y-97650000D02*
X129379000Y-97650000D01*
X180250000Y-98750000D02*
X181500000Y-98750000D01*
X129156000Y-97427500D02*
X124967000Y-97427500D01*
X181500000Y-98750000D02*
X182000000Y-99250000D01*
X213500000Y-95250000D02*
X212750000Y-94500000D01*
X208500000Y-98000000D02*
X214500000Y-98000000D01*
X182000000Y-99250000D02*
X207250000Y-99250000D01*
%TO.N,SDA*%
X164684000Y-97816100D02*
X163752000Y-97816100D01*
X150914000Y-97609200D02*
X150828000Y-97609200D01*
X211256000Y-97600000D02*
X209312000Y-97600000D01*
X201234000Y-96250000D02*
X200636000Y-96848000D01*
X136512000Y-95959800D02*
X136038000Y-96433700D01*
X195969000Y-96848000D02*
X195870000Y-96749000D01*
X211856000Y-97000000D02*
X211256000Y-97600000D01*
X150824000Y-97613000D02*
X149679000Y-97613000D01*
X151018000Y-97736500D02*
X151060000Y-97736500D01*
X139750000Y-95959800D02*
X136512000Y-95959800D01*
X151097000Y-97679200D02*
X151012000Y-97594900D01*
X139750000Y-94500000D02*
X139750000Y-95959800D01*
X195870000Y-96749000D02*
X191183000Y-96749000D01*
X162737000Y-98600000D02*
X162853000Y-98715600D01*
X175519000Y-97144500D02*
X174980000Y-97144500D01*
X151094000Y-97891600D02*
X151049000Y-97936700D01*
X153084000Y-98600000D02*
X162737000Y-98600000D01*
X150828000Y-97609200D02*
X150824000Y-97613000D01*
X215750000Y-97000000D02*
X211856000Y-97000000D01*
X201687000Y-96479300D02*
X201458000Y-96250000D01*
X151060000Y-97736500D02*
X151094000Y-97702800D01*
X119483000Y-95959800D02*
X119373000Y-95850000D01*
X149679000Y-97613000D02*
X149416000Y-97350000D01*
X151110000Y-97828300D02*
X152048000Y-98765600D01*
X136038000Y-96433700D02*
X135499000Y-96433700D01*
X135249000Y-96183700D02*
X130118000Y-96183700D01*
X204969000Y-97000000D02*
X204448000Y-96479300D01*
X151040000Y-97856400D02*
X151007000Y-97823100D01*
X151001000Y-97783400D02*
X151046000Y-97828300D01*
X200636000Y-96848000D02*
X195969000Y-96848000D01*
X201458000Y-96250000D02*
X201234000Y-96250000D01*
X175769000Y-96894500D02*
X175519000Y-97144500D01*
X130118000Y-96183700D02*
X129894000Y-95959800D01*
X173836000Y-96000000D02*
X166500000Y-96000000D01*
X151094000Y-97702800D02*
X151094000Y-97695200D01*
X152048000Y-98765600D02*
X152919000Y-98765600D01*
X150995000Y-97787300D02*
X150995000Y-97768300D01*
X166500000Y-96000000D02*
X164684000Y-97816100D01*
X151012000Y-97594900D02*
X150928000Y-97594900D01*
X147960000Y-95959800D02*
X139750000Y-95959800D01*
X151094000Y-97695200D02*
X151097000Y-97691900D01*
X151076000Y-97849000D02*
X151076000Y-97852700D01*
X209312000Y-97600000D02*
X208712000Y-97000000D01*
X151076000Y-97849000D02*
X150995000Y-97768300D01*
X151110000Y-97828300D02*
X151018000Y-97736500D01*
X129894000Y-95959800D02*
X119483000Y-95959800D01*
X150995000Y-97787300D02*
X151014000Y-97805400D01*
X150990000Y-97805400D02*
X151040000Y-97855800D01*
X208712000Y-97000000D02*
X204969000Y-97000000D01*
X149416000Y-97350000D02*
X149350000Y-97350000D01*
X149350000Y-97350000D02*
X147960000Y-95959800D01*
X174980000Y-97144500D02*
X173836000Y-96000000D01*
X176816000Y-96000000D02*
X175921000Y-96894500D01*
X152919000Y-98765600D02*
X153084000Y-98600000D01*
X191183000Y-96749000D02*
X190434000Y-96000000D01*
X163752000Y-97816100D02*
X162853000Y-98715600D01*
X151021000Y-97823100D02*
X151007000Y-97823100D01*
X151021000Y-97823100D02*
X151061000Y-97783400D01*
X135499000Y-96433700D02*
X135249000Y-96183700D01*
X151001000Y-97783400D02*
X151061000Y-97783400D01*
X151097000Y-97691900D02*
X151097000Y-97679200D01*
X175921000Y-96894500D02*
X175769000Y-96894500D01*
X150928000Y-97594900D02*
X150914000Y-97609200D01*
X190434000Y-96000000D02*
X176816000Y-96000000D01*
X151110000Y-97828300D02*
X151046000Y-97828300D01*
X151040000Y-97856400D02*
X151040000Y-97855800D01*
X150990000Y-97805400D02*
X151014000Y-97805400D01*
X204448000Y-96479300D02*
X201687000Y-96479300D01*
X151094000Y-97870300D02*
X151094000Y-97891600D01*
X151094000Y-97870300D02*
X151076000Y-97852700D01*
%TO.N,BMS_ALERT*%
X138610000Y-103979000D02*
X149034000Y-103979000D01*
X127140000Y-103979000D02*
X127419000Y-103700000D01*
X106306000Y-105500000D02*
X106606000Y-105200000D01*
X109100000Y-105337000D02*
X109970000Y-105337000D01*
X110134000Y-105500000D02*
X113907000Y-105500000D01*
X113907000Y-105500000D02*
X115429000Y-103979000D01*
X107144000Y-105200000D02*
X107444000Y-105500000D01*
X108937000Y-105500000D02*
X109100000Y-105337000D01*
X149034000Y-103979000D02*
X150812000Y-102200000D01*
X138331000Y-103700000D02*
X138610000Y-103979000D01*
X103500000Y-105500000D02*
X106306000Y-105500000D01*
X150812000Y-102200000D02*
X151666000Y-102200000D01*
X109970000Y-105337000D02*
X110134000Y-105500000D01*
X127419000Y-103700000D02*
X138331000Y-103700000D01*
X107444000Y-105500000D02*
X108937000Y-105500000D01*
X106606000Y-105200000D02*
X107144000Y-105200000D01*
X115429000Y-103979000D02*
X127140000Y-103979000D01*
%TO.N,NORTH_btn_A*%
X178903367Y-70396248D02*
X179441845Y-70396248D01*
X160669000Y-71450000D02*
X163081000Y-71450000D01*
X150694000Y-71990700D02*
X160128000Y-71990700D01*
X150184000Y-72500000D02*
X150694000Y-71990700D01*
X177799615Y-71500000D02*
X178903367Y-70396248D01*
X179441845Y-70396248D02*
X180545597Y-71500000D01*
X160128000Y-71990700D02*
X160669000Y-71450000D01*
X192250000Y-71750000D02*
X192500000Y-72000000D01*
X180545597Y-71500000D02*
X191500000Y-71500000D01*
X123147000Y-74323300D02*
X124970000Y-72500000D01*
X124970000Y-72500000D02*
X150184000Y-72500000D01*
X191750000Y-71750000D02*
X192250000Y-71750000D01*
X163131000Y-71500000D02*
X177799615Y-71500000D01*
X191500000Y-71500000D02*
X191750000Y-71750000D01*
X163081000Y-71450000D02*
X163131000Y-71500000D01*
%TO.N,Net-(D6-DOUT)*%
X194600000Y-74350000D02*
X194150000Y-73900000D01*
X199666000Y-74350000D02*
X194600000Y-74350000D01*
X215713000Y-81250000D02*
X213213000Y-78750000D01*
X215750000Y-81250000D02*
X215713000Y-81250000D01*
X218000000Y-83500000D02*
X215750000Y-81250000D01*
X205000000Y-78750000D02*
X201500000Y-75250000D01*
X213213000Y-78750000D02*
X205000000Y-78750000D01*
X200566000Y-75250000D02*
X199666000Y-74350000D01*
X201500000Y-75250000D02*
X200566000Y-75250000D01*
X194150000Y-73900000D02*
X194150000Y-73709300D01*
X221750000Y-83500000D02*
X218000000Y-83500000D01*
%TO.N,Net-(D5-DOUT)*%
X183916000Y-76400000D02*
X173564213Y-76400000D01*
X172164213Y-75000000D02*
X171335786Y-75000000D01*
X165850000Y-77126400D02*
X164780000Y-76057300D01*
X199000000Y-77100000D02*
X198850000Y-77100000D01*
X198850000Y-77100000D02*
X198150000Y-76400000D01*
X170345788Y-75556272D02*
X169652060Y-76250000D01*
X186559189Y-76150000D02*
X184166000Y-76150000D01*
X198150000Y-76400000D02*
X196834000Y-76400000D01*
X173564213Y-76400000D02*
X172164213Y-75000000D01*
X196684000Y-76250000D02*
X186659190Y-76250000D01*
X186659190Y-76250000D02*
X186559189Y-76150000D01*
X196834000Y-76400000D02*
X196684000Y-76250000D01*
X154368000Y-76250000D02*
X153319000Y-76250000D01*
X171335786Y-75000000D02*
X170779514Y-75556272D01*
X159830000Y-76550000D02*
X154668000Y-76550000D01*
X170779514Y-75556272D02*
X170345788Y-75556272D01*
X160323000Y-76057300D02*
X159830000Y-76550000D01*
X169652060Y-76250000D02*
X169066000Y-76250000D01*
X168189000Y-77126400D02*
X165850000Y-77126400D01*
X154668000Y-76550000D02*
X154368000Y-76250000D01*
X169066000Y-76250000D02*
X168189000Y-77126400D01*
X164780000Y-76057300D02*
X160323000Y-76057300D01*
X184166000Y-76150000D02*
X183916000Y-76400000D01*
X153319000Y-76250000D02*
X153169000Y-76400000D01*
%TO.N,RST*%
X119600000Y-92600000D02*
X129900000Y-92600000D01*
X170093000Y-92150000D02*
X174915074Y-92150000D01*
X174915074Y-92150000D02*
X175065076Y-92300002D01*
X176084927Y-92150000D02*
X188650000Y-92150000D01*
X117956000Y-91926700D02*
X118927000Y-91926700D01*
X175065076Y-92300002D02*
X175934925Y-92300002D01*
X130350000Y-92150000D02*
X168486315Y-92150000D01*
X103096000Y-90000000D02*
X104546000Y-91450000D01*
X168686315Y-92350000D02*
X169893000Y-92350000D01*
X168486315Y-92150000D02*
X168686315Y-92350000D01*
X188650000Y-92150000D02*
X190000000Y-93500000D01*
X190000000Y-93500000D02*
X192000000Y-93500000D01*
X175934925Y-92300002D02*
X176084927Y-92150000D01*
X169893000Y-92350000D02*
X170093000Y-92150000D01*
X118927000Y-91926700D02*
X119600000Y-92600000D01*
X117479000Y-91450000D02*
X117956000Y-91926700D01*
X129900000Y-92600000D02*
X130350000Y-92150000D01*
X104546000Y-91450000D02*
X117479000Y-91450000D01*
X96000000Y-91500000D02*
X97500000Y-91500000D01*
X99000000Y-90000000D02*
X103096000Y-90000000D01*
X97500000Y-91500000D02*
X99000000Y-90000000D01*
%TO.N,IR_receiver*%
X166015000Y-76726400D02*
X168023700Y-76726400D01*
X169165431Y-75584669D02*
X169765331Y-75584669D01*
X169765331Y-75584669D02*
X170750000Y-74600000D01*
X105500000Y-82500000D02*
X107816000Y-82500000D01*
X164946000Y-75657300D02*
X166015000Y-76726400D01*
X168023700Y-76726400D02*
X169165431Y-75584669D01*
X114658700Y-75657300D02*
X164946000Y-75657300D01*
X107816000Y-82500000D02*
X114658700Y-75657300D01*
%TO.N,Net-(Q9-D)*%
X167100000Y-79600000D02*
X167705000Y-79600000D01*
X162866000Y-79087000D02*
X166587000Y-79087000D01*
X167705000Y-79600000D02*
X167763000Y-79658000D01*
X161566000Y-77787000D02*
X162866000Y-79087000D01*
X167763000Y-79658000D02*
X168250000Y-79658000D01*
X166587000Y-79087000D02*
X167100000Y-79600000D01*
%TO.N,NORTH_IR_REC_VERT*%
X159598000Y-82100000D02*
X159948000Y-81750000D01*
X164125000Y-82900000D02*
X165672303Y-82900000D01*
X168440813Y-83350000D02*
X170067000Y-83350000D01*
X162975000Y-81750000D02*
X164125000Y-82900000D01*
X170754000Y-81912900D02*
X171167000Y-81500000D01*
X159948000Y-81750000D02*
X162975000Y-81750000D01*
X170067000Y-83350000D02*
X170267000Y-83150000D01*
X166348281Y-82762500D02*
X166735781Y-83150000D01*
X172600000Y-81500000D02*
X172750000Y-81650000D01*
X170754000Y-82662900D02*
X170754000Y-81912900D01*
X168240812Y-83150000D02*
X168440813Y-83350000D01*
X159097000Y-82100000D02*
X159598000Y-82100000D01*
X165672303Y-82900000D02*
X165809803Y-82762500D01*
X170267000Y-83150000D02*
X170754000Y-82662900D01*
X171167000Y-81500000D02*
X172600000Y-81500000D01*
X165809803Y-82762500D02*
X166348281Y-82762500D01*
X166735781Y-83150000D02*
X168240812Y-83150000D01*
%TO.N,PWR_ON*%
X131582000Y-93700000D02*
X105881000Y-93700000D01*
X105881000Y-93700000D02*
X105796000Y-93785000D01*
X91859500Y-96640500D02*
X92250000Y-96640500D01*
X88636700Y-102226000D02*
X88500000Y-102089000D01*
X88500000Y-102089000D02*
X88500000Y-100000000D01*
X88500000Y-100000000D02*
X91859500Y-96640500D01*
X88673400Y-102226000D02*
X88636700Y-102226000D01*
%TO.N,NORTH_IR_TRA_HORI*%
X164919000Y-80800000D02*
X166669000Y-80800000D01*
X175100000Y-78150000D02*
X175750000Y-77500000D01*
X168577787Y-81008000D02*
X168873079Y-81008000D01*
X168035786Y-81550000D02*
X168577787Y-81008000D01*
X168873079Y-81008000D02*
X170427000Y-79454300D01*
X160519000Y-80150000D02*
X160919000Y-80550000D01*
X166669000Y-80800000D02*
X167419000Y-81550000D01*
X160919000Y-80550000D02*
X164669000Y-80550000D01*
X167419000Y-81550000D02*
X168035786Y-81550000D01*
X173796000Y-79454300D02*
X175100000Y-78150000D01*
X170427000Y-79454300D02*
X173796000Y-79454300D01*
X159247000Y-80400000D02*
X159497000Y-80150000D01*
X164669000Y-80550000D02*
X164919000Y-80800000D01*
X175750000Y-77500000D02*
X186000002Y-77500000D01*
X159497000Y-80150000D02*
X160519000Y-80150000D01*
%TO.N,WS2812_DIN*%
X109691000Y-107650000D02*
X111641000Y-109600000D01*
X116566000Y-107500000D02*
X119684000Y-107500000D01*
X111641000Y-109600000D02*
X114466000Y-109600000D01*
X114466000Y-109600000D02*
X116566000Y-107500000D01*
X105116000Y-107650000D02*
X109691000Y-107650000D01*
X104919000Y-107847000D02*
X105116000Y-107650000D01*
X120634000Y-106550000D02*
X128011000Y-106550000D01*
X119684000Y-107500000D02*
X120634000Y-106550000D01*
%TO.N,/D+*%
X109752000Y-105737000D02*
X112076000Y-108061000D01*
X101250000Y-106500000D02*
X108502000Y-106500000D01*
X109266000Y-105737000D02*
X109752000Y-105737000D01*
X112076000Y-108061000D02*
X112076000Y-108550000D01*
X108502000Y-106500000D02*
X109266000Y-105737000D01*
%TO.N,Net-(U5-VBUS)*%
X176750000Y-95250000D02*
X176750000Y-94500000D01*
X175249000Y-96494500D02*
X175506000Y-96494500D01*
X175600000Y-93350000D02*
X175147000Y-92896900D01*
X173759000Y-92896900D02*
X173612000Y-92750000D01*
X176750000Y-94500000D02*
X176150000Y-93900000D01*
X175506000Y-96494500D02*
X176750000Y-95250000D01*
X175147000Y-92896900D02*
X173759000Y-92896900D01*
X175981000Y-93900000D02*
X175600000Y-93519200D01*
X176150000Y-93900000D02*
X175981000Y-93900000D01*
X175600000Y-93519200D02*
X175600000Y-93350000D01*
%TO.N,CHRG_OK*%
X184532000Y-90500000D02*
X176405000Y-90500000D01*
X175884000Y-89979500D02*
X173281000Y-89979500D01*
X173281000Y-89979500D02*
X172520000Y-90740000D01*
X184811000Y-90221200D02*
X184532000Y-90500000D01*
X176405000Y-90500000D02*
X175884000Y-89979500D01*
%TO.N,OTG*%
X170885000Y-89000000D02*
X169419000Y-90465800D01*
X169419000Y-90465800D02*
X169215000Y-90465800D01*
X184750000Y-89150000D02*
X184600000Y-89000000D01*
X184600000Y-89000000D02*
X170885000Y-89000000D01*
%TO.N,Net-(Q6-G)*%
X179850000Y-102250000D02*
X180000000Y-102400000D01*
X179013000Y-102250000D02*
X179850000Y-102250000D01*
X178663000Y-102600000D02*
X179013000Y-102250000D01*
X177115000Y-102600000D02*
X178663000Y-102600000D01*
X174530000Y-103030000D02*
X176686000Y-103030000D01*
X176686000Y-103030000D02*
X177115000Y-102600000D01*
X173750000Y-102250000D02*
X174530000Y-103030000D01*
%TO.N,Net-(Q5-G)*%
X181302000Y-100300000D02*
X181495000Y-100300000D01*
X180702000Y-100900000D02*
X181302000Y-100300000D01*
X179081000Y-101050000D02*
X179231000Y-100900000D01*
X179231000Y-100900000D02*
X180702000Y-100900000D01*
X176615000Y-101050000D02*
X179081000Y-101050000D01*
X176085000Y-101580000D02*
X176615000Y-101050000D01*
%TO.N,Net-(U5-REGN)*%
X164876000Y-98900000D02*
X164842000Y-98866100D01*
X175084000Y-98900000D02*
X164876000Y-98900000D01*
X176858000Y-99200000D02*
X176608000Y-99450000D01*
X176608000Y-99450000D02*
X175634000Y-99450000D01*
X175634000Y-99450000D02*
X175084000Y-98900000D01*
%TO.N,Net-(Q4-G)*%
X177217000Y-97954900D02*
X176327000Y-97954900D01*
X179100000Y-96650000D02*
X179250000Y-96650000D01*
X177506000Y-98244000D02*
X179100000Y-96650000D01*
X177506000Y-98244000D02*
X177217000Y-97954900D01*
%TO.N,/D-*%
X106250000Y-104250000D02*
X98995300Y-104250000D01*
X106500000Y-104500000D02*
X106250000Y-104250000D01*
X110000000Y-104500000D02*
X109000000Y-104500000D01*
X107100000Y-103900000D02*
X106500000Y-104500000D01*
X108400000Y-103900000D02*
X107100000Y-103900000D01*
X98995300Y-104250000D02*
X98900000Y-104155000D01*
X109000000Y-104500000D02*
X108400000Y-103900000D01*
%TO.N,Net-(D7-DOUT)*%
X202427000Y-92500000D02*
X202317000Y-92609200D01*
X217500000Y-92500000D02*
X202427000Y-92500000D01*
%TO.N,EAST_btn_B*%
X209000000Y-108500000D02*
X209240000Y-108740000D01*
X209240000Y-108740000D02*
X209240000Y-109860000D01*
X199000000Y-108500000D02*
X209000000Y-108500000D01*
%TO.N,SOUTH_btn_A*%
X186350200Y-80850000D02*
X184257000Y-78756800D01*
X201250000Y-81000000D02*
X201100000Y-80850000D01*
X182218278Y-78756800D02*
X181989505Y-78528027D01*
X184257000Y-78756800D02*
X182218278Y-78756800D01*
X201100000Y-80850000D02*
X186350200Y-80850000D01*
%TO.N,SOUTH_btn_B*%
X180250000Y-73250000D02*
X179980000Y-72980000D01*
X179980000Y-72980000D02*
X178960000Y-72980000D01*
X192800000Y-73218900D02*
X192769000Y-73250000D01*
X192769000Y-73250000D02*
X180250000Y-73250000D01*
%TO.N,WEST_btn_A*%
X177231000Y-72100000D02*
X177081000Y-72250000D01*
X176669239Y-72250000D02*
X176519239Y-72100000D01*
X165416975Y-72250000D02*
X165189975Y-72023000D01*
X130600000Y-72900000D02*
X129150000Y-74350000D01*
X177919000Y-72250000D02*
X177769000Y-72100000D01*
X177769000Y-72100000D02*
X177231000Y-72100000D01*
X129150000Y-74350000D02*
X127318000Y-74350000D01*
X150350000Y-72900000D02*
X130600000Y-72900000D01*
X175980761Y-72100000D02*
X175830761Y-72250000D01*
X177081000Y-72250000D02*
X176669239Y-72250000D01*
X165189975Y-72023000D02*
X160661000Y-72023000D01*
X160294000Y-72390700D02*
X150859000Y-72390700D01*
X150859000Y-72390700D02*
X150350000Y-72900000D01*
X175830761Y-72250000D02*
X165416975Y-72250000D01*
X176519239Y-72100000D02*
X175980761Y-72100000D01*
X191000000Y-72250000D02*
X177919000Y-72250000D01*
X127318000Y-74350000D02*
X127158000Y-74190000D01*
X160661000Y-72023000D02*
X160294000Y-72390700D01*
%TO.N,WEST_btn_B*%
X168766000Y-77550000D02*
X169266000Y-77050000D01*
X130645000Y-76400000D02*
X131150000Y-76400000D01*
X131750000Y-77000000D02*
X159949000Y-77000000D01*
X169347035Y-77050000D02*
X169597035Y-76800000D01*
X164615000Y-76457300D02*
X165707000Y-77550000D01*
X185585789Y-76500000D02*
X186414215Y-76500000D01*
X159949000Y-77000000D02*
X160492000Y-76457300D01*
X131150000Y-76400000D02*
X131750000Y-77000000D01*
X185285789Y-76800000D02*
X185585789Y-76500000D01*
X160492000Y-76457300D02*
X164615000Y-76457300D01*
X165707000Y-77550000D02*
X168766000Y-77550000D01*
X186414215Y-76500000D02*
X186914215Y-77000000D01*
X186914215Y-77000000D02*
X190000000Y-77000000D01*
X169597035Y-76800000D02*
X185285789Y-76800000D01*
X169266000Y-77050000D02*
X169347035Y-77050000D01*
%TO.N,GPIO_INTB*%
X168852000Y-91950000D02*
X168652000Y-91750000D01*
X175919241Y-91750000D02*
X175769239Y-91900002D01*
X190500000Y-91750000D02*
X175919241Y-91750000D01*
X175080759Y-91750000D02*
X169902000Y-91750000D01*
X125434000Y-91750000D02*
X123584000Y-89900000D01*
X168652000Y-91750000D02*
X125434000Y-91750000D01*
X169702000Y-91950000D02*
X168852000Y-91950000D01*
X169902000Y-91750000D02*
X169702000Y-91950000D01*
X175769239Y-91900002D02*
X175230761Y-91900002D01*
X123584000Y-89900000D02*
X104481000Y-89900000D01*
X191500000Y-89000000D02*
X191500000Y-90750000D01*
X191500000Y-90750000D02*
X190500000Y-91750000D01*
X175230761Y-91900002D02*
X175080759Y-91750000D01*
X104481000Y-89900000D02*
X104158000Y-89576900D01*
%TO.N,GPIO_INTA*%
X163869000Y-88600000D02*
X162981000Y-88600000D01*
X124247000Y-88300000D02*
X110944000Y-88300000D01*
X159666000Y-88650000D02*
X157834000Y-88650000D01*
X106006000Y-87800000D02*
X105955000Y-87851600D01*
X157834000Y-88650000D02*
X157684000Y-88500000D01*
X162881000Y-88500000D02*
X159816000Y-88500000D01*
X159816000Y-88500000D02*
X159666000Y-88650000D01*
X157684000Y-88500000D02*
X124447000Y-88500000D01*
X190500000Y-89250000D02*
X186250000Y-89250000D01*
X162981000Y-88600000D02*
X162881000Y-88500000D01*
X186250000Y-89250000D02*
X185500000Y-88500000D01*
X110944000Y-88300000D02*
X110444000Y-87800000D01*
X110444000Y-87800000D02*
X106006000Y-87800000D01*
X124447000Y-88500000D02*
X124247000Y-88300000D01*
X185500000Y-88500000D02*
X163969000Y-88500000D01*
X163969000Y-88500000D02*
X163869000Y-88600000D01*
%TO.N,Net-(J3-Pin_1)*%
X202681000Y-95921300D02*
X202143000Y-95921300D01*
X196036000Y-96349000D02*
X191349000Y-96349000D01*
X196135000Y-96448000D02*
X196036000Y-96349000D01*
X202143000Y-95921300D02*
X202072000Y-95850000D01*
X222400000Y-95850000D02*
X202753000Y-95850000D01*
X191349000Y-96349000D02*
X190000000Y-95000000D01*
X223250000Y-95000000D02*
X222400000Y-95850000D01*
X201068000Y-95850000D02*
X200470000Y-96448000D01*
X200470000Y-96448000D02*
X196135000Y-96448000D01*
X202072000Y-95850000D02*
X201068000Y-95850000D01*
X202753000Y-95850000D02*
X202681000Y-95921300D01*
%TO.N,Net-(J3-Pin_2)*%
X224250000Y-90500000D02*
X222850000Y-91900000D01*
X222850000Y-91900000D02*
X191600000Y-91900000D01*
X191600000Y-91900000D02*
X190900000Y-92600000D01*
X190900000Y-92600000D02*
X190791000Y-92600000D01*
%TO.N,Net-(J3-Pin_3)*%
X223000000Y-94000000D02*
X225500000Y-91500000D01*
X203012000Y-93684200D02*
X203328000Y-94000000D01*
X203328000Y-94000000D02*
X223000000Y-94000000D01*
X196284200Y-94150000D02*
X196750000Y-93684200D01*
X196750000Y-93684200D02*
X203012000Y-93684200D01*
X190687000Y-94150000D02*
X196284200Y-94150000D01*
%TO.N,IR_S0*%
X174250000Y-83250000D02*
X173650000Y-82650000D01*
X185500000Y-83250000D02*
X174250000Y-83250000D01*
X173265000Y-82650000D02*
X172985000Y-82369800D01*
X173650000Y-82650000D02*
X173265000Y-82650000D01*
%TO.N,IR_S1*%
X184600000Y-84500000D02*
X185250000Y-85150000D01*
X172148000Y-82518100D02*
X172268000Y-82518100D01*
X174250000Y-84500000D02*
X184600000Y-84500000D01*
X172268000Y-82518100D02*
X174250000Y-84500000D01*
%TO.N,IR_S2*%
X174136675Y-85750000D02*
X184808828Y-85750000D01*
X184808828Y-85750000D02*
X185029817Y-85970989D01*
X172240546Y-87646129D02*
X174136675Y-85750000D01*
%TO.N,SOUTH_IR_TRA_VERT*%
X180750000Y-75100000D02*
X180600000Y-75100000D01*
X168750000Y-74250000D02*
X169500000Y-75000000D01*
X178430761Y-73370000D02*
X171638000Y-73370000D01*
X179130000Y-73630000D02*
X178690761Y-73630000D01*
X178690761Y-73630000D02*
X178430761Y-73370000D01*
X171638000Y-73370000D02*
X171568000Y-73300000D01*
X171568000Y-73300000D02*
X169570000Y-73300000D01*
X169570000Y-73300000D02*
X168750000Y-74120000D01*
X180600000Y-75100000D02*
X179130000Y-73630000D01*
X168750000Y-74120000D02*
X168750000Y-74250000D01*
%TO.N,WEST_IR_TRA_VERT*%
X160353000Y-80550000D02*
X160753000Y-80950000D01*
X164503000Y-80950000D02*
X164753000Y-81200000D01*
X168722761Y-81358000D02*
X169089000Y-81358000D01*
X160753000Y-80950000D02*
X164503000Y-80950000D01*
X160016000Y-80550000D02*
X160353000Y-80550000D01*
X166503000Y-81200000D02*
X167253000Y-81950000D01*
X140750000Y-80250000D02*
X151033000Y-80250000D01*
X152084000Y-80150000D02*
X152984000Y-81050000D01*
X159516000Y-81050000D02*
X160016000Y-80550000D01*
X170547000Y-79900000D02*
X173916000Y-79900000D01*
X173916000Y-79900000D02*
X174519000Y-79297000D01*
X169089000Y-81358000D02*
X170547000Y-79900000D01*
X168130761Y-81950000D02*
X168722761Y-81358000D01*
X167253000Y-81950000D02*
X168130761Y-81950000D01*
X164753000Y-81200000D02*
X166503000Y-81200000D01*
X174519000Y-79297000D02*
X180920000Y-79297000D01*
X151033000Y-80250000D02*
X151133000Y-80150000D01*
X152984000Y-81050000D02*
X159516000Y-81050000D01*
X151133000Y-80150000D02*
X152084000Y-80150000D01*
%TO.N,IR_MODULATION*%
X155373000Y-101479000D02*
X155444000Y-101550000D01*
X177300000Y-101850000D02*
X179413000Y-101850000D01*
X107350000Y-102650000D02*
X149512000Y-102650000D01*
X179413000Y-101850000D02*
X179513000Y-101750000D01*
X179513000Y-101750000D02*
X185400000Y-101750000D01*
X106500000Y-103500000D02*
X107350000Y-102650000D01*
X149512000Y-102650000D02*
X150684000Y-101479000D01*
X155444000Y-101550000D02*
X174570000Y-101550000D01*
X185400000Y-101750000D02*
X185650000Y-101500000D01*
X174570000Y-101550000D02*
X175650000Y-102630000D01*
X175650000Y-102630000D02*
X176520000Y-102630000D01*
X176520000Y-102630000D02*
X177300000Y-101850000D01*
X150684000Y-101479000D02*
X155373000Y-101479000D01*
%TO.N,WEST_IR_TRA_HORI*%
X151971000Y-81436300D02*
X151432000Y-81436300D01*
X174132000Y-80250000D02*
X174082000Y-80300000D01*
X168730761Y-82650000D02*
X168430761Y-82350000D01*
X168430761Y-82350000D02*
X167087000Y-82350000D01*
X164337000Y-81350000D02*
X160587000Y-81350000D01*
X160182000Y-80950000D02*
X159682000Y-81450000D01*
X169650000Y-81363000D02*
X169650000Y-82269239D01*
X169650000Y-82269239D02*
X169269239Y-82650000D01*
X151985000Y-81450000D02*
X151971000Y-81436300D01*
X151432000Y-81436300D02*
X150746000Y-80750000D01*
X176500000Y-80250000D02*
X174132000Y-80250000D01*
X176717000Y-80032600D02*
X176500000Y-80250000D01*
X138875000Y-81000000D02*
X138547000Y-80671800D01*
X150746000Y-80750000D02*
X142750000Y-80750000D01*
X167087000Y-82350000D02*
X166337000Y-81600000D01*
X160587000Y-81350000D02*
X160187000Y-80950000D01*
X142750000Y-80750000D02*
X142500000Y-81000000D01*
X160187000Y-80950000D02*
X160182000Y-80950000D01*
X159682000Y-81450000D02*
X151985000Y-81450000D01*
X142500000Y-81000000D02*
X138875000Y-81000000D01*
X170713000Y-80300000D02*
X169650000Y-81363000D01*
X169269239Y-82650000D02*
X168730761Y-82650000D01*
X174082000Y-80300000D02*
X170713000Y-80300000D01*
X164587000Y-81600000D02*
X164337000Y-81350000D01*
X177006000Y-80032600D02*
X176717000Y-80032600D01*
X166337000Y-81600000D02*
X164587000Y-81600000D01*
%TO.N,SOUTH_IR_TRA_HORI*%
X178750000Y-75100000D02*
X176731000Y-75100000D01*
X172309188Y-74650000D02*
X171999000Y-74650000D01*
X172909189Y-75250000D02*
X172309188Y-74650000D01*
X176581000Y-75250000D02*
X172909189Y-75250000D01*
X171999000Y-74650000D02*
X171299000Y-73950000D01*
X176731000Y-75100000D02*
X176581000Y-75250000D01*
%TO.N,EAST_IR_TRA_HORI*%
X198519000Y-82150000D02*
X197981000Y-82150000D01*
X186071210Y-82000000D02*
X185600421Y-82470789D01*
X205300000Y-82176000D02*
X205145000Y-82176000D01*
X204968000Y-82000000D02*
X198669000Y-82000000D01*
X198669000Y-82000000D02*
X198519000Y-82150000D01*
X197831000Y-82000000D02*
X186071210Y-82000000D01*
X205145000Y-82176000D02*
X204968000Y-82000000D01*
X197981000Y-82150000D02*
X197831000Y-82000000D01*
%TO.N,NORTH_IR_TRA_VERT*%
X170000000Y-82414213D02*
X170000000Y-81578000D01*
X166376000Y-82204800D02*
X166922000Y-82750000D01*
X164349000Y-82204800D02*
X166376000Y-82204800D01*
X170000000Y-81578000D02*
X170828000Y-80750000D01*
X170828000Y-80750000D02*
X184165893Y-80750000D01*
X184165893Y-80750000D02*
X184824312Y-81408419D01*
X166922000Y-82750000D02*
X168335787Y-82750000D01*
X169414213Y-83000000D02*
X170000000Y-82414213D01*
X168335787Y-82750000D02*
X168585787Y-83000000D01*
X168585787Y-83000000D02*
X169414213Y-83000000D01*
%TO.N,EAST_IR_TRA_VERT*%
X198750000Y-75500000D02*
X187400000Y-75500000D01*
X203750000Y-80500000D02*
X198750000Y-75500000D01*
X187400000Y-75500000D02*
X187250000Y-75650000D01*
%TO.N,NORTH_IR_REC_HORI*%
X159934000Y-79000000D02*
X161084000Y-80150000D01*
X164834000Y-80150000D02*
X165084000Y-80400000D01*
X166834000Y-80400000D02*
X167584000Y-81150000D01*
X170572214Y-78750000D02*
X173500000Y-78750000D01*
X161084000Y-80150000D02*
X164834000Y-80150000D01*
X151500000Y-79000000D02*
X159934000Y-79000000D01*
X168432812Y-80658000D02*
X168664214Y-80658000D01*
X168664214Y-80658000D02*
X170572214Y-78750000D01*
X165084000Y-80400000D02*
X166834000Y-80400000D01*
X167940811Y-81150000D02*
X168432812Y-80658000D01*
X167584000Y-81150000D02*
X167940811Y-81150000D01*
%TO.N,EAST_BAT+*%
X154435000Y-73750000D02*
X156575000Y-73750000D01*
X160827000Y-72423000D02*
X165095000Y-72423000D01*
X157701000Y-73606600D02*
X158057000Y-73962300D01*
X154000000Y-74184800D02*
X154435000Y-73750000D01*
X165422000Y-72750000D02*
X176250000Y-72750000D01*
X158057000Y-73962300D02*
X159287700Y-73962300D01*
X159287700Y-73962300D02*
X160827000Y-72423000D01*
X165095000Y-72423000D02*
X165422000Y-72750000D01*
X156718000Y-73606600D02*
X157701000Y-73606600D01*
X156575000Y-73750000D02*
X156718000Y-73606600D01*
%TO.N,Net-(U10-A)*%
X160702000Y-75100000D02*
X159933900Y-74331900D01*
X157096000Y-74331900D02*
X156428000Y-75000000D01*
X167946182Y-76000000D02*
X165855000Y-76000000D01*
X159933900Y-74331900D02*
X157096000Y-74331900D01*
X165855000Y-76000000D02*
X164955000Y-75100000D01*
X167959232Y-76013050D02*
X167946182Y-76000000D01*
X156428000Y-75000000D02*
X109810600Y-75000000D01*
X164955000Y-75100000D02*
X160702000Y-75100000D01*
X109810600Y-75000000D02*
X98905300Y-85905300D01*
%TO.N,WEST_IR_REC_VERT*%
X168900000Y-79487900D02*
X168220002Y-78807902D01*
X161060000Y-79559500D02*
X165060000Y-79559500D01*
X168519239Y-80308000D02*
X168900000Y-79927239D01*
X165060000Y-79559500D02*
X165500000Y-80000000D01*
X167750000Y-80750000D02*
X168192000Y-80308000D01*
X159415000Y-78100000D02*
X159507000Y-78007300D01*
X168220002Y-78807902D02*
X168220002Y-78120000D01*
X147250000Y-79250000D02*
X147850000Y-78650000D01*
X150725000Y-78650000D02*
X151275000Y-78100000D01*
X165500000Y-80000000D02*
X167000000Y-80000000D01*
X167000000Y-80000000D02*
X167750000Y-80750000D01*
X168900000Y-79927239D02*
X168900000Y-79487900D01*
X168192000Y-80308000D02*
X168519239Y-80308000D01*
X151275000Y-78100000D02*
X159415000Y-78100000D01*
X147850000Y-78650000D02*
X150725000Y-78650000D01*
X159507000Y-78007300D02*
X161060000Y-79559500D01*
X137250000Y-79250000D02*
X147250000Y-79250000D01*
%TO.N,WEST_IR_REC_HORI*%
X134750000Y-80250000D02*
X136684000Y-80250000D01*
X142184000Y-85750000D02*
X145184000Y-85750000D01*
X155916000Y-85600000D02*
X157853667Y-87537667D01*
X157853667Y-87537667D02*
X158943609Y-87537667D01*
X145334000Y-85600000D02*
X155916000Y-85600000D01*
X145184000Y-85750000D02*
X145334000Y-85600000D01*
X136684000Y-80250000D02*
X142184000Y-85750000D01*
%TO.N,EAST_IR_REC_HORI*%
X181580761Y-82688864D02*
X180391897Y-81500000D01*
X182119239Y-82688864D02*
X181580761Y-82688864D01*
X198250000Y-81500000D02*
X185651970Y-81500000D01*
X185651970Y-81500000D02*
X185093551Y-82058419D01*
X180391897Y-81500000D02*
X174250000Y-81500000D01*
X185093551Y-82058419D02*
X184555073Y-82058419D01*
X183308103Y-81500000D02*
X182119239Y-82688864D01*
X174250000Y-81500000D02*
X173750000Y-82000000D01*
X184555073Y-82058419D02*
X183996654Y-81500000D01*
X183996654Y-81500000D02*
X183308103Y-81500000D01*
%TO.N,EAST_IR_REC_VERT*%
X186269241Y-76850000D02*
X185730763Y-76850000D01*
X188419241Y-79000000D02*
X186269241Y-76850000D01*
X201250000Y-79000000D02*
X188419241Y-79000000D01*
X173900002Y-77150000D02*
X173525001Y-77525001D01*
X185430763Y-77150000D02*
X173900002Y-77150000D01*
X185730763Y-76850000D02*
X185430763Y-77150000D01*
%TO.N,EXT_GPIO_1*%
X139279000Y-105779000D02*
X119721000Y-105779000D01*
X97972700Y-104223000D02*
X92750000Y-99000000D01*
X100947000Y-107197000D02*
X98446600Y-104697000D01*
X109804000Y-107197000D02*
X100947000Y-107197000D01*
X119721000Y-105779000D02*
X118408000Y-107092000D01*
X114300000Y-109200000D02*
X111806000Y-109200000D01*
X111806000Y-109200000D02*
X109804000Y-107197000D01*
X118408000Y-107092000D02*
X116408000Y-107092000D01*
X141750000Y-108250000D02*
X139279000Y-105779000D01*
X97972700Y-104316000D02*
X97972700Y-104223000D01*
X154000000Y-108250000D02*
X141750000Y-108250000D01*
X98353400Y-104697000D02*
X97972700Y-104316000D01*
X92750000Y-99000000D02*
X92750000Y-97500000D01*
X98446600Y-104697000D02*
X98353400Y-104697000D01*
X116408000Y-107092000D02*
X114300000Y-109200000D01*
%TO.N,I2S_DOUT*%
X99500000Y-101750000D02*
X110641000Y-101750000D01*
X150081000Y-100950000D02*
X150352000Y-100679000D01*
X149343000Y-100750000D02*
X149543000Y-100950000D01*
X127250000Y-100750000D02*
X149343000Y-100750000D01*
X185068000Y-100134000D02*
X185643000Y-100134000D01*
X112360000Y-100570000D02*
X113540000Y-101750000D01*
X184584000Y-99650000D02*
X185068000Y-100134000D01*
X111821000Y-100570000D02*
X112360000Y-100570000D01*
X178916000Y-100650000D02*
X179066000Y-100500000D01*
X203121000Y-104040000D02*
X203660000Y-104040000D01*
X155704000Y-100679000D02*
X155775000Y-100750000D01*
X181271000Y-99650000D02*
X184584000Y-99650000D01*
X175034000Y-100650000D02*
X178916000Y-100650000D01*
X185000000Y-104250000D02*
X202912000Y-104250000D01*
X95150200Y-98646100D02*
X95254100Y-98750000D01*
X150352000Y-100679000D02*
X155704000Y-100679000D01*
X126250000Y-101750000D02*
X127250000Y-100750000D01*
X174934000Y-100750000D02*
X175034000Y-100650000D01*
X207245000Y-104250000D02*
X207937000Y-103558000D01*
X155775000Y-100750000D02*
X174934000Y-100750000D01*
X203869000Y-104250000D02*
X207245000Y-104250000D01*
X203660000Y-104040000D02*
X203869000Y-104250000D01*
X95254100Y-98750000D02*
X96500000Y-98750000D01*
X113540000Y-101750000D02*
X126250000Y-101750000D01*
X110641000Y-101750000D02*
X111821000Y-100570000D01*
X207937000Y-103558000D02*
X207937000Y-103550000D01*
X149543000Y-100950000D02*
X150081000Y-100950000D01*
X179066000Y-100500000D02*
X180421000Y-100500000D01*
X96500000Y-98750000D02*
X99500000Y-101750000D01*
X202912000Y-104250000D02*
X203121000Y-104040000D01*
X180421000Y-100500000D02*
X181271000Y-99650000D01*
%TO.N,I2S_MCLK*%
X176354000Y-102230000D02*
X177134000Y-101450000D01*
X149447000Y-102150000D02*
X150518000Y-101079000D01*
X96230800Y-100900000D02*
X96900000Y-100900000D01*
X186013000Y-100916000D02*
X186741000Y-100916000D01*
X185847000Y-100750000D02*
X186013000Y-100916000D01*
X186741000Y-100916000D02*
X186907000Y-100750000D01*
X199856000Y-100750000D02*
X200356000Y-100250000D01*
X155609000Y-101150000D02*
X174769000Y-101150000D01*
X95850000Y-99850000D02*
X95850000Y-100519000D01*
X99334300Y-102150000D02*
X149447000Y-102150000D01*
X155538000Y-101079000D02*
X155609000Y-101150000D01*
X98634300Y-101450000D02*
X99334300Y-102150000D01*
X150518000Y-101079000D02*
X155538000Y-101079000D01*
X200356000Y-100250000D02*
X213279000Y-100250000D01*
X96900000Y-100900000D02*
X97450000Y-101450000D01*
X175848000Y-102230000D02*
X176354000Y-102230000D01*
X95850000Y-100519000D02*
X96230800Y-100900000D01*
X97450000Y-101450000D02*
X98634300Y-101450000D01*
X179247000Y-101450000D02*
X179397000Y-101300000D01*
X186907000Y-100750000D02*
X199856000Y-100750000D01*
X179397000Y-101300000D02*
X181414000Y-101300000D01*
X177134000Y-101450000D02*
X179247000Y-101450000D01*
X95500000Y-99500000D02*
X95850000Y-99850000D01*
X174769000Y-101150000D02*
X175848000Y-102230000D01*
X181964000Y-100750000D02*
X185847000Y-100750000D01*
X181414000Y-101300000D02*
X181964000Y-100750000D01*
%TO.N,ACC_B_INT1*%
X129250000Y-86000000D02*
X129500000Y-86250000D01*
X157867000Y-88117300D02*
X157937367Y-88187667D01*
X159212848Y-88187667D02*
X164033676Y-83366839D01*
X129500000Y-86250000D02*
X145250000Y-86250000D01*
X114000000Y-86250000D02*
X116250000Y-86250000D01*
X116250000Y-86250000D02*
X116500000Y-86000000D01*
X155750000Y-86000000D02*
X157867000Y-88117300D01*
X145500000Y-86000000D02*
X155750000Y-86000000D01*
X164033676Y-83366839D02*
X166050867Y-83366839D01*
X99506400Y-86506400D02*
X99762700Y-86250000D01*
X116500000Y-86000000D02*
X129250000Y-86000000D01*
X105750000Y-86750000D02*
X113500000Y-86750000D01*
X99762700Y-86250000D02*
X105250000Y-86250000D01*
X145250000Y-86250000D02*
X145500000Y-86000000D01*
X105250000Y-86250000D02*
X105750000Y-86750000D01*
X157937367Y-88187667D02*
X159212848Y-88187667D01*
X113500000Y-86750000D02*
X114000000Y-86250000D01*
%TO.N,ACC_A_INT1*%
X97250000Y-88000000D02*
X97500000Y-88250000D01*
X123750000Y-89500000D02*
X125250000Y-91000000D01*
X125250000Y-91000000D02*
X135750000Y-91000000D01*
X161421000Y-89500000D02*
X161600000Y-89678600D01*
X97500000Y-88250000D02*
X103750000Y-88250000D01*
X135750000Y-91000000D02*
X137250000Y-89500000D01*
X137250000Y-89500000D02*
X161421000Y-89500000D01*
X103750000Y-88250000D02*
X105000000Y-89500000D01*
X105000000Y-89500000D02*
X123750000Y-89500000D01*
%TO.N,EXT_GPIO_2*%
X118001000Y-110376000D02*
X117379000Y-110150000D01*
X113143000Y-110357000D02*
X103107000Y-110357000D01*
X117379000Y-110150000D02*
X113350000Y-110150000D01*
X98900000Y-106150000D02*
X98900000Y-106041000D01*
X120329000Y-107921000D02*
X119447000Y-107921000D01*
X118602000Y-110096000D02*
X118001000Y-110376000D01*
X118829000Y-108539000D02*
X118829000Y-109473000D01*
X118829000Y-109473000D02*
X118602000Y-110096000D01*
X121000000Y-107250000D02*
X120329000Y-107921000D01*
X119447000Y-107921000D02*
X118829000Y-108539000D01*
X103107000Y-110357000D02*
X98900000Y-106150000D01*
X139500000Y-107250000D02*
X121000000Y-107250000D01*
X113350000Y-110150000D02*
X113143000Y-110357000D01*
X142000000Y-109750000D02*
X139500000Y-107250000D01*
%TO.N,I2S_SCLK*%
X129869000Y-96500000D02*
X120022000Y-96500000D01*
X164572000Y-98216100D02*
X163463000Y-99325600D01*
X112500000Y-96500000D02*
X108000000Y-96500000D01*
X145250000Y-98000000D02*
X143750000Y-96500000D01*
X106750000Y-97750000D02*
X106750000Y-98500000D01*
X186499000Y-96750000D02*
X186001000Y-96750000D01*
X176208000Y-98930700D02*
X176104000Y-98930700D01*
X112726000Y-96726100D02*
X112500000Y-96500000D01*
X177377000Y-98800000D02*
X177127000Y-98550000D01*
X165750000Y-98500000D02*
X165466000Y-98216100D01*
X148500000Y-98000000D02*
X145250000Y-98000000D01*
X165466000Y-98216100D02*
X164572000Y-98216100D01*
X135334000Y-96833700D02*
X135084000Y-96583700D01*
X185151000Y-97600000D02*
X179150000Y-97600000D01*
X162624000Y-99325600D02*
X162498000Y-99200000D01*
X120022000Y-96500000D02*
X119796000Y-96726100D01*
X119796000Y-96726100D02*
X112726000Y-96726100D01*
X186999000Y-97250000D02*
X186499000Y-96750000D01*
X129952000Y-96583700D02*
X129869000Y-96500000D01*
X108000000Y-96500000D02*
X106750000Y-97750000D01*
X177950000Y-98800000D02*
X177377000Y-98800000D01*
X151800000Y-99200000D02*
X151750000Y-99250000D01*
X162498000Y-99200000D02*
X151800000Y-99200000D01*
X177127000Y-98550000D02*
X176589000Y-98550000D01*
X175674000Y-98500000D02*
X165750000Y-98500000D01*
X143750000Y-96500000D02*
X136537000Y-96500000D01*
X203000000Y-97250000D02*
X186999000Y-97250000D01*
X136203000Y-96833700D02*
X135334000Y-96833700D01*
X163463000Y-99325600D02*
X162624000Y-99325600D01*
X186001000Y-96750000D02*
X185151000Y-97600000D01*
X179150000Y-97600000D02*
X177950000Y-98800000D01*
X149750000Y-99250000D02*
X148500000Y-98000000D01*
X176104000Y-98930700D02*
X175674000Y-98500000D01*
X135084000Y-96583700D02*
X129952000Y-96583700D01*
X136537000Y-96500000D02*
X136203000Y-96833700D01*
X151750000Y-99250000D02*
X149750000Y-99250000D01*
X176589000Y-98550000D02*
X176208000Y-98930700D01*
%TO.N,I2S_LCLK*%
X138466000Y-104400000D02*
X138166000Y-104100000D01*
X208656000Y-104670000D02*
X208272000Y-104670000D01*
X208272000Y-104670000D02*
X207442000Y-105500000D01*
X127284000Y-104400000D02*
X118916000Y-104400000D01*
X114347000Y-108587000D02*
X113497000Y-108587000D01*
X127584000Y-104100000D02*
X127284000Y-104400000D01*
X207442000Y-105500000D02*
X144099000Y-105500000D01*
X118916000Y-104400000D02*
X116624000Y-106692000D01*
X116243000Y-106692000D02*
X114347000Y-108587000D01*
X138166000Y-104100000D02*
X127584000Y-104100000D01*
X142999000Y-104400000D02*
X138466000Y-104400000D01*
X116624000Y-106692000D02*
X116243000Y-106692000D01*
X144099000Y-105500000D02*
X142999000Y-104400000D01*
%TO.N,I2S_DSIN*%
X186039000Y-97950000D02*
X186539000Y-98450000D01*
X120318000Y-97248000D02*
X120566000Y-97000000D01*
X181816000Y-98500000D02*
X184950000Y-98500000D01*
X150282000Y-99847800D02*
X165241000Y-99847800D01*
X201950000Y-97684900D02*
X202565000Y-98300000D01*
X135168000Y-97233700D02*
X136369000Y-97233700D01*
X186539000Y-98450000D02*
X194101000Y-98450000D01*
X202565000Y-98300000D02*
X203435000Y-98300000D01*
X206950000Y-98450000D02*
X207000000Y-98400000D01*
X149584000Y-99650000D02*
X150084000Y-99650000D01*
X110100000Y-97250000D02*
X110000000Y-97150000D01*
X178584000Y-99850000D02*
X180084000Y-98350000D01*
X180084000Y-98350000D02*
X181666000Y-98350000D01*
X143684000Y-97000000D02*
X145084000Y-98400000D01*
X184950000Y-98500000D02*
X185500000Y-97950000D01*
X204517000Y-97218000D02*
X204578000Y-97218000D01*
X113675000Y-97250000D02*
X110100000Y-97250000D01*
X194101000Y-98450000D02*
X194901000Y-97650000D01*
X185500000Y-97950000D02*
X186039000Y-97950000D01*
X165241000Y-99847800D02*
X165696000Y-99392600D01*
X194901000Y-97650000D02*
X195637000Y-97650000D01*
X113675000Y-97250000D02*
X113677000Y-97248000D01*
X165696000Y-99392600D02*
X175011000Y-99392600D01*
X195672000Y-97684900D02*
X201950000Y-97684900D01*
X150084000Y-99650000D02*
X150282000Y-99847800D01*
X136369000Y-97233700D02*
X136603000Y-97000000D01*
X120566000Y-97000000D02*
X134934000Y-97000000D01*
X205810000Y-98450000D02*
X206950000Y-98450000D01*
X148334000Y-98400000D02*
X149584000Y-99650000D01*
X175469000Y-99850000D02*
X178584000Y-99850000D01*
X113677000Y-97248000D02*
X120318000Y-97248000D01*
X134934000Y-97000000D02*
X135168000Y-97233700D01*
X203435000Y-98300000D02*
X204517000Y-97218000D01*
X175011000Y-99392600D02*
X175469000Y-99850000D01*
X195637000Y-97650000D02*
X195672000Y-97684900D01*
X204578000Y-97218000D02*
X205810000Y-98450000D01*
X181666000Y-98350000D02*
X181816000Y-98500000D01*
X136603000Y-97000000D02*
X143684000Y-97000000D01*
X145084000Y-98400000D02*
X148334000Y-98400000D01*
%TO.N,Net-(J2-Pin_4)*%
X118250000Y-93000000D02*
X138500000Y-93000000D01*
X117500000Y-92250000D02*
X118250000Y-93000000D01*
X109750000Y-92250000D02*
X117500000Y-92250000D01*
%TO.N,Net-(J2-Pin_5)*%
X118000000Y-87000000D02*
X130500000Y-87000000D01*
X117450000Y-87550000D02*
X118000000Y-87000000D01*
X115835000Y-87550000D02*
X117450000Y-87550000D01*
X130500000Y-87000000D02*
X131000000Y-87500000D01*
%TO.N,Net-(J2-Pin_6)*%
X124081000Y-88700000D02*
X110425000Y-88700000D01*
X133750000Y-89000000D02*
X124381000Y-89000000D01*
X134500000Y-89750000D02*
X133750000Y-89000000D01*
X110425000Y-88700000D02*
X110175000Y-88450000D01*
X124381000Y-89000000D02*
X124081000Y-88700000D01*
%TO.N,Net-(J2-Pin_7)*%
X124566000Y-89750000D02*
X123916000Y-89100000D01*
X132750000Y-89750000D02*
X124566000Y-89750000D01*
X109600000Y-89100000D02*
X109250000Y-88750000D01*
X123916000Y-89100000D02*
X109600000Y-89100000D01*
%TO.N,Net-(J2-Pin_8)*%
X130000000Y-85500000D02*
X111825000Y-85500000D01*
X111825000Y-85500000D02*
X111769000Y-85556400D01*
%TO.N,Net-(J2-Pin_3)*%
X138750000Y-84750000D02*
X139500000Y-85500000D01*
X111500000Y-84750000D02*
X138750000Y-84750000D01*
%TO.N,Net-(J2-Pin_2)*%
X142000000Y-85000000D02*
X136500000Y-79500000D01*
X113980000Y-79500000D02*
X113675000Y-79805300D01*
X144000000Y-85000000D02*
X142000000Y-85000000D01*
X136500000Y-79500000D02*
X113980000Y-79500000D01*
X113675000Y-79805300D02*
X113195000Y-79805300D01*
X106900000Y-86100000D02*
X106791000Y-86100000D01*
X113195000Y-79805300D02*
X106900000Y-86100000D01*
%TO.N,/MIC_N*%
X213104000Y-113000000D02*
X216226000Y-109878000D01*
X216226000Y-109878000D02*
X216384000Y-109878000D01*
X204000000Y-113000000D02*
X213104000Y-113000000D01*
%TO.N,Net-(J11-Pin_8)*%
X135500000Y-70000000D02*
X133250000Y-70000000D01*
X137250000Y-71750000D02*
X135500000Y-70000000D01*
X150519000Y-71600000D02*
X142834000Y-71600000D01*
X172750000Y-70750000D02*
X160803000Y-70750000D01*
X150528000Y-71590700D02*
X150519000Y-71600000D01*
X159962000Y-71590700D02*
X150528000Y-71590700D01*
X142834000Y-71600000D02*
X142684000Y-71750000D01*
X160803000Y-70750000D02*
X159962000Y-71590700D01*
X142684000Y-71750000D02*
X137250000Y-71750000D01*
%TO.N,Net-(J12-Pin_8)*%
X184000000Y-75750000D02*
X177000000Y-75750000D01*
X184750000Y-75000000D02*
X184000000Y-75750000D01*
X199750000Y-75000000D02*
X184750000Y-75000000D01*
X203500000Y-78750000D02*
X199750000Y-75000000D01*
%TD*%
M02*
