%TF.GenerationSoftware,KiCad,Pcbnew,10.0.0*%
%TF.CreationDate,2026-04-10T15:47:46+02:00*%
%TF.ProjectId,Sthymuli-motherboard,53746879-6d75-46c6-992d-6d6f74686572,rev?*%
%TF.SameCoordinates,Original*%
%TF.FileFunction,Soldermask,Bot*%
%TF.FilePolarity,Negative*%
%FSLAX46Y46*%
G04 Gerber Fmt 4.6, Leading zero omitted, Abs format (unit mm)*
G04 Created by KiCad (PCBNEW 10.0.0) date 2026-04-10 15:47:46*
%MOMM*%
%LPD*%
G01*
G04 APERTURE LIST*
G04 Aperture macros list*
%AMRoundRect*
0 Rectangle with rounded corners*
0 $1 Rounding radius*
0 $2 $3 $4 $5 $6 $7 $8 $9 X,Y pos of 4 corners*
0 Add a 4 corners polygon primitive as box body*
4,1,4,$2,$3,$4,$5,$6,$7,$8,$9,$2,$3,0*
0 Add four circle primitives for the rounded corners*
1,1,$1+$1,$2,$3*
1,1,$1+$1,$4,$5*
1,1,$1+$1,$6,$7*
1,1,$1+$1,$8,$9*
0 Add four rect primitives between the rounded corners*
20,1,$1+$1,$2,$3,$4,$5,0*
20,1,$1+$1,$4,$5,$6,$7,0*
20,1,$1+$1,$6,$7,$8,$9,0*
20,1,$1+$1,$8,$9,$2,$3,0*%
%AMHorizOval*
0 Thick line with rounded ends*
0 $1 width*
0 $2 $3 position (X,Y) of the first rounded end (center of the circle)*
0 $4 $5 position (X,Y) of the second rounded end (center of the circle)*
0 Add line between two ends*
20,1,$1,$2,$3,$4,$5,0*
0 Add two circle primitives to create the rounded ends*
1,1,$1,$2,$3*
1,1,$1,$4,$5*%
%AMFreePoly0*
4,1,23,0.500000,-0.750000,0.000000,-0.750000,0.000000,-0.745722,-0.065263,-0.745722,-0.191342,-0.711940,-0.304381,-0.646677,-0.396677,-0.554381,-0.461940,-0.441342,-0.495722,-0.315263,-0.495722,-0.250000,-0.500000,-0.250000,-0.500000,0.250000,-0.495722,0.250000,-0.495722,0.315263,-0.461940,0.441342,-0.396677,0.554381,-0.304381,0.646677,-0.191342,0.711940,-0.065263,0.745722,0.000000,0.745722,
0.000000,0.750000,0.500000,0.750000,0.500000,-0.750000,0.500000,-0.750000,$1*%
%AMFreePoly1*
4,1,23,0.000000,0.745722,0.065263,0.745722,0.191342,0.711940,0.304381,0.646677,0.396677,0.554381,0.461940,0.441342,0.495722,0.315263,0.495722,0.250000,0.500000,0.250000,0.500000,-0.250000,0.495722,-0.250000,0.495722,-0.315263,0.461940,-0.441342,0.396677,-0.554381,0.304381,-0.646677,0.191342,-0.711940,0.065263,-0.745722,0.000000,-0.745722,0.000000,-0.750000,-0.500000,-0.750000,
-0.500000,0.750000,0.000000,0.750000,0.000000,0.745722,0.000000,0.745722,$1*%
G04 Aperture macros list end*
%ADD10C,2.000000*%
%ADD11C,0.650000*%
%ADD12HorizOval,1.000000X-0.232440X0.498469X0.232440X-0.498469X0*%
%ADD13HorizOval,1.000000X-0.169047X0.362523X0.169047X-0.362523X0*%
%ADD14RoundRect,0.190500X0.444500X-1.079500X0.444500X1.079500X-0.444500X1.079500X-0.444500X-1.079500X0*%
%ADD15R,1.000000X3.000000*%
%ADD16FreePoly0,0.000000*%
%ADD17FreePoly1,0.000000*%
%ADD18R,3.000000X1.000000*%
%ADD19C,3.200000*%
%ADD20R,7.000000X7.000000*%
%ADD21FreePoly0,180.000000*%
%ADD22FreePoly1,180.000000*%
%ADD23R,1.000000X1.900000*%
G04 APERTURE END LIST*
%TO.C,JP1*%
G36*
X120300000Y-102950000D02*
G01*
X120600000Y-102950000D01*
X120600000Y-104450000D01*
X120300000Y-104450000D01*
X120300000Y-102950000D01*
G37*
%TO.C,JP2*%
G36*
X124500000Y-105350000D02*
G01*
X124800000Y-105350000D01*
X124800000Y-106850000D01*
X124500000Y-106850000D01*
X124500000Y-105350000D01*
G37*
%TO.C,JP3*%
G36*
X124500000Y-108050000D02*
G01*
X124800000Y-108050000D01*
X124800000Y-109550000D01*
X124500000Y-109550000D01*
X124500000Y-108050000D01*
G37*
%TD*%
D10*
%TO.C,U16*%
X161566000Y-77787000D03*
X164106000Y-77787000D03*
X164086000Y-73723000D03*
X161566000Y-73723000D03*
%TD*%
D11*
%TO.C,J1*%
X109704850Y-108860435D03*
X114943309Y-106417701D03*
D12*
X108189068Y-108993499D03*
D13*
X109964065Y-112799992D03*
X117794564Y-109148570D03*
D12*
X116019568Y-105342077D03*
%TD*%
D14*
%TO.C,U15*%
X156675000Y-73050000D03*
X152475000Y-73050000D03*
%TD*%
D15*
%TO.C,J11*%
X125670000Y-78000000D03*
X125670000Y-72960000D03*
X128210000Y-78000000D03*
X128210000Y-72960000D03*
X130750000Y-78000000D03*
X130750000Y-72960000D03*
X133290000Y-78000000D03*
X133290000Y-72960000D03*
X135830000Y-78000000D03*
X135830000Y-72960000D03*
X138370000Y-78000000D03*
X138370000Y-72960000D03*
X140910000Y-78000000D03*
X140910000Y-72960000D03*
X143450000Y-78000000D03*
X143450000Y-72960000D03*
%TD*%
%TO.C,J12*%
X184950000Y-72980000D03*
X184950000Y-78020000D03*
X182410000Y-72980000D03*
X182410000Y-78020000D03*
X179870000Y-72980000D03*
X179870000Y-78020000D03*
X177330000Y-72980000D03*
X177330000Y-78020000D03*
X174790000Y-72980000D03*
X174790000Y-78020000D03*
X172250000Y-72980000D03*
X172250000Y-78020000D03*
X169710000Y-72980000D03*
X169710000Y-78020000D03*
X167170000Y-72980000D03*
X167170000Y-78020000D03*
%TD*%
D16*
%TO.C,JP1*%
X119800000Y-103700000D03*
D17*
X121100000Y-103700000D03*
%TD*%
D18*
%TO.C,J8*%
X211290000Y-112280000D03*
X206250000Y-112280000D03*
X211290000Y-109740000D03*
X206250000Y-109740000D03*
X211290000Y-107200000D03*
X206250000Y-107200000D03*
X211290000Y-104660000D03*
X206250000Y-104660000D03*
X211290000Y-102120000D03*
X206250000Y-102120000D03*
X211290000Y-99580000D03*
X206250000Y-99580000D03*
X211290000Y-97040000D03*
X206250000Y-97040000D03*
X211290000Y-94500000D03*
X206250000Y-94500000D03*
%TD*%
D19*
%TO.C,BT4*%
X120175000Y-99550000D03*
D20*
X114175000Y-91550000D03*
X198175000Y-91550000D03*
%TD*%
D21*
%TO.C,JP2*%
X125300000Y-106100000D03*
D22*
X124000000Y-106100000D03*
%TD*%
D21*
%TO.C,JP3*%
X125300000Y-108800000D03*
D22*
X124000000Y-108800000D03*
%TD*%
D23*
%TO.C,J2*%
X147844000Y-116114900D03*
X145304000Y-112814900D03*
X142764000Y-116114900D03*
X140224000Y-112814900D03*
X137684000Y-116114900D03*
X135144000Y-112814900D03*
X132604000Y-116114900D03*
X130064000Y-112814900D03*
X127524000Y-116114900D03*
%TD*%
M02*
