%TF.GenerationSoftware,KiCad,Pcbnew,10.0.0*%
%TF.CreationDate,2026-04-10T15:47:46+02:00*%
%TF.ProjectId,Sthymuli-motherboard,53746879-6d75-46c6-992d-6d6f74686572,rev?*%
%TF.SameCoordinates,Original*%
%TF.FileFunction,Profile,NP*%
%FSLAX46Y46*%
G04 Gerber Fmt 4.6, Leading zero omitted, Abs format (unit mm)*
G04 Created by KiCad (PCBNEW 10.0.0) date 2026-04-10 15:47:46*
%MOMM*%
%LPD*%
G01*
G04 APERTURE LIST*
%TA.AperFunction,Profile*%
%ADD10C,0.200000*%
%TD*%
%TA.AperFunction,Profile*%
%ADD11C,0.050000*%
%TD*%
G04 APERTURE END LIST*
D10*
X77751842Y-87874057D02*
X98672040Y-120712189D01*
X77751842Y-87874057D02*
G75*
G02*
X149917654Y-65564208I76799358J-120550843D01*
G01*
X98672040Y-120712189D02*
G75*
G02*
X122137998Y-109604941I55879060J-87712511D01*
G01*
X122137998Y-109604942D02*
X122738686Y-111512753D01*
X122738686Y-111512753D02*
X125082797Y-118653744D01*
X137755347Y-119648628D02*
G75*
G02*
X125082797Y-118653744I-6106697J3421738D01*
G01*
X137755347Y-119648628D02*
G75*
G02*
X140819624Y-119123349I1744753J-977672D01*
G01*
X149917654Y-69936347D02*
X149917654Y-65564209D01*
X149917672Y-70936254D02*
G75*
G02*
X149917672Y-69936346I28J499954D01*
G01*
X150975929Y-118144533D02*
G75*
G02*
X140819646Y-119123323I-5537929J4281533D01*
G01*
X150975929Y-118144533D02*
G75*
G02*
X154084158Y-118074967I1582271J-1223267D01*
G01*
X159238202Y-70936270D02*
X149917700Y-70936254D01*
X159238249Y-65565954D02*
X159238202Y-69936328D01*
X159238249Y-65565954D02*
G75*
G02*
X231350556Y-87874060I-4687029J-142858866D01*
G01*
X159238249Y-69936328D02*
G75*
G02*
X159238249Y-70936272I-49J-499972D01*
G01*
X164274052Y-118598438D02*
G75*
G02*
X154084152Y-118074972I-4849052J5048438D01*
G01*
X164274052Y-118598438D02*
G75*
G02*
X167358781Y-118986134I1385448J-1442362D01*
G01*
X177361306Y-121000497D02*
G75*
G02*
X167358785Y-118986131I-4055006J5705897D01*
G01*
X177361306Y-121000497D02*
G75*
G02*
X180355655Y-121837035I1158594J-1630203D01*
G01*
X189953854Y-125298615D02*
G75*
G02*
X180355628Y-121837047I-3173054J6239515D01*
G01*
X189953854Y-125298615D02*
G75*
G02*
X192792852Y-126565863I906546J-1782785D01*
G01*
X205594640Y-128302748D02*
G75*
G02*
X192792861Y-126565860I-6038280J3541068D01*
G01*
X205594640Y-128302748D02*
X231350557Y-87874058D01*
%TO.C,LS1*%
D11*
X216425000Y-85800000D02*
G75*
G02*
X205425000Y-85800000I-5500000J0D01*
G01*
X205425000Y-85800000D02*
G75*
G02*
X216425000Y-85800000I5500000J0D01*
G01*
%TD*%
M02*
