%TF.GenerationSoftware,KiCad,Pcbnew,10.0.0*%
%TF.CreationDate,2026-04-10T10:26:04+02:00*%
%TF.ProjectId,Sthymuli-motherboard,53746879-6d75-46c6-992d-6d6f74686572,rev?*%
%TF.SameCoordinates,Original*%
%TF.FileFunction,Paste,Top*%
%TF.FilePolarity,Positive*%
%FSLAX46Y46*%
G04 Gerber Fmt 4.6, Leading zero omitted, Abs format (unit mm)*
G04 Created by KiCad (PCBNEW 10.0.0) date 2026-04-10 10:26:04*
%MOMM*%
%LPD*%
G01*
G04 APERTURE LIST*
G04 Aperture macros list*
%AMRoundRect*
0 Rectangle with rounded corners*
0 $1 Rounding radius*
0 $2 $3 $4 $5 $6 $7 $8 $9 X,Y pos of 4 corners*
0 Add a 4 corners polygon primitive as box body*
4,1,4,$2,$3,$4,$5,$6,$7,$8,$9,$2,$3,0*
0 Add four circle primitives for the rounded corners*
1,1,$1+$1,$2,$3*
1,1,$1+$1,$4,$5*
1,1,$1+$1,$6,$7*
1,1,$1+$1,$8,$9*
0 Add four rect primitives between the rounded corners*
20,1,$1+$1,$2,$3,$4,$5,0*
20,1,$1+$1,$4,$5,$6,$7,0*
20,1,$1+$1,$6,$7,$8,$9,0*
20,1,$1+$1,$8,$9,$2,$3,0*%
%AMRotRect*
0 Rectangle, with rotation*
0 The origin of the aperture is its center*
0 $1 length*
0 $2 width*
0 $3 Rotation angle, in degrees counterclockwise*
0 Add horizontal line*
21,1,$1,$2,0,0,$3*%
%AMFreePoly0*
4,1,71,0.086104,0.207873,0.159099,0.159099,0.207873,0.086104,0.225000,0.000000,0.207873,-0.086104,0.159099,-0.159099,0.086104,-0.207873,0.000000,-0.225000,-0.090415,-0.225000,-0.267771,-0.260278,-0.434836,-0.329479,-0.585191,-0.429943,-0.713057,-0.557809,-0.813521,-0.708164,-0.882722,-0.875229,-0.918000,-1.052585,-0.918000,-1.233415,-0.882722,-1.410771,-0.813521,-1.577836,-0.713057,-1.728191,
-0.585191,-1.856057,-0.434836,-1.956521,-0.267771,-2.025722,-0.090415,-2.061000,0.090415,-2.061000,0.267771,-2.025722,0.434836,-1.956521,0.585191,-1.856057,0.713057,-1.728191,0.813521,-1.577836,0.882722,-1.410771,0.918000,-1.233415,0.918000,-1.143000,0.935127,-1.056896,0.983901,-0.983901,1.056896,-0.935127,1.143000,-0.918000,1.229104,-0.935127,1.302099,-0.983901,1.350873,-1.056896,
1.368000,-1.143000,1.349979,-1.364318,1.296390,-1.579804,1.208644,-1.783783,1.089055,-1.970878,0.940773,-2.136162,0.767704,-2.275279,0.574408,-2.384563,0.365979,-2.461136,0.147907,-2.502981,-0.074062,-2.508994,-0.294080,-2.479017,-0.506349,-2.413840,-0.705278,-2.315181,-0.885624,-2.185638,-1.042638,-2.028624,-1.172181,-1.848278,-1.270840,-1.649349,-1.336017,-1.437080,-1.365994,-1.217062,
-1.359981,-0.995093,-1.318136,-0.777021,-1.241563,-0.568592,-1.132279,-0.375296,-0.993162,-0.202227,-0.827878,-0.053945,-0.640783,0.065644,-0.436804,0.153390,-0.221318,0.206979,0.000000,0.225000,0.086104,0.207873,0.086104,0.207873,$1*%
%AMFreePoly1*
4,1,14,0.318306,0.106694,0.381694,0.043306,0.400000,-0.000888,0.400000,-0.062500,0.381694,-0.106694,0.337500,-0.125000,-0.337500,-0.125000,-0.381694,-0.106694,-0.400000,-0.062500,-0.400000,0.062500,-0.381694,0.106694,-0.337500,0.125000,0.274112,0.125000,0.318306,0.106694,0.318306,0.106694,$1*%
%AMFreePoly2*
4,1,14,0.381694,0.106694,0.400000,0.062500,0.400000,0.000888,0.381694,-0.043306,0.318306,-0.106694,0.274112,-0.125000,-0.337500,-0.125000,-0.381694,-0.106694,-0.400000,-0.062500,-0.400000,0.062500,-0.381694,0.106694,-0.337500,0.125000,0.337500,0.125000,0.381694,0.106694,0.381694,0.106694,$1*%
%AMFreePoly3*
4,1,14,0.106694,0.381694,0.125000,0.337500,0.125000,-0.337500,0.106694,-0.381694,0.062500,-0.400000,-0.062500,-0.400000,-0.106694,-0.381694,-0.125000,-0.337500,-0.125000,0.274112,-0.106694,0.318306,-0.043306,0.381694,0.000888,0.400000,0.062500,0.400000,0.106694,0.381694,0.106694,0.381694,$1*%
%AMFreePoly4*
4,1,14,0.043306,0.381694,0.106694,0.318306,0.125000,0.274112,0.125000,-0.337500,0.106694,-0.381694,0.062500,-0.400000,-0.062500,-0.400000,-0.106694,-0.381694,-0.125000,-0.337500,-0.125000,0.337500,-0.106694,0.381694,-0.062500,0.400000,-0.000888,0.400000,0.043306,0.381694,0.043306,0.381694,$1*%
%AMFreePoly5*
4,1,14,0.381694,0.106694,0.400000,0.062500,0.400000,-0.062500,0.381694,-0.106694,0.337500,-0.125000,-0.274112,-0.125000,-0.318306,-0.106694,-0.381694,-0.043306,-0.400000,0.000888,-0.400000,0.062500,-0.381694,0.106694,-0.337500,0.125000,0.337500,0.125000,0.381694,0.106694,0.381694,0.106694,$1*%
%AMFreePoly6*
4,1,14,0.381694,0.106694,0.400000,0.062500,0.400000,-0.062500,0.381694,-0.106694,0.337500,-0.125000,-0.337500,-0.125000,-0.381694,-0.106694,-0.400000,-0.062500,-0.400000,-0.000888,-0.381694,0.043306,-0.318306,0.106694,-0.274112,0.125000,0.337500,0.125000,0.381694,0.106694,0.381694,0.106694,$1*%
%AMFreePoly7*
4,1,14,0.106694,0.381694,0.125000,0.337500,0.125000,-0.274112,0.106694,-0.318306,0.043306,-0.381694,-0.000888,-0.400000,-0.062500,-0.400000,-0.106694,-0.381694,-0.125000,-0.337500,-0.125000,0.337500,-0.106694,0.381694,-0.062500,0.400000,0.062500,0.400000,0.106694,0.381694,0.106694,0.381694,$1*%
%AMFreePoly8*
4,1,14,0.106694,0.381694,0.125000,0.337500,0.125000,-0.337500,0.106694,-0.381694,0.062500,-0.400000,0.000888,-0.400000,-0.043306,-0.381694,-0.106694,-0.318306,-0.125000,-0.274112,-0.125000,0.337500,-0.106694,0.381694,-0.062500,0.400000,0.062500,0.400000,0.106694,0.381694,0.106694,0.381694,$1*%
G04 Aperture macros list end*
%ADD10C,0.010000*%
%ADD11RoundRect,0.200000X0.275000X-0.200000X0.275000X0.200000X-0.275000X0.200000X-0.275000X-0.200000X0*%
%ADD12RoundRect,0.140000X-0.170000X0.140000X-0.170000X-0.140000X0.170000X-0.140000X0.170000X0.140000X0*%
%ADD13RoundRect,0.140000X0.170000X-0.140000X0.170000X0.140000X-0.170000X0.140000X-0.170000X-0.140000X0*%
%ADD14RoundRect,0.200000X-0.200000X-0.275000X0.200000X-0.275000X0.200000X0.275000X-0.200000X0.275000X0*%
%ADD15RoundRect,0.200000X-0.275000X0.200000X-0.275000X-0.200000X0.275000X-0.200000X0.275000X0.200000X0*%
%ADD16RoundRect,0.250000X0.625000X-0.312500X0.625000X0.312500X-0.625000X0.312500X-0.625000X-0.312500X0*%
%ADD17RoundRect,0.140000X-0.140000X-0.170000X0.140000X-0.170000X0.140000X0.170000X-0.140000X0.170000X0*%
%ADD18R,0.570000X0.738000*%
%ADD19RoundRect,0.125000X-0.190000X-0.125000X0.190000X-0.125000X0.190000X0.125000X-0.190000X0.125000X0*%
%ADD20RoundRect,0.150000X-0.150000X0.512500X-0.150000X-0.512500X0.150000X-0.512500X0.150000X0.512500X0*%
%ADD21RoundRect,0.090000X-0.673455X0.334153X0.083666X-0.747128X0.673455X-0.334153X-0.083666X0.747128X0*%
%ADD22RoundRect,0.250000X-0.475000X0.250000X-0.475000X-0.250000X0.475000X-0.250000X0.475000X0.250000X0*%
%ADD23R,0.738000X0.570000*%
%ADD24RoundRect,0.125000X0.125000X-0.190000X0.125000X0.190000X-0.125000X0.190000X-0.125000X-0.190000X0*%
%ADD25RoundRect,0.090000X-0.360000X0.660000X-0.360000X-0.660000X0.360000X-0.660000X0.360000X0.660000X0*%
%ADD26RoundRect,0.250000X-0.250000X-0.475000X0.250000X-0.475000X0.250000X0.475000X-0.250000X0.475000X0*%
%ADD27RoundRect,0.480000X1.270000X-1.120000X1.270000X1.120000X-1.270000X1.120000X-1.270000X-1.120000X0*%
%ADD28RoundRect,0.048000X-0.072000X0.252000X-0.072000X-0.252000X0.072000X-0.252000X0.072000X0.252000X0*%
%ADD29RoundRect,0.048000X-0.252000X0.072000X-0.252000X-0.072000X0.252000X-0.072000X0.252000X0.072000X0*%
%ADD30RoundRect,0.090000X-0.583159X-0.373665X0.691863X-0.032024X0.583159X0.373665X-0.691863X0.032024X0*%
%ADD31RoundRect,0.097500X0.571385X0.388628X-0.689148X0.050869X-0.571385X-0.388628X0.689148X-0.050869X0*%
%ADD32RoundRect,0.097500X-0.388628X0.571385X-0.050869X-0.689148X0.388628X-0.571385X0.050869X0.689148X0*%
%ADD33RoundRect,0.090000X0.686913X-0.088603X-0.509413X0.469253X-0.686913X0.088603X0.509413X-0.469253X0*%
%ADD34RoundRect,0.097500X-0.687511X0.069573X0.495220X-0.481943X0.687511X-0.069573X-0.495220X0.481943X0*%
%ADD35RoundRect,0.097500X-0.069573X-0.687511X0.481943X0.495220X0.069573X0.687511X-0.481943X-0.495220X0*%
%ADD36RoundRect,0.275000X-0.475000X-0.275000X0.475000X-0.275000X0.475000X0.275000X-0.475000X0.275000X0*%
%ADD37RoundRect,0.250000X-0.300000X0.300000X-0.300000X-0.300000X0.300000X-0.300000X0.300000X0.300000X0*%
%ADD38RoundRect,0.200000X0.200000X0.275000X-0.200000X0.275000X-0.200000X-0.275000X0.200000X-0.275000X0*%
%ADD39C,0.235000*%
%ADD40RoundRect,0.250000X0.250000X0.475000X-0.250000X0.475000X-0.250000X-0.475000X0.250000X-0.475000X0*%
%ADD41RoundRect,0.250000X-0.300000X-0.300000X0.300000X-0.300000X0.300000X0.300000X-0.300000X0.300000X0*%
%ADD42RoundRect,0.140000X0.140000X0.170000X-0.140000X0.170000X-0.140000X-0.170000X0.140000X-0.170000X0*%
%ADD43RoundRect,0.150000X0.150000X-0.587500X0.150000X0.587500X-0.150000X0.587500X-0.150000X-0.587500X0*%
%ADD44RoundRect,0.090000X-0.660000X-0.360000X0.660000X-0.360000X0.660000X0.360000X-0.660000X0.360000X0*%
%ADD45RoundRect,0.150000X0.150000X0.200000X-0.150000X0.200000X-0.150000X-0.200000X0.150000X-0.200000X0*%
%ADD46RoundRect,0.250000X-0.335000X0.335000X-0.335000X-0.335000X0.335000X-0.335000X0.335000X0.335000X0*%
%ADD47RoundRect,0.050000X-0.050000X0.300000X-0.050000X-0.300000X0.050000X-0.300000X0.050000X0.300000X0*%
%ADD48RoundRect,0.050000X-0.300000X0.050000X-0.300000X-0.050000X0.300000X-0.050000X0.300000X0.050000X0*%
%ADD49RoundRect,0.150000X0.875000X0.150000X-0.875000X0.150000X-0.875000X-0.150000X0.875000X-0.150000X0*%
%ADD50RoundRect,0.150000X0.062684X-0.489357X0.334577X-0.362572X-0.062684X0.489357X-0.334577X0.362572X0*%
%ADD51RoundRect,0.075000X0.162354X-0.525634X0.298300X-0.462241X-0.162354X0.525634X-0.298300X0.462241X0*%
%ADD52RoundRect,0.162500X0.447500X0.162500X-0.447500X0.162500X-0.447500X-0.162500X0.447500X-0.162500X0*%
%ADD53RoundRect,0.142500X-1.357500X-0.332500X1.357500X-0.332500X1.357500X0.332500X-1.357500X0.332500X0*%
%ADD54RoundRect,0.390000X-0.910000X-1.610000X0.910000X-1.610000X0.910000X1.610000X-0.910000X1.610000X0*%
%ADD55RoundRect,0.300000X0.206218X-1.042820X1.006218X0.342820X-0.206218X1.042820X-1.006218X-0.342820X0*%
%ADD56RoundRect,0.150000X-0.825000X-0.150000X0.825000X-0.150000X0.825000X0.150000X-0.825000X0.150000X0*%
%ADD57RoundRect,0.090000X-0.691863X-0.032024X0.583159X-0.373665X0.691863X0.032024X-0.583159X0.373665X0*%
%ADD58RoundRect,0.097500X0.689148X0.050869X-0.571385X0.388628X-0.689148X-0.050869X0.571385X-0.388628X0*%
%ADD59RoundRect,0.097500X-0.050869X0.689148X-0.388628X-0.571385X0.050869X-0.689148X0.388628X0.571385X0*%
%ADD60RoundRect,0.190500X0.444500X-1.079500X0.444500X1.079500X-0.444500X1.079500X-0.444500X-1.079500X0*%
%ADD61RoundRect,0.090000X0.466577X0.511865X-0.676577X-0.148135X-0.466577X-0.511865X0.676577X0.148135X0*%
%ADD62RoundRect,0.097500X-0.451332X-0.523271X0.678832X0.129229X0.451332X0.523271X-0.678832X-0.129229X0*%
%ADD63RoundRect,0.097500X0.523271X-0.451332X-0.129229X0.678832X-0.523271X0.451332X0.129229X-0.678832X0*%
%ADD64RotRect,0.900000X0.900000X30.000000*%
%ADD65RotRect,0.900000X0.900000X300.000000*%
%ADD66RotRect,1.500000X0.900000X30.000000*%
%ADD67RotRect,1.500000X0.900000X210.000000*%
%ADD68RotRect,1.500000X0.900000X300.000000*%
%ADD69C,8.000000*%
%ADD70RoundRect,0.150000X-0.386154X0.368838X0.126346X-0.518838X0.386154X-0.368838X-0.126346X0.518838X0*%
%ADD71FreePoly0,270.000000*%
%ADD72C,0.900000*%
%ADD73RoundRect,0.090000X-0.518554X0.544336X-0.176913X-0.730686X0.518554X-0.544336X0.176913X0.730686X0*%
%ADD74RoundRect,0.250000X0.475000X-0.250000X0.475000X0.250000X-0.475000X0.250000X-0.475000X-0.250000X0*%
%ADD75RoundRect,0.125000X0.190000X0.125000X-0.190000X0.125000X-0.190000X-0.125000X0.190000X-0.125000X0*%
%ADD76RoundRect,0.125000X-0.125000X0.190000X-0.125000X-0.190000X0.125000X-0.190000X0.125000X0.190000X0*%
%ADD77RoundRect,0.150000X-0.150000X-0.200000X0.150000X-0.200000X0.150000X0.200000X-0.150000X0.200000X0*%
%ADD78RotRect,1.900000X1.000000X145.000000*%
%ADD79RoundRect,0.242500X-0.242500X0.242500X-0.242500X-0.242500X0.242500X-0.242500X0.242500X0.242500X0*%
%ADD80FreePoly1,270.000000*%
%ADD81RoundRect,0.062500X-0.062500X0.337500X-0.062500X-0.337500X0.062500X-0.337500X0.062500X0.337500X0*%
%ADD82FreePoly2,270.000000*%
%ADD83FreePoly3,270.000000*%
%ADD84RoundRect,0.062500X-0.337500X0.062500X-0.337500X-0.062500X0.337500X-0.062500X0.337500X0.062500X0*%
%ADD85FreePoly4,270.000000*%
%ADD86FreePoly5,270.000000*%
%ADD87FreePoly6,270.000000*%
%ADD88FreePoly7,270.000000*%
%ADD89FreePoly8,270.000000*%
%ADD90RoundRect,0.140000X-0.017173X-0.219557X0.212189X-0.058955X0.017173X0.219557X-0.212189X0.058955X0*%
%ADD91RoundRect,0.087500X-0.087500X0.225000X-0.087500X-0.225000X0.087500X-0.225000X0.087500X0.225000X0*%
%ADD92RoundRect,0.087500X-0.225000X0.087500X-0.225000X-0.087500X0.225000X-0.087500X0.225000X0.087500X0*%
%ADD93RoundRect,0.250000X0.300000X-0.300000X0.300000X0.300000X-0.300000X0.300000X-0.300000X-0.300000X0*%
G04 APERTURE END LIST*
D10*
%TO.C,U3*%
X150970500Y-94081000D02*
X150972500Y-94081000D01*
X150975500Y-94082000D01*
X150977500Y-94082000D01*
X150980500Y-94083000D01*
X150982500Y-94084000D01*
X150985500Y-94085000D01*
X150987500Y-94087000D01*
X150989500Y-94088000D01*
X150991500Y-94090000D01*
X150993500Y-94091000D01*
X150995500Y-94093000D01*
X150997500Y-94095000D01*
X150999500Y-94097000D01*
X151001500Y-94099000D01*
X151002500Y-94101000D01*
X151004500Y-94103000D01*
X151005500Y-94105000D01*
X151007500Y-94107000D01*
X151008500Y-94110000D01*
X151009500Y-94112000D01*
X151010500Y-94115000D01*
X151010500Y-94117000D01*
X151011500Y-94120000D01*
X151011500Y-94122000D01*
X151012500Y-94125000D01*
X151012500Y-94127000D01*
X151012500Y-94130000D01*
X151012500Y-94950000D01*
X151012500Y-94953000D01*
X151012500Y-94955000D01*
X151011500Y-94958000D01*
X151011500Y-94960000D01*
X151010500Y-94963000D01*
X151010500Y-94965000D01*
X151009500Y-94968000D01*
X151008500Y-94970000D01*
X151007500Y-94973000D01*
X151005500Y-94975000D01*
X151004500Y-94977000D01*
X151002500Y-94979000D01*
X151001500Y-94981000D01*
X150999500Y-94983000D01*
X150997500Y-94985000D01*
X150995500Y-94987000D01*
X150993500Y-94989000D01*
X150991500Y-94990000D01*
X150989500Y-94992000D01*
X150987500Y-94993000D01*
X150985500Y-94995000D01*
X150982500Y-94996000D01*
X150980500Y-94997000D01*
X150977500Y-94998000D01*
X150975500Y-94998000D01*
X150972500Y-94999000D01*
X150970500Y-94999000D01*
X150967500Y-95000000D01*
X150965500Y-95000000D01*
X150962500Y-95000000D01*
X150142500Y-95000000D01*
X150139500Y-95000000D01*
X150137500Y-95000000D01*
X150134500Y-94999000D01*
X150132500Y-94999000D01*
X150129500Y-94998000D01*
X150127500Y-94998000D01*
X150124500Y-94997000D01*
X150122500Y-94996000D01*
X150119500Y-94995000D01*
X150117500Y-94993000D01*
X150115500Y-94992000D01*
X150113500Y-94990000D01*
X150111500Y-94989000D01*
X150109500Y-94987000D01*
X150107500Y-94985000D01*
X150105500Y-94983000D01*
X150103500Y-94981000D01*
X150102500Y-94979000D01*
X150100500Y-94977000D01*
X150099500Y-94975000D01*
X150097500Y-94973000D01*
X150096500Y-94970000D01*
X150095500Y-94968000D01*
X150094500Y-94965000D01*
X150094500Y-94963000D01*
X150093500Y-94960000D01*
X150093500Y-94958000D01*
X150092500Y-94955000D01*
X150092500Y-94953000D01*
X150092500Y-94950000D01*
X150092500Y-94130000D01*
X150092500Y-94127000D01*
X150092500Y-94125000D01*
X150093500Y-94122000D01*
X150093500Y-94120000D01*
X150094500Y-94117000D01*
X150094500Y-94115000D01*
X150095500Y-94112000D01*
X150096500Y-94110000D01*
X150097500Y-94107000D01*
X150099500Y-94105000D01*
X150100500Y-94103000D01*
X150102500Y-94101000D01*
X150103500Y-94099000D01*
X150105500Y-94097000D01*
X150107500Y-94095000D01*
X150109500Y-94093000D01*
X150111500Y-94091000D01*
X150113500Y-94090000D01*
X150115500Y-94088000D01*
X150117500Y-94087000D01*
X150119500Y-94085000D01*
X150122500Y-94084000D01*
X150124500Y-94083000D01*
X150127500Y-94082000D01*
X150129500Y-94082000D01*
X150132500Y-94081000D01*
X150134500Y-94081000D01*
X150137500Y-94080000D01*
X150139500Y-94080000D01*
X150142500Y-94080000D01*
X150962500Y-94080000D01*
X150965500Y-94080000D01*
X150967500Y-94080000D01*
X150970500Y-94081000D01*
G36*
X150970500Y-94081000D02*
G01*
X150972500Y-94081000D01*
X150975500Y-94082000D01*
X150977500Y-94082000D01*
X150980500Y-94083000D01*
X150982500Y-94084000D01*
X150985500Y-94085000D01*
X150987500Y-94087000D01*
X150989500Y-94088000D01*
X150991500Y-94090000D01*
X150993500Y-94091000D01*
X150995500Y-94093000D01*
X150997500Y-94095000D01*
X150999500Y-94097000D01*
X151001500Y-94099000D01*
X151002500Y-94101000D01*
X151004500Y-94103000D01*
X151005500Y-94105000D01*
X151007500Y-94107000D01*
X151008500Y-94110000D01*
X151009500Y-94112000D01*
X151010500Y-94115000D01*
X151010500Y-94117000D01*
X151011500Y-94120000D01*
X151011500Y-94122000D01*
X151012500Y-94125000D01*
X151012500Y-94127000D01*
X151012500Y-94130000D01*
X151012500Y-94950000D01*
X151012500Y-94953000D01*
X151012500Y-94955000D01*
X151011500Y-94958000D01*
X151011500Y-94960000D01*
X151010500Y-94963000D01*
X151010500Y-94965000D01*
X151009500Y-94968000D01*
X151008500Y-94970000D01*
X151007500Y-94973000D01*
X151005500Y-94975000D01*
X151004500Y-94977000D01*
X151002500Y-94979000D01*
X151001500Y-94981000D01*
X150999500Y-94983000D01*
X150997500Y-94985000D01*
X150995500Y-94987000D01*
X150993500Y-94989000D01*
X150991500Y-94990000D01*
X150989500Y-94992000D01*
X150987500Y-94993000D01*
X150985500Y-94995000D01*
X150982500Y-94996000D01*
X150980500Y-94997000D01*
X150977500Y-94998000D01*
X150975500Y-94998000D01*
X150972500Y-94999000D01*
X150970500Y-94999000D01*
X150967500Y-95000000D01*
X150965500Y-95000000D01*
X150962500Y-95000000D01*
X150142500Y-95000000D01*
X150139500Y-95000000D01*
X150137500Y-95000000D01*
X150134500Y-94999000D01*
X150132500Y-94999000D01*
X150129500Y-94998000D01*
X150127500Y-94998000D01*
X150124500Y-94997000D01*
X150122500Y-94996000D01*
X150119500Y-94995000D01*
X150117500Y-94993000D01*
X150115500Y-94992000D01*
X150113500Y-94990000D01*
X150111500Y-94989000D01*
X150109500Y-94987000D01*
X150107500Y-94985000D01*
X150105500Y-94983000D01*
X150103500Y-94981000D01*
X150102500Y-94979000D01*
X150100500Y-94977000D01*
X150099500Y-94975000D01*
X150097500Y-94973000D01*
X150096500Y-94970000D01*
X150095500Y-94968000D01*
X150094500Y-94965000D01*
X150094500Y-94963000D01*
X150093500Y-94960000D01*
X150093500Y-94958000D01*
X150092500Y-94955000D01*
X150092500Y-94953000D01*
X150092500Y-94950000D01*
X150092500Y-94130000D01*
X150092500Y-94127000D01*
X150092500Y-94125000D01*
X150093500Y-94122000D01*
X150093500Y-94120000D01*
X150094500Y-94117000D01*
X150094500Y-94115000D01*
X150095500Y-94112000D01*
X150096500Y-94110000D01*
X150097500Y-94107000D01*
X150099500Y-94105000D01*
X150100500Y-94103000D01*
X150102500Y-94101000D01*
X150103500Y-94099000D01*
X150105500Y-94097000D01*
X150107500Y-94095000D01*
X150109500Y-94093000D01*
X150111500Y-94091000D01*
X150113500Y-94090000D01*
X150115500Y-94088000D01*
X150117500Y-94087000D01*
X150119500Y-94085000D01*
X150122500Y-94084000D01*
X150124500Y-94083000D01*
X150127500Y-94082000D01*
X150129500Y-94082000D01*
X150132500Y-94081000D01*
X150134500Y-94081000D01*
X150137500Y-94080000D01*
X150139500Y-94080000D01*
X150142500Y-94080000D01*
X150962500Y-94080000D01*
X150965500Y-94080000D01*
X150967500Y-94080000D01*
X150970500Y-94081000D01*
G37*
X150970500Y-95201000D02*
X150972500Y-95201000D01*
X150975500Y-95202000D01*
X150977500Y-95202000D01*
X150980500Y-95203000D01*
X150982500Y-95204000D01*
X150985500Y-95205000D01*
X150987500Y-95207000D01*
X150989500Y-95208000D01*
X150991500Y-95210000D01*
X150993500Y-95211000D01*
X150995500Y-95213000D01*
X150997500Y-95215000D01*
X150999500Y-95217000D01*
X151001500Y-95219000D01*
X151002500Y-95221000D01*
X151004500Y-95223000D01*
X151005500Y-95225000D01*
X151007500Y-95227000D01*
X151008500Y-95230000D01*
X151009500Y-95232000D01*
X151010500Y-95235000D01*
X151010500Y-95237000D01*
X151011500Y-95240000D01*
X151011500Y-95242000D01*
X151012500Y-95245000D01*
X151012500Y-95247000D01*
X151012500Y-95250000D01*
X151012500Y-96070000D01*
X151012500Y-96073000D01*
X151012500Y-96075000D01*
X151011500Y-96078000D01*
X151011500Y-96080000D01*
X151010500Y-96083000D01*
X151010500Y-96085000D01*
X151009500Y-96088000D01*
X151008500Y-96090000D01*
X151007500Y-96093000D01*
X151005500Y-96095000D01*
X151004500Y-96097000D01*
X151002500Y-96099000D01*
X151001500Y-96101000D01*
X150999500Y-96103000D01*
X150997500Y-96105000D01*
X150995500Y-96107000D01*
X150993500Y-96109000D01*
X150991500Y-96110000D01*
X150989500Y-96112000D01*
X150987500Y-96113000D01*
X150985500Y-96115000D01*
X150982500Y-96116000D01*
X150980500Y-96117000D01*
X150977500Y-96118000D01*
X150975500Y-96118000D01*
X150972500Y-96119000D01*
X150970500Y-96119000D01*
X150967500Y-96120000D01*
X150965500Y-96120000D01*
X150962500Y-96120000D01*
X150142500Y-96120000D01*
X150139500Y-96120000D01*
X150137500Y-96120000D01*
X150134500Y-96119000D01*
X150132500Y-96119000D01*
X150129500Y-96118000D01*
X150127500Y-96118000D01*
X150124500Y-96117000D01*
X150122500Y-96116000D01*
X150119500Y-96115000D01*
X150117500Y-96113000D01*
X150115500Y-96112000D01*
X150113500Y-96110000D01*
X150111500Y-96109000D01*
X150109500Y-96107000D01*
X150107500Y-96105000D01*
X150105500Y-96103000D01*
X150103500Y-96101000D01*
X150102500Y-96099000D01*
X150100500Y-96097000D01*
X150099500Y-96095000D01*
X150097500Y-96093000D01*
X150096500Y-96090000D01*
X150095500Y-96088000D01*
X150094500Y-96085000D01*
X150094500Y-96083000D01*
X150093500Y-96080000D01*
X150093500Y-96078000D01*
X150092500Y-96075000D01*
X150092500Y-96073000D01*
X150092500Y-96070000D01*
X150092500Y-95250000D01*
X150092500Y-95247000D01*
X150092500Y-95245000D01*
X150093500Y-95242000D01*
X150093500Y-95240000D01*
X150094500Y-95237000D01*
X150094500Y-95235000D01*
X150095500Y-95232000D01*
X150096500Y-95230000D01*
X150097500Y-95227000D01*
X150099500Y-95225000D01*
X150100500Y-95223000D01*
X150102500Y-95221000D01*
X150103500Y-95219000D01*
X150105500Y-95217000D01*
X150107500Y-95215000D01*
X150109500Y-95213000D01*
X150111500Y-95211000D01*
X150113500Y-95210000D01*
X150115500Y-95208000D01*
X150117500Y-95207000D01*
X150119500Y-95205000D01*
X150122500Y-95204000D01*
X150124500Y-95203000D01*
X150127500Y-95202000D01*
X150129500Y-95202000D01*
X150132500Y-95201000D01*
X150134500Y-95201000D01*
X150137500Y-95200000D01*
X150139500Y-95200000D01*
X150142500Y-95200000D01*
X150962500Y-95200000D01*
X150965500Y-95200000D01*
X150967500Y-95200000D01*
X150970500Y-95201000D01*
G36*
X150970500Y-95201000D02*
G01*
X150972500Y-95201000D01*
X150975500Y-95202000D01*
X150977500Y-95202000D01*
X150980500Y-95203000D01*
X150982500Y-95204000D01*
X150985500Y-95205000D01*
X150987500Y-95207000D01*
X150989500Y-95208000D01*
X150991500Y-95210000D01*
X150993500Y-95211000D01*
X150995500Y-95213000D01*
X150997500Y-95215000D01*
X150999500Y-95217000D01*
X151001500Y-95219000D01*
X151002500Y-95221000D01*
X151004500Y-95223000D01*
X151005500Y-95225000D01*
X151007500Y-95227000D01*
X151008500Y-95230000D01*
X151009500Y-95232000D01*
X151010500Y-95235000D01*
X151010500Y-95237000D01*
X151011500Y-95240000D01*
X151011500Y-95242000D01*
X151012500Y-95245000D01*
X151012500Y-95247000D01*
X151012500Y-95250000D01*
X151012500Y-96070000D01*
X151012500Y-96073000D01*
X151012500Y-96075000D01*
X151011500Y-96078000D01*
X151011500Y-96080000D01*
X151010500Y-96083000D01*
X151010500Y-96085000D01*
X151009500Y-96088000D01*
X151008500Y-96090000D01*
X151007500Y-96093000D01*
X151005500Y-96095000D01*
X151004500Y-96097000D01*
X151002500Y-96099000D01*
X151001500Y-96101000D01*
X150999500Y-96103000D01*
X150997500Y-96105000D01*
X150995500Y-96107000D01*
X150993500Y-96109000D01*
X150991500Y-96110000D01*
X150989500Y-96112000D01*
X150987500Y-96113000D01*
X150985500Y-96115000D01*
X150982500Y-96116000D01*
X150980500Y-96117000D01*
X150977500Y-96118000D01*
X150975500Y-96118000D01*
X150972500Y-96119000D01*
X150970500Y-96119000D01*
X150967500Y-96120000D01*
X150965500Y-96120000D01*
X150962500Y-96120000D01*
X150142500Y-96120000D01*
X150139500Y-96120000D01*
X150137500Y-96120000D01*
X150134500Y-96119000D01*
X150132500Y-96119000D01*
X150129500Y-96118000D01*
X150127500Y-96118000D01*
X150124500Y-96117000D01*
X150122500Y-96116000D01*
X150119500Y-96115000D01*
X150117500Y-96113000D01*
X150115500Y-96112000D01*
X150113500Y-96110000D01*
X150111500Y-96109000D01*
X150109500Y-96107000D01*
X150107500Y-96105000D01*
X150105500Y-96103000D01*
X150103500Y-96101000D01*
X150102500Y-96099000D01*
X150100500Y-96097000D01*
X150099500Y-96095000D01*
X150097500Y-96093000D01*
X150096500Y-96090000D01*
X150095500Y-96088000D01*
X150094500Y-96085000D01*
X150094500Y-96083000D01*
X150093500Y-96080000D01*
X150093500Y-96078000D01*
X150092500Y-96075000D01*
X150092500Y-96073000D01*
X150092500Y-96070000D01*
X150092500Y-95250000D01*
X150092500Y-95247000D01*
X150092500Y-95245000D01*
X150093500Y-95242000D01*
X150093500Y-95240000D01*
X150094500Y-95237000D01*
X150094500Y-95235000D01*
X150095500Y-95232000D01*
X150096500Y-95230000D01*
X150097500Y-95227000D01*
X150099500Y-95225000D01*
X150100500Y-95223000D01*
X150102500Y-95221000D01*
X150103500Y-95219000D01*
X150105500Y-95217000D01*
X150107500Y-95215000D01*
X150109500Y-95213000D01*
X150111500Y-95211000D01*
X150113500Y-95210000D01*
X150115500Y-95208000D01*
X150117500Y-95207000D01*
X150119500Y-95205000D01*
X150122500Y-95204000D01*
X150124500Y-95203000D01*
X150127500Y-95202000D01*
X150129500Y-95202000D01*
X150132500Y-95201000D01*
X150134500Y-95201000D01*
X150137500Y-95200000D01*
X150139500Y-95200000D01*
X150142500Y-95200000D01*
X150962500Y-95200000D01*
X150965500Y-95200000D01*
X150967500Y-95200000D01*
X150970500Y-95201000D01*
G37*
X152090500Y-94081000D02*
X152092500Y-94081000D01*
X152095500Y-94082000D01*
X152097500Y-94082000D01*
X152100500Y-94083000D01*
X152102500Y-94084000D01*
X152105500Y-94085000D01*
X152107500Y-94087000D01*
X152109500Y-94088000D01*
X152111500Y-94090000D01*
X152113500Y-94091000D01*
X152115500Y-94093000D01*
X152117500Y-94095000D01*
X152119500Y-94097000D01*
X152121500Y-94099000D01*
X152122500Y-94101000D01*
X152124500Y-94103000D01*
X152125500Y-94105000D01*
X152127500Y-94107000D01*
X152128500Y-94110000D01*
X152129500Y-94112000D01*
X152130500Y-94115000D01*
X152130500Y-94117000D01*
X152131500Y-94120000D01*
X152131500Y-94122000D01*
X152132500Y-94125000D01*
X152132500Y-94127000D01*
X152132500Y-94130000D01*
X152132500Y-94950000D01*
X152132500Y-94953000D01*
X152132500Y-94955000D01*
X152131500Y-94958000D01*
X152131500Y-94960000D01*
X152130500Y-94963000D01*
X152130500Y-94965000D01*
X152129500Y-94968000D01*
X152128500Y-94970000D01*
X152127500Y-94973000D01*
X152125500Y-94975000D01*
X152124500Y-94977000D01*
X152122500Y-94979000D01*
X152121500Y-94981000D01*
X152119500Y-94983000D01*
X152117500Y-94985000D01*
X152115500Y-94987000D01*
X152113500Y-94989000D01*
X152111500Y-94990000D01*
X152109500Y-94992000D01*
X152107500Y-94993000D01*
X152105500Y-94995000D01*
X152102500Y-94996000D01*
X152100500Y-94997000D01*
X152097500Y-94998000D01*
X152095500Y-94998000D01*
X152092500Y-94999000D01*
X152090500Y-94999000D01*
X152087500Y-95000000D01*
X152085500Y-95000000D01*
X152082500Y-95000000D01*
X151262500Y-95000000D01*
X151259500Y-95000000D01*
X151257500Y-95000000D01*
X151254500Y-94999000D01*
X151252500Y-94999000D01*
X151249500Y-94998000D01*
X151247500Y-94998000D01*
X151244500Y-94997000D01*
X151242500Y-94996000D01*
X151239500Y-94995000D01*
X151237500Y-94993000D01*
X151235500Y-94992000D01*
X151233500Y-94990000D01*
X151231500Y-94989000D01*
X151229500Y-94987000D01*
X151227500Y-94985000D01*
X151225500Y-94983000D01*
X151223500Y-94981000D01*
X151222500Y-94979000D01*
X151220500Y-94977000D01*
X151219500Y-94975000D01*
X151217500Y-94973000D01*
X151216500Y-94970000D01*
X151215500Y-94968000D01*
X151214500Y-94965000D01*
X151214500Y-94963000D01*
X151213500Y-94960000D01*
X151213500Y-94958000D01*
X151212500Y-94955000D01*
X151212500Y-94953000D01*
X151212500Y-94950000D01*
X151212500Y-94130000D01*
X151212500Y-94127000D01*
X151212500Y-94125000D01*
X151213500Y-94122000D01*
X151213500Y-94120000D01*
X151214500Y-94117000D01*
X151214500Y-94115000D01*
X151215500Y-94112000D01*
X151216500Y-94110000D01*
X151217500Y-94107000D01*
X151219500Y-94105000D01*
X151220500Y-94103000D01*
X151222500Y-94101000D01*
X151223500Y-94099000D01*
X151225500Y-94097000D01*
X151227500Y-94095000D01*
X151229500Y-94093000D01*
X151231500Y-94091000D01*
X151233500Y-94090000D01*
X151235500Y-94088000D01*
X151237500Y-94087000D01*
X151239500Y-94085000D01*
X151242500Y-94084000D01*
X151244500Y-94083000D01*
X151247500Y-94082000D01*
X151249500Y-94082000D01*
X151252500Y-94081000D01*
X151254500Y-94081000D01*
X151257500Y-94080000D01*
X151259500Y-94080000D01*
X151262500Y-94080000D01*
X152082500Y-94080000D01*
X152085500Y-94080000D01*
X152087500Y-94080000D01*
X152090500Y-94081000D01*
G36*
X152090500Y-94081000D02*
G01*
X152092500Y-94081000D01*
X152095500Y-94082000D01*
X152097500Y-94082000D01*
X152100500Y-94083000D01*
X152102500Y-94084000D01*
X152105500Y-94085000D01*
X152107500Y-94087000D01*
X152109500Y-94088000D01*
X152111500Y-94090000D01*
X152113500Y-94091000D01*
X152115500Y-94093000D01*
X152117500Y-94095000D01*
X152119500Y-94097000D01*
X152121500Y-94099000D01*
X152122500Y-94101000D01*
X152124500Y-94103000D01*
X152125500Y-94105000D01*
X152127500Y-94107000D01*
X152128500Y-94110000D01*
X152129500Y-94112000D01*
X152130500Y-94115000D01*
X152130500Y-94117000D01*
X152131500Y-94120000D01*
X152131500Y-94122000D01*
X152132500Y-94125000D01*
X152132500Y-94127000D01*
X152132500Y-94130000D01*
X152132500Y-94950000D01*
X152132500Y-94953000D01*
X152132500Y-94955000D01*
X152131500Y-94958000D01*
X152131500Y-94960000D01*
X152130500Y-94963000D01*
X152130500Y-94965000D01*
X152129500Y-94968000D01*
X152128500Y-94970000D01*
X152127500Y-94973000D01*
X152125500Y-94975000D01*
X152124500Y-94977000D01*
X152122500Y-94979000D01*
X152121500Y-94981000D01*
X152119500Y-94983000D01*
X152117500Y-94985000D01*
X152115500Y-94987000D01*
X152113500Y-94989000D01*
X152111500Y-94990000D01*
X152109500Y-94992000D01*
X152107500Y-94993000D01*
X152105500Y-94995000D01*
X152102500Y-94996000D01*
X152100500Y-94997000D01*
X152097500Y-94998000D01*
X152095500Y-94998000D01*
X152092500Y-94999000D01*
X152090500Y-94999000D01*
X152087500Y-95000000D01*
X152085500Y-95000000D01*
X152082500Y-95000000D01*
X151262500Y-95000000D01*
X151259500Y-95000000D01*
X151257500Y-95000000D01*
X151254500Y-94999000D01*
X151252500Y-94999000D01*
X151249500Y-94998000D01*
X151247500Y-94998000D01*
X151244500Y-94997000D01*
X151242500Y-94996000D01*
X151239500Y-94995000D01*
X151237500Y-94993000D01*
X151235500Y-94992000D01*
X151233500Y-94990000D01*
X151231500Y-94989000D01*
X151229500Y-94987000D01*
X151227500Y-94985000D01*
X151225500Y-94983000D01*
X151223500Y-94981000D01*
X151222500Y-94979000D01*
X151220500Y-94977000D01*
X151219500Y-94975000D01*
X151217500Y-94973000D01*
X151216500Y-94970000D01*
X151215500Y-94968000D01*
X151214500Y-94965000D01*
X151214500Y-94963000D01*
X151213500Y-94960000D01*
X151213500Y-94958000D01*
X151212500Y-94955000D01*
X151212500Y-94953000D01*
X151212500Y-94950000D01*
X151212500Y-94130000D01*
X151212500Y-94127000D01*
X151212500Y-94125000D01*
X151213500Y-94122000D01*
X151213500Y-94120000D01*
X151214500Y-94117000D01*
X151214500Y-94115000D01*
X151215500Y-94112000D01*
X151216500Y-94110000D01*
X151217500Y-94107000D01*
X151219500Y-94105000D01*
X151220500Y-94103000D01*
X151222500Y-94101000D01*
X151223500Y-94099000D01*
X151225500Y-94097000D01*
X151227500Y-94095000D01*
X151229500Y-94093000D01*
X151231500Y-94091000D01*
X151233500Y-94090000D01*
X151235500Y-94088000D01*
X151237500Y-94087000D01*
X151239500Y-94085000D01*
X151242500Y-94084000D01*
X151244500Y-94083000D01*
X151247500Y-94082000D01*
X151249500Y-94082000D01*
X151252500Y-94081000D01*
X151254500Y-94081000D01*
X151257500Y-94080000D01*
X151259500Y-94080000D01*
X151262500Y-94080000D01*
X152082500Y-94080000D01*
X152085500Y-94080000D01*
X152087500Y-94080000D01*
X152090500Y-94081000D01*
G37*
X152090500Y-95201000D02*
X152092500Y-95201000D01*
X152095500Y-95202000D01*
X152097500Y-95202000D01*
X152100500Y-95203000D01*
X152102500Y-95204000D01*
X152105500Y-95205000D01*
X152107500Y-95207000D01*
X152109500Y-95208000D01*
X152111500Y-95210000D01*
X152113500Y-95211000D01*
X152115500Y-95213000D01*
X152117500Y-95215000D01*
X152119500Y-95217000D01*
X152121500Y-95219000D01*
X152122500Y-95221000D01*
X152124500Y-95223000D01*
X152125500Y-95225000D01*
X152127500Y-95227000D01*
X152128500Y-95230000D01*
X152129500Y-95232000D01*
X152130500Y-95235000D01*
X152130500Y-95237000D01*
X152131500Y-95240000D01*
X152131500Y-95242000D01*
X152132500Y-95245000D01*
X152132500Y-95247000D01*
X152132500Y-95250000D01*
X152132500Y-96070000D01*
X152132500Y-96073000D01*
X152132500Y-96075000D01*
X152131500Y-96078000D01*
X152131500Y-96080000D01*
X152130500Y-96083000D01*
X152130500Y-96085000D01*
X152129500Y-96088000D01*
X152128500Y-96090000D01*
X152127500Y-96093000D01*
X152125500Y-96095000D01*
X152124500Y-96097000D01*
X152122500Y-96099000D01*
X152121500Y-96101000D01*
X152119500Y-96103000D01*
X152117500Y-96105000D01*
X152115500Y-96107000D01*
X152113500Y-96109000D01*
X152111500Y-96110000D01*
X152109500Y-96112000D01*
X152107500Y-96113000D01*
X152105500Y-96115000D01*
X152102500Y-96116000D01*
X152100500Y-96117000D01*
X152097500Y-96118000D01*
X152095500Y-96118000D01*
X152092500Y-96119000D01*
X152090500Y-96119000D01*
X152087500Y-96120000D01*
X152085500Y-96120000D01*
X152082500Y-96120000D01*
X151262500Y-96120000D01*
X151259500Y-96120000D01*
X151257500Y-96120000D01*
X151254500Y-96119000D01*
X151252500Y-96119000D01*
X151249500Y-96118000D01*
X151247500Y-96118000D01*
X151244500Y-96117000D01*
X151242500Y-96116000D01*
X151239500Y-96115000D01*
X151237500Y-96113000D01*
X151235500Y-96112000D01*
X151233500Y-96110000D01*
X151231500Y-96109000D01*
X151229500Y-96107000D01*
X151227500Y-96105000D01*
X151225500Y-96103000D01*
X151223500Y-96101000D01*
X151222500Y-96099000D01*
X151220500Y-96097000D01*
X151219500Y-96095000D01*
X151217500Y-96093000D01*
X151216500Y-96090000D01*
X151215500Y-96088000D01*
X151214500Y-96085000D01*
X151214500Y-96083000D01*
X151213500Y-96080000D01*
X151213500Y-96078000D01*
X151212500Y-96075000D01*
X151212500Y-96073000D01*
X151212500Y-96070000D01*
X151212500Y-95250000D01*
X151212500Y-95247000D01*
X151212500Y-95245000D01*
X151213500Y-95242000D01*
X151213500Y-95240000D01*
X151214500Y-95237000D01*
X151214500Y-95235000D01*
X151215500Y-95232000D01*
X151216500Y-95230000D01*
X151217500Y-95227000D01*
X151219500Y-95225000D01*
X151220500Y-95223000D01*
X151222500Y-95221000D01*
X151223500Y-95219000D01*
X151225500Y-95217000D01*
X151227500Y-95215000D01*
X151229500Y-95213000D01*
X151231500Y-95211000D01*
X151233500Y-95210000D01*
X151235500Y-95208000D01*
X151237500Y-95207000D01*
X151239500Y-95205000D01*
X151242500Y-95204000D01*
X151244500Y-95203000D01*
X151247500Y-95202000D01*
X151249500Y-95202000D01*
X151252500Y-95201000D01*
X151254500Y-95201000D01*
X151257500Y-95200000D01*
X151259500Y-95200000D01*
X151262500Y-95200000D01*
X152082500Y-95200000D01*
X152085500Y-95200000D01*
X152087500Y-95200000D01*
X152090500Y-95201000D01*
G36*
X152090500Y-95201000D02*
G01*
X152092500Y-95201000D01*
X152095500Y-95202000D01*
X152097500Y-95202000D01*
X152100500Y-95203000D01*
X152102500Y-95204000D01*
X152105500Y-95205000D01*
X152107500Y-95207000D01*
X152109500Y-95208000D01*
X152111500Y-95210000D01*
X152113500Y-95211000D01*
X152115500Y-95213000D01*
X152117500Y-95215000D01*
X152119500Y-95217000D01*
X152121500Y-95219000D01*
X152122500Y-95221000D01*
X152124500Y-95223000D01*
X152125500Y-95225000D01*
X152127500Y-95227000D01*
X152128500Y-95230000D01*
X152129500Y-95232000D01*
X152130500Y-95235000D01*
X152130500Y-95237000D01*
X152131500Y-95240000D01*
X152131500Y-95242000D01*
X152132500Y-95245000D01*
X152132500Y-95247000D01*
X152132500Y-95250000D01*
X152132500Y-96070000D01*
X152132500Y-96073000D01*
X152132500Y-96075000D01*
X152131500Y-96078000D01*
X152131500Y-96080000D01*
X152130500Y-96083000D01*
X152130500Y-96085000D01*
X152129500Y-96088000D01*
X152128500Y-96090000D01*
X152127500Y-96093000D01*
X152125500Y-96095000D01*
X152124500Y-96097000D01*
X152122500Y-96099000D01*
X152121500Y-96101000D01*
X152119500Y-96103000D01*
X152117500Y-96105000D01*
X152115500Y-96107000D01*
X152113500Y-96109000D01*
X152111500Y-96110000D01*
X152109500Y-96112000D01*
X152107500Y-96113000D01*
X152105500Y-96115000D01*
X152102500Y-96116000D01*
X152100500Y-96117000D01*
X152097500Y-96118000D01*
X152095500Y-96118000D01*
X152092500Y-96119000D01*
X152090500Y-96119000D01*
X152087500Y-96120000D01*
X152085500Y-96120000D01*
X152082500Y-96120000D01*
X151262500Y-96120000D01*
X151259500Y-96120000D01*
X151257500Y-96120000D01*
X151254500Y-96119000D01*
X151252500Y-96119000D01*
X151249500Y-96118000D01*
X151247500Y-96118000D01*
X151244500Y-96117000D01*
X151242500Y-96116000D01*
X151239500Y-96115000D01*
X151237500Y-96113000D01*
X151235500Y-96112000D01*
X151233500Y-96110000D01*
X151231500Y-96109000D01*
X151229500Y-96107000D01*
X151227500Y-96105000D01*
X151225500Y-96103000D01*
X151223500Y-96101000D01*
X151222500Y-96099000D01*
X151220500Y-96097000D01*
X151219500Y-96095000D01*
X151217500Y-96093000D01*
X151216500Y-96090000D01*
X151215500Y-96088000D01*
X151214500Y-96085000D01*
X151214500Y-96083000D01*
X151213500Y-96080000D01*
X151213500Y-96078000D01*
X151212500Y-96075000D01*
X151212500Y-96073000D01*
X151212500Y-96070000D01*
X151212500Y-95250000D01*
X151212500Y-95247000D01*
X151212500Y-95245000D01*
X151213500Y-95242000D01*
X151213500Y-95240000D01*
X151214500Y-95237000D01*
X151214500Y-95235000D01*
X151215500Y-95232000D01*
X151216500Y-95230000D01*
X151217500Y-95227000D01*
X151219500Y-95225000D01*
X151220500Y-95223000D01*
X151222500Y-95221000D01*
X151223500Y-95219000D01*
X151225500Y-95217000D01*
X151227500Y-95215000D01*
X151229500Y-95213000D01*
X151231500Y-95211000D01*
X151233500Y-95210000D01*
X151235500Y-95208000D01*
X151237500Y-95207000D01*
X151239500Y-95205000D01*
X151242500Y-95204000D01*
X151244500Y-95203000D01*
X151247500Y-95202000D01*
X151249500Y-95202000D01*
X151252500Y-95201000D01*
X151254500Y-95201000D01*
X151257500Y-95200000D01*
X151259500Y-95200000D01*
X151262500Y-95200000D01*
X152082500Y-95200000D01*
X152085500Y-95200000D01*
X152087500Y-95200000D01*
X152090500Y-95201000D01*
G37*
%TD*%
D11*
%TO.C,R36*%
X171700000Y-105100000D03*
X171700000Y-103450000D03*
%TD*%
D12*
%TO.C,C98*%
X153000000Y-90440000D03*
X153000000Y-91400000D03*
%TD*%
D13*
%TO.C,C54*%
X95325000Y-110580000D03*
X95325000Y-109620000D03*
%TD*%
D11*
%TO.C,R58*%
X199200000Y-118825000D03*
X199200000Y-117175000D03*
%TD*%
D14*
%TO.C,R46*%
X92450000Y-97200000D03*
X94100000Y-97200000D03*
%TD*%
D15*
%TO.C,R48*%
X177425000Y-70795000D03*
X177425000Y-72445000D03*
%TD*%
D16*
%TO.C,R14*%
X145600000Y-89225000D03*
X145600000Y-86300000D03*
%TD*%
D14*
%TO.C,R41*%
X129300000Y-101100000D03*
X130950000Y-101100000D03*
%TD*%
D17*
%TO.C,C3*%
X114245000Y-75600000D03*
X115205000Y-75600000D03*
%TD*%
D12*
%TO.C,C80*%
X208500000Y-120740000D03*
X208500000Y-121700000D03*
%TD*%
D18*
%TO.C,Q7*%
X174500000Y-104880000D03*
X174500000Y-106100000D03*
X175450000Y-104880000D03*
X175450000Y-106100000D03*
D19*
X176030000Y-104517500D03*
X176030000Y-105160000D03*
X176030000Y-105820000D03*
X176030000Y-106462500D03*
X173150000Y-104520000D03*
X173150000Y-105160000D03*
X173150000Y-105820000D03*
X173150000Y-106460000D03*
%TD*%
D20*
%TO.C,U11*%
X94375000Y-101162500D03*
X93425000Y-101162500D03*
X92475000Y-101162500D03*
X92475000Y-103437500D03*
X94375000Y-103437500D03*
%TD*%
D21*
%TO.C,D2*%
X86371339Y-92646676D03*
X83668137Y-94539479D03*
X86478661Y-98553324D03*
X89181863Y-96660521D03*
%TD*%
D14*
%TO.C,R71*%
X215800000Y-106200000D03*
X217450000Y-106200000D03*
%TD*%
D22*
%TO.C,C68*%
X132725000Y-82400000D03*
X132725000Y-84300000D03*
%TD*%
D23*
%TO.C,Q3*%
X179780000Y-93100000D03*
X181000000Y-93100000D03*
X179780000Y-92150000D03*
X181000000Y-92150000D03*
D24*
X179417500Y-91570000D03*
X180060000Y-91570000D03*
X180720000Y-91570000D03*
X181362500Y-91570000D03*
X179420000Y-94450000D03*
X180060000Y-94450000D03*
X180720000Y-94450000D03*
X181360000Y-94450000D03*
%TD*%
D25*
%TO.C,D4*%
X147175000Y-71350000D03*
X143875000Y-71350000D03*
X143875000Y-76250000D03*
X147175000Y-76250000D03*
%TD*%
D12*
%TO.C,C32*%
X147700000Y-87700000D03*
X147700000Y-88660000D03*
%TD*%
D11*
%TO.C,R29*%
X172500000Y-95650000D03*
X172500000Y-94000000D03*
%TD*%
D26*
%TO.C,C75*%
X176975000Y-68900000D03*
X178875000Y-68900000D03*
%TD*%
D12*
%TO.C,C33*%
X156000000Y-87000000D03*
X156000000Y-87960000D03*
%TD*%
D27*
%TO.C,L3*%
X134025000Y-93800000D03*
X134025000Y-86800000D03*
%TD*%
D17*
%TO.C,C78*%
X165545000Y-69800000D03*
X166505000Y-69800000D03*
%TD*%
D28*
%TO.C,U3*%
X152112500Y-93450000D03*
X151612500Y-93450000D03*
X151112500Y-93450000D03*
X150612500Y-93450000D03*
X150112500Y-93450000D03*
D29*
X149462500Y-94100000D03*
X149462500Y-94600000D03*
X149462500Y-95100000D03*
X149462500Y-95600000D03*
X149462500Y-96100000D03*
D28*
X150112500Y-96750000D03*
X150612500Y-96750000D03*
X151112500Y-96750000D03*
X151612500Y-96750000D03*
X152112500Y-96750000D03*
D29*
X152762500Y-96100000D03*
X152762500Y-95600000D03*
X152762500Y-95100000D03*
X152762500Y-94600000D03*
X152762500Y-94100000D03*
%TD*%
D30*
%TO.C,SW4*%
X116933604Y-75466893D03*
D31*
X125143974Y-73266931D03*
D30*
X117451242Y-77398745D03*
D31*
X125661612Y-75198783D03*
D32*
X121237549Y-78972397D03*
X123169400Y-78454759D03*
%TD*%
D15*
%TO.C,R23*%
X200700000Y-81700000D03*
X200700000Y-83350000D03*
%TD*%
D11*
%TO.C,R31*%
X174300000Y-95650000D03*
X174300000Y-94000000D03*
%TD*%
D17*
%TO.C,C29*%
X147900000Y-91700000D03*
X148860000Y-91700000D03*
%TD*%
D22*
%TO.C,C59*%
X127225000Y-81800000D03*
X127225000Y-83700000D03*
%TD*%
D25*
%TO.C,D6*%
X199225000Y-74150000D03*
X195925000Y-74150000D03*
X195925000Y-79050000D03*
X199225000Y-79050000D03*
%TD*%
D12*
%TO.C,C1*%
X118425000Y-104440000D03*
X118425000Y-105400000D03*
%TD*%
D33*
%TO.C,SW1*%
X203106590Y-111350335D03*
D34*
X195402974Y-107758080D03*
D33*
X203951826Y-109537720D03*
D34*
X196248210Y-105945465D03*
D35*
X202062872Y-105898441D03*
X200250256Y-105053204D03*
%TD*%
D22*
%TO.C,C53*%
X136915000Y-103350000D03*
X136915000Y-105250000D03*
%TD*%
D36*
%TO.C,U9*%
X168525000Y-69780000D03*
X168525000Y-72320000D03*
X174825000Y-72320000D03*
X174825000Y-69780000D03*
%TD*%
D37*
%TO.C,D30*%
X162000000Y-86900000D03*
X162000000Y-89700000D03*
%TD*%
D38*
%TO.C,R8*%
X159400000Y-87600000D03*
X157750000Y-87600000D03*
%TD*%
D39*
%TO.C,U8*%
X90325000Y-103100000D03*
X90325000Y-103600000D03*
X89825000Y-103100000D03*
X89825000Y-103600000D03*
%TD*%
D17*
%TO.C,C28*%
X154240000Y-93100000D03*
X155200000Y-93100000D03*
%TD*%
D40*
%TO.C,C46*%
X169575000Y-90300000D03*
X167675000Y-90300000D03*
%TD*%
D41*
%TO.C,D31*%
X155700000Y-100800000D03*
X158500000Y-100800000D03*
%TD*%
D42*
%TO.C,C66*%
X131400000Y-99600000D03*
X130440000Y-99600000D03*
%TD*%
D43*
%TO.C,Q8*%
X159975000Y-84900000D03*
X161875000Y-84900000D03*
X160925000Y-83025000D03*
%TD*%
D12*
%TO.C,C43*%
X167400000Y-106040000D03*
X167400000Y-107000000D03*
%TD*%
D40*
%TO.C,C50*%
X131275000Y-96900000D03*
X129375000Y-96900000D03*
%TD*%
D44*
%TO.C,D1*%
X120825000Y-104500000D03*
X120825000Y-107800000D03*
X125725000Y-107800000D03*
X125725000Y-104500000D03*
%TD*%
D38*
%TO.C,R13*%
X149400000Y-86400000D03*
X147750000Y-86400000D03*
%TD*%
D25*
%TO.C,D5*%
X156300000Y-78200000D03*
X153000000Y-78200000D03*
X153000000Y-83100000D03*
X156300000Y-83100000D03*
%TD*%
D14*
%TO.C,R60*%
X154600000Y-76300000D03*
X156250000Y-76300000D03*
%TD*%
D45*
%TO.C,D33*%
X112975000Y-101300000D03*
X114375000Y-101300000D03*
%TD*%
D26*
%TO.C,C70*%
X163700000Y-106900000D03*
X165600000Y-106900000D03*
%TD*%
D17*
%TO.C,C94*%
X208945000Y-108600000D03*
X209905000Y-108600000D03*
%TD*%
D22*
%TO.C,C57*%
X130895000Y-103350000D03*
X130895000Y-105250000D03*
%TD*%
%TO.C,C92*%
X212625000Y-109400000D03*
X212625000Y-111300000D03*
%TD*%
D46*
%TO.C,U5*%
X172350000Y-98455000D03*
X170900000Y-98455000D03*
X172350000Y-99905000D03*
X170900000Y-99905000D03*
D47*
X173025000Y-97180000D03*
X172625000Y-97180000D03*
X172225000Y-97180000D03*
X171825000Y-97180000D03*
X171425000Y-97180000D03*
X171025000Y-97180000D03*
X170625000Y-97180000D03*
X170225000Y-97180000D03*
D48*
X169625000Y-97780000D03*
X169625000Y-98180000D03*
X169625000Y-98580000D03*
X169625000Y-98980000D03*
X169625000Y-99380000D03*
X169625000Y-99780000D03*
X169625000Y-100180000D03*
X169625000Y-100580000D03*
D47*
X170225000Y-101180000D03*
X170625000Y-101180000D03*
X171025000Y-101180000D03*
X171425000Y-101180000D03*
X171825000Y-101180000D03*
X172225000Y-101180000D03*
X172625000Y-101180000D03*
X173025000Y-101180000D03*
D48*
X173625000Y-100580000D03*
X173625000Y-100180000D03*
X173625000Y-99780000D03*
X173625000Y-99380000D03*
X173625000Y-98980000D03*
X173625000Y-98580000D03*
X173625000Y-98180000D03*
X173625000Y-97780000D03*
%TD*%
D11*
%TO.C,R15*%
X165400000Y-96970000D03*
X165400000Y-95320000D03*
%TD*%
D49*
%TO.C,U7*%
X197600000Y-100080000D03*
X197600000Y-98810000D03*
X197600000Y-97540000D03*
X197600000Y-96270000D03*
X197600000Y-95000000D03*
X197600000Y-93730000D03*
X197600000Y-92460000D03*
X197600000Y-91190000D03*
X197600000Y-89920000D03*
X197600000Y-88650000D03*
X197600000Y-87380000D03*
X197600000Y-86110000D03*
X197600000Y-84840000D03*
X197600000Y-83570000D03*
X188300000Y-83570000D03*
X188300000Y-84840000D03*
X188300000Y-86110000D03*
X188300000Y-87380000D03*
X188300000Y-88650000D03*
X188300000Y-89920000D03*
X188300000Y-91190000D03*
X188300000Y-92460000D03*
X188300000Y-93730000D03*
X188300000Y-95000000D03*
X188300000Y-96270000D03*
X188300000Y-97540000D03*
X188300000Y-98810000D03*
X188300000Y-100080000D03*
%TD*%
D50*
%TO.C,J1*%
X108950562Y-107976382D03*
X109675608Y-107638287D03*
D51*
X110717862Y-107152276D03*
X111624170Y-106729658D03*
X112077324Y-106518349D03*
X112983632Y-106095731D03*
D50*
X114025886Y-105609720D03*
X114750932Y-105271625D03*
X114750932Y-105271625D03*
X114025886Y-105609720D03*
D51*
X113436786Y-105884422D03*
X112530478Y-106307040D03*
X111171016Y-106940967D03*
X110264708Y-107363585D03*
D50*
X109675608Y-107638287D03*
X108950562Y-107976382D03*
%TD*%
D15*
%TO.C,R34*%
X171600000Y-88900000D03*
X171600000Y-90550000D03*
%TD*%
D22*
%TO.C,C91*%
X211525000Y-113650000D03*
X211525000Y-115550000D03*
%TD*%
D40*
%TO.C,C44*%
X165600000Y-104600000D03*
X163700000Y-104600000D03*
%TD*%
D12*
%TO.C,C26*%
X151400000Y-86240000D03*
X151400000Y-87200000D03*
%TD*%
D38*
%TO.C,R18*%
X162350000Y-92800000D03*
X160700000Y-92800000D03*
%TD*%
D52*
%TO.C,Q10*%
X118610000Y-86900000D03*
X118610000Y-85000000D03*
X115990000Y-85950000D03*
%TD*%
D42*
%TO.C,C62*%
X168200000Y-97300000D03*
X167240000Y-97300000D03*
%TD*%
D40*
%TO.C,C34*%
X163600000Y-94900000D03*
X161700000Y-94900000D03*
%TD*%
D15*
%TO.C,R70*%
X214800000Y-97255000D03*
X214800000Y-98905000D03*
%TD*%
D22*
%TO.C,C51*%
X139675000Y-103300000D03*
X139675000Y-105200000D03*
%TD*%
D38*
%TO.C,R43*%
X171150000Y-107300000D03*
X169500000Y-107300000D03*
%TD*%
D11*
%TO.C,R19*%
X146200000Y-92850000D03*
X146200000Y-91200000D03*
%TD*%
D22*
%TO.C,C56*%
X133905000Y-103350000D03*
X133905000Y-105250000D03*
%TD*%
D12*
%TO.C,C5*%
X158500000Y-79100000D03*
X158500000Y-80060000D03*
%TD*%
D22*
%TO.C,C73*%
X95300000Y-105400000D03*
X95300000Y-107300000D03*
%TD*%
D38*
%TO.C,R17*%
X165420000Y-92800000D03*
X163770000Y-92800000D03*
%TD*%
D11*
%TO.C,R27*%
X177100000Y-97150000D03*
X177100000Y-95500000D03*
%TD*%
D53*
%TO.C,L1*%
X179800000Y-97800000D03*
X179800000Y-100800000D03*
%TD*%
D22*
%TO.C,C35*%
X158900000Y-90600000D03*
X158900000Y-92500000D03*
%TD*%
D12*
%TO.C,C76*%
X182225000Y-74440000D03*
X182225000Y-75400000D03*
%TD*%
D18*
%TO.C,Q5*%
X184200000Y-100900000D03*
X184200000Y-102120000D03*
X185150000Y-100900000D03*
X185150000Y-102120000D03*
D19*
X185730000Y-100537500D03*
X185730000Y-101180000D03*
X185730000Y-101840000D03*
X185730000Y-102482500D03*
X182850000Y-100540000D03*
X182850000Y-101180000D03*
X182850000Y-101840000D03*
X182850000Y-102480000D03*
%TD*%
D15*
%TO.C,R4*%
X153400000Y-86550000D03*
X153400000Y-88200000D03*
%TD*%
D42*
%TO.C,C85*%
X213900000Y-100400000D03*
X212940000Y-100400000D03*
%TD*%
D22*
%TO.C,C60*%
X123725000Y-81900000D03*
X123725000Y-83800000D03*
%TD*%
%TO.C,C69*%
X89825000Y-99100000D03*
X89825000Y-101000000D03*
%TD*%
D54*
%TO.C,L4*%
X200625000Y-100900000D03*
X205625000Y-100900000D03*
%TD*%
D55*
%TO.C,LS1*%
X203145835Y-86273909D03*
X214404165Y-92773909D03*
X207445835Y-78826091D03*
X218704165Y-85326091D03*
%TD*%
D25*
%TO.C,D7*%
X220925000Y-94150000D03*
X217625000Y-94150000D03*
X217625000Y-99050000D03*
X220925000Y-99050000D03*
%TD*%
D22*
%TO.C,C90*%
X209425000Y-113650000D03*
X209425000Y-115550000D03*
%TD*%
D42*
%TO.C,C40*%
X174200000Y-91500000D03*
X173240000Y-91500000D03*
%TD*%
D13*
%TO.C,C86*%
X211325000Y-101800000D03*
X211325000Y-100840000D03*
%TD*%
D15*
%TO.C,R32*%
X168500000Y-102950000D03*
X168500000Y-104600000D03*
%TD*%
D14*
%TO.C,R24*%
X146250000Y-94300000D03*
X147900000Y-94300000D03*
%TD*%
D38*
%TO.C,R2*%
X158500000Y-94500000D03*
X156850000Y-94500000D03*
%TD*%
%TO.C,R35*%
X167050000Y-98800000D03*
X165400000Y-98800000D03*
%TD*%
D42*
%TO.C,C61*%
X123260000Y-99600000D03*
X122300000Y-99600000D03*
%TD*%
D56*
%TO.C,U12*%
X178425000Y-76800000D03*
X178425000Y-78070000D03*
X178425000Y-79340000D03*
X178425000Y-80610000D03*
X178425000Y-81880000D03*
X178425000Y-83150000D03*
X178425000Y-84420000D03*
X178425000Y-85690000D03*
X183375000Y-85690000D03*
X183375000Y-84420000D03*
X183375000Y-83150000D03*
X183375000Y-81880000D03*
X183375000Y-80610000D03*
X183375000Y-79340000D03*
X183375000Y-78070000D03*
X183375000Y-76800000D03*
%TD*%
D57*
%TO.C,SW3*%
X184576234Y-73386193D03*
D58*
X192786604Y-75586155D03*
D57*
X184058596Y-75318045D03*
D58*
X192268966Y-77518007D03*
D59*
X186550808Y-78574021D03*
X188482659Y-79091659D03*
%TD*%
D60*
%TO.C,U15*%
X156675000Y-73050000D03*
X152475000Y-73050000D03*
%TD*%
D11*
%TO.C,R26*%
X146000000Y-99100000D03*
X146000000Y-97450000D03*
%TD*%
D15*
%TO.C,R47*%
X96000000Y-101600000D03*
X96000000Y-103250000D03*
%TD*%
D14*
%TO.C,R28*%
X145925000Y-100575000D03*
X147575000Y-100575000D03*
%TD*%
D12*
%TO.C,C45*%
X194425000Y-105320000D03*
X194425000Y-106280000D03*
%TD*%
D20*
%TO.C,U4*%
X126625000Y-96900000D03*
X125675000Y-96900000D03*
X124725000Y-96900000D03*
X124725000Y-99175000D03*
X125675000Y-99175000D03*
X126625000Y-99175000D03*
%TD*%
D15*
%TO.C,R3*%
X154500000Y-90000000D03*
X154500000Y-91650000D03*
%TD*%
D12*
%TO.C,C52*%
X177000000Y-99140000D03*
X177000000Y-100100000D03*
%TD*%
D11*
%TO.C,R21*%
X168900000Y-94550000D03*
X168900000Y-92900000D03*
%TD*%
D14*
%TO.C,R44*%
X97400000Y-106600000D03*
X99050000Y-106600000D03*
%TD*%
D56*
%TO.C,U10*%
X170375000Y-76850000D03*
X170375000Y-78120000D03*
X170375000Y-79390000D03*
X170375000Y-80660000D03*
X170375000Y-81930000D03*
X170375000Y-83200000D03*
X170375000Y-84470000D03*
X170375000Y-85740000D03*
X175325000Y-85740000D03*
X175325000Y-84470000D03*
X175325000Y-83200000D03*
X175325000Y-81930000D03*
X175325000Y-80660000D03*
X175325000Y-79390000D03*
X175325000Y-78120000D03*
X175325000Y-76850000D03*
%TD*%
D15*
%TO.C,R69*%
X216405000Y-100825000D03*
X216405000Y-102475000D03*
%TD*%
D61*
%TO.C,SW2*%
X104380608Y-111241025D03*
D62*
X97019392Y-115491025D03*
D61*
X103380608Y-109508975D03*
D62*
X96019392Y-113758975D03*
D63*
X99316025Y-108968911D03*
X97583975Y-109968911D03*
%TD*%
D14*
%TO.C,R45*%
X91750000Y-99100000D03*
X93400000Y-99100000D03*
%TD*%
D64*
%TO.C,U1*%
X100240804Y-91999463D03*
D65*
X100940804Y-93211898D03*
D64*
X101640804Y-94424334D03*
D65*
X101453240Y-91299463D03*
X102153240Y-92511898D03*
X102853240Y-93724334D03*
X102665675Y-90599463D03*
X103365675Y-91811898D03*
X104065675Y-93024334D03*
D66*
X92014556Y-89451182D03*
X92649556Y-90551035D03*
X93284556Y-91650887D03*
X93919556Y-92750739D03*
X94554556Y-93850591D03*
X95189556Y-94950444D03*
X95824556Y-96050296D03*
X96459556Y-97150148D03*
X97094556Y-98250000D03*
X97729556Y-99349853D03*
X98364556Y-100449705D03*
X98999556Y-101549557D03*
X99634556Y-102649410D03*
D67*
X100269556Y-103749262D03*
D68*
X102423091Y-103949294D03*
X103522943Y-103314294D03*
X104622795Y-102679294D03*
X105722646Y-102044294D03*
X106822500Y-101409294D03*
X107922352Y-100774294D03*
X109022204Y-100139294D03*
X110122056Y-99504294D03*
X111221909Y-98869294D03*
X112321761Y-98234294D03*
X113421613Y-97599294D03*
X114521465Y-96964294D03*
D66*
X115425000Y-94999262D03*
X114790000Y-93899410D03*
X114155000Y-92799557D03*
X113520000Y-91699705D03*
X112885000Y-90599853D03*
X112250000Y-89500000D03*
X111615000Y-88400148D03*
X110980000Y-87300296D03*
X110345000Y-86200444D03*
X109710000Y-85100591D03*
X109075000Y-84000739D03*
X108440000Y-82900887D03*
X107805000Y-81801035D03*
X107170000Y-80701182D03*
%TD*%
D40*
%TO.C,C88*%
X207375000Y-106200000D03*
X205475000Y-106200000D03*
%TD*%
D11*
%TO.C,R30*%
X184400000Y-93300000D03*
X184400000Y-91650000D03*
%TD*%
D22*
%TO.C,C81*%
X198700000Y-113700000D03*
X198700000Y-115600000D03*
%TD*%
D14*
%TO.C,R16*%
X147700000Y-90100000D03*
X149350000Y-90100000D03*
%TD*%
D38*
%TO.C,R25*%
X167050000Y-100550000D03*
X165400000Y-100550000D03*
%TD*%
D22*
%TO.C,C79*%
X209525000Y-117450000D03*
X209525000Y-119350000D03*
%TD*%
D69*
%TO.C,J4*%
X199870200Y-124800000D03*
X187070200Y-119300000D03*
X173370200Y-115400000D03*
X159370200Y-113700000D03*
X145570200Y-114300000D03*
X131270200Y-116400000D03*
%TD*%
D11*
%TO.C,R9*%
X151400000Y-100500000D03*
X151400000Y-98850000D03*
%TD*%
D38*
%TO.C,R61*%
X161600000Y-81200000D03*
X159950000Y-81200000D03*
%TD*%
D40*
%TO.C,C49*%
X122825000Y-96500000D03*
X120925000Y-96500000D03*
%TD*%
D17*
%TO.C,C67*%
X169300000Y-108700000D03*
X170260000Y-108700000D03*
%TD*%
D70*
%TO.C,U2*%
X107153974Y-111839896D03*
X106331250Y-112314896D03*
X105508526Y-112789896D03*
X106646026Y-114760104D03*
X108291474Y-113810104D03*
%TD*%
D13*
%TO.C,C96*%
X90125000Y-90480000D03*
X90125000Y-89520000D03*
%TD*%
D11*
%TO.C,R37*%
X170100000Y-105100000D03*
X170100000Y-103450000D03*
%TD*%
D22*
%TO.C,C71*%
X135925000Y-82400000D03*
X135925000Y-84300000D03*
%TD*%
D71*
%TO.C,MKTD4015BPN1*%
X205316000Y-118100000D03*
D72*
X204173000Y-118100000D03*
%TD*%
D38*
%TO.C,R1*%
X158500000Y-96300000D03*
X156850000Y-96300000D03*
%TD*%
D73*
%TO.C,D3*%
X114184671Y-77406430D03*
X110997116Y-78260533D03*
X112265329Y-82993570D03*
X115452884Y-82139467D03*
%TD*%
D74*
%TO.C,C36*%
X174800000Y-89700000D03*
X174800000Y-87800000D03*
%TD*%
D27*
%TO.C,L2*%
X125625000Y-93700000D03*
X125625000Y-86700000D03*
%TD*%
D42*
%TO.C,C42*%
X166400000Y-102700000D03*
X165440000Y-102700000D03*
%TD*%
D18*
%TO.C,Q1*%
X143115000Y-93710000D03*
X143115000Y-92490000D03*
X142165000Y-93710000D03*
X142165000Y-92490000D03*
D75*
X141585000Y-94072500D03*
X141585000Y-93430000D03*
X141585000Y-92770000D03*
X141585000Y-92127500D03*
X144465000Y-94070000D03*
X144465000Y-93430000D03*
X144465000Y-92770000D03*
X144465000Y-92130000D03*
%TD*%
D23*
%TO.C,Q6*%
X180220000Y-106300000D03*
X179000000Y-106300000D03*
X180220000Y-107250000D03*
X179000000Y-107250000D03*
D76*
X180582500Y-107830000D03*
X179940000Y-107830000D03*
X179280000Y-107830000D03*
X178637500Y-107830000D03*
X180580000Y-104950000D03*
X179940000Y-104950000D03*
X179280000Y-104950000D03*
X178640000Y-104950000D03*
%TD*%
D11*
%TO.C,R22*%
X203600000Y-83350000D03*
X203600000Y-81700000D03*
%TD*%
D15*
%TO.C,R6*%
X151300000Y-89600000D03*
X151300000Y-91250000D03*
%TD*%
D77*
%TO.C,D32*%
X110800000Y-102550000D03*
X109400000Y-102550000D03*
%TD*%
D13*
%TO.C,C7*%
X219500000Y-90500000D03*
X219500000Y-89540000D03*
%TD*%
D12*
%TO.C,C6*%
X201125000Y-74240000D03*
X201125000Y-75200000D03*
%TD*%
D14*
%TO.C,R42*%
X133250000Y-101100000D03*
X134900000Y-101100000D03*
%TD*%
D22*
%TO.C,C93*%
X214725000Y-109450000D03*
X214725000Y-111350000D03*
%TD*%
D13*
%TO.C,C55*%
X175700000Y-102960000D03*
X175700000Y-102000000D03*
%TD*%
D74*
%TO.C,C41*%
X182000000Y-89700000D03*
X182000000Y-87800000D03*
%TD*%
D43*
%TO.C,Q9*%
X165000000Y-84200000D03*
X166900000Y-84200000D03*
X165950000Y-82325000D03*
%TD*%
D11*
%TO.C,R40*%
X167200000Y-94550000D03*
X167200000Y-92900000D03*
%TD*%
D38*
%TO.C,R5*%
X114100000Y-103200000D03*
X112450000Y-103200000D03*
%TD*%
D42*
%TO.C,C39*%
X163760000Y-100600000D03*
X162800000Y-100600000D03*
%TD*%
D11*
%TO.C,R49*%
X206300000Y-122725000D03*
X206300000Y-121075000D03*
%TD*%
D12*
%TO.C,C74*%
X97300000Y-102000000D03*
X97300000Y-102960000D03*
%TD*%
D74*
%TO.C,C83*%
X197100000Y-119400000D03*
X197100000Y-117500000D03*
%TD*%
D14*
%TO.C,R50*%
X149550000Y-76300000D03*
X151200000Y-76300000D03*
%TD*%
D17*
%TO.C,C87*%
X216300000Y-104300000D03*
X217260000Y-104300000D03*
%TD*%
D14*
%TO.C,R51*%
X158020000Y-76250000D03*
X159670000Y-76250000D03*
%TD*%
D12*
%TO.C,C72*%
X175825000Y-74440000D03*
X175825000Y-75400000D03*
%TD*%
D78*
%TO.C,J3*%
X225836232Y-93161292D03*
X224589914Y-89187844D03*
X228750000Y-89000000D03*
%TD*%
D12*
%TO.C,C4*%
X149000000Y-71520000D03*
X149000000Y-72480000D03*
%TD*%
D79*
%TO.C,ES1*%
X212625000Y-104600000D03*
X211425000Y-104600000D03*
X212625000Y-105800000D03*
X211425000Y-105800000D03*
D80*
X213375000Y-103250000D03*
D81*
X212925000Y-103250000D03*
X212475000Y-103250000D03*
X212025000Y-103250000D03*
X211575000Y-103250000D03*
X211125000Y-103250000D03*
D82*
X210675000Y-103250000D03*
D83*
X210075000Y-103850000D03*
D84*
X210075000Y-104300000D03*
X210075000Y-104750000D03*
X210075000Y-105200000D03*
X210075000Y-105650000D03*
X210075000Y-106100000D03*
D85*
X210075000Y-106550000D03*
D86*
X210675000Y-107150000D03*
D81*
X211125000Y-107150000D03*
X211575000Y-107150000D03*
X212025000Y-107150000D03*
X212475000Y-107150000D03*
X212925000Y-107150000D03*
D87*
X213375000Y-107150000D03*
D88*
X213975000Y-106550000D03*
D84*
X213975000Y-106100000D03*
X213975000Y-105650000D03*
X213975000Y-105200000D03*
X213975000Y-104750000D03*
X213975000Y-104300000D03*
D89*
X213975000Y-103850000D03*
%TD*%
D12*
%TO.C,C31*%
X149400000Y-87900000D03*
X149400000Y-88860000D03*
%TD*%
D11*
%TO.C,R59*%
X200800000Y-118825000D03*
X200800000Y-117175000D03*
%TD*%
D14*
%TO.C,R7*%
X107200000Y-105400000D03*
X108850000Y-105400000D03*
%TD*%
D22*
%TO.C,C97*%
X90725000Y-91750000D03*
X90725000Y-93650000D03*
%TD*%
D15*
%TO.C,R20*%
X170600000Y-92900000D03*
X170600000Y-94550000D03*
%TD*%
D14*
%TO.C,R39*%
X125450000Y-101000000D03*
X127100000Y-101000000D03*
%TD*%
D74*
%TO.C,C47*%
X176100000Y-93700000D03*
X176100000Y-91800000D03*
%TD*%
D12*
%TO.C,C27*%
X154400000Y-94840000D03*
X154400000Y-95800000D03*
%TD*%
D42*
%TO.C,C63*%
X168385000Y-96050000D03*
X167425000Y-96050000D03*
%TD*%
D13*
%TO.C,C58*%
X128025000Y-98460000D03*
X128025000Y-97500000D03*
%TD*%
D38*
%TO.C,TH1*%
X147600000Y-95900000D03*
X145950000Y-95900000D03*
%TD*%
D74*
%TO.C,C38*%
X179600000Y-89700000D03*
X179600000Y-87800000D03*
%TD*%
D26*
%TO.C,C64*%
X161700000Y-97400000D03*
X163600000Y-97400000D03*
%TD*%
%TO.C,C30*%
X156500000Y-98300000D03*
X158400000Y-98300000D03*
%TD*%
D74*
%TO.C,C95*%
X207325000Y-111600000D03*
X207325000Y-109700000D03*
%TD*%
D18*
%TO.C,Q2*%
X143125000Y-97800000D03*
X143125000Y-96580000D03*
X142175000Y-97800000D03*
X142175000Y-96580000D03*
D75*
X141595000Y-98162500D03*
X141595000Y-97520000D03*
X141595000Y-96860000D03*
X141595000Y-96217500D03*
X144475000Y-98160000D03*
X144475000Y-97520000D03*
X144475000Y-96860000D03*
X144475000Y-96220000D03*
%TD*%
D13*
%TO.C,C82*%
X201300000Y-114600000D03*
X201300000Y-113640000D03*
%TD*%
D74*
%TO.C,C84*%
X209100000Y-101350000D03*
X209100000Y-99450000D03*
%TD*%
D11*
%TO.C,R33*%
X194425000Y-103900000D03*
X194425000Y-102250000D03*
%TD*%
D42*
%TO.C,C48*%
X173280000Y-92600000D03*
X172320000Y-92600000D03*
%TD*%
D13*
%TO.C,C65*%
X136425000Y-98560000D03*
X136425000Y-97600000D03*
%TD*%
D74*
%TO.C,C37*%
X177300000Y-89700000D03*
X177300000Y-87800000D03*
%TD*%
D14*
%TO.C,R38*%
X122350000Y-101000000D03*
X124000000Y-101000000D03*
%TD*%
D20*
%TO.C,U6*%
X134875000Y-96962500D03*
X133925000Y-96962500D03*
X132975000Y-96962500D03*
X132975000Y-99237500D03*
X133925000Y-99237500D03*
X134875000Y-99237500D03*
%TD*%
D42*
%TO.C,C89*%
X207705000Y-104500000D03*
X206745000Y-104500000D03*
%TD*%
D18*
%TO.C,Q4*%
X184025000Y-96590000D03*
X184025000Y-97810000D03*
X184975000Y-96590000D03*
X184975000Y-97810000D03*
D19*
X185555000Y-96227500D03*
X185555000Y-96870000D03*
X185555000Y-97530000D03*
X185555000Y-98172500D03*
X182675000Y-96230000D03*
X182675000Y-96870000D03*
X182675000Y-97530000D03*
X182675000Y-98170000D03*
%TD*%
D90*
%TO.C,C2*%
X87631807Y-91175317D03*
X88418193Y-90624683D03*
%TD*%
D91*
%TO.C,U14*%
X163675000Y-67975000D03*
X163175000Y-67975000D03*
X162675000Y-67975000D03*
X162175000Y-67975000D03*
D92*
X162012500Y-68637500D03*
X162012500Y-69137500D03*
X162012500Y-69637500D03*
D91*
X162175000Y-70300000D03*
X162675000Y-70300000D03*
X163175000Y-70300000D03*
X163675000Y-70300000D03*
D92*
X163837500Y-69637500D03*
X163837500Y-69137500D03*
X163837500Y-68637500D03*
%TD*%
D93*
%TO.C,D34*%
X116300000Y-102400000D03*
X116300000Y-99600000D03*
%TD*%
M02*
