M48
; DRILL file KiCad 10.0.0 date 2026-04-04T18:49:32
; FORMAT={-:-/ absolute / metric / decimal}
; #@! TF.CreationDate,2026-04-04T18:49:32+02:00
; #@! TF.GenerationSoftware,Kicad,Pcbnew,10.0.0
; #@! TF.FileFunction,Plated,1,4,PTH
FMAT,2
METRIC
; #@! TA.AperFunction,Plated,PTH,ViaDrill
T1C0.300
; #@! TA.AperFunction,Plated,PTH,ComponentDrill
T2C0.300
; #@! TA.AperFunction,Plated,PTH,ComponentDrill
T3C0.500
; #@! TA.AperFunction,Plated,PTH,ComponentDrill
T4C0.600
; #@! TA.AperFunction,Plated,PTH,ComponentDrill
T5C1.100
; #@! TA.AperFunction,Plated,PTH,ComponentDrill
T6C3.000
%
G90
G05
T1
X84.5Y-94.0
X85.5Y-96.75
X88.115Y-91.965
X88.5Y-98.0
X88.673Y-102.226
X90.25Y-95.75
X90.5Y-106.0
X91.5Y-98.0
X92.25Y-96.64
X92.5Y-94.5
X92.75Y-97.5
X93.75Y-97.75
X94.324Y-99.653
X95.0Y-89.25
X95.15Y-98.646
X95.5Y-99.5
X96.0Y-91.5
X96.5Y-100.25
X97.25Y-88.0
X98.9Y-104.155
X98.9Y-106.041
X98.905Y-85.905
X99.25Y-98.5
X99.5Y-108.0
X99.506Y-86.506
X101.0Y-100.75
X101.25Y-106.5
X101.25Y-109.75
X101.5Y-115.25
X102.25Y-99.0
X102.75Y-112.5
X103.25Y-108.75
X103.5Y-105.5
X104.158Y-89.577
X104.919Y-107.847
X105.5Y-82.5
X105.75Y-109.0
X105.796Y-93.785
X105.955Y-87.852
X106.139Y-99.79
X106.5Y-103.5
X106.75Y-98.5
X106.791Y-86.1
X107.75Y-104.5
X108.0Y-98.25
X108.75Y-113.5
X109.25Y-88.75
X109.535Y-106.387
X109.75Y-92.25
X110.0Y-97.15
X110.0Y-104.5
X110.175Y-88.45
X110.5Y-101.0
X111.25Y-80.5
X111.5Y-84.75
X111.769Y-85.556
X112.076Y-108.55
X112.251Y-101.31
X113.405Y-79.155
X113.497Y-108.587
X113.585Y-99.75
X113.585Y-104.665
X114.5Y-100.5
X115.0Y-87.0
X115.5Y-103.25
X115.75Y-77.0
X115.835Y-87.55
X116.0Y-83.75
X117.0Y-86.75
X117.702Y-98.7
X118.225Y-91.277
X119.373Y-95.85
X119.399Y-87.65
X121.5Y-73.0
X122.0Y-83.65
X122.0Y-98.5
X122.25Y-108.25
X122.75Y-95.25
X123.147Y-74.323
X123.75Y-98.5
X125.67Y-78.0
X126.0Y-101.0
X127.0Y-71.25
X127.158Y-74.19
X127.5Y-109.25
X128.0Y-95.25
X128.011Y-106.55
X128.25Y-80.5
X129.0Y-99.75
X129.75Y-95.25
X130.0Y-85.5
X130.0Y-110.0
X130.645Y-76.4
X131.0Y-87.5
X131.041Y-84.1
X131.582Y-93.7
X132.02Y-73.561
X132.75Y-89.75
X132.75Y-110.25
X133.25Y-70.0
X134.5Y-89.75
X134.75Y-80.25
X135.25Y-110.5
X135.768Y-95.784
X136.75Y-109.75
X137.25Y-79.25
X137.435Y-91.0
X137.435Y-93.85
X137.455Y-99.098
X137.75Y-100.0
X138.0Y-82.5
X138.5Y-93.0
X138.5Y-110.25
X138.547Y-80.672
X139.5Y-85.5
X139.75Y-94.5
X140.75Y-80.25
X141.0Y-69.25
X141.0Y-116.5
X142.0Y-109.75
X142.75Y-81.75
X142.75Y-99.75
X142.75Y-106.75
X144.0Y-69.25
X144.0Y-85.0
X144.041Y-81.4
X145.0Y-109.25
X145.25Y-92.75
X145.272Y-96.56
X145.369Y-99.648
X146.002Y-94.79
X146.25Y-97.0
X146.5Y-87.1
X147.0Y-93.0
X147.25Y-78.25
X147.978Y-92.76
X148.459Y-93.506
X148.75Y-109.75
X149.089Y-73.504
X149.415Y-87.85
X149.475Y-90.576
X149.715Y-76.375
X149.75Y-79.25
X149.812Y-100.3
X151.049Y-97.937
X151.112Y-95.1
X151.25Y-112.5
X151.5Y-79.0
X151.5Y-82.5
X151.666Y-102.2
X151.702Y-80.786
X153.169Y-76.4
X154.0Y-74.185
X154.0Y-90.15
X154.0Y-108.25
X155.103Y-102.129
X155.14Y-74.35
X156.748Y-93.417
X156.769Y-84.15
X157.158Y-85.383
X157.441Y-91.1
X157.5Y-95.75
X157.5Y-97.5
X157.578Y-74.932
X158.25Y-82.5
X158.25Y-94.25
X158.326Y-73.312
X158.944Y-87.538
X159.097Y-82.1
X159.247Y-80.4
X159.854Y-75.1
X161.2Y-82.4
X161.6Y-89.679
X161.75Y-66.75
X162.0Y-90.75
X162.853Y-98.716
X162.875Y-69.362
X163.551Y-87.997
X164.349Y-82.205
X164.842Y-98.866
X166.051Y-83.367
X166.25Y-68.5
X166.5Y-75.288
X166.675Y-92.75
X166.75Y-94.75
X167.5Y-67.5
X167.5Y-94.025
X167.862Y-113.098
X167.959Y-76.013
X168.22Y-78.12
X168.25Y-79.658
X168.414Y-100.129
X168.75Y-93.0
X169.0Y-82.0
X169.215Y-90.466
X169.304Y-91.311
X169.5Y-75.0
X169.95Y-94.046
X170.341Y-102.441
X170.75Y-74.6
X171.299Y-73.95
X171.75Y-76.0
X171.75Y-108.25
X171.809Y-94.11
X172.148Y-82.518
X172.241Y-87.646
X172.25Y-103.5
X172.52Y-90.74
X172.697Y-94.181
X172.75Y-70.75
X172.75Y-81.65
X172.985Y-82.37
X173.5Y-78.75
X173.525Y-77.525
X173.612Y-92.75
X173.75Y-82.0
X173.75Y-102.25
X174.512Y-97.704
X175.249Y-96.495
X175.5Y-87.85
X175.5Y-91.25
X175.915Y-95.165
X176.085Y-101.58
X176.25Y-72.75
X176.25Y-93.0
X176.327Y-97.955
X176.75Y-108.5
X176.858Y-99.2
X177.0Y-75.75
X177.006Y-80.033
X177.5Y-97.0
X178.75Y-75.1
X178.96Y-72.98
X179.173Y-71.046
X179.25Y-96.65
X180.0Y-102.4
X180.25Y-97.0
X180.39Y-99.612
X180.436Y-82.355
X180.75Y-75.1
X180.92Y-79.297
X181.25Y-93.25
X181.495Y-100.3
X181.99Y-78.528
X183.04Y-95.116
X184.75Y-89.15
X184.811Y-90.221
X184.824Y-81.408
X185.0Y-104.25
X185.03Y-85.971
X185.1Y-95.0
X185.1Y-96.65
X185.25Y-85.15
X185.5Y-83.25
X185.6Y-82.471
X185.643Y-100.134
X185.65Y-101.5
X185.77Y-98.6
X186.0Y-77.5
X186.25Y-97.35
X186.335Y-79.915
X186.423Y-100.315
X187.064Y-102.207
X187.25Y-75.65
X189.764Y-84.227
X190.0Y-77.0
X190.0Y-95.0
X190.5Y-89.25
X190.5Y-90.25
X190.687Y-94.15
X190.791Y-92.6
X191.0Y-72.25
X191.5Y-89.0
X192.0Y-93.5
X192.25Y-90.5
X192.25Y-107.0
X192.5Y-72.0
X192.75Y-103.0
X192.8Y-73.219
X193.0Y-92.75
X193.598Y-93.397
X193.637Y-103.572
X194.15Y-73.709
X194.25Y-77.0
X194.25Y-83.75
X195.0Y-100.0
X195.269Y-98.3
X195.5Y-119.0
X195.961Y-101.624
X197.75Y-77.75
X198.25Y-81.5
X198.25Y-102.25
X199.0Y-77.1
X199.0Y-108.5
X199.854Y-95.8
X200.245Y-74.15
X200.25Y-84.5
X200.625Y-100.9
X200.813Y-103.572
X201.25Y-79.0
X201.25Y-81.0
X201.581Y-98.368
X201.687Y-96.479
X202.25Y-88.75
X202.317Y-92.609
X202.325Y-116.925
X202.412Y-95.271
X202.446Y-94.431
X202.5Y-109.75
X202.75Y-84.0
X203.0Y-97.25
X203.39Y-104.69
X203.5Y-78.75
X203.75Y-80.5
X203.75Y-106.4
X204.0Y-113.0
X204.372Y-110.947
X204.538Y-98.097
X205.3Y-82.176
X206.0Y-124.75
X206.633Y-113.82
X207.0Y-98.4
X207.75Y-120.25
X207.937Y-103.55
X207.975Y-114.75
X208.15Y-117.541
X208.361Y-105.501
X208.5Y-110.5
X208.656Y-104.67
X208.73Y-106.266
X209.24Y-109.86
X209.492Y-96.931
X210.75Y-93.25
X210.929Y-98.99
X213.279Y-100.25
X213.5Y-95.25
X214.5Y-98.0
X214.5Y-101.25
X215.75Y-97.0
X215.75Y-108.75
X216.25Y-100.75
X216.384Y-109.878
X217.25Y-107.75
X217.5Y-92.5
X219.25Y-98.5
X221.75Y-83.5
X222.0Y-99.0
X222.469Y-96.584
X223.25Y-95.0
X224.25Y-90.5
X225.5Y-91.5
T2
X100.591Y-92.606
X100.847Y-91.649
X101.291Y-93.818
X101.547Y-92.862
X101.803Y-91.906
X102.059Y-90.949
X102.247Y-94.074
X102.503Y-93.118
X102.759Y-92.162
X103.016Y-91.206
X103.459Y-93.374
X103.716Y-92.418
T3
X204.425Y-118.4
T5
X161.566Y-73.723
X161.566Y-77.787
X164.086Y-73.723
X164.106Y-77.787
T6
X120.175Y-99.55
T4
G00X107.957Y-108.495
M15
G01X108.422Y-109.492
M16
G05
G00X109.795Y-112.437
M15
G01X110.133Y-113.163
M16
G05
G00X115.787Y-104.844
M15
G01X116.252Y-105.841
M16
G05
G00X117.626Y-108.786
M15
G01X117.964Y-109.511
M16
G05
M30
