0
SECTION
2
HEADER
9
$INSUNITS
70
4
9
$ACADVER
1
AC1014
9
$HANDSEED
5
FFFF
0
ENDSEC
0
SECTION
2
TABLES
0
TABLE
2
VPORT
5
8
100
AcDbSymbolTable
0
ENDTAB
0
TABLE
2
LTYPE
5
5
100
AcDbSymbolTable
0
LTYPE
5
14
100
AcDbSymbolTableRecord
100
AcDbLinetypeTableRecord
2
BYBLOCK
70
0
0
LTYPE
5
15
100
AcDbSymbolTableRecord
100
AcDbLinetypeTableRecord
2
BYLAYER
70
0
0
LTYPE
5
16
100
AcDbSymbolTableRecord
100
AcDbLinetypeTableRecord
2
DASHED
70
0
3
Dashed __ __ __ __ __ __ __ __ __ __ __ __ __ _
72
65
73
2
40
0.75
49
0.5
74
0
49
-0.25
74
0
0
ENDTAB
0
TABLE
2
LAYER
5
2
100
AcDbSymbolTable
70
2
0
LAYER
5
50
100
AcDbSymbolTableRecord
100
AcDbLayerTableRecord
2
0
70
0
62
7
6
CONTINUOUS
0
ENDTAB
0
TABLE
2
STYLE
5
3
100
AcDbSymbolTable
70
1
0
STYLE
5
11
100
AcDbSymbolTableRecord
100
AcDbTextStyleTableRecord
2
STANDARD
70
0
0
ENDTAB
0
TABLE
2
VIEW
5
6
100
AcDbSymbolTable
70
0
0
ENDTAB
0
TABLE
2
UCS
5
7
100
AcDbSymbolTable
70
0
0
ENDTAB
0
TABLE
2
APPID
5
9
100
AcDbSymbolTable
70
2
0
APPID
5
12
100
AcDbSymbolTableRecord
100
AcDbRegAppTableRecord
2
ACAD
70
0
0
ENDTAB
0
TABLE
2
DIMSTYLE
5
A
100
AcDbSymbolTable
70
1
0
ENDTAB
0
TABLE
2
BLOCK_RECORD
5
1
100
AcDbSymbolTable
70
1
0
BLOCK_RECORD
5
1F
100
AcDbSymbolTableRecord
100
AcDbBlockTableRecord
2
*MODEL_SPACE
0
BLOCK_RECORD
5
1B
100
AcDbSymbolTableRecord
100
AcDbBlockTableRecord
2
*PAPER_SPACE
0
ENDTAB
0
ENDSEC
0
SECTION
2
BLOCKS
0
BLOCK
5
20
100
AcDbEntity
100
AcDbBlockBegin
2
*MODEL_SPACE
0
ENDBLK
5
21
100
AcDbEntity
100
AcDbBlockEnd
0
BLOCK
5
1C
100
AcDbEntity
100
AcDbBlockBegin
2
*PAPER_SPACE
0
ENDBLK
5
1D
100
AcDbEntity
100
AcDbBlockEnd
0
ENDSEC
0
SECTION
2
ENTITIES
0
LWPOLYLINE
5
100
100
AcDbEntity
8
0
100
AcDbPolyline
90
11
70
1
43
0.0
10
-4.6870494127835709
20
-142.85894784674403
10
-4.68704941278357
20
-138.48857188652292
42
-2.4142135623731189
10
-4.1870494127835629
20
-137.98857188652295
10
4.1335462820114364
20
-137.98857188652295
42
-2.4142135623730767
10
4.633546282011431
20
-138.48857188652292
10
4.6335462820114302
20
-142.86069319770593
42
0.13450477882510239
10
76.799357798576835
20
-120.55084426831192
10
68.166362883592512
20
-106.99975666293221
10
0.22897454631304548
20
-106.99975666293221
10
-68.261970486870368
20
-107.14983053886019
10
-76.799357798576949
20
-120.55084426831181
42
0.13440945741507798
0
LWPOLYLINE
5
101
100
AcDbEntity
8
0
100
AcDbPolyline
90
5
70
1
43
0.0
10
-66.521368122576533
20
-110.37002574974687
10
-66.86999109356718
20
-114.35480454211387
10
-66.094441149990402
20
-115.27906897360772
10
-62.109662357623421
20
-115.62769194459838
10
-61.686682142674236
20
-110.79300596469608
0
CIRCLE
5
102
100
AcDbEntity
8
0
100
AcDbCircle
10
-64.315515240099984
20
-112.99885884717263
30
0
40
2
210
0
220
0
230
1
0
LWPOLYLINE
5
103
100
AcDbEntity
8
0
100
AcDbPolyline
90
5
70
1
43
0.0
10
-43.888737998561368
20
-129.2816794841313
10
-45.124805976061197
20
-133.08590554931189
10
-44.577047585651201
20
-134.16094192080919
10
-40.772821520470586
20
-135.39700989830902
10
-39.273114552427124
20
-130.78138645217476
0
CIRCLE
5
104
100
AcDbEntity
8
0
100
AcDbCircle
10
-42.330779759515984
20
-132.33934469122016
30
0
40
2.0000000000000004
210
0
220
0
230
1
0
LWPOLYLINE
5
105
100
AcDbEntity
8
0
100
AcDbPolyline
90
4
70
1
43
0.0
10
-30.678908521379327
20
-133.4513694206853
10
-36.655004989167196
20
-131.80022708651376
10
-37.587101468134989
20
-135.17382993123272
10
-31.611005000347127
20
-136.82497226540426
0
LWPOLYLINE
5
106
100
AcDbEntity
8
0
100
AcDbPolyline
90
10
70
1
43
0.0
10
-37.873071666897303
20
-135.08236930899645
42
0.41421356237309614
10
-37.65542881372177
20
-135.46619164870796
10
-31.7024656225834
20
-137.11094246416656
42
0.41421356237309909
10
-31.318643282871893
20
-136.89329961099102
10
-30.055927242319171
20
-132.32306195576638
10
-30.34509320043794
20
-132.24316797185486
10
-31.611005000347127
20
-136.82497226540426
10
-37.587101468134989
20
-135.17382993123272
10
-36.321189668225806
20
-130.59202563768332
10
-36.610355626344578
20
-130.5121316537718
0
LINE
5
107
100
AcDbEntity
8
0
100
AcDbLine
10
-36.165368840717711
20
-135.56664201879772
30
0
11
-33.032737627764391
21
-136.43216017783925
31
0
0
LINE
5
108
100
AcDbEntity
8
0
100
AcDbLine
10
-37.659088513844871
20
-140.97296749280326
30
0
11
-34.526457300891551
21
-141.83848565184479
31
0
0
LWPOLYLINE
5
109
100
AcDbEntity
8
0
100
AcDbPolyline
90
4
70
1
43
0.0
10
4.1335462820114532
20
-138.48857188652295
10
-4.1870494127835478
20
-138.48857188652295
10
-4.1870494127835487
20
-144.38857188652295
10
4.1335462820114524
20
-144.38857188652295
0
LWPOLYLINE
5
110
100
AcDbEntity
8
0
100
AcDbPolyline
90
4
70
1
43
0.0
10
2.4129505872164527
20
-134.85142023805605
10
2.0129505872164524
20
-134.85142023805605
10
2.0129505872164524
20
-138.48857188652295
10
2.4129505872164527
20
-138.48857188652295
0
LWPOLYLINE
5
111
100
AcDbEntity
8
0
100
AcDbPolyline
90
4
70
1
43
0.0
10
-1.68704941278355
20
-134.85142023805605
10
-2.0870494127835504
20
-134.85142023805605
10
-2.0870494127835504
20
-138.48857188652295
10
-1.68704941278355
20
-138.48857188652295
0
LWPOLYLINE
5
112
100
AcDbEntity
8
0
100
AcDbPolyline
90
5
70
1
43
0.0
10
7.0861277015328659
20
-136.02128882117904
10
7.134995704873818
20
-140.02099029982085
10
7.9985087080459145
20
-140.86365734418615
10
11.998210186687723
20
-140.81478934084518
10
11.938919203943364
20
-135.96199783843468
0
CIRCLE
5
113
100
AcDbEntity
8
0
100
AcDbCircle
10
9.5421689441102941
20
-138.4180390810121
30
0
40
2
210
0
220
0
230
1
0
LWPOLYLINE
5
114
100
AcDbEntity
8
0
100
AcDbPolyline
90
5
70
1
43
0.0
10
-2.250935865203997
20
-125.07245434564331
10
-2.2509358652040272
20
-129.07245434564328
10
-1.3977821702854056
20
-129.92560804056194
10
2.6022178297145935
20
-129.92560804056197
10
2.6022178297146303
20
-125.07245434564334
0
CIRCLE
5
115
100
AcDbEntity
8
0
100
AcDbCircle
10
0.17564098225529839
20
-127.49903119310262
30
0
40
2
210
0
220
0
230
1
0
LWPOLYLINE
5
116
100
AcDbEntity
8
0
100
AcDbPolyline
90
5
70
1
43
0.0
10
38.20137555120067
20
-131.0748979756998
10
39.370862370091579
20
-134.90011699955193
10
40.436175306283559
20
-135.46655393539621
10
44.261394330135708
20
-134.2970671165053
10
42.842469511070938
20
-129.65597315663501
0
CIRCLE
5
117
100
AcDbEntity
8
0
100
AcDbCircle
10
41.231384940668185
20
-132.68598254610254
30
0
40
2
210
0
220
0
230
1
0
LWPOLYLINE
5
118
100
AcDbEntity
8
0
100
AcDbPolyline
90
10
70
1
43
0.0
10
31.225651971150093
20
-136.76726441092379
42
0.41421356237309509
10
31.606047380807986
20
-136.99084288106616
10
37.58384013985679
20
-135.43875727457927
42
0.41421356237307699
10
37.807418609999168
20
-135.05836186492138
10
36.615843951271586
20
-130.46906193388827
10
36.325471893675299
20
-130.54445469327072
10
37.520062262778183
20
-135.14536950660769
10
31.519039739121677
20
-136.70348653384517
10
30.324449370018801
20
-132.10257172050819
10
30.034077312422518
20
-132.17796447989065
0
LWPOLYLINE
5
119
100
AcDbEntity
8
0
100
AcDbPolyline
90
4
70
1
43
0.0
10
36.640480069982829
20
-131.75769550131773
10
30.639457546326327
20
-133.31581252855523
10
31.519039739121677
20
-136.70348653384517
10
37.520062262778183
20
-135.14536950660769
0
LINE
5
120
100
AcDbEntity
8
0
100
AcDbLine
10
32.946702355636731
20
-136.33280546688144
30
0
11
36.092399646263125
21
-135.51605057357145
31
0
0
LINE
5
121
100
AcDbEntity
8
0
100
AcDbLine
10
34.356265909578809
20
-141.76168050506075
30
0
11
37.501963200205203
21
-140.94492561175076
31
0
0
LWPOLYLINE
5
122
100
AcDbEntity
8
0
100
AcDbPolyline
90
5
70
1
43
0.0
10
61.886008224429112
20
-111.07297375419215
10
62.234631195419738
20
-115.05775254655913
10
63.158895626913598
20
-115.83330249013591
10
67.143674419280586
20
-115.48467951914529
10
66.720694204331409
20
-110.64999353924298
0
CIRCLE
5
123
100
AcDbEntity
8
0
100
AcDbCircle
10
64.514841321854846
20
-113.27882663666871
30
0
40
2
210
0
220
0
230
1
0
ENDSEC
0
SECTION
2
OBJECTS
0
DICTIONARY
5
C
100
AcDbDictionary
3
ACAD_GROUP
350
D
3
ACAD_MLINESTYLE
350
17
0
DICTIONARY
5
D
100
AcDbDictionary
0
DICTIONARY
5
1A
330
C
100
AcDbDictionary
0
DICTIONARY
5
17
100
AcDbDictionary
0
ENDSEC
0
EOF
